<svg width="11" height="7" viewBox="0 0 11 7" fill="none" xmlns="http://www.w3.org/2000/svg">
<path d="M5.2365 2.164L1.43582 5.96468L5.2365 2.164ZM5.2365 2.164L9.03728 5.96477C9.17099 6.0985 9.34701 6.16559 9.52213 6.1656L5.2365 2.164ZM0.465952 5.96478C0.733751 6.23258 1.16814 6.23275 1.43573 5.96478L9.52216 6.1656C9.69698 6.16559 9.87312 6.09908 10.0071 5.96472C10.2749 5.69683 10.2749 5.26287 10.007 4.995L5.72137 0.709361C5.45357 0.441562 5.01918 0.44139 4.75159 0.709361C4.75156 0.709393 4.75153 0.709425 4.7515 0.709458L0.465952 4.995C0.198068 5.26289 0.198068 5.69689 0.465952 5.96478Z" fill="#8284FA" stroke="#8284FA" stroke-width="0.3"/>
</svg>
