<svg width="70" height="43" viewBox="0 0 70 43" fill="none" xmlns="http://www.w3.org/2000/svg">
<path d="M56.9524 42.9022H52.5621C52.1581 42.9022 51.8303 42.5745 51.8303 42.1705C51.8303 41.7665 52.158 41.4387 52.5621 41.4387H56.9524C63.0043 41.4387 67.9283 36.5147 67.9283 30.4628C67.9283 24.4109 63.0043 19.4868 56.9524 19.4868H56.8468C56.6346 19.4868 56.4329 19.3949 56.2938 19.2344C56.1548 19.0739 56.0921 18.8612 56.1224 18.6511C56.1877 18.1953 56.2207 17.7375 56.2207 17.2917C56.2207 12.0467 51.953 7.77912 46.7081 7.77912C44.6676 7.77912 42.7217 8.41677 41.0805 9.62359C40.7199 9.88858 40.2077 9.77098 39.9991 9.37427C35.3511 0.523505 23.2109 -0.665062 16.9169 7.03433C14.2654 10.278 13.2236 14.4974 14.0584 18.6099C14.1504 19.064 13.8029 19.4874 13.3413 19.4874H13.0481C6.99624 19.4874 2.07217 24.4115 2.07217 30.4634C2.07217 36.5152 6.99624 41.4393 13.0481 41.4393H17.4385C17.8425 41.4393 18.1702 41.767 18.1702 42.171C18.1702 42.5751 17.8425 42.9028 17.4385 42.9028H13.0481C6.18914 42.9028 0.608643 37.3223 0.608643 30.4633C0.608643 23.7967 5.88019 18.338 12.4737 18.0369C11.8544 13.7704 13.0387 9.46676 15.7837 6.10818C22.5224 -2.13579 35.4366 -1.21175 40.8958 7.98088C42.6373 6.88902 44.6302 6.31624 46.7079 6.31624C53.0624 6.31624 58.0978 11.7248 57.6572 18.0438C64.19 18.4102 69.3916 23.8401 69.3916 30.4628C69.3916 37.3223 63.811 42.9023 56.9521 42.9023L56.9524 42.9022Z" fill="#8284FA"/>
</svg>
