<svg width="70" height="43" viewBox="0 0 100 100" fill="none" xmlns="http://www.w3.org/2000/svg">
<path d="M46.6208 20.1844C46.8389 20.6202 46.377 21.24 46.4316 22.2085C46.4862 23.177 46.7361 26.2042 46.9373 28.2628C47.1386 30.3215 45.5848 33.3712 41.8768 37.885C38.1688 42.3988 27.9686 54.3524 26.3847 56.5714C24.8008 58.7903 23.9568 59.2121 22.6381 59.8721C21.3193 60.5321 20.4718 60.933 20.1653 60.8217C19.8588 60.7108 19.6977 60.363 19.7097 59.9115C19.7222 59.46 20.234 57.7363 20.6593 57.5234C20.9429 57.3816 21.2816 57.2121 21.6756 57.0149C23.6082 52.7858 24.7241 50.3375 25.0233 49.6691C25.472 48.6669 26.9957 45.7948 28.226 44.0377C29.4564 42.2811 31.7417 39.3829 32.3117 38.5257C32.8817 37.6685 33.7437 35.3849 34.1189 34.3059C34.4941 33.227 37.7008 29.4703 38.2571 28.0174C38.8135 26.5645 42.6525 21.7904 43.1409 20.6761C43.6294 19.5622 43.6985 19.1307 44.299 18.8303C44.8995 18.5298 45.4073 18.5467 45.7318 18.8018C46.0568 19.0576 46.4027 19.7485 46.6208 20.1844Z" fill="#F4F4F4"/>
<path d="M28.6783 48.0716C29.3652 48.3849 28.0834 51.3076 27.3957 51.2068C26.7811 51.1164 25.8669 50.7083 25.098 49.5108L25.4234 48.842C25.6512 48.3925 25.938 47.8486 26.2565 47.2722L26.8 46.3146C27.0338 46.9388 28.1164 47.8157 28.6783 48.0716ZM30.8788 40.5386L32.3016 40.7374C33.4697 40.9138 34.5704 41.1821 34.5575 41.8887C34.5394 42.8785 32.8049 43.0564 31.9589 42.768L31.1451 42.4788C30.6478 42.3169 30.2883 42.2791 30.353 42.7407C30.4498 43.4328 31.5504 45.2669 31.0535 45.6373C30.5627 46.0028 29.885 43.5292 28.8735 43.1295L30.8334 40.5274L30.8788 40.5386ZM38.2748 32.1689C38.3603 32.988 37.1942 38.5257 36.1864 38.5587C35.1781 38.592 34.5796 37.4098 34.0136 36.2176C33.8975 35.9729 33.7393 35.8504 33.5569 35.8215L34.006 34.6269C34.0474 34.5116 34.0851 34.4039 34.1193 34.3063C34.2257 33.9998 34.5607 33.4776 34.9986 32.853L35.5842 32.6076C36.8026 32.1119 38.2193 31.6403 38.2748 32.1689ZM39.1882 26.4118L39.7976 26.4604C40.9854 26.5797 41.7583 26.7959 42.1162 27.1092C42.8063 27.7129 41.4715 29.4764 40.4945 28.9063C39.7233 28.4565 39.0749 28.1126 38.0534 28.4428L38.1703 28.2195L38.2575 28.0182C38.3965 27.6543 38.7415 27.0823 39.1882 26.4118Z" fill="#D0CFCD"/>
<path d="M44.299 18.8307C44.8995 18.5302 45.4073 18.5471 45.7319 18.8022C46.0568 19.0577 46.4027 19.7482 46.6208 20.184C46.8389 20.6198 46.377 21.2397 46.4316 22.2081L46.5838 24.272C46.6859 25.5313 46.8196 27.0618 46.9373 28.2625C47.1285 30.2179 45.7359 33.0683 42.4171 37.2186L39.7968 40.3892C35.2758 45.7976 27.7287 54.6887 26.3847 56.571C24.9225 58.6188 24.091 59.1362 22.9345 59.7227L21.8295 60.2706C20.9695 60.6848 20.4035 60.9077 20.1653 60.8217C19.8588 60.7109 19.6977 60.363 19.7097 59.9115C19.7222 59.46 20.234 57.7363 20.6593 57.5234L21.476 57.1197C21.6841 57.1719 21.85 57.2045 21.9182 57.1703C22.1195 57.0695 22.4786 56.5276 22.7931 55.9191L22.9458 55.611C23.2671 54.9325 25.1342 51.9017 26.7619 49.5815L28.5976 47.0127C29.5083 45.7498 30.2642 44.75 31.1186 43.8241C32.4 42.435 33.9008 40.9544 34.6017 39.9903L35.0119 39.4002C35.6574 38.4386 36.3848 37.2198 36.474 36.9254C36.5829 36.5655 36.3158 35.2158 37.1087 34.1666C37.9016 33.1173 42.3464 31.1253 42.4898 29.6845C42.6332 28.244 44.0018 22.5857 44.064 21.9864C44.1174 21.473 43.7491 21.1798 43.4093 20.6399L43.2634 20.3857L43.5639 19.6819C43.7559 19.2577 43.9238 19.0187 44.299 18.8307Z" fill="#4F4F4F"/>
<path d="M44.1741 18.8998L44.3521 18.8094C45.0173 19.4204 45.4029 19.8438 45.509 20.0791C45.6942 20.4897 45.6371 21.7988 45.6628 24.0206C45.6781 25.3168 45.8456 26.9071 46.1661 28.7919L46.3128 29.6178L45.9356 29.8066L45.6395 28.207C45.5106 27.4643 45.4106 26.8071 45.3386 26.2351C45.1599 24.8059 45.3487 20.7845 45.2788 20.194C45.2242 19.7333 44.5473 19.3979 44.0629 18.9741L44.1741 18.8998Z" fill="#1D1D1D"/>
<path d="M4.12407 80.0637C4.45065 78.5453 6.14821 77.1948 8.4949 74.3126C10.842 71.4305 19.1422 62.6229 19.8452 61.74C20.5481 60.8567 36.8231 41.3135 38.27 39.1688C39.7169 37.0242 44.8333 27.4277 53.955 30.7558C63.0766 34.0838 65.3791 34.3075 66.6561 36.8591C67.9331 39.4107 68.7911 44.3925 64.0274 48.0455C59.2637 51.6989 39.9981 63.3962 34.082 67.7068C28.1658 72.0173 17.6443 83.2278 11.9234 83.7227C6.20244 84.2176 3.79709 81.5821 4.12407 80.0637Z" fill="#DCDCDC"/>
<path d="M28.7588 60.4988C30.2418 60.8093 23.323 68.9074 21.7207 70.5596C20.1183 72.2117 16.0789 74.3998 14.2697 74.8525C12.7798 75.2256 7.63891 79.2767 4.09678 80.3962C4.09236 80.2781 4.1016 80.1681 4.1241 80.0636C4.42737 78.6537 5.91244 77.3888 8.00245 74.9075L8.49532 74.3126C10.4331 71.933 16.4288 65.5147 18.8566 62.8515L21.7629 61.9971C25.7529 60.8579 28.0847 60.3578 28.7588 60.4988Z" fill="#EBEBEB"/>
<path d="M49.8593 30.8181C50.6811 33.423 52.6024 37.7272 49.3403 41.2653C44.8851 46.0973 43.1317 45.0231 40.5577 45.6104C37.9836 46.1977 37.9246 50.9204 38.3817 53.1426C38.8388 55.3643 36.2728 56.6108 34.0249 56.1055C31.8747 55.6222 31.3412 50.9393 32.5921 47.8153L33.2175 46.4118C33.4469 45.8836 33.718 45.2445 34.0237 44.5226L36.9055 40.954L38.0322 39.5011L38.2704 39.1689C39.167 37.8393 43.0301 35.0555 49.8593 30.8181Z" fill="#D0D0D0"/>
<path d="M48.6755 35.5255C49.2334 37.309 48.4822 40.8122 46.5148 42.6286C45.2028 43.8398 43.809 44.5375 42.3331 44.7215C42.6669 41.6722 43.149 39.6509 43.778 38.6571C44.722 37.1664 48.1175 33.742 48.6755 35.5255Z" fill="#D8D8D8"/>
<path d="M68.1107 9.29652C68.5288 8.2943 70.0263 7.58531 71.2049 8.27381C72.3835 8.96231 73.213 11.773 73.9513 13.3058C74.6896 14.8387 76.0786 17.6485 77.2697 18.9267L77.7123 19.4244C79.4179 21.3963 83.8 26.8859 85.071 29.1261C86.0073 30.7767 87.1224 33.0133 88.4159 35.836L86.8726 36.9744C80.3888 41.7208 76.5571 44.0446 75.3765 43.9454C73.4697 43.7851 70.9655 30.3637 68.2496 30.8373C65.6844 31.2848 60.8862 31.0193 55.3376 29.8761L54.351 29.6652C48.3879 28.3444 45.1571 28.9172 43.6652 29.1567C42.1729 29.3961 37.8362 35.1688 37.3413 35.2391C36.8465 35.3094 36.4042 34.9471 36.2033 34.6133C36.0025 34.2794 36.413 34.0742 36.9324 33.4596C37.4522 32.845 38.2909 30.4557 38.9698 29.4547C39.6487 28.4537 41.0301 27.0205 43.6572 25.8033C46.2842 24.5862 50.817 25.6226 56.3206 26.8558C61.8242 28.089 65.9652 27.6708 67.9914 26.2147C69.905 24.8393 69.4254 21.5257 68.5348 19.365L68.3738 18.9962C67.3868 16.8632 67.4097 15.489 68.046 14.9034C68.6827 14.3177 69.8665 14.7009 70.2416 14.7644L70.6349 14.8383C70.8064 14.8636 70.9462 14.8556 71.0792 14.7427C71.3005 14.5547 70.7237 14.2273 69.335 12.9523C67.9472 11.6774 67.6925 10.2987 68.1107 9.29652ZM68.6397 9.81631C68.3147 11.0555 70.3095 12.5289 70.9205 13.1251L72.3204 14.476C72.8426 14.9962 73.315 15.5043 73.421 15.7537C73.6331 16.2522 74.4152 17.0428 74.5153 16.9464C74.6149 16.85 73.5339 14.5792 73.1314 13.6332C72.7289 12.6872 72.0268 10.3626 71.2358 9.39654C70.4445 8.43047 68.9647 8.57749 68.6397 9.81631Z" fill="#434343"/>
<path d="M43.2429 27.7905C45.1285 26.8943 46.9988 26.5127 48.8542 26.6461C51.6371 26.8457 52.9527 27.4024 56.1409 28.1231C59.3291 28.8441 64.0555 29.0438 66.4339 28.35C68.0194 27.8873 69.6036 26.7513 71.1859 24.9425C71.7696 27.0526 70.4436 28.5469 67.2079 29.4254C62.3543 30.7429 53.1985 30.1303 50.2818 28.9124C48.3372 28.1002 45.9909 27.7262 43.2429 27.7905Z" fill="#EEEEEE"/>
<path d="M43.6953 27.77C46.3677 26.8107 49.7917 26.9618 51.691 27.5422C53.5902 28.1223 58.1695 29.2048 60.9327 29.2482C63.696 29.2916 65.8278 29.1052 66.2841 28.8767C66.7404 28.6485 72.7554 36.6812 72.5148 41.3267C72.2741 45.9723 65.4666 51.8081 59.9944 54.5465C54.5225 57.2848 44.6902 61.7838 39.4409 67.2862L38.8605 67.8976C33.8546 73.1943 29.5388 78.3396 28.6932 76.6505C27.8151 74.8963 32.4956 59.8818 32.0192 58.9302C31.5601 58.0127 28.2437 59.4495 26.7048 60.2051L20.9381 63.0901C19.21 63.9549 21.008 62.0112 24.8333 58.4887C28.6582 54.9663 34.0598 45.361 34.9307 42.6809C35.8016 40.0012 36.7186 35.46 37.7916 33.5475C38.8649 31.6363 41.0228 28.7292 43.6953 27.77ZM61.6068 38.0582C61.2509 38.0851 59.3444 40.5085 56.5968 43.8474C53.8493 47.1867 52.2124 48.9702 52.404 49.2497C52.5956 49.5297 56.68 47.7394 59.4324 46.0049C62.1848 44.2704 64.2881 41.7542 64.0001 40.3796C63.712 39.005 61.9627 38.0309 61.6068 38.0582ZM35.9502 50.9276C35.2087 51.2791 34.6776 51.8925 34.3563 52.7682C33.8746 54.0813 34.9198 54.0584 35.6682 54.0777C36.1671 54.0906 36.7046 53.9311 37.281 53.5993L35.9502 50.9276ZM47.7033 37.5219L47.3149 37.7328C44.9951 39.0499 44.8007 41.1665 44.5697 42.8636C44.3388 44.5608 41.586 46.3885 41.7599 46.7359C41.9338 47.0834 43.4884 46.8002 44.5147 46.3041C45.5414 45.8076 47.8777 43.81 49.0707 42.705C50.2637 41.5999 55.7991 36.8495 55.8754 36.5534C55.9517 36.257 54.9254 36.0288 53.55 36.0308C52.1746 36.0328 49.6347 36.4156 47.3149 37.7328L47.7033 37.5219Z" fill="#8E8C89"/>
<path d="M43.7327 27.4876C46.4051 26.5283 49.8292 26.6794 51.7284 27.2598C53.6276 27.8399 58.2069 28.9224 60.9702 28.9658C63.7334 29.0092 65.8652 28.8228 66.3215 28.5943C66.7778 28.3661 72.7928 36.3988 72.5522 41.0443C72.3116 45.6899 65.5041 51.5257 60.0318 54.2641C54.5595 57.0024 44.7277 61.5014 39.4783 67.0038C34.229 72.5062 29.7919 78.199 28.9142 76.4448C28.0361 74.6906 32.7166 59.6761 32.2402 58.7245C31.7811 57.807 28.2944 59.1724 26.7431 59.9231L20.9759 62.8081C19.2479 63.6729 21.0458 61.7291 24.8712 58.2067C28.6961 54.6842 34.0977 45.0789 34.9685 42.3988C35.8394 39.7192 36.7565 35.178 37.8294 33.2655C38.9023 31.3539 41.0602 28.4468 43.7327 27.4876ZM61.5763 37.6605C61.2204 37.6874 59.2618 40.1751 56.5142 43.5143C53.7666 46.8536 51.7127 49.1421 51.918 49.5518C52.1229 49.9615 56.6343 48.0129 59.6405 46.1993C62.6468 44.386 64.642 41.859 64.246 40.2896C63.8491 38.7201 61.9322 37.6336 61.5763 37.6605ZM35.9876 50.6452C35.1678 51.02 34.5733 51.7326 34.2045 52.7838C33.6514 54.3605 34.9914 54.207 35.8486 54.2183C36.4198 54.2259 36.9714 54.0435 37.5024 53.6716L35.9876 50.6452ZM53.5874 35.7488C52.212 35.7508 49.4853 36.2758 47.1656 37.593C44.8458 38.9101 44.6084 41.1114 44.3774 42.8086C44.1464 44.5057 41.2446 46.4857 41.4185 46.8331C41.5925 47.1806 43.0357 47.2718 44.4935 46.5423C45.9512 45.8128 48.0159 44.0394 49.209 42.9343C50.402 41.8292 56.2033 36.89 56.3017 36.4791C56.4001 36.0682 54.9624 35.7468 53.5874 35.7488Z" fill="#ECE9EB"/>
<path d="M43.7326 27.4876C46.2143 26.597 49.3439 26.6637 51.2989 27.1421L52.6932 27.5346C54.8989 28.1279 58.6013 28.9285 60.9701 28.9658C63.7333 29.0092 65.8651 28.8228 66.3215 28.5943C66.7778 28.3661 72.7927 36.3988 72.5521 41.0444C72.4593 42.8323 71.3941 44.7966 69.8066 46.6926C68.3404 46.2796 67.0911 44.7656 66.5042 42.2261L66.3885 41.6662C65.4064 36.2879 61.5124 35.7038 54.4422 33.2113C50.4871 31.8171 44.4609 33.2158 36.3635 37.4074L36.7126 36.1915C37.0669 35.0117 37.4377 33.9637 37.8293 33.2656C38.9022 31.3539 41.0601 28.4468 43.7326 27.4876Z" fill="#D4CED3"/>
<path d="M43.7326 27.4876C45.4655 26.8658 47.5141 26.7107 49.2583 26.8365C51.5093 27.7278 53.2117 29.0377 54.9872 29.5246C57.9517 30.3376 61.3782 32.6361 63.4722 34.3276C65.5662 36.0192 70.4629 40.1683 63.001 46.8348C54.5638 52.5971 48.6304 54.6859 45.2011 53.1016C39.9064 50.6553 37.0516 47.3152 34.4153 51.5105L34.1606 51.9403C32.3546 55.1679 30.1939 57.3977 27.6785 58.6301L29.0153 55.0876C29.6705 53.3667 30.3063 51.7218 30.9229 50.1528L31.6962 48.8677C33.3203 46.1101 34.5852 43.5811 34.9692 42.3993C35.4749 40.8423 35.9967 38.6567 36.5555 36.7237L37.4661 34.7872C38.2044 33.2515 38.8917 31.9123 39.5284 30.7694C40.6467 29.3981 42.0928 28.0761 43.7326 27.4876ZM55.7119 44.4841C53.378 47.2927 51.7327 49.1831 51.9175 49.5518C52.1223 49.9616 56.6337 48.0129 59.64 46.1993C62.6463 44.386 64.6415 41.859 64.2454 40.2896C63.849 38.7198 61.9321 37.6332 61.5762 37.6605C61.4075 37.6733 60.8792 38.2381 60.0779 39.1841L55.7119 44.4841ZM47.7073 37.303L47.1654 37.593C44.8456 38.9102 44.6082 41.1114 44.3773 42.8086C44.1463 44.5058 41.2445 46.4857 41.4184 46.8332C41.5923 47.1806 43.0356 47.2718 44.4934 46.5423C45.7687 45.904 47.5093 44.4664 48.7236 43.377L49.8881 42.325C51.8183 40.6182 56.216 36.8366 56.3019 36.4791C56.4008 36.0678 54.9623 35.7468 53.5873 35.7488C52.4236 35.7504 50.2922 36.1268 48.2588 37.0403L47.7073 37.303Z" fill="#D9D5D8"/>
<path d="M38.5785 44.129L38.7906 44.5363L39.1509 45.142C39.5791 45.8044 40.2186 46.6014 41.1264 47.2252C40.5584 47.7338 39.831 48.0881 39.0862 48.3544C38.3053 48.6336 37.4859 48.7147 36.7793 48.5789C36.8311 46.836 37.1264 44.7074 37.4461 44.2816C37.9358 43.6281 38.2495 43.4714 38.5785 44.129Z" fill="#3700C3"/>
<path d="M63.8113 30.8385L57.896 36.4285C53.0347 40.9889 49.7324 43.9795 47.9886 45.4003C45.4146 47.498 43.8833 47.8547 42.9048 47.7651C44.571 47.6502 46.6333 46.2555 48.267 44.8721L49.0788 44.1619L53.0488 40.5587C57.3252 36.6402 62.8252 31.531 63.392 30.9731C63.5454 30.822 63.686 30.7887 63.8113 30.8385Z" fill="#DACEF6"/>
<path d="M21.8348 61.9798C22.8294 61.8963 23.6283 61.7043 24.2313 61.4038C25.1355 60.9531 29.4738 58.5261 29.9683 57.9356C30.4632 57.3447 32.9444 53.3707 33.4755 52.0564C34.0065 50.7416 34.3078 49.7808 35.314 49.2996C36.3202 48.8183 39.3241 47.0959 40.681 47.3425C42.038 47.5891 42.1263 44.9388 42.2505 44.2816C42.3746 43.6244 43.0643 40.5185 43.3965 39.82C43.7287 39.1214 44.5586 37.3946 45.7082 36.97C46.8579 36.5454 48.9836 36.2052 50.5872 35.9971C52.1908 35.789 53.6859 36.1353 53.9265 34.8579C54.1671 33.5805 53.8449 32.2035 52.2904 31.3306C50.7354 30.4581 45.9476 32.6192 42.816 35.2379C39.6844 37.8565 33.6048 47.7928 31.1167 51.0509C28.6286 54.3091 24.8852 59.7978 22.9214 60.6876C21.6122 61.2809 21.2503 61.7115 21.8348 61.9798Z" fill="#B8B4B9"/>
<path d="M43.8693 35.3431L45.4985 34.6852C48.4646 33.4423 52.3775 31.6568 52.6025 32.1356C52.872 32.7104 52.5888 34.1079 50.2248 34.9547L48.692 35.4813C46.8309 36.1023 45.1197 36.633 44.7032 37.0085C44.226 37.4388 43.4884 39.3203 43.1486 40.3482L43.051 40.6559C42.7807 41.5553 41.4169 44.9782 39.49 46.1611L38.3673 46.8577C36.9228 47.7655 35.7185 48.5745 35.1344 49.1112C34.4853 49.7077 33.8068 50.9063 33.5485 51.5635L33.4722 51.7824C33.3079 52.3496 30.4021 57.2788 29.8666 57.8231L29.5903 58.0673C29.2227 58.3702 28.6053 58.833 27.9517 59.3082L27.0652 59.832C25.8658 60.5297 24.6619 61.1893 24.2321 61.4034C23.6291 61.7039 22.8306 61.8959 21.8356 61.9794C21.2507 61.7111 21.613 61.2805 22.9221 60.6872C24.7876 59.8416 28.2594 54.8462 30.7351 51.5551L31.1175 51.0506C32.6375 49.0598 35.4984 44.5765 38.2086 40.7921L39.6234 39.2363C41.5804 37.121 43.1358 35.6219 43.8693 35.3431Z" fill="#827E83"/>
<path d="M19.6431 60.737C18.8148 62.2437 18.5754 63.0017 18.9248 63.0106C19.4494 63.0242 22.9643 61.6914 25.4905 60.3707C28.0168 59.0503 29.1037 58.2742 29.5368 57.6998C29.9698 57.125 32.7403 53.1795 33.3565 51.239C33.9727 49.2984 35.0974 48.6685 36.1679 48.1636C37.2384 47.6587 41.0236 46.2194 41.9302 43.4855C42.8368 40.7515 43.5816 37.3175 44.5159 36.7334C45.4503 36.1493 49.701 34.9483 50.8607 34.598C52.02 34.2477 54.7314 33.3628 52.7414 31.0209C50.7514 28.6786 47.0711 27.5153 44.4749 27.8435C41.8788 28.1717 39.6968 30.1613 39.0236 31.0759C38.3503 31.9906 36.999 34.2192 36.8146 36.1851C36.6303 38.151 35.8438 40.1241 35.3099 40.8721C34.7761 41.62 33.6425 42.8681 32.5438 43.765C31.4452 44.6616 28.9194 46.6243 28.0561 49.1208C27.1929 51.6173 26.4044 53.6218 25.7247 54.7305C25.045 55.8391 23.2752 57.5556 22.15 58.7679C21.4005 59.5757 20.5649 60.2321 19.6431 60.737Z" fill="#EDEBF0"/>
<path d="M53.1121 32.1834C52.8683 30.9526 49.8383 28.0921 45.3739 28.0476C40.9099 28.003 37.4525 32.7201 37.6124 35.2704C37.7719 37.8208 39.189 37.4255 40.987 37.8445C42.785 38.2634 43.2048 37.2451 44.1266 36.604C45.0485 35.9625 47.7833 34.9864 49.8387 34.4092C51.8942 33.8315 53.356 33.4142 53.1121 32.1834Z" fill="#DBD9DE"/>
<path d="M27.998 55.8207C27.9698 56.2915 26.9588 56.3336 26.3847 56.5714C25.8107 56.8088 24.9603 57.456 24.7314 57.3989C24.6052 57.3676 24.0103 57.5448 22.9467 57.9316L23.7424 57.0981C24.5442 56.2501 25.3247 55.3844 25.7256 54.7305C26.0272 54.2388 26.3498 53.5704 26.6912 52.761C26.9929 53.9026 28.0192 55.4608 27.998 55.8207ZM31.4023 47.218C32.0069 47.6992 32.3905 48.5561 32.227 48.8654C32.0631 49.1751 29.896 49.8065 29.0291 49.2731L28.1948 48.7633C28.6567 47.6462 29.4392 46.6444 30.2426 45.8109C30.5282 46.4102 31.0705 46.9537 31.4023 47.218ZM38.6818 41.8719C38.7557 42.2551 38.6541 42.5684 38.3761 42.8123C38.3102 42.9834 37.8467 43.0553 36.9859 43.0276C36.1294 43.0002 35.0814 42.8476 33.8418 42.5704C34.4564 41.9462 34.9906 41.3192 35.3104 40.8717C35.4205 40.7178 35.541 40.5118 35.6651 40.2643C37.3245 40.8054 38.6304 41.6068 38.6818 41.8719Z" fill="#AFAAB4"/>
<path d="M71.2053 8.27383C72.3838 8.96234 73.2133 11.773 73.9516 13.3059C74.6899 14.8387 76.079 17.6486 77.27 18.9267L77.7127 19.4244L78.5241 20.3849C80.5318 22.8027 83.9699 27.1844 85.0717 29.1261C86.0081 30.7767 87.1232 33.0133 88.4166 35.836L87.7402 36.3325L86.9416 34.4819C85.7502 31.8075 84.7383 29.8954 83.9056 28.7457L81.6063 25.6037C79.7521 23.0915 77.5508 20.1624 76.9177 19.5209L76.4144 19.073C75.405 18.1455 73.331 16.0759 72.9655 15.8494C72.6164 15.201 72.1613 14.6218 71.0803 14.7427C71.3017 14.5547 70.7248 14.2273 69.3362 12.9524C67.9471 11.6774 67.6924 10.2984 68.111 9.29655C68.5292 8.29472 70.0263 7.58533 71.2053 8.27383ZM68.6396 9.81634C68.3147 11.0556 70.3095 12.529 70.9204 13.1251L72.3204 14.476C72.8426 14.9962 73.3149 15.5043 73.421 15.7538C73.6331 16.2523 74.4152 17.0428 74.5152 16.9464C74.6148 16.85 73.5339 14.5792 73.1314 13.6332C72.7289 12.6872 72.0267 10.3626 71.2358 9.39657C70.4444 8.43049 68.9646 8.57751 68.6396 9.81634Z" fill="#E2E2E2"/>
<path d="M70.6023 12.8338L70.9208 13.125L72.3207 14.4759C72.7557 14.9094 73.1562 15.3348 73.339 15.6087L73.4209 15.7537C73.4736 15.8774 73.5611 16.0188 73.6648 16.1606L72.9337 15.7959L72.8445 15.6368C72.5075 15.0813 72.0415 14.6354 71.0803 14.7427C71.3016 14.5547 70.7248 14.2273 69.3361 12.9523C68.8533 12.5092 68.5078 12.0533 68.2797 11.6054C68.9087 12.1264 69.9808 12.5743 70.6023 12.8338Z" fill="#AEAEAE"/>
<path d="M12.3078 75.8342C13.6703 75.9061 15.6611 76.4806 18.115 74.9417C20.569 73.4028 27.0222 67.2147 30.4856 62.8672C33.949 58.5196 37.8037 55.0623 43.3667 53.5595C48.9298 52.0568 55.2171 50.1347 59.1509 48.1568C63.0847 46.1788 67.5483 41.9992 67.5587 39.7569C67.5692 37.5147 66.383 35.9625 65.1614 34.9663C63.9399 33.9701 61.8964 32.2208 62.2905 30.6441C62.685 29.0675 64.1724 28.9225 64.6332 28.8321C65.0939 28.7417 67.57 28.5417 69.2752 26.9281C70.9808 25.3145 72.1155 23.4924 71.4045 21.1638C70.6939 18.8351 69.7423 16.9428 69.4407 16.2113C69.139 15.4802 69.4551 14.8801 69.852 14.7483C70.2489 14.6165 71.3129 15.1327 71.7661 15.3472C72.2192 15.5617 72.9037 15.7622 73.1619 15.9008C73.4206 16.0393 73.9894 16.2944 74.0637 16.4025C74.1381 16.5105 76.0674 18.141 76.0485 18.6106C76.0296 19.0802 76.3606 19.4642 76.8599 20.1491C77.3592 20.834 79.2544 23.1851 79.0496 24.5239C78.8443 25.8632 76.3261 26.5951 74.8571 27.0333C73.3881 27.4715 71.7371 28.4087 71.9291 29.5608C72.1208 30.7128 73.0177 31.791 74.1324 32.7534C75.2471 33.7159 76.4876 35.401 76.6671 36.8945C76.8467 38.388 80.4097 36.8985 80.5555 36.1349C80.7013 35.3713 79.718 34.4257 78.7579 34.1525C77.7979 33.8794 77.389 32.4076 79.0078 31.2246C80.6266 30.0416 82.4362 29.6013 83.4039 30.0444C84.3716 30.4875 85.841 32.2328 84.9894 34.5136C84.1378 36.7945 76.4779 46.0073 68.8654 50.4536C61.2529 54.9 57.2826 56.5787 47.9934 62.0296C38.7043 67.4806 29.2938 78.8236 27.2383 79.807C25.1828 80.7899 15.3578 85.5809 10.5017 82.7526C5.64567 79.9239 10.9452 75.7623 12.3078 75.8342Z" fill="#CEB6DD"/>
<path d="M70.9132 19.706C71.7319 21.3887 72.2581 22.8797 72.4919 24.1792C73.2065 28.1512 69.3808 30.2267 66.775 30.1866L66.4685 30.1717C65.1116 30.0576 63.8153 30.7445 62.5801 32.2316C62.2965 31.7062 62.1599 31.1659 62.2905 30.6445C62.6243 29.3101 63.7406 29.0016 64.3552 28.8831L64.6332 28.8324C65.0943 28.7417 67.57 28.542 69.2751 26.9284C70.9807 25.3148 72.1155 23.4927 71.4045 21.1641C71.286 20.7761 71.1611 20.4001 71.0334 20.0394L70.9132 19.706Z" fill="#D9D9D8"/>
<path d="M45.6121 56.4453C48.72 56.5529 51.703 56.7867 54.5611 57.1462L49.9175 60.9137L48.6541 61.6436C48.4372 61.7701 48.2167 61.8991 47.9938 62.03C42.9601 64.9837 37.8912 69.6674 33.9759 73.4956C29.4054 76.9923 25.6094 79.7652 22.5871 81.8158C18.7521 83.2527 13.6096 84.563 10.5021 82.753C5.64603 79.9243 10.9456 75.7631 12.3085 75.8346C13.6711 75.9065 15.6619 76.481 18.1158 74.9421C20.4629 73.4703 26.469 67.7441 30.018 63.4444L30.486 62.8676C33.0648 59.6303 35.8606 56.8868 39.4168 55.0763L40.358 55.421C41.7125 55.891 43.4659 56.371 45.6121 56.4453Z" fill="#CEB6DD"/>
<path d="M39.4164 55.0755L40.3576 55.4201C41.7125 55.8905 43.4659 56.3705 45.6121 56.4452C47.8572 56.5232 50.0372 56.6666 52.1517 56.8759C51.7203 57.423 51.2752 57.8443 50.9089 58.0528L49.8777 58.6297C47.0675 60.1706 41.0939 63.1805 37.7827 62.5213C35.7381 62.1144 33.3709 62.1489 30.6808 62.6257L30.486 62.8667C33.0644 59.6299 35.8602 56.8863 39.4164 55.0755Z" fill="#CEB6DD"/>
<path d="M43.3666 53.5595C47.8363 52.3524 52.7739 50.8738 56.5824 49.3136C53.8123 50.6328 51.3487 51.494 49.4893 52.0921L48.8923 52.2822C45.8849 53.2293 40.9962 54.5208 37.5107 56.616C34.0252 58.7113 31.5484 62.0393 27.7351 66.2792C23.9219 70.519 19.6085 74.1648 18.7834 74.7228L18.3198 75.0268C17.4614 75.5643 16.1647 76.2046 14.327 76.1644L13.5529 76.1106C13.4312 76.1046 13.3437 76.103 13.2894 76.105L12.2286 76.8979C11.43 77.5081 11.0158 77.8668 10.9861 77.9733C10.9327 78.1653 11.4661 78.4689 12.0221 78.6107L12.2603 78.661C12.8897 78.7638 11.0556 79.2318 10.6061 78.816C10.2257 78.4641 9.12306 78.4079 9.59987 77.5173C10.5169 76.4946 11.7465 75.8057 12.3081 75.835C13.6706 75.9069 15.6614 76.4814 18.1154 74.9425C20.4625 73.4707 26.4686 67.7445 30.0176 63.4448L30.4855 62.868C33.9489 58.5196 37.8036 55.0623 43.3666 53.5595ZM67.461 37.3504C68.7436 39.8923 67.6482 42.2832 63.4288 45.31C65.7498 43.3858 67.5522 41.1809 67.559 39.7569C67.5695 37.5147 66.3833 35.9625 65.1617 34.9663C64.4592 34.3935 63.4851 33.5717 62.8588 32.6767C63.8398 33.9115 66.2816 35.0133 67.461 37.3504ZM69.8523 14.7483C70.1001 14.666 70.6087 14.8367 71.0662 15.0287L71.8997 15.4039L71.0634 15.1448C70.5926 15.0138 70.1592 14.9315 69.9965 15.0355C69.6117 15.2818 69.4534 15.6316 69.7286 16.3318L70.3673 17.8401C70.7654 18.7978 71.2514 20.0519 71.6049 21.3566C72.2111 23.5932 71.2382 26.011 68.9336 27.5045C66.6287 28.998 64.5283 28.8622 63.7956 29.2498C63.0629 29.6375 62.0844 30.3541 62.4716 31.9444L62.5616 32.1927C62.2908 31.6793 62.1643 31.1527 62.2916 30.6437C62.6254 29.3093 63.7417 29.0008 64.3563 28.8823L64.6343 28.8317C65.0955 28.7409 67.5711 28.5413 69.2763 26.9277C70.9819 25.3141 72.1167 23.492 71.4057 21.1634C70.6951 18.8347 69.7434 16.9424 69.4418 16.2109C69.1393 15.4802 69.4554 14.8801 69.8523 14.7483Z" fill="#CEB6DD"/>
<path d="M19.8989 82.8048C19.8764 80.8088 19.9785 79.5547 20.205 79.0429C20.5452 78.2753 24.5666 74.3704 28.0999 70.9311C31.6332 67.4919 34.9038 63.391 36.7455 61.5432C38.5873 59.6954 42.6713 57.5901 46.8634 57.002C49.658 56.61 51.8147 56.3613 53.3339 56.2553C47.7182 63.0001 43.0582 67.9446 39.3541 71.0894C35.6501 74.2343 29.1652 78.1387 19.8989 82.8048Z" fill="#4B4B4B"/>
<path d="M5.43919 77.3767C5.62758 77.1558 6.0369 76.8384 6.05819 77.0795C6.09194 77.4643 5.34358 78.2147 5.64445 78.2223C6.24779 78.2375 10.5491 75.6117 13.1621 73.3276C15.7752 71.0436 15.9623 70.4306 16.7388 70.0707C17.5153 69.7108 18.2219 70.0984 18.0411 70.8857C17.8608 71.6731 15.2092 74.3158 14.1142 75.2301C13.0195 76.1443 11.3188 77.4912 10.9259 77.7764C10.5331 78.0616 11.3834 78.5882 12.2603 78.6593C13.1372 78.7304 16.7513 78.5557 18.4336 78.9903C20.1159 79.4249 22.0721 80.4541 22.5353 80.9839C22.9984 81.5142 16.7922 84.6156 14.8195 85.556C12.8468 86.4964 4.45986 89.7682 3.41305 89.4564C2.36623 89.1443 0.909693 87.7625 0.570664 86.7189C0.231634 85.6753 1.26198 83.1607 2.80408 80.8899C4.34578 78.62 5.25039 77.5976 5.43919 77.3767Z" fill="#4A4947"/>
<path d="M99.713 43.8663C99.7633 43.9663 99.8147 44.0695 99.8681 44.1764C99.948 44.3362 100.224 46.5142 99.6122 48.1913C99.0004 49.8684 97.0984 51.8724 94.9646 53.492C92.8304 55.1117 86.8147 58.3947 85.038 59.2837C83.2613 60.1726 73.7902 64.9126 71.9765 65.8204C70.1629 66.7278 69.8732 65.8176 69.5105 65.5862C69.1478 65.3549 67.9728 65.8751 68.1347 66.5342C68.2966 67.1934 68.5252 67.5477 67.1116 68.2551C65.698 68.9625 65.5984 67.7654 65.0421 67.7C64.4857 67.6345 63.7161 68.0763 63.6586 68.5194C63.6012 68.9625 63.9728 69.6928 63.2682 70.0792C62.5636 70.4656 61.9366 70.2877 61.2593 69.6843C60.5825 69.081 60.2535 69.4746 59.3979 69.5453C58.5423 69.616 57.7871 69.5072 57.2934 69.0814C56.3996 69.7675 55.3733 70.7657 55.1672 71.2152C54.9612 71.6647 55.299 73.271 54.0791 73.9535C52.8591 74.636 52.0071 73.59 51.278 73.9515C50.5494 74.313 50.3979 74.5492 50.267 75.0216C50.136 75.494 50.4011 76.6007 48.8631 77.388C47.4865 78.0926 46.6807 78.0624 46.1769 77.7234C45.6732 77.384 45.3956 77.3615 45.3161 77.2856C44.5589 76.5637 44.0174 76.1178 43.6045 76.5175C43.1912 76.9172 43.2337 78.2553 43.2972 78.7979C43.3607 79.3406 43.6559 80.0014 41.5221 81.0735C39.1409 82.2654 34.4535 84.6113 33.8691 84.9037C33.4035 85.1367 32.8118 85.1825 32.2008 84.7382C32.045 84.6249 31.4991 84.8591 31.3424 84.6771C30.9351 84.2039 30.3864 84.0111 30.053 84.3401C29.7557 84.6337 30.0494 85.0222 29.9035 85.4516C29.8047 85.7428 29.0825 85.6516 28.9812 86.1421C28.88 86.6326 28.4189 87.0965 28.22 87.1978C27.928 87.3472 24.796 88.9391 24.1396 88.4763C23.4833 88.0136 22.9129 87.9112 22.6409 88.2827C22.369 88.6543 22.3288 89.342 21.6347 89.6039C20.9405 89.8658 19.5431 90.2623 18.6139 90.2984C17.6844 90.3346 16.8252 90.5543 16.111 89.8112C15.7575 89.4432 15.0172 89.2938 14.415 89.4697C13.8008 89.6489 13.7322 90.4326 13.5863 90.6238C13.496 90.7423 12.9404 90.7785 12.8159 90.9612C12.5431 91.3621 12.2644 91.6742 12.086 91.7064C11.8261 91.753 9.90442 92.1518 9.61681 91.7843C9.32919 91.4168 8.82748 91.197 8.43583 91.3067C8.04418 91.4164 8.18155 91.7811 7.36812 91.8409C6.82584 91.8811 6.54184 91.6919 6.51573 91.2741C5.47053 91.2223 4.59925 91.1436 3.90191 91.0384C2.8559 90.8801 1.36763 90.3547 0.567456 88.7559C-0.232718 87.1572 0.00428321 85.8079 0.146081 85.3893C0.287879 84.9708 0.640566 84.8856 0.793611 85.0953C0.946656 85.3054 1.79543 87.3231 2.21359 87.9324C2.63135 88.5414 2.88884 88.5848 3.34758 88.5671C3.80631 88.5495 7.0536 87.7019 10.6327 86.0582C14.2118 84.414 24.0754 79.2322 26.4188 77.7298C28.7623 76.2279 33.3131 73.0798 38.1374 67.8036C42.9618 62.5273 46.3388 59.0696 50.3738 56.9759C51.3628 56.5084 53.3038 55.6001 56.5169 53.9343C59.7301 52.2685 66.3673 48.8722 69.5045 45.6723C72.6417 42.4724 74.8434 37.9859 75.5584 37.0371C76.2738 36.0883 77.84 34.7494 79.3247 34.6273C80.8093 34.5052 92.456 39.7678 94.3581 41.1259C96.2601 42.484 98.5152 43.1223 98.9217 43.289C99.1928 43.3991 99.4568 43.5919 99.713 43.8663Z" fill="#3B3A39"/>
<path d="M99.8412 44.1077L99.8685 44.1764C99.93 44.2989 100.106 45.6036 99.9107 46.9609C97.9019 49.6852 93.5483 53.0976 88.1178 55.885L86.3355 56.7639C80.8708 59.3869 78.8387 59.8497 83.2444 57.3266L84.8062 56.455C91.2904 52.9136 97.8171 48.591 99.8412 44.1077Z" fill="#4B4B4B"/>
<path d="M2.97522 88.7687C2.74264 88.9491 3.28171 89.9296 3.91076 90.31C4.53982 90.6904 5.3653 90.9487 8.04017 90.6655C10.7151 90.3823 11.6233 90.2016 12.2286 90.304C12.6323 90.3723 13.0754 90.4944 13.5586 90.6699C13.9696 89.8388 14.3825 89.4693 14.7967 89.5616C15.2108 89.6536 15.692 89.7742 16.2399 89.9232C15.7696 89.5729 15.8146 89.2953 16.3745 89.0909C17.2145 88.7844 19.8516 88.1642 22.6449 87.2146C25.4383 86.265 28.1803 85.2888 28.6294 85.3386C29.0785 85.3885 29.6027 85.6419 29.7991 85.564C29.9955 85.4861 30.1647 85.1502 30.1297 84.8506C30.0948 84.5509 30.0249 84.3822 30.3583 84.2392C30.6921 84.0966 31.2508 84.7397 31.4256 84.7502C31.5999 84.7606 31.851 84.6437 31.871 84.4698C31.8907 84.2962 31.6228 83.944 32.8958 83.329C34.1687 82.7136 42.1697 78.5179 42.4195 78.4375C42.669 78.3572 42.9851 78.552 43.0112 78.7023C43.0373 78.8525 43.4812 78.7155 43.445 78.1869C43.4089 77.6583 43.8801 77.0413 44.2151 76.9581C44.5501 76.875 45.1506 77.2015 45.2478 77.2847C45.3125 77.3401 45.4415 77.2755 45.6347 77.0911C45.5483 76.8778 45.6262 76.6143 45.8693 76.3001C46.2332 75.829 49.6355 74.0495 51.5074 72.989C53.3793 71.9285 56.2378 69.6867 56.77 69.046C57.1247 68.619 57.7775 67.9481 58.7283 67.0347C57.2834 64.1373 56.8933 62.2714 57.5589 61.4375C58.5572 60.1862 75.1668 49.8988 79.1672 47.3899C83.1677 44.8809 90.3978 36.9583 90.0813 36.1882C89.7647 35.4178 88.9103 33.903 88.5263 33.7516C88.1423 33.6001 83.1922 33.9468 80.9889 34.1492C78.7856 34.3517 77.4062 34.9932 75.8199 37.1969C74.2337 39.4002 71.5419 44.8427 67.7101 47.7397C63.8784 50.6363 59.5899 52.7376 55.4304 54.7408C51.2708 56.7441 47.1073 58.6951 43.7053 62.1441C40.3038 65.593 34.8227 72.0546 31.2982 74.5793C27.7738 77.1043 18.0235 82.9815 12.0539 85.6403C6.08433 88.2991 4.64667 88.5663 4.07225 88.6956C3.49823 88.8237 3.20821 88.5883 2.97522 88.7687Z" fill="#D1CCCE"/>
<path d="M75.8199 37.1957C77.4062 34.9924 78.7856 34.3509 80.9889 34.1481L82.727 34.0031C83.8245 33.9187 85.0729 33.8331 86.1314 33.7773C86.039 34.849 85.7815 36.3104 84.0394 37.8216L83.0709 38.6366C79.256 41.7935 68.5204 50.2949 66.5456 51.5382C64.3596 52.9148 56.7684 56.8843 55.191 59.2676C53.6135 61.6508 53.489 65.1014 54.7615 67.3641C56.0341 69.6269 51.94 71.2328 49.7267 72.3065C47.7343 73.273 44.6485 75.163 42.3448 76.8184L41.6085 77.3599C39.4233 79.0076 34.9356 81.3949 32.5599 82.238L32.0847 82.3943C29.8871 83.0486 29.056 83.6419 27.3849 84.7394C25.7139 85.8368 18.8236 87.6774 18.4372 85.8661C18.0512 84.0549 26.5177 80.4983 31.8803 75.9045C34.2009 73.9165 37.1577 70.3716 40.7513 65.2701L42.005 63.9212C42.6111 63.2741 43.1827 62.6731 43.7053 62.1433C46.8454 58.9595 50.6345 57.0522 54.4707 55.202L55.4304 54.7401C59.5899 52.7368 63.8784 50.6356 67.7101 47.739C71.5419 44.8416 74.234 39.399 75.8199 37.1957Z" fill="#DAD8DA"/>
<path d="M3.49182 89.9634C4.06624 90.2261 4.58643 90.3924 5.0524 90.4619C6.23739 90.639 10.9939 89.9791 13.0328 89.6192C15.0718 89.2592 25.3211 85.9071 29.3452 84.2304C33.369 82.5538 43.2663 76.6677 47.6287 73.9061C51.3564 71.5462 55.6385 67.3123 57.8329 65.017C58.0595 65.622 58.3596 66.294 58.7283 67.0335L57.9864 67.757C57.5405 68.1996 57.1918 68.5628 56.9404 68.8468L56.7701 69.0448C56.2736 69.6429 53.7501 71.6357 51.8939 72.7609L48.1232 74.8645C46.9932 75.5008 46.0517 76.0636 45.8697 76.299C45.6271 76.6131 45.5487 76.8766 45.6351 77.0899C45.4419 77.2743 45.3129 77.339 45.2483 77.2836C45.1511 77.2004 44.5505 76.8738 44.2155 76.957C43.9283 77.0285 43.5411 77.4916 43.4591 77.9556L43.4455 78.1858C43.4768 78.6485 43.141 78.8112 43.039 78.7441L43.0112 78.7015C42.9851 78.5513 42.669 78.3565 42.4195 78.4368L39.7322 79.8058C37.6856 80.865 34.995 82.2654 33.6196 82.9655L32.8958 83.3282C31.6228 83.9436 31.8908 84.2955 31.8711 84.469C31.8514 84.6426 31.6003 84.7599 31.4256 84.7494C31.2513 84.739 30.6921 84.0959 30.3583 84.2385C30.0245 84.3811 30.0948 84.5498 30.1297 84.8498C30.1647 85.1495 29.9956 85.4857 29.7991 85.5633C29.6027 85.6408 29.0785 85.3877 28.6294 85.3379C28.4049 85.313 27.6071 85.5444 26.5161 85.9011L22.6446 87.2138C19.8512 88.1634 17.2141 88.7836 16.3741 89.0901C15.8142 89.2946 15.7692 89.5722 16.2396 89.9224L15.2329 89.6625C15.0799 89.6256 14.9345 89.5918 14.7963 89.5609C14.3821 89.4689 13.9692 89.8381 13.5583 90.6692C13.0754 90.4936 12.632 90.3719 12.2283 90.3032C11.6229 90.2008 10.7151 90.3816 8.0398 90.6648L7.06448 90.7499C5.148 90.8765 4.45548 90.6387 3.91038 90.3089L3.70512 90.1618L3.49182 89.9634ZM75.82 37.1957C77.2841 35.162 78.572 34.4586 80.4949 34.2035L81.8152 34.0766C84.2363 33.8749 88.1853 33.6162 88.5263 33.7508C88.6368 33.7942 88.7862 33.9508 88.9505 34.1698L86.2025 34.7599C84.2222 35.1965 82.607 35.5817 81.3557 35.9175C78.3064 36.7362 76.498 38.9045 73.5946 44.4118C70.6911 49.9194 58.1459 55.2406 53.15 57.7673C48.1541 60.2939 43.0438 70.2957 30.145 77.543C20.7393 82.8281 12.8738 85.9312 7.9458 87.3926L9.4646 86.7655C10.2162 86.4478 11.0742 86.0758 12.0539 85.6396C18.0235 82.9808 27.7734 77.1032 31.2983 74.5785C34.8227 72.0535 40.3034 65.5923 43.7054 62.1433C46.8454 58.9595 50.6346 57.0522 54.4708 55.202L55.4304 54.7401C59.5899 52.7369 63.8784 50.6356 67.7102 47.739C71.5419 44.8416 74.2341 39.399 75.82 37.1957Z" fill="#E1E1E1"/>
<path d="M3.73364 90.1859C4.25424 90.4097 4.93752 90.6081 5.72725 90.6318L6.38843 90.6278C8.41618 90.5655 12.3395 90.1048 12.9569 89.695L13.0328 89.6191C13.251 89.1423 15.4394 89.2106 15.7559 89.1058L27.9682 85.1539C28.5458 84.9555 29.0785 84.9486 29.5658 85.1342C29.7003 84.4477 29.9526 83.9834 30.3225 83.7416C30.6925 83.4993 31.0817 83.7765 31.4907 84.5727C31.3979 84.1617 31.5401 83.836 31.9169 83.5957L32.4692 83.2784C34.3865 82.2043 40.4653 78.9196 41.9251 78.3315L42.1082 78.2641C43.2796 77.8961 43.047 77.5209 43.7134 77.0401C44.3798 76.5593 45.7371 76.058 46.1573 75.817L50.0465 73.3967C52.1345 72.084 54.3896 70.6496 54.9504 70.2418C55.667 69.7209 56.3145 69.0793 56.8938 68.3169L57.2316 68.5282L56.77 69.0444C56.2736 69.6425 53.7501 71.6353 51.8939 72.7605L48.1232 74.8641C46.9932 75.5004 46.0517 76.0632 45.8697 76.2986C45.6271 76.6127 45.5487 76.8762 45.6351 77.0895C45.4419 77.2739 45.3129 77.3386 45.2483 77.2831C45.1511 77.2 44.5505 76.8734 44.2155 76.9566C43.9283 77.0281 43.5411 77.4912 43.4591 77.9552L43.4455 78.1853C43.4768 78.6481 43.141 78.8108 43.039 78.7437L43.0112 78.7011C42.9851 78.5509 42.669 78.3561 42.4195 78.4364L39.7322 79.8054C37.6856 80.8646 34.995 82.2649 33.6196 82.9651L32.8958 83.3278C31.6228 83.9432 31.8908 84.2951 31.8711 84.4686C31.8514 84.6422 31.6003 84.7594 31.4256 84.749C31.2513 84.7386 30.6921 84.0954 30.3583 84.238C30.0245 84.3806 30.0948 84.5494 30.1297 84.8494C30.1647 85.1491 29.9956 85.4853 29.7991 85.5628C29.6027 85.6404 29.0785 85.3873 28.6294 85.3375C28.4049 85.3126 27.6071 85.544 26.5161 85.9007L22.6446 87.2134C19.8512 88.163 17.2141 88.7832 16.3741 89.0897C15.8142 89.2942 15.7692 89.5717 16.2396 89.922L15.2329 89.6621C15.0799 89.6252 14.9345 89.5914 14.7963 89.5605C14.3821 89.4685 13.9692 89.8377 13.5583 90.6688C13.0754 90.4932 12.632 90.3715 12.2283 90.3028C11.6229 90.2004 10.7151 90.3812 8.0398 90.6643L7.06448 90.7495C5.44285 90.8567 4.6977 90.7025 4.1763 90.4531L3.91038 90.3084L3.73364 90.1859ZM75.82 37.1957C77.2841 35.1619 78.572 34.4586 80.4949 34.2035L81.8152 34.0766C84.2362 33.8749 88.1853 33.6162 88.5263 33.7508L88.6123 33.801C88.2741 33.8701 87.9234 33.9147 87.5635 33.9472L85.5044 34.0726C83.3252 34.2224 80.0795 34.5494 78.5784 35.3724C76.3847 36.5755 73.6593 41.9851 70.4264 45.5915C67.194 49.1979 60.215 52.7372 55.3239 55.1502C50.7205 57.4214 46.473 60.3429 44.3007 62.5506L42.7481 64.2253C40.0961 67.0596 35.2043 72.0732 32.5507 74.2459L31.8662 74.7914C28.8278 77.1514 24.7579 79.5053 16.4239 83.9605C12.227 86.2039 8.7291 87.6026 5.9301 88.1562L6.86082 87.8163C7.91567 87.417 9.36097 86.8278 11.365 85.9452L12.0539 85.64C18.0235 82.9811 27.7734 77.1036 31.2983 74.5789C34.8227 72.0539 40.3034 65.5926 43.7054 62.1437C46.8454 58.9599 50.6346 57.0526 54.4708 55.2024L55.4304 54.7405C59.5899 52.7373 63.8784 50.636 67.7102 47.7394C71.5419 44.8416 74.2341 39.399 75.82 37.1957Z" fill="#FBFBFB"/>
<path d="M14.1829 88.2687C14.522 88.6828 15.2 89.1118 15.9299 89.4428C15.899 89.538 15.9472 89.6521 16.0693 89.7766C16.044 89.7983 16.0042 89.822 15.9592 89.8469L15.1514 89.6437C15.0281 89.6144 14.91 89.587 14.7967 89.5617C14.4344 89.481 14.0729 89.7537 13.7129 90.38L13.5977 90.5949L13.4193 90.5338C12.532 90.2149 12.154 89.8791 12.2849 89.5272C12.4215 89.1592 13.0542 88.7395 14.1829 88.2687Z" fill="#ECEBE9"/>
<path d="M92.1367 37.7211C92.3154 37.5086 92.3693 37.0126 92.2319 36.9053C92.0945 36.798 91.2554 35.8476 90.7054 35.701C90.1555 35.5544 89.7643 35.5259 89.5795 35.6576C89.3943 35.7894 85.0392 39.5537 82.4193 41.381C79.7995 43.2083 71.586 48.8408 69.539 50.1078C67.492 51.3747 60.8295 55.5981 59.0608 56.6216C57.2926 57.6451 54.833 59.9484 54.5342 62.2863C54.2353 64.6242 55.7127 67.5204 56.2305 68.188C56.7483 68.8556 56.8704 68.86 57.115 68.7062C57.3597 68.5523 58.4631 67.4043 58.7001 67.2902C58.9371 67.1761 60.0751 66.7122 62.1458 65.7071C64.2166 64.7021 70.769 61.7934 78.2405 58.0404C85.712 54.2874 92.3247 50.8654 94.9915 48.7898C97.6584 46.7143 99.8918 44.2258 99.6552 43.753C99.4186 43.2802 98.8518 42.0651 97.8038 42.1723C97.6604 42.1603 97.6467 41.8264 97.4748 41.5151C97.3029 41.2038 96.375 39.3195 94.8172 38.7274C93.259 38.1353 92.5026 38.0891 92.3066 38.0622C92.111 38.0349 91.9579 37.9336 92.1367 37.7211Z" fill="#D9D9D9"/>
<path d="M87.941 47.7369C89.087 47.14 89.9739 46.6684 91.4811 45.7148C92.9883 44.7612 96.5457 41.6059 96.3364 42.5406C96.1717 43.2769 96.8823 43.8052 96.8144 44.4049C96.7959 44.5668 96.5858 44.7901 96.4488 44.9564C95.8029 45.7385 93.7374 47.526 91.3184 48.9018C88.899 50.2776 83.2456 53.4213 82.7302 53.6065C82.2152 53.7921 84.1952 49.8651 85.2368 49.2192C86.2784 48.5733 86.7945 48.3338 87.941 47.7369Z" fill="#8F88B9"/>
<path d="M92.293 37.3419C92.2761 37.4375 92.2464 37.5331 92.2058 37.6139L92.1368 37.7211C91.958 37.9336 92.111 38.0348 92.3071 38.0618L92.6413 38.1055C93.0289 38.1658 93.727 38.3128 94.8176 38.7274C96.3758 39.3195 97.3033 41.2034 97.4753 41.5151C97.6472 41.8268 97.6608 42.1602 97.8042 42.1723C97.901 42.1622 97.9938 42.1638 98.0826 42.1747C98.1818 43.197 96.9904 44.3318 96.2754 44.9564C95.4824 45.6489 95.4355 43.2693 95.7564 42.4262C96.0774 41.583 94.7466 40.0787 94.0344 39.5878C93.3221 39.0969 92.4444 38.6358 91.5286 39.0359C91.0707 39.2359 90.487 39.6444 89.8909 40.1008L88.1756 41.4521C87.496 41.973 86.7432 42.6041 85.9169 43.3444L85.4144 43.6947C85.1216 43.8903 84.9139 44.01 84.7914 44.0546C84.5154 44.1542 85.0388 43.6192 85.9707 42.7728L86.5167 42.2948C87.7025 41.2793 89.7559 39.6159 90.211 39.2355L90.6975 38.8081L92.293 37.3419Z" fill="#BEBAC7"/>
<path d="M86.8179 41.9072C86.3728 42.6684 86.1989 43.3075 86.2953 43.8244C86.4403 44.5997 86.9802 44.1241 86.9529 44.6094C86.9256 45.095 86.6432 46.1499 87.4514 47.0991C87.99 47.7317 88.7368 48.3572 89.6912 48.9754C86.4138 51.441 83.4324 53.3574 80.7479 54.7244C76.7209 56.775 69.8315 60.5144 66.2837 62.2296C63.9186 63.3729 61.0963 64.7037 57.8169 66.2213C57.0348 65.0644 56.6961 64.0513 56.8006 63.1817C56.9572 61.8774 56.7584 60.7759 61.8101 57.5604C66.8618 54.3444 81.1271 45.9514 83.1533 44.4037C84.5041 43.3717 85.7257 42.5394 86.8179 41.9072Z" fill="#5A4991"/>
<path d="M85.4699 45.7526C85.6595 47.0022 78.4185 51.5731 73.6589 54.4685L69.0775 57.241C66.5043 58.8132 65.0293 59.7656 63.4446 60.8281C62.2138 61.6528 61.7028 62.8125 61.9117 64.3072L58.8934 65.722C58.5403 65.8858 58.1816 66.0526 57.8169 66.2213C57.0348 65.0644 56.6961 64.0513 56.8006 63.1816L56.8464 62.7599C56.9259 62.0593 57.0806 61.3439 58.2145 60.24C59.5164 59.2033 61.3244 57.9347 63.3289 56.6079L65.063 55.5406C68.1605 53.645 72.1975 51.2208 75.6942 49.0967L77.7409 48.0016C82.4636 45.5272 85.2762 44.4776 85.4699 45.7526Z" fill="#594B84"/>
<path d="M59.4408 61.0804C59.3673 61.3893 58.3747 62.03 58.2378 62.737C58.1417 63.2319 58.725 64.1216 59.1223 64.1887C60.0871 64.3514 67.3004 60.0127 70.2853 58.379C73.2703 56.7453 86.7335 49.5759 87.4023 49.0228C87.8482 48.654 88.1009 48.2555 88.1595 47.8269C89.0593 48.4102 89.5899 48.8806 89.7522 49.2393C89.9956 49.7768 85.5863 51.7663 81.3062 53.8929C77.0262 56.0195 71.9319 59.0591 68.5348 60.5273C65.1376 61.9954 59.7915 64.8969 59.0873 65.0122C58.3832 65.1275 57.7489 63.7472 57.8011 63.0198C57.8541 62.2919 59.5657 60.5558 59.4408 61.0804Z" fill="#71659E"/>
<path d="M58.5884 67.3939C58.1739 66.8166 58.0566 66.1161 57.9783 65.5196C58.2442 65.5063 58.5354 65.4328 58.852 65.2998L70.4569 59.7492L76.075 56.9538C80.817 54.5682 87.3369 51.2128 91.4956 48.7336C95.6543 46.2543 97.7572 44.0671 97.8042 42.1723C98.8522 42.0655 99.4194 43.2802 99.656 43.753C99.8926 44.2258 97.6588 46.7143 94.9919 48.7898C92.6585 50.6059 87.3039 53.4531 80.9965 56.6506L76.5349 58.8908C70.0693 62.0903 64.5371 64.5651 62.4049 65.5826L60.7676 66.3623L58.5884 67.3939Z" fill="#AA9ED1"/>
<path d="M99.0503 43.5931C99.0451 43.9466 96.6281 46.897 94.2187 48.691C91.8094 50.485 79.6505 56.7329 76.5474 58.2368L60.9521 65.6344C59.8587 66.1594 59.13 66.5169 58.9938 66.6013C58.6492 66.815 58.5045 67.0636 58.56 67.3464L58.5885 67.3934C58.2266 66.8897 58.0912 66.292 58.0109 65.7517C58.1089 65.8083 58.2258 65.8369 58.3623 65.8417C58.7166 65.8545 59.2674 65.6437 60.2824 65.1729L71.5491 59.8135C73.7838 58.7349 76.2208 57.5415 78.6856 56.2991L80.9592 55.1358C86.8304 52.0901 92.9763 48.5946 94.8843 47.1766C96.8972 45.6803 98.1931 43.514 98.3911 42.7367L98.4164 42.5921C98.4586 41.9835 99.0555 43.2392 99.0503 43.5931Z" fill="#8470C3"/>
<path d="M97.8042 42.1723C98.8522 42.0655 99.4194 43.2802 99.656 43.753C99.8926 44.2258 97.6588 46.7147 94.9915 48.7902C92.6581 50.6063 87.3035 53.4535 80.9961 56.651L76.5345 58.8912L73.2587 60.4908C68.2472 62.9073 64.166 64.7423 62.4046 65.5826L58.5881 67.3939L58.5254 67.2962L59.4585 66.7945C60.468 66.2743 62.0567 65.4983 64.2246 64.4671L70.2167 61.6372C80.3747 56.7847 92.4034 50.4769 94.1046 49.1598C95.9367 47.741 98.1223 45.5494 98.7205 44.8095C99.3186 44.0695 99.368 43.5333 98.9655 42.8773C98.608 42.294 98.2919 42.4142 98.1219 42.7512L98.0653 42.8869C97.3599 44.5202 95.529 46.5661 92.7384 48.3415L91.4181 49.1337C87.316 51.5061 77.4853 56.669 68.2179 61.1515L65.8073 62.304C62.5483 63.8417 60.2547 64.8286 58.9267 65.2649L70.4561 59.75L76.0742 56.9547L78.5743 55.6897C82.9243 53.4752 88.0294 50.8003 91.4948 48.7344C95.6543 46.2543 97.7572 44.0671 97.8042 42.1723Z" fill="#D8D1EC"/>
<path d="M89.5799 35.6576C89.7651 35.5259 90.1559 35.5544 90.7058 35.701C91.2558 35.8476 92.0949 36.798 92.2323 36.9053C92.3467 36.9949 92.3287 37.354 92.2158 37.5946L92.0852 37.7951C91.9579 37.9601 91.7964 38.1252 91.6105 38.2887L91.2497 38.5988C89.618 39.9827 84.7166 43.961 80.7515 46.5411L66.0503 55.9215C64.3551 56.9904 62.9773 57.8444 62.2346 58.2722L61.0086 58.9591C59.2689 59.9553 57.8654 60.9169 57.534 61.8617C57.1423 62.978 57.5673 64.6258 57.9144 65.4071C58.1241 65.8791 58.353 66.5274 58.6021 67.3525C58.2586 67.6172 57.3371 68.5676 57.1162 68.7066C56.8716 68.8604 56.7495 68.856 56.2317 68.1884C55.7139 67.5208 54.2361 64.6242 54.5353 62.2867C54.8129 60.116 56.9535 57.9749 58.6736 56.8606L60.8616 55.5334L69.5402 50.1082C71.308 49.0139 77.6753 44.6636 81.0664 42.3205L82.4205 41.3814C85.0391 39.5537 89.3947 35.7894 89.5799 35.6576Z" fill="#8F7FC0"/>
<path d="M89.58 35.6576C89.7652 35.5259 90.156 35.5544 90.7059 35.701C90.9807 35.7741 91.3282 36.0485 91.6238 36.318L92.2561 36.933C90.3504 37.5797 86.9007 39.2568 84.6014 40.7845C81.6397 42.7528 77.107 47.3594 70.2212 51.7459C63.6342 55.9424 57.087 58.9233 54.9066 61.0009C55.6481 59.3033 57.2951 57.7524 58.6729 56.8598L60.8609 55.5326L69.5395 50.1074C71.0547 49.1694 75.9493 45.8394 79.4521 43.4316L82.4194 41.381L83.1384 40.864C85.7651 38.9262 89.4109 35.7777 89.58 35.6576Z" fill="#A296CA"/>
<path d="M89.5799 35.6577C89.6578 35.6022 89.7719 35.5753 89.9189 35.5733C89.1706 36.5289 88.0824 37.546 86.6608 38.6246L85.753 39.2946C83.3087 41.0637 78.7454 44.1651 75.4644 46.3266L65.2919 52.9168C62.0691 55.0233 59.0432 57.0193 58.4097 57.4704C57.1841 58.3425 54.7406 60.7651 54.7077 62.9696C54.6744 65.1741 55.7915 67.2798 56.3064 68.0217C56.5487 68.3708 56.8005 68.611 57.0616 68.7432L57.1159 68.7062C56.8712 68.8601 56.7491 68.8556 56.2313 68.188C55.7135 67.5204 54.2357 64.6238 54.535 62.2863C54.8125 60.1156 56.9532 57.9746 58.6732 56.8603L60.8612 55.5331L69.5398 50.1078C71.055 49.1698 75.9497 45.8398 79.4524 43.432L82.4197 41.3814L83.1388 40.8644C85.765 38.9262 89.4108 35.7778 89.5799 35.6577Z" fill="#69589E"/>
<path d="M92.9842 38.5675C93.1891 38.6173 94.5259 39.1013 95.2856 39.8445C96.0452 40.5876 96.4151 41.2902 96.4653 41.6123C96.5156 41.9345 97.294 42.0136 97.0586 41.3484C96.8232 40.6832 95.9849 39.6095 95.2149 39.1134C94.4448 38.6173 93.5105 38.3851 93.0879 38.3562C92.6645 38.3273 92.779 38.5177 92.9842 38.5675Z" fill="#9594A5"/>
<path d="M20.2624 84.1127C19.2486 84.892 17.9149 86.3931 18.4556 86.5928C18.9963 86.792 21.1321 86.6639 21.198 86.5124C21.2639 86.361 19.6069 86.1682 19.5956 85.8858C19.5844 85.6026 21.2763 83.3334 20.2624 84.1127Z" fill="#D6CFD1"/>
<path d="M18.8879 86.2312C19.0177 86.306 19.7524 86.4172 21.0916 86.5646C20.6525 86.6896 18.9329 86.7687 18.4557 86.5928C18.1187 86.4686 18.5095 85.8388 19.0972 85.1933C18.8345 85.8139 18.7646 86.1597 18.8879 86.2312Z" fill="#E7E3E6"/>
<path d="M51.7529 33.1161C52.0401 32.4871 52.4253 32.1115 51.2018 31.3386C49.9782 30.5658 46.8671 29.1779 46.0898 28.8469C45.3121 28.5159 43.7568 28.2805 42.4665 29.0683C41.1763 29.856 40.6858 30.2922 39.9736 31.2808C39.2614 32.2694 38.3696 33.8725 38.4295 34.8462C38.4893 35.8199 39.7981 36.4779 41.1385 36.1513C42.479 35.8251 46.5345 35.0447 47.4825 34.8036C48.4301 34.5622 51.4657 33.7452 51.7529 33.1161Z" fill="#B0AFB2"/>
<path d="M51.6778 32.7325C51.965 32.1034 52.3502 31.7279 51.1267 30.955C49.9031 30.1821 46.792 28.7943 46.0147 28.4633C45.237 28.1323 43.6817 27.8969 42.3914 28.6846C41.1012 29.4723 40.6107 29.9086 39.8985 30.8972C39.1863 31.8857 38.2946 33.4889 38.3544 34.4626C38.4143 35.4363 39.723 36.0943 41.0634 35.7677C42.4039 35.4415 46.4594 34.661 47.4074 34.42C48.355 34.1786 51.3906 33.3615 51.6778 32.7325Z" fill="#E9E9E9"/>
<path d="M42.3909 28.6843C43.6812 27.8965 45.2369 28.1319 46.0142 28.4629L47.4133 29.0843C48.5007 29.58 49.9034 30.246 50.7835 30.7498L51.2937 31.0651C51.4214 31.2872 51.4523 31.4869 51.3583 31.6508C50.6923 32.8137 47.3008 33.8553 44.4099 34.3754C41.5189 34.8956 39.3859 34.7936 39.1204 34.4976C39.0183 34.3839 38.7661 33.9609 38.5331 33.4415C38.8171 32.5747 39.4011 31.5861 39.898 30.8964C40.6102 29.9082 41.1007 29.4716 42.3909 28.6843Z" fill="#CECDD2"/>
<path d="M51.0298 31.9786C51.0435 31.6921 49.2327 30.8695 48.692 30.6023C48.1513 30.3352 46.0814 29.4503 45.2394 29.3916C44.3979 29.333 43.3764 29.5857 42.9594 29.8194C42.5421 30.0532 43.0956 31.3326 43.7528 31.6986C44.4103 32.0645 48.9663 32.1216 49.6757 32.2336C50.3851 32.3457 51.0162 32.265 51.0298 31.9786Z" fill="#D6D5DA"/>
<path d="M49.1329 30.8939C48.1652 30.8345 46.5914 31.0201 45.2052 31.1864C43.8189 31.3527 41.1477 30.7449 42.2278 30.1906C43.308 29.6362 44.0832 29.2249 45.018 29.3129C45.9531 29.4008 50.1002 30.9534 49.1329 30.8939Z" fill="#DFDEE2"/>
<path d="M43.7567 33.0703C43.4213 33.8858 42.9775 34.4104 42.4251 34.6438C41.5968 34.994 39.6121 35.4335 39.4325 34.798C39.2534 34.1625 39.8973 32.5582 40.5299 31.7684C41.1626 30.9787 44.2757 29.4744 44.1966 30.3645C44.1444 30.9586 43.9978 31.8604 43.7567 33.0703Z" fill="#B8B6BC"/>
<path d="M41.5382 30.5477C39.8008 32.295 38.7705 33.9601 39.2268 34.706C39.4289 35.0362 40.2881 35.0491 41.8017 34.8554C42.3914 34.7799 43.0662 34.6727 43.8162 34.5377L45.294 34.2557L47.6423 33.7644C49.3624 33.4029 51.0627 32.6891 51.213 32.1452C51.3789 31.5447 47.1832 29.5129 45.6997 29.2715C43.9837 28.9919 42.8228 29.2558 41.5382 30.5477ZM45.6547 29.5535C46.955 29.7652 51.0294 31.7379 50.9378 32.0685C50.8398 32.4228 49.4435 33.0354 47.9829 33.3929L46.0263 33.8139L44.4874 34.1215C44.2424 34.1681 44.0022 34.2131 43.766 34.2553C43.0204 34.3895 42.35 34.4963 41.7659 34.571C40.4311 34.7418 39.5775 34.7293 39.4715 34.5562C39.1232 33.987 40.113 32.3874 41.7414 30.7493C42.9529 29.531 44.0214 29.288 45.6547 29.5535Z" fill="#979797"/>
<path d="M38.8396 37.023L42.0479 37.6733L41.8937 38.3598L38.6516 37.6987L38.8396 37.023Z" fill="#B1AFB3"/>
<path d="M35.2775 43.5232L35.0826 44.0619L36.7232 44.8448L36.8111 44.237L35.2775 43.5232Z" fill="#D0CECB"/>
<path d="M31.8397 50.5376L30.051 50.0849L29.9272 50.6324L31.7252 51.1253L31.8397 50.5376Z" fill="#D8D8D8"/>
<path d="M24.6349 60.4136C24.9269 59.9613 25.9826 58.2758 25.4885 57.8408C24.9944 57.4062 23.1904 57.0233 22.9679 57.1587C22.7453 57.2941 22.097 58.649 21.758 58.9639C21.4189 59.2784 21.337 58.6775 20.9915 59.3475C20.6461 60.0176 20.2709 60.7358 20.1657 60.8217C20.0604 60.9077 19.927 60.3996 19.643 60.737C19.4137 61.0093 18.4352 62.5502 18.1323 63.2532C18.06 63.4203 18.305 63.5472 18.2869 63.5902C18.1937 63.8132 19.9463 63.6589 21.2542 62.9202C21.8897 62.5611 22.6899 62.1586 23.3238 61.6926C23.9942 61.1993 24.4847 60.6462 24.6349 60.4136Z" fill="#757575"/>
<path d="M24.4344 60.0894C24.7265 59.6371 25.8954 58.1878 25.4013 57.7528C24.9072 57.3181 23.19 57.0233 22.9675 57.1587C22.7449 57.294 22.0966 58.6489 21.7576 58.9639C21.4185 59.2784 21.3366 58.6775 20.9911 59.3475C20.6457 60.0175 20.2705 60.7358 20.1652 60.8217C20.06 60.9077 19.9266 60.3995 19.6426 60.737C19.3587 61.074 18.1793 63.0435 18.0861 63.2664C17.9929 63.4894 19.7455 63.3351 21.0534 62.5964C21.6889 62.2373 22.489 61.8348 23.1229 61.3688C23.7937 60.8755 24.2842 60.3224 24.4344 60.0894Z" fill="#EEECEC"/>
<path d="M22.9674 57.1587C23.19 57.0233 24.9072 57.3181 25.4013 57.7528C25.5158 57.8536 25.5411 58.0086 25.5086 58.1934C24.5204 59.472 22.8084 61.1792 21.8479 61.4652C21.2177 61.6528 20.3239 61.648 19.1666 61.4504L19.4482 61.0081C19.5302 60.8852 19.5976 60.7904 19.643 60.737C19.927 60.3999 20.06 60.9077 20.1656 60.8217C20.2709 60.7357 20.6461 60.0175 20.9915 59.3475C21.337 58.6775 21.4189 59.2784 21.758 58.9639C22.097 58.6493 22.7449 57.294 22.9674 57.1587Z" fill="#E8E5EA"/>
<path d="M21.2471 59.1246C20.8908 59.0985 20.6984 58.6494 20.9579 58.1641C21.2174 57.6789 21.7396 56.806 22.0063 56.6502C22.273 56.4943 24.0176 55.1518 24.592 54.9285C25.1664 54.7052 25.581 54.6067 25.9931 54.3902C26.4056 54.1737 27.2038 52.0917 27.072 51.7475C26.9403 51.4036 25.9356 50.1311 25.5151 49.6036C25.0945 49.0762 24.5868 48.1126 24.9467 47.5C25.3062 46.8874 26.3169 46.4234 26.8591 46.5227C27.4014 46.6219 28.9234 47.1421 29.3926 47.1614C29.8618 47.1806 30.8086 45.1376 30.5889 44.6761C30.3687 44.2145 28.8728 43.1079 28.6575 42.8038C28.4422 42.5001 28.2241 41.8931 28.3976 41.6923C28.5712 41.4914 28.733 41.0801 29.5903 40.7005C30.4479 40.3213 33.9868 41.2958 35.0677 40.7628C36.1487 40.2297 36.4833 39.1223 36.2314 38.7451C35.98 38.3679 35.0846 37.7923 34.6825 36.9656C34.2804 36.1389 33.6449 34.9611 33.9715 34.0007C34.2977 33.0406 35.2316 32.316 35.598 32.2493C35.9639 32.1826 36.2564 31.664 37.3241 31.3077C38.3918 30.9518 39.5848 31.5431 40.4898 31.1952C41.3948 30.847 41.868 29.3037 41.5784 28.8903C41.2888 28.4774 40.0949 27.9524 39.7049 27.8901C39.3148 27.8278 38.7866 27.6431 38.366 27.8266C37.9455 28.0102 37.8872 27.2498 38.2379 26.7513C38.5886 26.2528 39.5398 25.9555 40.338 26.4119C41.1361 26.8682 42.6284 27.7214 42.7686 28.4806C42.9088 29.2398 42.7791 30.7698 42.3637 31.4941C41.9488 32.2183 41.3739 33.0173 39.1875 32.7795C37.7302 32.6212 36.417 33.0495 35.2485 34.0645C35.2304 34.314 35.4168 34.8318 35.8069 35.6183C36.3925 36.7981 38.4066 38.5165 37.8969 39.7943C37.3871 41.0721 36.1824 42.186 35.2292 42.3101C34.276 42.4342 32.0715 42.0739 31.3714 42.0936C30.9046 42.1068 30.4394 42.0365 29.9755 41.8835C30.8166 42.6463 31.2798 43.1163 31.3645 43.2926C31.4919 43.5578 32.6078 45.0304 32.0092 46.0322C31.4103 47.034 30.8082 48.0455 30.1434 48.348C29.4786 48.6504 27.1496 48.0503 26.9041 48.0648C26.7402 48.0744 26.5547 48.1242 26.3474 48.2142C26.9861 48.9489 27.4765 49.6623 27.8188 50.3552C28.3317 51.3944 28.8371 52.5412 28.1486 53.9038C27.4605 55.2663 26.7977 55.7134 25.9192 56.1541C25.0407 56.5947 24.1212 57.1836 23.7159 57.2567C23.3106 57.3298 22.6771 57.8231 22.3325 58.2626C21.9886 58.7048 21.6034 59.1507 21.2471 59.1246Z" fill="#F0EFEE"/>
<path d="M27.7167 50.1632L27.8183 50.3576C28.3313 51.3968 28.8366 52.5436 28.1481 53.9062C27.5363 55.1173 26.9451 55.6053 26.2039 56.0082L25.2608 56.5043C24.6124 56.8594 24.0191 57.2045 23.7154 57.2591C23.3101 57.3322 22.6767 57.8255 22.332 58.265C21.9878 58.7044 21.6025 59.1503 21.2462 59.1242C21.1374 59.1161 21.0438 59.0688 20.9739 58.9928C21.517 58.1099 22.4368 57.2394 23.7323 56.3798L24.3103 56.0119C27.3411 54.1613 27.7352 53.1221 27.9983 52.3103C28.1562 51.827 27.9762 50.9091 27.7167 50.1632ZM24.9679 47.9623C25.0213 48.4797 25.75 49.4201 26.3811 50.2644L26.9647 51.0285C27.3042 51.4896 27.5074 51.8644 27.3576 52.2159C27.2564 52.4537 27.0507 52.7979 26.7193 53.1651L26.9069 52.6509C27.0431 52.2347 27.1202 51.874 27.0716 51.7479C26.9398 51.404 25.9352 50.1315 25.5146 49.604C25.094 49.0766 24.5863 48.113 24.9462 47.5004C25.0262 47.3646 25.1378 47.2357 25.2696 47.1192C25.0748 47.4164 24.9438 47.7301 24.9679 47.9623ZM31.3143 43.2135L31.6035 43.6939C31.9429 44.2667 32.4587 45.283 32.0096 46.0346L31.5589 46.7765C31.1058 47.498 30.6422 48.1234 30.1437 48.3504C29.4789 48.6528 27.1499 48.0527 26.9045 48.0672C26.7406 48.0768 26.555 48.1266 26.3477 48.2166L26.7354 48.6878L26.5301 48.4809C26.214 48.1334 26.0782 47.7956 26.8752 47.7988L28.0067 47.8583C29.1929 47.89 29.9055 47.7149 30.3984 46.9878L30.7435 46.4415C31.2725 45.5453 31.7971 44.3728 31.5384 43.861C31.3705 43.5292 31.107 43.1107 30.7471 42.6057L31.1046 42.9665C31.1982 43.0673 31.2685 43.15 31.3143 43.2135ZM30.1494 43.6734C30.7226 44.192 31.1006 44.7677 30.7254 45.2236C30.6913 45.2649 30.629 45.3059 30.5434 45.3461C30.621 45.0541 30.6495 44.8046 30.5884 44.6769C30.3683 44.2153 28.8724 43.1087 28.6571 42.8046C28.4418 42.5009 28.2236 41.8939 28.3972 41.6931L28.5261 41.5163C28.5048 42.298 29.691 43.2589 30.1494 43.6734ZM35.8068 35.6203C36.3925 36.8001 38.4066 38.5185 37.8968 39.7963C37.3871 41.0741 36.1824 42.188 35.2292 42.3121C34.3816 42.4226 32.5459 42.1498 31.6565 42.102L31.3713 42.0956C30.9419 42.1076 30.5137 42.0494 30.0871 41.9205C29.8204 41.6907 29.6657 41.479 29.6143 41.2802C29.9919 41.6702 32.7391 41.9184 33.7357 41.8184C34.7327 41.7184 35.5393 41.6007 36.1442 40.8295C36.7492 40.0582 37.4401 38.6892 37.2654 38.2261C37.0902 37.7633 36.0635 36.6454 35.6377 35.4287C35.5722 35.2415 35.5148 35.0579 35.4658 34.8784L35.6759 35.3491C35.7164 35.4359 35.7602 35.5263 35.8068 35.6203ZM34.7737 36.4148L35.5485 37.2636C36.1266 37.9023 36.5849 38.4783 36.4917 38.9013C36.458 39.0552 36.3812 39.2026 36.2744 39.3372C36.335 39.0881 36.3174 38.8748 36.2318 38.7463C35.9804 38.3691 35.085 37.7935 34.6829 36.9668L34.3153 36.1999C34.1306 35.7874 33.9639 35.3411 33.9044 34.9033C34.0619 35.4202 34.2956 35.877 34.7737 36.4148ZM42.7682 28.4818C42.9084 29.241 42.7786 30.771 42.3633 31.4953L42.1713 31.807C41.7511 32.4268 41.061 32.9848 39.1871 32.7807C37.7474 32.6241 36.4487 33.0402 35.291 34.0288C35.2525 33.7476 35.2384 33.4748 35.2481 33.2137C35.8795 32.7104 36.5254 32.3871 37.1862 32.2441C38.1772 32.0292 40.1584 32.3172 40.9626 31.7443C41.7668 31.1715 42.6661 29.0454 42.4661 28.4191C42.3673 28.1098 42.0098 27.6374 41.6085 27.1968C42.1809 27.5965 42.6894 28.054 42.7682 28.4818ZM38.4235 27.4101C39.2264 27.1249 40.8011 27.8098 41.2863 28.3091C41.4819 28.5103 41.5968 28.775 41.6434 29.0466C41.6278 28.9839 41.6065 28.9325 41.578 28.8919C41.2883 28.479 40.0945 27.954 39.7045 27.8917L39.1859 27.7897C39.0015 27.7571 38.8107 27.7358 38.6291 27.7583L38.366 27.8282C38.1314 27.9307 38.0097 27.7395 38.0085 27.4635C38.115 27.4876 38.2543 27.4699 38.4235 27.4101Z" fill="#CFC9D3"/>
<path d="M28.1445 55.9721C26.8113 55.2659 26.0541 54.8469 25.8726 54.7152C25.6002 54.5175 26.6057 51.3952 27.1467 51.7017C27.5075 51.9061 28.2936 52.3653 29.5043 53.0799L28.1445 55.9721Z" fill="#9E8DCD"/>
<path d="M26.3091 52.7404C26.755 52.834 27.4174 53.1261 28.2963 53.6157L29.0447 54.0504L28.6064 55.0024L27.7653 54.4693L27.4162 54.2596C26.9302 53.9732 26.4381 53.8415 25.9396 53.8644C25.9898 53.6635 26.0577 53.437 26.1368 53.2084L26.3091 52.7404Z" fill="#E4DEEB"/>
<path d="M32.2583 48.8497C30.6238 47.8033 29.6867 47.2602 29.4461 47.2192C29.0853 47.1581 30.4848 44.7408 30.5423 44.5708C30.5997 44.4009 31.8643 44.9553 32.3672 45.2039C32.7022 45.3698 33.1465 45.6598 33.6996 46.0736L32.2583 48.8497Z" fill="#9E8DCD"/>
<path d="M29.8606 45.8895L30.1197 45.3842L30.6085 45.5806C30.682 45.6096 30.8499 45.6955 31.1118 45.8381L33.2051 47.0243L32.7732 47.8623L32.1988 47.5473C31.7786 47.3256 31.1902 47.0259 30.4334 46.6483L29.6758 46.2764L29.8606 45.8895Z" fill="#E4DEEB"/>
<path d="M38.6307 43.0861C37.4899 42.8029 36.7006 42.4073 36.2632 41.8999C35.8257 41.3926 35.4847 40.9459 35.2408 40.5599C35.6381 39.3452 35.884 38.7125 35.9784 38.6623C36.1202 38.5868 36.4901 38.3301 37.5116 38.7406C38.1925 39.0142 39.0148 39.5508 39.9788 40.3506C39.6028 40.9001 39.3389 41.3291 39.1867 41.6384C39.0344 41.9473 38.8489 42.4302 38.6307 43.0861Z" fill="#9E8DCD"/>
<path d="M35.5875 39.5392L35.6739 39.3107L36.2354 39.4958C36.3355 39.53 36.4387 39.5662 36.5455 39.6039C37.0199 39.7722 38.0326 40.3607 39.5832 41.3685L39.3972 41.2541L39.1871 41.6385L39.0224 42.0088C38.6488 41.8337 38.2909 41.6477 37.9471 41.4537L37.4413 41.1565C36.85 40.7949 36.1165 40.4459 35.2408 40.1096L35.3734 40.1603L35.5875 39.5392Z" fill="#E4DEEB"/>
<path d="M43.7784 33.313C41.8644 32.1862 40.742 31.5777 40.411 31.4873C39.9145 31.3519 40.542 30.9619 40.7593 30.6048C40.9762 30.2481 41.1783 28.673 41.2687 28.6702C41.359 28.6674 42.4653 29.0305 43.2434 29.3615C43.762 29.5821 44.2826 29.9231 44.8044 30.3842L43.7784 33.313Z" fill="#9E8DCD"/>
<path d="M40.8773 30.299L41.0251 29.6965L41.5321 29.8106C41.7763 29.8636 42.4897 30.2577 43.6719 30.992L44.4247 31.4644L44.1355 32.3095L43.8326 32.1284C43.3795 31.8725 42.5781 31.4607 41.4284 30.8939L40.7737 30.5714L40.8303 30.4449L40.8773 30.299Z" fill="#E4DEEB"/>
<path d="M77.2267 45.2939C77.5428 45.1388 76.0232 46.3953 72.947 48.3504C67.8953 51.5611 60.0402 56.4095 58.5644 57.4238C56.19 59.0555 55.0146 60.939 54.807 62.5249C54.5989 64.1108 55.385 66.4097 55.9249 67.389C55.4453 66.809 54.7222 64.7796 54.6571 63.3456C54.5921 61.9115 55.3782 59.6657 57.894 57.7363C59.3132 56.6477 64.8308 53.1598 69.6925 50.0724C73.4463 47.6888 76.8961 45.4562 77.2267 45.2939Z" fill="#EEEEEE"/>
</svg>
