<svg width="70" height="43" viewBox="0 0 100 88" fill="none" xmlns="http://www.w3.org/2000/svg">
<path d="M69.5105 0.99411C70.4864 -0.421218 72.0762 -0.208188 73.0172 0.897131C73.9582 2.00245 74.0064 3.25709 73.7403 4.51782L73.3958 6.18716C73.1888 7.2515 73.0151 8.33247 73.1089 8.68549C73.2562 9.24059 74.0073 11.3177 74.525 12.0526C75.0428 12.787 76.689 13.8136 77.1836 14.4235L78.0337 15.5536C78.4302 16.0721 78.8323 16.5445 79.0656 16.5749C79.3655 16.6142 79.6929 16.2633 79.9218 15.9658L80.1409 15.6627C80.3227 15.405 81.0733 14.4669 81.432 14.4628C81.7907 14.4588 82.2347 15.2026 82.4988 15.6708C82.763 16.1391 83.9393 16.7445 84.2201 17.4826C84.5009 18.2207 85.4504 19.1179 85.9357 19.7164C86.421 20.3149 86.7663 20.8716 86.6287 21.1913C86.4908 21.5107 86.0489 21.9639 86.1747 22.1461C86.3005 22.3283 89.1571 24.6554 89.4355 24.9869C89.6213 25.2077 89.7954 25.7518 89.9581 26.6197C89.6367 27.0645 89.3807 27.329 89.19 27.4134C88.9733 27.5096 87.4512 26.203 86.167 25.0697L85.0621 24.0898L84.4165 23.5379C82.5629 21.9822 78.5085 18.7149 77.0948 17.188L75.5585 15.4724C74.2284 13.9605 72.286 11.7125 69.7312 8.7281C69.1068 7.81065 68.6973 6.80921 68.5026 5.72418C68.2104 4.09541 68.5346 2.40944 69.5105 0.99411ZM69.5746 4.91588C70.1654 6.65501 71.7585 8.71592 72.1017 8.59744C72.445 8.47895 72.4231 7.60208 72.4937 6.71061L72.626 5.42188C72.6743 4.79699 72.6706 4.11692 72.4613 3.44091C72.0949 2.25849 71.4395 1.56219 70.5842 1.78942C69.7288 2.01665 68.9838 3.17634 69.5746 4.91588Z" fill="#0B0B0B"/>
<path d="M19.3914 57.6713C20.2504 56.7928 20.7134 56.23 20.7811 55.9829C20.8826 55.612 21.1772 55.0687 21.6089 54.6722C22.0406 54.2758 22.7162 53.5965 23.2726 52.5505C23.8289 51.5044 25.6195 48.3467 26.5711 47.2288C27.2053 46.4834 27.9328 45.658 28.7533 44.7524C28.6628 44.1652 28.6754 43.7635 28.7918 43.5476C28.9083 43.3318 29.2463 43.1622 29.8063 43.04C29.5571 41.647 29.5758 40.7016 29.8619 40.2037C30.1479 39.7058 30.421 39.5691 30.6807 39.7939C30.9388 39.5358 31.2305 39.3897 31.556 39.3556C32.0445 39.3049 32.9189 38.2921 33.0573 37.8754C33.1957 37.4586 32.772 36.611 32.6812 35.8627C32.5903 35.1145 33.2699 34.3999 33.6696 34.1435C33.9362 33.9727 34.6654 33.8944 35.8567 33.9081L35.8782 33.4967C35.0602 32.7103 34.6025 32.1394 34.5055 31.7839C34.4085 31.4285 34.6069 30.9984 35.1004 30.4932C35.2067 29.9555 35.3621 29.5997 35.567 29.426C35.7719 29.2523 35.9707 29.1525 36.1635 29.1278C36.3514 28.9087 36.2893 28.3872 35.9768 27.5639C35.5082 26.3284 35.4956 24.5746 35.1811 23.8609C34.8666 23.1471 34.0332 20.155 33.6996 19.6384C33.3661 19.1219 33.3211 18.2219 33.3101 18.0519C33.2991 17.8818 32.6962 17.0208 32.5777 16.5886C32.4596 16.1565 32.5197 15.2155 32.7388 15.2037C32.9579 15.192 34.3136 14.8917 36.594 15.3997C38.8744 15.9078 41.6422 17.9046 42.892 19.2351C44.1417 20.5656 46.4104 23.7964 46.733 24.4074C47.0556 25.0185 49.4127 29.0779 50.1747 31.2848C50.9368 33.4918 52.7924 45.0409 53.0452 46.5138C53.2136 47.4958 53.5463 49.6427 54.0425 52.9554L49.2995 56.8675C44.5589 55.4314 39.83 54.6649 35.1125 54.568C30.3967 54.4698 25.1557 55.5045 19.3914 57.6713Z" fill="#351220"/>
<path d="M33.8173 17.7593L34.2044 17.7622C35.4574 17.7857 39.3439 18.1026 40.9653 20.5097L41.9749 22.0236C43.0713 23.6941 43.8909 25.0652 44.5154 26.5118L44.8908 27.4179C45.7388 29.5202 47.1075 33.1673 47.8379 34.7632L48.2319 35.6011C49.3137 38.0243 52.3947 45.949 51.9353 46.6814C51.4379 47.4751 45.2223 52.9449 43.9388 53.2768C42.7138 53.5933 41.7793 53.1673 43.6316 51.054L43.9157 50.7404C46.0099 48.496 48.3885 45.1355 48.9533 44.0768L49.325 43.3144C49.7133 42.4789 50.0035 41.3135 47.8906 40.1623C45.3817 38.7953 41.9185 37.9306 40.9698 37.3406L40.8148 37.2262C40.1769 36.6346 36.5607 35.8246 36.7242 35.3584C36.8873 34.8922 36.9839 33.4752 36.9028 33.1084C36.8484 32.8641 36.357 32.1812 35.4282 31.0593L35.2111 30.0595C35.3065 29.7584 35.4258 29.547 35.5694 29.4252C35.7743 29.2516 35.9731 29.1518 36.1659 29.127C36.3538 28.9079 36.2917 28.3865 35.9792 27.5632C35.5106 26.3276 35.498 24.5738 35.1835 23.8601C34.8978 23.2113 34.1829 20.6793 33.8047 19.8365L33.702 19.6376C33.3685 19.1211 33.3235 18.2211 33.3125 18.0511C33.3097 18.0052 33.2638 17.9095 33.196 17.7857C33.3677 17.7695 33.5758 17.761 33.8173 17.7593Z" fill="#6F374E"/>
<path d="M34.8232 20.3632C34.6402 20.7852 35.9018 21.5391 36.9933 20.8521C38.0848 20.1651 38.1384 19.0943 37.434 18.822C36.7296 18.5498 35.0058 19.9412 34.8232 20.3632Z" fill="#915970"/>
<path d="M36.123 24.067C35.94 24.489 37.5801 25.2604 38.5876 24.8469C39.5952 24.4335 39.5911 22.909 38.9987 22.3539C38.4063 21.7988 36.306 23.645 36.123 24.067Z" fill="#915970"/>
<path d="M37.6584 27.8329C37.6848 28.5073 39.0316 29.2897 40.0391 28.8762C41.0466 28.4627 40.9237 26.8031 40.3313 26.248C39.7388 25.6929 37.6321 27.1586 37.6584 27.8329Z" fill="#915970"/>
<path d="M45.65 36.6982C44.0914 36.8723 44.2493 35.952 43.1204 35.2054C42.1823 34.585 42.4992 33.5535 41.6998 33.659C40.6545 33.7965 40.2232 33.7978 39.4003 33.306C38.4106 32.7148 38.5445 32.1284 38.1818 31.6565C37.2315 30.4213 36.469 31.9767 36.0892 31.413C35.9269 31.172 36.5782 30.1706 37.8426 29.82C39.3167 29.4114 41.6446 29.4191 41.6308 29.3826C41.107 27.9989 40.9329 26.7049 40.8785 26.2245C40.8108 25.6239 40.9057 25.5484 41.0526 23.8617C41.1224 23.059 40.8213 20.9916 39.2019 19.5812C37.3057 17.9297 34.4199 17.2407 34.6678 17.2561C35.0561 17.2805 38.1469 17.1794 40.207 18.7437C42.8396 20.7425 44.5228 24.5324 44.6153 24.7957C44.8656 25.5091 47.2085 36.5241 45.65 36.6982Z" fill="#421A2C"/>
<path d="M32.7403 15.203L33.4005 15.1299C34.0457 15.08 35.1295 15.0723 36.5956 15.399C38.876 15.907 41.6438 17.9038 42.8935 19.2343C44.0597 20.476 46.1141 23.3732 46.6453 24.2508L48.1637 27.0076C48.9229 28.4278 49.7734 30.1155 50.1767 31.2837C50.2704 31.5555 50.3812 31.9694 50.5034 32.4888L50.2903 32.8816C49.7697 34.0023 48.0704 34.3574 47.8784 33.6915L47.6187 32.9003C47.1058 31.3993 46.033 28.4218 45.6621 27.6439C45.1983 26.6717 42.2699 22.4537 40.8306 20.4492C39.3913 18.4447 36.402 17.7074 35.0865 17.5508C34.4742 17.4777 33.8477 17.5613 33.2058 17.8015L32.8596 17.1941C32.7363 16.9717 32.6239 16.7498 32.5797 16.5875C32.4608 16.1557 32.5212 15.2147 32.7403 15.203Z" fill="#380A1D"/>
<path d="M32.7405 15.2029L33.4007 15.1299L33.9659 15.1047C34.6119 15.0966 35.4961 15.1538 36.5957 15.3989C38.8761 15.9069 41.6439 17.9037 42.8937 19.2343C44.0598 20.4759 46.1143 23.3731 46.6454 24.2508L47.1575 25.1841C44.3414 21.3422 42.0022 18.8484 40.1397 17.7029C38.0654 16.4267 35.5293 15.7872 32.5315 15.784C32.5538 15.472 32.6252 15.209 32.7405 15.2029Z" fill="#653348"/>
<path d="M49.598 42.308L50.6648 41.7842L51.09 43.0092C51.7137 44.8615 52.1239 46.3803 51.9352 46.6814C51.4378 47.4751 45.2222 52.9449 43.9387 53.2768C42.7137 53.5933 41.7792 53.1673 43.6315 51.054L43.9156 50.7403C46.0098 48.496 48.3884 45.1354 48.9532 44.0768L49.3249 43.3143C49.4633 43.0161 49.5895 42.6753 49.598 42.308Z" fill="#4C2435"/>
<path d="M1.81172 82.9475C0.966099 81.0725 0.53476 79.8052 0.517718 79.1459C0.492154 78.157 1.23634 76.6378 4.70122 73.0873C8.16569 69.5368 16.3298 61.5805 17.5905 59.8109C18.1935 58.678 18.3574 58.0787 19.0407 57.4039C19.7241 56.7291 24.4708 54.7972 26.0362 54.208C27.6017 53.6184 31.8785 52.8515 36.8914 53.1417C40.2333 53.3352 44.64 54.223 50.1126 55.8055C43.4308 63.1768 37.6632 68.2899 32.8089 71.1449C25.5278 75.4274 13.969 80.2755 10.4847 81.6194C8.16081 82.5154 5.27011 82.9581 1.81172 82.9475Z" fill="#E6E4E7"/>
<path d="M26.0358 54.2085C26.9963 53.8469 28.9777 53.418 31.5235 53.2078L31.9585 52.4945C29.1514 57.2984 25.2036 61.7168 20.1157 65.7498L18.8602 66.7362C12.6978 71.5336 5.2892 76.6257 2.27271 75.767C2.77383 75.1511 3.40724 74.4377 4.20336 73.6031L5.51115 72.2632C9.29659 68.4319 16.4199 61.4547 17.5901 59.8113C18.1931 58.6784 18.357 58.0791 19.0404 57.4043C19.7237 56.7295 24.4704 54.7976 26.0358 54.2085Z" fill="#F5F3F6"/>
<path d="M23.0165 57.1711C25.4097 56.353 30.3415 55.1519 33.5941 55.1621C36.8468 55.1722 41.0035 55.6932 41.8114 55.875C42.5901 56.0503 46.0728 58.5361 46.5013 59.673C41.3232 64.9947 36.7624 68.8191 32.8081 71.145C25.527 75.4275 13.9682 80.2756 10.4839 81.6195C8.16083 82.5155 5.27012 82.9582 1.81173 82.9476L1.35402 81.8955C0.810291 80.5897 0.531524 79.6735 0.517728 79.146C0.502309 78.5548 0.762409 77.7737 1.71516 76.4817C1.9643 77.331 2.93247 77.6097 4.62007 77.3188C8.71714 76.6123 24.4042 69.4614 30.882 65.7949L31.9045 65.1022C34.9656 62.9793 30.3926 56.0308 29.4066 56.1128C27.7624 56.25 24.4959 56.6898 23.0165 57.1711Z" fill="#D4D1D5"/>
<path d="M4.07432 79.141C6.2176 78.9556 15.8052 75.7731 19.5942 74.2332L20.4131 73.8851C23.3716 72.5481 27.764 71.2727 30.0432 72.0335C30.3695 72.1423 30.24 72.428 29.7689 72.8402L28.1572 73.6822C21.3301 77.1836 13.2898 80.5373 10.4839 81.6195C8.16084 82.5154 5.27013 82.9581 1.81175 82.9476L1.35404 81.8954C0.810307 80.5896 0.531541 79.6734 0.517745 79.1459C0.508006 78.7774 0.605392 78.3356 0.910532 77.7423C1.41937 78.4102 2.40377 79.2855 4.07432 79.141Z" fill="#BEBBC0"/>
<path d="M25.7156 54.3306L26.0357 54.2085C27.6012 53.6189 31.878 52.852 36.8909 53.1421C39.8547 53.3138 43.6563 54.0316 48.2963 55.2955C48.0001 55.711 47.4957 56.146 46.7905 56.6021L45.0262 56.073C40.7891 54.8305 37.8518 54.189 36.2141 54.1484L25.7156 54.3306Z" fill="#BFBAC2"/>
<path d="M18.047 58.9057L18.4681 58.6813C20.9036 57.384 24.4021 55.7447 26.8254 55.2647C30.4603 54.5445 35.1222 54.3399 38.1573 54.7003C39.9111 54.9084 42.7888 55.5422 46.7901 56.6017L48.7167 57.1207L48.5743 57.479L47.3955 58.7304L45.9051 57.9249C42.2443 56.1424 35.0098 55.7094 32.2863 55.7504C29.5623 55.7914 25.5391 56.3716 21.7415 57.8089C20.2978 58.3555 18.9486 58.9548 17.6943 59.6073L18.047 58.9057Z" fill="#8F8F91"/>
<path d="M52.5753 54.4714C50.8386 50.987 49.7593 48.0103 49.3381 45.5416C48.7059 41.8381 49.2792 32.3593 49.3766 29.6804C49.474 27.0015 50.2226 24.2597 52.5546 23.0116C54.8866 21.7634 57.5038 21.8677 60.4951 22.2191C63.4865 22.5705 67.2476 21.6729 68.9814 19.9517C70.7153 18.2304 70.7201 15.8457 70.1687 13.45C69.6173 11.0539 68.9356 9.00072 69.3641 8.21311C69.7926 7.42551 71.5293 9.20725 71.8932 9.82768C72.1359 10.2412 72.9365 11.3607 74.295 13.1858C77.4121 16.5278 79.077 18.3034 79.2892 18.5132C79.6077 18.8281 82.9314 21.3686 83.2528 21.7074C83.467 21.9334 85.586 23.8982 89.6104 27.6012C85.1132 29.6824 82.3029 31.0888 81.1789 31.8208C79.4929 32.9189 73.3297 41.2684 70.0295 43.6438C66.7294 46.0192 59.0169 49.0202 57.5752 49.8764C56.6135 50.4477 54.947 51.9791 52.5753 54.4714Z" fill="#C5D5C9"/>
<path d="M55.4085 28.2136C57.0612 27.1484 64.4783 27.4458 66.4844 30.5613C67.4246 32.0217 67.2388 38.8188 65.9427 45.9822L64.0932 46.8725C61.2029 48.2253 58.3889 49.3931 57.5749 49.8764C56.6137 50.4473 54.9476 51.9787 52.5754 54.471C50.8387 50.9866 49.7594 48.0099 49.3382 45.5412C48.9223 43.1037 49.2173 38.2965 49.3662 34.4409L49.7967 33.2175C54.3308 36.9031 57.465 39.7135 58.281 37.6676C59.6529 34.2279 53.7558 29.2787 55.4085 28.2136Z" fill="#B1C9B9"/>
<path d="M71.846 9.75998L72.2157 10.3232C72.6133 10.9038 73.3064 11.8582 74.2945 13.1855L79.2887 18.5129L79.8482 18.9783C80.7985 19.7391 82.6257 21.152 83.1395 21.6024L89.6095 27.6013L87.68 28.5013C86.6648 28.6827 85.9027 28.7638 85.3959 28.744L85.1638 28.7257C83.8309 28.5565 79.212 28.9387 77.6437 29.1948L76.471 29.4305C75.6071 29.6269 74.8763 29.9187 74.8978 30.8012C74.9169 31.5856 75.3284 32.923 76.1322 34.8143L74.533 35.358C67.8346 37.5833 64.1469 38.1059 63.4693 36.9263C62.3754 35.0204 59.6612 33.106 56.4369 32.7554C53.4679 32.4328 50.576 32.6682 49.2698 31.9755L49.3761 29.6805C49.4297 28.2083 49.6796 26.7171 50.281 25.4653L52.7594 25.6134C56.9303 25.8269 64.4752 25.988 67.5128 24.2618C71.5312 21.9785 73.2297 18.8367 72.8605 16.1022L72.6154 14.4166C72.421 13.1502 72.1646 11.5981 71.846 9.75998Z" fill="#A1AEA5"/>
<path d="M71.2247 9.01253L71.4758 9.73642C71.7128 10.4331 71.8885 11.0182 72.0034 11.4918L72.078 11.8261C72.2996 12.9233 73.4097 15.9646 72.6948 18.4337C71.9798 20.9028 69.8864 23.5062 66.3274 24.2845C63.0228 25.0072 60.8524 24.5665 59.0775 24.4582L58.6746 24.4399C56.8239 24.3876 54.7224 23.5578 53.671 25.0538C52.6197 26.5499 51.7655 29.7579 51.5119 31.2666C51.2583 32.7757 51.5196 37.9237 51.897 40.9174C52.1486 42.913 52.4306 44.7808 52.7426 46.5199L50.4691 48.2895L49.3163 45.3996L49.3378 45.5412C48.7056 41.8377 49.279 32.3589 49.3764 29.68C49.4738 27.0011 50.2224 24.2593 52.5544 23.0112C54.8863 21.7631 57.5035 21.8673 60.4949 22.2187C63.4862 22.5701 67.2473 21.6726 68.9812 19.9513C70.715 18.23 70.7199 15.8453 70.1685 13.4496L69.5448 10.8896C69.2567 9.66135 69.1001 8.69764 69.3634 8.21275C69.6572 7.67307 70.5649 8.33976 71.2247 9.01253Z" fill="#BDC7C0"/>
<path d="M52.5433 27.4248L52.489 27.5689C52.0698 28.7643 51.8296 31.4858 51.6571 32.374C50.1038 32.2271 49.6676 31.9971 49.9703 32.6507C50.1907 33.1259 50.4974 33.1227 51.4311 34.5672C51.4924 36.6403 51.6746 39.1532 51.8969 40.9175C52.1485 42.9131 52.4305 44.7809 52.7426 46.52L50.142 49.0662L49.317 45.4062L49.259 45.002C48.7571 40.9906 49.2838 32.2377 49.3763 29.6805C49.4181 28.5338 49.5788 27.3753 49.9326 26.3276C51.061 26.3244 51.9298 26.6912 52.5433 27.4248Z" fill="#94A296"/>
<path d="M70.0603 8.1101L70.1228 8.28905C70.3853 9.1294 70.6073 10.3378 70.8609 11.8444C71.1871 13.7816 71.3803 15.9386 70.755 17.9411C70.1293 19.9432 68.1491 21.5784 66.7926 22.2285C65.5489 22.8246 63.7595 23.1573 61.1224 22.9999L60.3818 22.9447C57.3341 22.674 54.6751 22.6217 53.3385 23.247C52.0019 23.8723 51.2467 24.6858 50.8113 25.5615L50.4376 26.3552C50.1856 26.909 49.859 27.6508 49.4585 28.5808C49.7072 26.2813 50.5403 24.0893 52.5541 23.0112C54.8861 21.7631 57.5033 21.8673 60.4946 22.2187C63.486 22.5701 67.2471 21.6726 68.9809 19.9513C70.7148 18.23 70.7197 15.8453 70.1682 13.4496L69.5445 10.8896C69.2564 9.66136 69.0998 8.69766 69.3632 8.21276C69.4963 7.96849 69.7551 7.97133 70.0603 8.1101Z" fill="#E1E1E1"/>
<path d="M54.7827 51.4241C51.8388 46.0627 49.4894 42.151 47.7336 39.6896C45.1002 35.9975 41.1533 30.9177 40.9272 30.5022C40.7012 30.0863 41.9896 26.6851 42.4469 25.5262C42.7516 24.7536 43.5461 24.4623 44.8291 24.6518C47.0873 24.6465 48.6093 24.6611 49.3945 24.6964C50.1796 24.7317 52.2474 24.9496 55.5971 25.3501C57.8617 25.6901 59.0291 25.9214 59.0997 26.0432C59.2052 26.2262 59.2092 30.7558 58.9654 31.0548C58.7215 31.3543 54.228 30.9968 53.2667 30.718C52.3059 30.4389 49.853 30.2181 49.3093 30.4555C48.7655 30.6929 48.3407 31.3364 49.0857 32.5018C49.8307 33.6672 57.9473 44.8007 59.1723 46.5739C59.9891 47.7563 60.343 48.4636 60.2342 48.6957L54.7827 51.4241Z" fill="#E7E4E7"/>
<path d="M44.8297 24.6518L47.186 24.655C48.0207 24.6603 48.6707 24.6708 49.1374 24.6867L49.395 24.6968C50.1802 24.7321 52.248 24.95 55.5976 25.3505L56.565 25.4998C58.1954 25.7591 59.0406 25.9405 59.1003 26.044C59.2058 26.227 59.2098 30.7566 58.9659 31.056C58.7371 31.3364 54.7735 31.0402 53.4872 30.772L53.2677 30.7188C52.3068 30.4397 49.854 30.2189 49.3102 30.4563C48.7665 30.6937 48.3417 31.3372 49.0866 32.5026L49.97 33.7739C50.5673 34.6155 51.4012 35.7764 52.3271 37.0619C50.5831 36.874 47.378 36.1619 44.6617 35.5053L41.1648 30.8479C41.0374 30.6718 40.9558 30.5533 40.9282 30.503C40.7022 30.0871 41.9905 26.6859 42.4478 25.527C42.7522 24.7536 43.5463 24.4623 44.8297 24.6518Z" fill="#D9D5D9"/>
<path d="M43.8416 33.9901C45.6972 34.3427 46.854 34.505 47.3121 34.477C49.3357 34.3541 49.2521 33.5917 49.1393 33.3876C48.6747 32.5476 47.4132 30.5536 49.1288 30.2668C52.9735 29.6236 53.5091 30.2984 54.6647 30.4088C55.8203 30.5192 58.9695 26.2221 56.2715 25.7538C53.5736 25.2855 47.8555 24.9001 46.7092 24.9905C45.5629 25.081 43.9962 24.769 43.3729 25.0932C42.7497 25.4178 40.9647 29.536 41.0811 29.9365C41.1586 30.2031 42.0789 31.5543 43.8416 33.9901Z" fill="#D1C8CD"/>
<path d="M44.1905 27.9763C45.4621 28.8511 45.3737 33.9013 44.5208 33.9565C43.9519 33.9934 43.2414 33.3961 42.3892 32.1646C41.4264 30.8024 41.2466 30.419 41.1894 30.2234C41.131 30.0225 42.9188 27.1014 44.1905 27.9763Z" fill="#AFA3AA"/>
<path d="M43.7873 28.507C43.8429 29.1911 44.0161 29.3603 44.4365 28.9687C44.8569 28.5776 44.3521 27.8634 44.1561 27.7628C43.9601 27.6618 43.7317 27.8229 43.7873 28.507Z" fill="#4F4F4E"/>
<path d="M53.4233 28.6936C53.5215 29.3169 53.7633 29.6744 54.1496 29.7665L55.3722 30.055C56.488 30.3066 57.9496 30.5955 58.2211 30.4291L58.6776 30.1232C58.7498 30.0789 58.8066 30.057 58.8545 30.0684L58.921 30.1126C59.0444 30.2575 61.3958 31.2881 62.1717 32.5111C62.689 33.3263 62.9666 33.9861 63.0051 34.4901C62.7832 34.1626 62.5734 33.8632 62.3758 33.5921L62.2557 33.3486C61.6572 32.2259 60.7653 31.5036 59.5804 31.1822L59.169 30.8807C59.0452 30.8174 59.1166 30.1889 58.9292 30.4019C58.7417 30.615 58.8115 31.0155 58.0154 30.9919C57.2196 30.968 54.0311 30.227 53.6549 30.0716C53.405 29.9682 53.3275 29.5088 53.4233 28.6936Z" fill="#F1F1F1"/>
<path d="M74.506 13.2122C74.5896 13.2017 78.4152 17.2736 78.4837 17.4294C78.5292 17.5337 78.5819 17.6388 78.642 17.7455C78.8631 17.8571 79.0076 17.9861 79.0754 18.1326C79.1768 18.3525 78.7211 20.1034 78.8283 20.607C78.9354 21.1106 79.8605 21.4027 80.67 21.3191C81.48 21.2355 82.1073 21.0006 82.3974 21.0708C82.591 21.1175 82.8048 21.2104 83.0397 21.3496C83.1984 21.507 83.351 21.6052 83.4974 21.645C83.717 21.7046 87.4517 24.9216 87.9082 25.4669C88.2125 25.8305 88.7404 26.6802 89.4915 28.016L88.1447 28.7419C86.21 28.2343 84.6373 27.9827 83.4256 27.9872C81.6082 27.9941 77.7254 28.2404 76.6233 28.4465C75.5216 28.6526 74.045 29.4885 74.0053 30.6186C73.9789 31.3721 74.6999 33.0402 76.1692 35.6238L69.5807 43.6527C68.6316 44.7954 65.9609 46.4075 61.5684 48.4887C60.9788 44.6169 61.0178 41.6073 61.6848 39.4599L62.4169 37.19C62.6583 36.4126 62.8048 35.806 62.7991 35.2192C63.6816 35.2026 64.6669 35.1287 65.7482 34.9985C70.7871 34.391 69.4594 28.9622 67.859 27.6122C67.1299 26.9971 64.9923 26.1084 61.4471 24.9463L62.9557 25.1066C63.2617 25.1358 63.5441 25.1598 63.7932 25.176C65.9174 25.3168 69.1149 24.6712 70.6008 23.8714C72.0868 23.0717 74.282 20.82 74.3611 18.8492C74.4402 16.8784 73.8827 15.0918 74.0304 14.3078C74.1789 13.5239 74.4224 13.2224 74.506 13.2122Z" fill="#D4CED6"/>
<path d="M74.5061 13.2122C74.5897 13.2017 78.4153 17.2736 78.4839 17.4294C78.5293 17.5337 78.5821 17.6388 78.6421 17.7455C78.8633 17.8571 79.0077 17.9861 79.0755 18.1326C79.1769 18.3525 78.7212 20.1034 78.8284 20.607C78.9355 21.1106 79.8606 21.4027 80.6701 21.3191C81.4801 21.2355 82.1074 21.0006 82.3975 21.0708C82.5911 21.1175 82.8049 21.2104 83.0399 21.3496C83.1985 21.507 83.3511 21.6052 83.4976 21.645C83.7171 21.7046 87.4518 24.9216 87.9083 25.4669C88.2126 25.8305 88.7405 26.6802 89.4916 28.016L88.1449 28.7419C86.2101 28.2343 84.6374 27.9827 83.4257 27.9872C81.6083 27.9941 77.7255 28.2404 76.6234 28.4465C75.9182 28.5784 75.06 28.9683 74.5227 29.5279C73.1171 28.0817 71.7854 26.6331 70.5251 25.1833C70.2715 24.8915 70.0678 24.5564 69.9148 24.179C70.1765 24.0812 70.4041 23.9777 70.6014 23.8718C72.0873 23.0725 74.2825 20.8204 74.3616 18.8496C74.4408 16.8788 73.8832 15.0922 74.0309 14.3082C74.179 13.5239 74.4225 13.2224 74.5061 13.2122Z" fill="#C5BEC7"/>
<path d="M74.506 13.2122C74.5895 13.2017 78.4151 17.2736 78.4837 17.4294C78.5292 17.5337 78.5819 17.6388 78.642 17.7455C78.8631 17.8571 79.0076 17.9861 79.0753 18.1326C79.1768 18.3525 78.7211 20.1034 78.8282 20.607C78.9354 21.1106 79.8605 21.4027 80.67 21.3191C81.4799 21.2355 82.1073 21.0006 82.3974 21.0708C82.5909 21.1175 82.8048 21.2104 83.0397 21.3496C83.1984 21.507 83.3509 21.6052 83.4974 21.645C83.717 21.7046 87.4517 24.9216 87.9082 25.4669C88.2125 25.8305 88.7404 26.6802 89.4915 28.016L88.1447 28.7419C86.4518 28.2976 85.0361 28.0492 83.8967 27.9973L83.3213 27.9872C80.2358 24.9325 77.085 22.4411 73.8689 20.5125C74.1546 19.9643 74.3392 19.3958 74.3615 18.8492C74.4406 16.8784 73.8831 15.0918 74.0308 14.3078C74.1789 13.5239 74.4224 13.2224 74.506 13.2122Z" fill="#B7B1BA"/>
<path d="M76.1696 35.6238L69.5811 43.6527C68.632 44.7954 65.9612 46.4075 61.5688 48.4887C61.2474 46.3791 61.1127 44.5256 61.1646 42.928L61.01 43.0145C64.9164 41.0169 67.6367 39.2059 69.1713 37.582L70.2802 36.3915C71.4468 35.123 72.7871 33.6209 74.301 31.8846C74.6378 32.7777 75.2607 34.0254 76.1696 35.6238ZM87.4159 24.9739L87.8343 25.3854C87.8643 25.417 87.8891 25.4442 87.9077 25.4669C88.2121 25.8305 88.74 26.6802 89.4911 28.016L88.1443 28.7419C86.2096 28.2343 84.6368 27.9827 83.4252 27.9872L82.4818 28.0054C82.1316 28.0164 81.751 28.0318 81.357 28.0505C81.6889 27.8739 81.9843 27.7112 82.2448 27.5615L82.61 27.3469C83.9925 26.5142 85.9475 25.4965 87.4159 24.9739Z" fill="#C6C2C8"/>
<path d="M60.5393 31.5718C61.531 31.9394 62.6055 32.6414 63.0121 34.2044C63.6223 36.5494 62.6181 37.5825 62.0715 40.489C61.5249 43.3959 63.09 47.2625 63.2397 47.4691C63.2604 47.4975 63.2474 47.577 63.2064 47.6898L61.5688 48.4879C60.9792 44.6161 61.0181 41.6065 61.6852 39.4591L62.0622 38.2853C62.8214 35.9728 63.1634 35.0509 62.2557 33.3482C61.8678 32.6207 61.3569 32.0611 60.7231 31.6704L60.5393 31.5718Z" fill="#B2AFB3"/>
<path d="M74.5059 13.2122C74.5213 13.2102 74.667 13.3498 74.8938 13.5795C74.7031 13.803 74.6082 14.1338 74.6126 14.5736C74.622 15.5357 74.9308 18.0762 74.7587 19.1487C74.5867 20.2215 73.1393 22.3977 71.7637 23.5537C70.3882 24.7098 67.1668 25.4353 65.6394 25.5574C64.6214 25.639 61.3435 25.3549 58.9747 25.1208L56.4995 24.8591C55.4984 24.7394 55.2253 24.7584 54.977 25.1074C54.8114 25.3399 54.6199 25.8078 54.4016 26.511C54.4154 25.5647 54.5676 24.9496 54.8581 24.6655C54.9559 24.5698 55.1864 24.4744 55.5495 24.3786L55.623 24.3778C57.1795 24.3636 61.669 25.0356 63.7932 25.176C65.9174 25.3168 69.1149 24.6712 70.6008 23.8714C72.0867 23.0717 74.2819 20.82 74.3611 18.8492C74.4402 16.8784 73.8827 15.0918 74.0304 14.3078C74.1789 13.5239 74.4223 13.2224 74.5059 13.2122Z" fill="#F1F1F1"/>
<path d="M75.2156 28.6384C76.4837 27.9377 81.2726 27.4962 82.9167 27.5554C84.4518 27.6106 87.6346 28.1649 88.4693 28.4518L88.5882 28.5021L88.1447 28.7419C86.21 28.2343 84.6372 27.9827 83.4256 27.9872C81.6081 27.9941 77.7253 28.2404 76.6232 28.4465C75.5216 28.6526 74.045 29.4885 74.0052 30.6186C73.9805 31.3165 74.598 32.8 75.8571 35.0683L75.5135 35.1511C74.5709 33.6225 73.9833 32.3926 73.7512 31.4618C73.4026 30.0655 73.948 29.3388 75.2156 28.6384ZM78.4837 17.4294C78.5291 17.5337 78.5819 17.6388 78.6419 17.7455C78.8631 17.8571 79.0075 17.9861 79.0753 18.1326C79.1767 18.3526 78.7211 20.1035 78.8282 20.607C78.9353 21.1106 79.8605 21.4027 80.67 21.3191C81.4799 21.2356 82.1072 21.0006 82.3974 21.0708C82.4992 21.0956 82.6071 21.1329 82.7203 21.1832C82.2334 21.3114 81.7363 21.4263 81.2332 21.5354C80.0406 21.7939 78.9893 21.5042 78.6269 20.9499C78.2646 20.3952 78.6363 18.6082 78.5653 18.0389L78.4671 17.4095L78.4837 17.4294Z" fill="#DDDDDD"/>
<path d="M24.9345 54.1366C24.5949 54.133 24.3904 53.0013 25.1431 51.87C25.8962 50.7387 26.4529 50.2274 26.745 49.2207C27.0372 48.2144 26.7828 47.962 28.035 46.7236C29.2872 45.4852 31.3514 41.8081 31.4747 41.9071C31.5981 42.0061 35.3242 46.9707 35.4306 49.8119C35.5369 52.6531 34.9781 52.546 34.6945 52.5602C34.4109 52.5744 30.2509 52.3249 28.8039 52.7777C27.3574 53.2306 25.2741 54.1403 24.9345 54.1366Z" fill="#712E3D"/>
<path d="M36.7933 20.3417C36.0337 20.8196 34.6715 20.5401 34.4118 19.9785C34.1521 19.4169 34.6114 18.8119 35.1527 18.3834C35.694 17.9553 36.7462 17.6222 37.1702 18.144C37.5938 18.6654 37.5525 19.8637 36.7933 20.3417Z" fill="#421A2C"/>
<path d="M38.2362 24.2147C37.2972 24.7641 36.1858 24.6359 35.8547 23.8515C35.5236 23.0672 35.9322 22.5373 36.4731 22.1088C37.014 21.6803 38.1948 21.2015 38.674 21.7424C39.1536 22.2832 39.1751 23.6653 38.2362 24.2147Z" fill="#421A2C"/>
<path d="M39.8365 28.3077C38.8975 28.8571 37.8076 28.3288 37.5646 27.7408C37.3215 27.1529 37.7683 26.474 38.5181 25.994C39.268 25.5144 40.1246 25.6231 40.3749 26.3369C40.6249 27.051 40.7754 27.7583 39.8365 28.3077Z" fill="#421A2C"/>
<path d="M28.9801 47.5372C27.9255 48.2343 27.7303 49.1842 27.8375 49.5328C27.9446 49.8814 28.7935 50.0806 29.7815 49.5523C30.7692 49.024 30.0347 46.8401 28.9801 47.5372Z" fill="#190912"/>
<path d="M37.0997 20.1164C37.3963 19.7926 37.3313 19.1097 36.9998 18.8728C36.6683 18.6358 36.0422 18.6102 35.8121 19.072C35.5821 19.5338 35.4405 19.9708 35.776 20.2094C36.1116 20.4476 36.8034 20.4403 37.0997 20.1164Z" fill="#091118"/>
<path d="M38.7295 24.3997C39.0261 24.0759 38.9612 23.393 38.6297 23.156C38.2982 22.9191 37.6721 22.8935 37.442 23.3553C37.2119 23.817 37.0703 24.254 37.4059 24.4926C37.7415 24.7308 38.4333 24.7235 38.7295 24.3997Z" fill="#091118"/>
<path d="M40.2427 28.6506C40.5393 28.3268 40.4744 27.6439 40.1429 27.4069C39.8114 27.17 39.1853 27.1444 38.9552 27.6062C38.7251 28.0679 38.5835 28.505 38.9191 28.7435C39.2547 28.9817 39.9465 28.9744 40.2427 28.6506Z" fill="#091118"/>
<path d="M41.24 33.1222C41.5366 32.7984 41.4717 32.1155 41.1402 31.8785C40.8087 31.6415 40.1826 31.616 39.9525 32.0777C39.7224 32.5395 39.5808 32.9765 39.9164 33.2151C40.252 33.4533 40.9434 33.446 41.24 33.1222Z" fill="#091118"/>
<path d="M42.5182 36.7798C42.8149 36.456 42.7499 35.7731 42.4184 35.5361C42.0869 35.2992 40.9094 35.2679 40.6793 35.7293C40.4492 36.191 40.859 36.6341 41.1946 36.8723C41.5302 37.1109 42.222 37.1036 42.5182 36.7798Z" fill="#091118"/>
<path d="M42.9272 38.0827C42.6062 37.6782 39.453 35.8108 38.277 35.5004C37.1011 35.19 34.7598 34.5574 34.2486 34.7789C33.7373 35.0005 33.379 35.3008 33.3043 35.7747C33.2297 36.2486 33.2922 37.1819 33.6103 37.2614C33.9284 37.3406 34.0875 35.9971 34.8458 35.9727C35.6046 35.9484 39.6059 37.4169 41.2582 38.4938C42.9105 39.5707 37.7499 42.7065 37.272 42.6062C36.794 42.506 33.7596 40.3782 33.0418 40.0974C32.324 39.8166 31.1229 38.8334 30.1884 39.6096C29.2539 40.3859 29.9393 43.4819 30.2505 44.2979C30.4583 44.842 30.6477 45.5392 30.8198 46.3901C31.6366 46.9289 32.0192 47.0016 31.9677 46.6076C31.8902 46.0168 31.3059 42.717 31.1063 42.0848C30.9062 41.4526 31.1055 40.8825 32.0156 41.227C32.9257 41.5715 36.1532 44.1255 36.4101 44.2253C36.6669 44.3247 37.8916 44.0792 40.5051 42.2946C43.1187 40.51 43.2481 38.4873 42.9272 38.0827Z" fill="#EFEDEE"/>
<path d="M35.1852 35.5317C36.3587 35.7658 40.8554 37.4177 41.809 38.2187C42.188 38.5372 42.5743 39.083 42.8068 39.6933C42.4866 40.4662 41.8013 41.4097 40.5057 42.2946C37.8921 44.0792 36.6679 44.3247 36.4106 44.2253C36.1538 44.1259 32.9259 41.572 32.0161 41.2271C31.1888 40.9138 30.9489 41.3565 31.0626 41.9148L31.2192 42.5284C31.373 43.2117 31.5953 44.403 31.7597 45.3383C31.4943 44.7053 31.2821 44.1084 31.1218 43.5481C30.546 41.5354 30.7562 40.6919 31.3957 40.5454C32.0352 40.3989 33.0857 41.2125 34.7356 41.9327C36.3855 42.6529 36.9702 43.9879 38.2013 43.0745C38.5312 42.8299 38.6732 42.4671 38.6282 41.9859L39.1719 41.6405C40.6562 40.6513 42.2947 39.169 41.2596 38.4942C39.6073 37.4173 35.6056 35.9488 34.8472 35.9731C34.34 35.9894 34.101 36.5956 33.903 36.9717C34.0713 35.8725 34.4994 35.3949 35.1852 35.5317ZM29.7596 40.5604L29.728 40.2699C29.8388 41.4868 30.0997 42.6992 30.5111 43.9076C30.7854 44.7134 31.2699 45.6171 31.9638 46.6198C32.008 46.9992 31.6246 46.9204 30.8203 46.3901C30.6828 45.7096 30.5338 45.1273 30.3732 44.6428L30.2506 44.2979C30.0177 43.6868 29.5746 41.7968 29.7596 40.5604Z" fill="#BBB6B6"/>
<path d="M42.1932 37.13C44.825 36.1995 46.8936 36.1626 49.6013 37.3815C52.309 38.6005 55.2221 39.9975 59.2218 42.2204C61.8885 43.7022 64.0768 44.9557 65.7879 45.9806C61.5505 47.1383 58.7896 48.1142 57.5049 48.9087C55.5779 50.1004 42.1226 63.9437 39.9525 65.9977C38.5059 67.3672 35.6785 69.3782 31.4707 72.0311C30.9197 68.2022 30.4218 64.9569 29.9766 62.295C29.3087 58.3027 28.8068 50.0452 29.3006 47.9425C29.794 45.8398 31.5794 43.1739 32.9485 42.1733C34.3172 41.1727 39.5614 38.06 42.1932 37.13ZM35.0078 50.8125C34.406 50.8896 33.7941 51.8022 33.5718 52.0781C33.3494 52.3541 33.3871 52.6827 33.6436 53.6582C33.9 54.6337 34.5911 60.6253 34.725 61.4616C34.8589 62.2979 35.1811 62.8493 35.6055 62.8392C36.0295 62.8294 41.2863 58.0401 41.3954 57.3804C41.5046 56.7206 40.1826 54.4896 39.0976 53.3478C38.0129 52.2068 35.61 50.7354 35.0078 50.8125ZM43.727 41.9501C43.2429 42.2216 42.4943 42.5705 41.615 44.0354C40.7361 45.5002 41.6158 47.0531 42.0581 47.6256C42.5004 48.1982 44.724 48.8032 45.6122 48.9675C46.5004 49.1318 47.7324 49.6232 48.1211 49.4638C48.5098 49.3043 51.1591 46.4128 51.4886 46.0269C51.8185 45.641 51.0597 44.8542 50.0923 44.4643C49.125 44.0743 47.6427 43.3626 46.6563 42.8306C45.6698 42.2987 44.2107 41.6786 43.727 41.9501Z" fill="#5D5B60"/>
<path d="M42.3405 36.9925C44.9723 36.062 47.0409 36.0251 49.7486 37.2441C52.4563 38.463 55.3693 39.8601 59.369 42.0829C62.0357 43.5647 64.2241 44.8182 65.9352 45.8431C61.6977 47.0008 58.9369 47.9767 57.6522 48.7712C55.7252 49.9629 41.5318 64.2396 39.3617 66.2936C37.9151 67.6631 35.0877 69.6741 30.8799 72.327C30.3288 68.4981 29.831 65.2524 29.3858 62.5909C28.7179 58.5985 28.216 50.3411 28.7098 48.2384C29.2032 46.1357 30.9886 43.4698 32.3577 42.4692C33.7263 41.4685 39.7086 37.9225 42.3405 36.9925ZM34.4174 51.1084C33.8156 51.1855 33.2037 52.0981 32.9814 52.374C32.759 52.6499 32.7967 52.979 33.0532 53.9541C33.3096 54.9292 34.0006 60.9212 34.1346 61.7575C34.2685 62.5938 34.5906 63.1452 35.0151 63.1351C35.4395 63.1249 40.6959 58.336 40.805 57.6762C40.9142 57.0164 39.5922 54.7855 38.5071 53.6437C37.4221 52.5026 35.0191 51.0313 34.4174 51.1084ZM43.1362 42.246C42.6521 42.5175 41.9034 42.8664 41.0241 44.3312C40.1448 45.7961 41.0249 47.349 41.4672 47.9215C41.9095 48.494 44.1331 49.0991 45.0214 49.2634C45.9096 49.4277 47.1415 49.9191 47.5303 49.7596C47.919 49.5998 50.5683 46.7087 50.8978 46.3228C51.2276 45.9369 50.4688 45.1501 49.5015 44.7601C48.5341 44.3702 47.0519 43.6585 46.0654 43.1265C45.079 42.5945 43.6203 41.9745 43.1362 42.246Z" fill="#D7D6D8"/>
<path d="M42.3405 36.9924C43.6455 36.531 44.8125 36.2892 45.9872 36.3115C42.7674 38.0835 39.8097 40.4126 37.1134 43.2956C33.022 47.6702 30.0862 51.2731 28.5971 54.5229L28.5463 53.2735C28.4721 51.0325 28.5058 49.1083 28.7103 48.2383C29.2037 46.1356 30.9891 43.4697 32.3581 42.4691C33.7264 41.4684 39.7087 37.9224 42.3405 36.9924Z" fill="#E0DFE1"/>
<path d="M31.3049 46.7873C30.7401 47.1777 30.6614 47.4946 31.1077 47.5498C31.5545 47.6049 32.0256 47.1095 32.015 46.8892C32.0045 46.6688 31.8697 46.397 31.3049 46.7873Z" fill="#4F4F4E"/>
<path d="M36.7876 42.5665C36.2227 42.9569 36.144 43.2738 36.5904 43.329C37.0371 43.3841 37.5082 42.8887 37.4977 42.6684C37.4871 42.4476 37.3524 42.1762 36.7876 42.5665Z" fill="#4F4F4E"/>
<path d="M43.2488 39.3597C42.6839 39.7501 42.6052 40.067 43.0516 40.1222C43.4983 40.1773 43.9694 39.6819 43.9589 39.4616C43.9483 39.2412 43.8132 38.9694 43.2488 39.3597Z" fill="#4F4F4E"/>
<path d="M49.7487 37.244L51.1238 37.8714C53.2245 38.8436 55.5228 39.9769 58.3916 41.544L61.2799 43.1512C63.1006 44.177 64.6526 45.0742 65.9357 45.8427L63.5704 46.5155C60.653 47.3834 58.6805 48.1353 57.6527 48.7708C55.7257 49.9625 41.5322 64.2391 39.3622 66.2931L38.7101 66.875C37.1373 68.21 34.5274 70.0275 30.8808 72.3265L30.1776 67.5669C30.0096 66.4636 29.8477 65.4248 29.6914 64.4514L29.3867 62.5905C29.2946 62.0407 29.2061 61.4101 29.1226 60.726C30.6665 59.3512 32.1167 57.9919 33.4777 56.6455L34.1354 61.757C34.2693 62.5933 34.5915 63.1448 35.016 63.1346C35.4404 63.1245 40.6968 58.3356 40.8059 57.6758C40.9151 57.016 39.5931 54.7851 38.508 53.6433C38.1956 53.3146 37.774 52.9587 37.3175 52.6203C38.7941 50.9684 40.1327 49.3372 41.3326 47.7259L41.4681 47.9211C41.8662 48.4364 43.7072 48.9781 44.7188 49.2009L45.0223 49.263C45.9105 49.4273 47.1424 49.9187 47.5311 49.7592C47.9199 49.5993 50.5692 46.7082 50.8986 46.3223C51.2285 45.9365 50.4697 45.1497 49.5024 44.7597C48.6961 44.4347 47.5324 43.8865 46.5963 43.4048L46.0663 43.1261C45.6768 42.9159 45.2138 42.6923 44.7662 42.515C45.934 40.4752 46.8645 38.4695 47.5596 36.497C48.251 36.6492 48.9737 36.8951 49.7487 37.244Z" fill="#CBCCCF"/>
<path d="M50.9416 46.386C51.4135 46.0894 51.8786 45.8727 52.333 45.7591C54.8378 44.9869 57.2144 44.1555 59.4632 43.2649L60.6258 42.7885L61.2799 43.1512C63.1006 44.177 64.6526 45.0742 65.9357 45.8427L63.5704 46.5155L62.1904 46.9399C60.0216 47.6309 58.5093 48.2412 57.6527 48.7708C55.7257 49.9625 41.5322 64.2391 39.3622 66.2931L38.7101 66.875C37.1373 68.21 34.5274 70.0275 30.8807 72.3265L30.1082 67.1144L31.5077 65.8825C32.4921 65.0036 33.5686 64.0208 34.6674 62.9987C34.7717 63.0908 34.8893 63.1379 35.0155 63.135C35.4396 63.1253 40.6963 58.336 40.8055 57.6762C40.8254 57.5553 40.7974 57.3816 40.7316 57.1718L41.7412 56.1448C42.5361 55.3272 43.2072 54.6122 43.6954 54.0527C44.8636 52.714 46.0789 51.1766 47.2966 49.7868C47.3948 49.7925 47.4723 49.7832 47.5307 49.7592C47.8748 49.618 49.9893 47.3368 50.6998 46.5467L50.9416 46.386Z" fill="#BCBDC1"/>
<path d="M42.3405 36.9925C44.9723 36.062 47.0409 36.0251 49.7486 37.2441L51.1238 37.8714C53.2245 38.8436 55.5228 39.9769 58.3916 41.544L59.3695 42.0829C61.8004 43.4337 63.8342 44.595 65.471 45.566L64.9914 45.7105L57.7001 41.8524C53.5852 39.6957 50.9627 38.3697 49.8318 37.8746L49.6573 37.8C47.4057 36.8598 45.4134 36.7003 43.4198 37.1666C41.4263 37.6332 34.2981 41.585 33.0244 42.4087C31.7507 43.2324 29.9048 46.0075 29.2986 47.4528C28.95 48.2835 28.7326 50.893 28.6457 55.2818C28.4676 52.2393 28.4473 49.3612 28.7106 48.238C29.2041 46.1353 30.9895 43.4694 32.3585 42.4688C33.7264 41.4685 39.7087 37.9225 42.3405 36.9925Z" fill="white"/>
<path d="M29.6772 43.0696L29.6634 43.163L29.5843 43.2774C29.3883 43.4831 30.7079 45.277 31.2256 45.8256L31.3453 45.9421C31.73 46.2679 31.9305 46.8125 31.8664 46.9829C31.8022 47.1533 31.4699 47.523 30.9883 47.4223C30.5066 47.3217 29.689 46.1588 29.1749 45.3695C29.0381 45.1593 28.8868 44.8911 28.7346 44.586L28.7541 44.7524C28.6636 44.1652 28.6762 43.7635 28.7926 43.5476C28.8994 43.3484 29.1944 43.1889 29.6772 43.0696ZM35.7711 29.2767L35.8973 29.2118L36.0243 29.1582L36.1643 29.1274L36.1756 29.1046L36.213 29.09C36.5059 28.9825 36.9016 28.9168 37.3483 28.8567L38.2946 28.7329C39.1142 28.6181 40.4865 28.6412 40.954 28.4875L41.52 28.3268C42.2585 28.1308 43.385 27.8601 43.7368 27.7932C44.2058 27.7035 44.6696 28.3962 44.291 28.9009C43.9125 29.4057 42.2301 29.8987 41.5115 29.919C40.7929 29.9393 39.7119 30.0639 38.7523 30.1207C37.7926 30.1775 37.1004 30.5508 36.7656 30.7184C36.4309 30.886 35.7264 31.0304 35.5779 31.1777C35.6461 31.4313 37.1791 32.9254 37.8888 33.5527C38.5985 34.1804 41.5521 36.2803 42.1721 36.9993L43.1439 38.0515C43.5456 38.5047 43.8634 38.9458 43.7984 39.2607C43.682 39.8275 43.277 40.0556 42.8826 40.0296C42.4882 40.0032 41.3115 38.6601 40.9183 38.1842C40.5815 37.7759 39.7777 37.0837 39.0497 36.4024L38.6947 36.064C37.9817 35.3697 36.753 34.4129 36.254 33.8749L36.1034 33.6943C35.9841 33.5247 35.881 33.4427 35.8072 33.4265L35.8778 33.4963C35.0598 32.7099 34.6021 32.139 34.5051 31.7835C34.4081 31.4281 34.6065 30.998 35.0999 30.4928C35.2062 29.9551 35.3617 29.5993 35.5666 29.4256L35.7711 29.2767ZM35.7942 33.9069L35.8401 34.0315C35.8871 34.3687 35.5544 34.6101 35.4343 34.5894C35.2943 34.5655 34.0741 34.6288 33.8205 34.9964C33.6091 35.3028 34.4 36.7879 34.96 37.7114L35.6214 38.7664C36.17 39.6859 36.9113 41.0562 37.0501 41.4279L37.2095 41.8783C37.341 42.28 37.44 42.7044 37.3 42.8233C37.1036 42.9901 36.6695 43.3305 36.3911 43.1528C36.2053 43.0343 35.9955 42.6837 35.8137 42.3121L35.5686 41.7647C35.3791 41.3057 33.6903 38.4702 33.0029 37.1762L32.7676 36.3119C32.7306 36.161 32.6998 36.0092 32.682 35.8619C32.5911 35.1137 33.2707 34.3991 33.6704 34.1427C33.9325 33.9751 34.6402 33.8964 35.7942 33.9069Z" fill="#F1EEEE"/>
<path d="M28.7202 44.4902C29.1897 45.2064 29.7513 45.9547 30.0836 46.2606C30.6346 46.7682 31.6154 46.8206 31.1183 46.1011C30.8448 45.7055 30.3981 45.0234 30.1148 44.3908C30.4894 44.9419 30.9617 45.5452 31.2258 45.8248L31.3456 45.9413C31.7302 46.2671 31.9307 46.8116 31.8666 46.9821C31.8024 47.1525 31.4701 47.5222 30.9885 47.4215C30.5068 47.3209 29.6892 46.1579 29.1751 45.3687C29.0383 45.1585 28.887 44.8903 28.7348 44.5852L28.7202 44.4902ZM34.5552 31.913C35.0819 32.406 35.6471 32.9546 36.2505 33.5584C37.1736 34.4819 38.4031 35.3831 39.2946 36.079L39.7093 36.4089C40.5971 37.1348 42.5124 39.1426 42.8625 38.8476C43.117 38.6333 42.6929 38.0012 42.1703 37.2854L41.5219 36.3959L41.909 36.7331C41.9642 36.7838 42.0141 36.8317 42.0583 36.876L43.1454 38.0507C43.5471 38.5039 43.8648 38.945 43.7999 39.2599C43.6834 39.8267 43.2785 40.0548 42.884 40.0288C42.5773 40.0085 41.7974 39.1913 41.2808 38.6053L40.9197 38.1833C40.5829 37.7751 39.7791 37.0829 39.0511 36.4016L38.6961 36.0632C37.9831 35.3689 36.7545 34.4121 36.2554 33.8741L36.1048 33.6935C35.9855 33.5239 35.8825 33.4419 35.8086 33.4257L35.551 33.1717C35.0401 32.6539 34.7134 32.2461 34.5706 31.9483L34.5552 31.913ZM33.8147 35.0139C33.6093 35.3032 34.3998 36.7883 34.9602 37.7118L35.6216 38.7668L36.007 39.4307C36.4696 40.2459 36.9423 41.139 37.0503 41.4279L37.2097 41.8783C37.3412 42.28 37.4402 42.7044 37.3002 42.8233C37.1038 42.9901 36.6697 43.3305 36.3913 43.1528C36.2055 43.0343 35.9957 42.6837 35.8139 42.3121L35.5688 41.7647C35.3793 41.3057 33.6905 38.4702 33.0031 37.1762L32.8786 36.7246L33.6946 38.1164C33.9327 38.514 34.1368 38.8456 34.3077 39.1105L34.6035 39.5524C35.2604 40.4784 36.188 42.4744 36.5865 42.1676C36.8961 41.929 36.7825 41.5155 35.8602 39.9054L34.8624 38.2085C33.5209 35.9565 33.5749 35.2687 33.8147 35.0139ZM35.2543 30.7265C35.9028 30.453 36.4611 30.272 36.9302 30.1836L37.8046 30.0643C39.0763 29.8776 41.7252 29.4017 42.785 29.0839C43.5272 28.8616 43.78 28.4599 43.5438 27.8792L43.5248 27.8374L43.7374 27.7932C44.2064 27.7035 44.6702 28.3962 44.2917 28.9009C43.9131 29.4057 42.2307 29.8987 41.5121 29.919C40.7935 29.9393 39.7125 30.0639 38.7529 30.1207C37.7932 30.1775 37.101 30.5508 36.7662 30.7184C36.4428 30.8803 35.7745 31.0203 35.5956 31.1627L35.2543 30.7265Z" fill="#BDB8B8"/>
<path d="M2.45938 82.8258C1.83369 81.8881 1.45104 81.2405 1.31186 80.8822C1.10289 80.345 0.76164 79.2124 0.373723 79.1727C-0.0141934 79.1329 -0.153375 79.9181 0.215064 80.9386C0.583504 81.9591 0.772593 82.2931 1.12805 83.0036C1.4835 83.7141 2.57665 85.8756 4.72115 86.5094C6.86565 87.1432 11.3908 87.4626 11.8217 87.2686C12.2527 87.0747 12.4689 86.593 12.5545 86.3861C12.6406 86.1791 13.0638 85.5875 12.9871 85.3935C12.9104 85.1996 7.78309 85.2771 5.86826 84.875C4.59171 84.6068 3.45555 83.9234 2.45938 82.8258Z" fill="#BFAFAF"/>
<path d="M51.5812 70.4531C51.6721 70.443 52.0884 70.4734 52.3168 70.5623C52.5453 70.6511 52.9442 71.2829 53.0805 71.2959C53.1714 71.3044 53.2862 71.2748 53.425 71.2067C59.9137 67.9593 63.3761 66.2266 63.8127 66.0083C64.4672 65.6809 65.2062 65.2276 64.9509 64.2396C64.7809 63.581 64.6738 63.1902 64.6296 63.0673C55.8702 67.9978 51.5207 70.4596 51.5812 70.4531Z" fill="#606060"/>
<path d="M2.6164 82.2006C1.95459 82.5086 1.9907 83.1136 2.52429 83.7652C3.05788 84.4169 4.27194 85.1802 5.60571 85.4975C6.93948 85.8152 12.1459 86.1662 12.4158 86.0453C12.6856 85.9239 12.9737 85.265 13.5223 85.3802C14.0709 85.4954 14.88 84.7525 15.0999 84.7821C15.3199 84.8113 15.4079 85.5287 15.8863 85.592C16.3647 85.6553 16.8074 85.4082 16.9697 85.5579C17.132 85.7077 17.6356 86.2863 18.312 86.2137C18.988 86.1406 22.1368 85.325 22.8875 85.2069C23.6382 85.0889 26.692 84.0813 26.935 83.9085C27.1781 83.736 27.6593 82.3523 27.9523 82.0318C28.2453 81.7112 28.856 81.9734 29.0406 82.343C29.2256 82.7131 31.7451 82.0095 32.742 81.5522C33.739 81.0949 42.4387 76.6756 43.5509 76.1428C44.6632 75.6101 45.8951 74.9905 46.2542 74.79C46.6133 74.5891 46.5857 74.0397 46.5792 73.5658C46.5727 73.0919 47.1976 71.4152 47.9978 71.0707C48.798 70.7262 50.6406 70.9332 51.0784 70.8666C51.5162 70.8001 64.4137 64.2586 64.7679 64.059C65.1221 63.8593 65.2962 63.2487 65.8545 62.8117C66.4129 62.3746 67.6708 61.8784 68.2076 62.061C68.4624 62.1478 68.6901 62.3454 68.8909 62.6542C68.9721 62.7792 69.0094 62.862 69.1437 62.9403C69.278 63.0182 69.4635 62.9095 69.6327 62.8238C79.3898 57.8682 84.354 55.3378 84.5253 55.2323C84.7866 55.0712 84.1637 54.4033 84.4319 54.226C84.7001 54.0486 84.5938 54.31 84.946 54.1505C85.2979 53.9906 85.8562 53.5191 85.9795 53.6331C86.1029 53.7471 86.169 54.1233 87.0828 53.4205C87.9966 52.7177 92.0219 49.0702 93.3544 47.5397C94.687 46.0091 97.5493 42.3791 98.8806 39.0984C99.7684 36.9109 100.128 35.539 99.9592 34.9823C99.0206 33.1068 98.4923 32.0514 98.3746 31.8165C98.1981 31.4638 97.5712 30.2575 96.5945 30.9875C95.951 30.7404 95.0343 30.322 93.9724 28.1065C93.201 26.985 91.412 25.5676 90.9636 25.6041C90.5148 25.6406 87.825 27.0336 85.1717 27.8866C82.5183 28.7395 79.5201 29.547 78.4314 30.4303C77.3427 31.3137 72.3765 36.6849 70.5213 38.9008C68.6665 41.1171 65.8894 44.3032 64.6863 44.8462C63.4832 45.3891 58.5994 46.4201 57.5293 46.9318C56.4593 47.4439 45.5701 58.1644 42.3892 61.1285C39.2088 64.0927 33.513 69.1327 30.3273 71.0297C27.1416 72.9267 14.0494 79.0194 10.9789 80.0411C7.90846 81.062 3.27862 81.8926 2.6164 82.2006Z" fill="#968E8F"/>
<path d="M2.65322 82.4676C1.99141 82.7756 1.99059 83.1136 2.52459 83.7652C3.05818 84.4169 4.27225 85.1802 5.60601 85.4975C6.93978 85.8152 12.1462 86.1662 12.4161 86.0453C12.6859 85.9239 12.974 85.265 13.5226 85.3802C14.0712 85.4954 14.8803 84.7525 15.1002 84.7821C15.3202 84.8113 15.4082 85.5287 15.8866 85.592C16.365 85.6553 16.8077 85.4082 16.97 85.5579C17.1323 85.7077 17.6359 86.2863 18.3123 86.2137C18.9883 86.1406 22.1371 85.325 22.8878 85.2069C23.6385 85.0889 26.6923 84.0813 26.9353 83.9085C27.1784 83.736 27.6596 82.3523 27.9526 82.0318C28.2456 81.7112 28.8563 81.9734 29.0409 82.343C29.2259 82.7131 31.7453 82.0095 32.7423 81.5522C33.7393 81.0949 42.439 76.6756 43.5512 76.1428C44.6635 75.6101 45.8954 74.9905 46.2545 74.79C46.6136 74.5891 46.586 74.0397 46.5795 73.5658C46.573 73.0919 47.1979 71.4152 47.9981 71.0707C48.7983 70.7262 50.6409 70.9332 51.0787 70.8666C51.5165 70.8001 64.4139 64.2586 64.7682 64.059C65.1224 63.8593 65.2965 63.2487 65.8548 62.8117C66.4132 62.3746 67.6711 61.8784 68.2079 62.061C68.4627 62.1478 68.6904 62.3454 68.8912 62.6542C68.9724 62.7792 69.0097 62.862 69.144 62.9403C69.2783 63.0182 69.4638 62.9095 69.633 62.8238C79.3901 57.8682 84.3543 55.3378 84.5256 55.2323C84.7869 55.0712 84.164 54.4033 84.4322 54.226C84.7004 54.0486 84.5941 54.31 84.9463 54.1505C85.2981 53.9906 85.8565 53.5191 85.9798 53.6331C86.1032 53.7471 86.1693 54.1233 87.0831 53.4205C87.9969 52.7177 92.0222 49.0702 93.3547 47.5397C94.6873 46.0091 97.5496 42.3791 98.8809 39.0984C99.7687 36.9109 100.128 35.539 99.9594 34.9823C99.0209 33.1068 98.4926 32.0514 98.3749 31.8165C98.1984 31.4638 97.5715 30.2575 96.5948 30.9875C95.9512 30.7404 95.0346 30.322 93.9727 28.1065C93.2013 26.985 91.4123 25.5676 90.9639 25.6041C90.5151 25.6406 87.8622 27.3006 85.2085 28.1536C82.5551 29.0065 79.5569 29.814 78.4682 30.6973C77.3799 31.5807 72.4133 36.9519 70.5581 39.1678C68.7033 41.3841 65.9262 44.5702 64.7231 45.1132C63.52 45.6561 58.6362 46.6871 57.5662 47.1988C56.4961 47.7109 45.6069 58.4314 42.426 61.3955C39.2456 64.3597 33.5498 69.3997 30.3641 71.2967C27.1784 73.1937 14.0862 79.2863 11.0157 80.3081C7.94528 81.329 3.31503 82.1592 2.65322 82.4676Z" fill="#D3CACB"/>
<path d="M98.4316 31.9134L99.6562 34.3785L98.8783 35.1579C96.9071 37.1324 94.8786 39.2132 92.7926 41.4003C89.0384 45.3371 86.0665 51.4318 86.0685 53.3754L86.0844 53.5962C86.0913 53.6396 86.0888 53.6875 86.0763 53.739L85.9789 53.6323C85.8559 53.5178 85.2976 53.9897 84.9454 54.1496C84.5936 54.3095 84.6995 54.0482 84.4313 54.2251C84.163 54.402 84.7863 55.0699 84.5246 55.2314L69.632 62.823C69.4632 62.9086 69.2774 63.0173 69.143 62.9394C69.0087 62.8615 68.9714 62.7783 68.8903 62.6534C68.6894 62.3446 68.4617 62.147 68.2069 62.0601C67.6701 61.8775 66.4122 62.3738 65.8539 62.8108L65.6818 62.9613C62.1171 60.2143 60.9449 57.8811 62.1678 55.9618C64.37 52.5058 79.9264 47.1355 86.7827 41.6653C91.0628 38.2511 94.9456 35.0005 98.4316 31.9134Z" fill="#CFC3C4"/>
<path d="M17.0427 85.6342C18.2686 85.4561 19.5191 85.1923 20.7945 84.8434L22.7491 84.2862C24.6489 83.725 26.6388 83.0807 27.008 82.808C27.2288 82.229 28.7569 80.1376 30.1666 79.8804C31.1063 79.7091 31.8757 79.9145 32.4746 80.4971L34.4694 79.499L36.5412 78.4902C39.9209 76.8127 44.6611 74.3477 46.6319 73.2541C46.6055 73.3422 46.5901 73.4177 46.5832 73.481L46.5771 74.0491C46.5605 74.3672 46.4931 74.6561 46.2537 74.7896L45.0174 75.425L41.4028 77.2132C38.424 78.7109 33.4789 81.2133 32.742 81.5513L32.2327 81.7587C31.0731 82.188 29.1992 82.6595 29.0405 82.3422C28.8555 81.9721 28.2448 81.7104 27.9523 82.031C27.6593 82.3515 27.1785 83.7348 26.935 83.9076C26.7106 84.0671 24.0914 84.9379 23.0993 85.1639L22.2695 85.3311C21.0736 85.5965 18.8654 86.1532 18.312 86.2128C17.8291 86.2648 17.4343 85.9844 17.1888 85.7657L17.0427 85.6342ZM64.3966 63.1951L64.4996 63.0819C65.0413 62.2407 67.8935 61.9222 69.2049 61.3111L70.781 60.5203C72.9056 59.4312 76.9876 57.3 83.0271 54.1265L83.7985 54.0616C84.358 54.0218 84.709 54.0186 84.851 54.0515C84.8973 54.062 84.9375 54.0884 84.9716 54.131L84.9452 54.1492C84.5934 54.3091 84.6993 54.0478 84.4311 54.2247C84.1629 54.4016 84.7861 55.0695 84.5244 55.231L69.6318 62.8226C69.463 62.9082 69.2772 63.017 69.1429 62.9391C69.0085 62.8611 68.9712 62.778 68.8901 62.653C68.6892 62.3442 68.4616 62.1466 68.2067 62.0597C67.6699 61.8772 66.412 62.3734 65.8537 62.8104C65.2953 63.2474 65.1213 63.8581 64.767 64.0578L55.9833 68.4977C53.4213 69.7759 51.2528 70.8386 51.0775 70.8654C50.9307 70.8877 50.6263 70.8792 50.2559 70.8711L51.4488 70.0899C51.7085 69.9244 51.995 69.745 52.3086 69.5523L52.7992 69.2528C54.0275 68.5099 63.2105 64.2683 64.3966 63.1951Z" fill="#655B5C"/>
<path d="M91.3517 28.0781C90.1989 29.0028 86.506 31.3956 83.8469 33.1052C81.1879 34.8147 75.7782 37.5922 74.8883 38.2081C73.9985 38.8241 73.5635 40.3879 75.1079 40.2962C76.6522 40.2049 78.9566 39.2607 82.8017 36.8707C86.6468 34.4807 90.7592 31.2707 91.686 30.298C92.6128 29.3258 92.5045 27.1533 91.3517 28.0781Z" fill="#DDD8D9"/>
<path d="M91.4214 25.9685C91.5338 25.9693 91.7132 26.018 91.9315 26.1007C92.6351 26.6108 93.4969 27.4142 93.9725 28.1052C95.0344 30.3212 95.951 30.7391 96.5946 30.9862L96.655 30.9432L96.7244 31.0507C96.9768 31.2865 96.974 31.5316 96.7155 31.7864C96.3276 32.1686 94.9922 30.5695 94.3162 30.6937C93.6402 30.8178 92.5876 31.9921 91.4969 32.8191L90.9929 33.1847C89.2996 34.3817 85.0094 37.2188 82.8998 38.37L81.4861 39.1442C79.6216 40.1611 77.8626 41.0721 76.5089 41.3439C74.8173 41.6835 74.3965 40.8298 74.2906 40.3721C74.1847 39.9144 74.2488 39.7233 74.4066 39.141L74.5194 39.3658C74.7276 39.7484 75.0827 40.123 76.2983 39.789C77.7571 39.3885 84.936 35.2898 86.8244 34.1464C88.7129 33.0029 91.8795 30.4758 92.6659 29.7965C93.4523 29.1172 93.4275 28.4534 93.294 28.1081C93.1605 27.7628 92.56 27.3391 92.3616 27.0007C92.1632 26.6623 91.5099 26.6376 91.1909 26.4124C90.872 26.1872 89.9911 26.655 90.2946 27.1683C90.5372 27.579 90.8582 27.848 91.0854 28.0606L91.5143 28.4972C91.6624 28.6591 91.7509 28.8109 91.5379 28.8823C91.197 28.9959 90.8992 28.5751 90.5421 28.5824L90.0941 28.5962C89.7541 28.5978 89.3686 28.5601 89.1645 28.3398L88.9328 28.0825C88.7141 27.8163 88.5802 27.5242 88.9458 27.2199C89.4331 26.8133 90.8545 25.9648 91.4214 25.9685Z" fill="#C2BCBA"/>
<path d="M90.8371 28.162C89.9765 28.737 86.0738 31.1148 84.2697 32.2944C82.4657 33.474 77.9913 36.1671 76.5556 36.8049C75.12 37.4428 77.7762 32.449 76.5613 33.713C75.3468 34.9769 69.6705 40.7868 70.9641 40.7795C72.2577 40.7721 74.2955 39.9647 74.7702 39.4859C75.245 39.007 75.2535 38.3761 76.8275 37.5637C78.4015 36.7514 83.2034 33.8716 85.5832 32.3784C87.9631 30.8851 90.5198 29.0701 91.2664 28.343C92.0131 27.6154 91.6978 27.587 90.8371 28.162Z" fill="#ECE6E7"/>
<path d="M99.4962 34.0571L99.9587 34.9811C100.128 35.5378 99.768 36.9101 98.8802 39.0972C97.6373 42.1596 95.0611 45.5258 93.6397 47.2053L93.3536 47.5389C92.0211 49.0694 87.9958 52.7169 87.082 53.4197C86.5866 53.8007 86.3403 53.8648 86.1991 53.8251C86.0132 53.1365 86.0083 52.361 86.449 51.797C87.1599 50.8873 89.2951 50.2486 92.0572 47.3907C94.8192 44.5329 96.7195 41.1906 97.7822 39.1711C98.4119 37.9744 98.9723 36.3238 99.4625 34.2186L99.4962 34.0571Z" fill="#A59A98"/>
<path d="M96.4237 31.0004L96.3641 30.8925L96.5946 30.9862C96.8571 30.7898 97.0945 30.7338 97.3042 30.7631L97.3294 30.9026C97.3874 31.5348 96.4091 32.5635 94.7954 34.0417L91.9542 36.7656C88.9405 39.7671 85.4716 42.517 81.7373 44.8153L80.3978 45.6317C77.9587 47.062 74.5653 48.8819 75.6146 48.3033L76.5941 47.7291C78.4534 46.6088 81.9633 44.3896 83.5478 43.202L84.475 42.4626C86.5424 40.7738 90.863 37.1495 91.3252 36.6532L94.4878 33.5673C95.5505 32.5107 96.4724 31.5417 96.4927 31.3214C96.5012 31.2268 96.4785 31.1197 96.4237 31.0004Z" fill="white"/>
<path d="M78.4683 30.6961C79.5566 29.8127 82.5549 29.0053 85.2086 28.1523C86.7883 27.6447 88.3679 26.8506 89.4822 26.2838C88.7867 26.7975 88.1646 27.2154 87.6112 27.5396C86.1427 28.3994 83.4277 29.1611 81.8813 29.6013C80.3345 30.0412 78.5929 30.8945 77.4495 32.3013L76.8574 33.0005C75.494 34.5676 73.1998 37.0014 72.6046 37.7042L71.8178 38.6752C70.9129 39.843 69.5803 41.7436 68.4588 44.1243C66.9956 47.2292 62.5784 47.6833 61.1622 47.3745L60.9882 47.3278C59.8062 46.9367 58.0873 47.5226 57.182 48.1856C56.7596 48.4948 55.9469 49.2613 54.9848 50.2072L51.4611 53.7406C50.1131 55.0971 48.9976 56.2455 48.1139 57.1848C49.2581 56.2666 53.6165 53.2143 52.803 54.456C51.9894 55.6977 49.1539 58.6691 46.8767 60.2106C44.5995 61.7522 42.3284 63.5217 40.7435 64.6664C39.1581 65.8111 34.9405 69.2966 32.7051 70.6722L29.8631 72.4077C27.0897 74.0746 23.1947 76.3205 19.5245 78.0098C16.0292 79.6186 12.837 80.8258 9.94749 81.6313C12.9258 80.8611 15.4802 80.0358 17.6109 79.1557C20.8067 77.8357 24.5962 75.9866 28.404 73.7626L29.739 72.9685C32.9896 71.0058 37.0607 68.361 39.2567 66.89L41.9226 65.0876C44.2566 63.5315 47.3815 61.5481 48.4596 61.3898C49.8696 61.1829 50.8171 62.0041 51.2728 62.6254C51.5767 63.0393 52.0393 64.02 52.6601 65.5672L52.2036 64.6165C51.9983 64.1977 51.8271 63.8634 51.6899 63.6138C51.3475 62.9902 50.7567 62.2452 49.6907 61.9007C48.8025 61.6138 45.8079 63.3562 41.9859 65.8728L39.604 67.4654C34.6825 70.7964 25.6285 75.9781 22.8258 77.3601C20.0232 78.7422 13.6627 81.2989 10.5071 82.0269C7.35138 82.7548 3.90882 82.7849 3.30503 82.7691C2.96012 82.7601 2.69151 82.9865 2.49998 83.4479L2.42573 83.639C1.99399 83.0681 2.03537 82.7544 2.65336 82.4668C3.31517 82.1588 7.94542 81.3282 11.0159 80.3064C14.0864 79.2847 27.1785 73.192 30.3642 71.2951C33.55 69.3981 39.2458 64.358 42.4262 61.3939L46.787 57.2225C51.1628 53.0066 56.8107 47.5587 57.5659 47.1972C58.6359 46.6851 63.5193 45.6544 64.7229 45.1115C65.6253 44.7041 67.4131 42.81 69.033 40.9536L71.201 38.4143C73.3678 35.9212 77.4888 31.491 78.4683 30.6961Z" fill="#5B2906"/>
<path d="M2.6875 83.9426L3.60657 84.3147C5.36843 84.9992 6.7233 85.3701 7.67158 85.4273L8.90026 85.4821C10.469 85.5328 12.1436 85.5288 12.385 85.5214C12.6922 85.5121 13.9424 84.4782 14.1976 83.9694L14.3453 83.6302C14.4958 83.2495 14.5879 82.9761 14.7998 83.3802C15.072 83.9 16.3896 84.5119 17.2851 84.5358C18.136 84.5582 24.3289 82.1625 25.956 81.3712L26.1735 81.2601C27.3515 80.6169 28.0413 80.3674 28.5846 80.0533C29.1279 79.7396 28.9417 77.5026 29.0999 77.4117C29.2582 77.3208 30.7372 79.1054 31.6502 78.6278C40.9553 73.4084 45.8692 70.6483 46.3926 70.3473C47.1778 69.8956 46.0486 67.8834 46.3285 67.5357C46.4912 67.3336 47.1389 68.2701 49.5893 68.9705C49.6976 69.0013 50.4995 68.8828 51.5751 68.5148C54.0986 67.6513 60.5131 64.5675 61.5498 64.4587C62.2226 64.3881 60.7062 65.3417 57.5891 66.9826C56.3847 67.6168 52.799 69.3016 52.0045 69.7577L51.8275 70.5392C51.4031 70.7392 51.1349 70.8577 51.0781 70.8662C50.6403 70.9328 48.7976 70.7258 47.9975 71.0703C47.4412 71.3097 46.9697 72.1931 46.7359 72.8687C46.0883 73.1231 44.9546 73.4465 44.1917 73.8275L37.387 77.1967C36.4358 77.6743 35.5845 78.1072 34.9941 78.4192L33.7951 79.0815C33.0002 79.5396 32.4528 79.9032 32.1525 80.1722C31.1389 79.678 30.329 79.5964 29.7228 79.9279C28.9433 80.354 28.5659 80.6384 28.2316 81.1541L28.0664 81.4329C27.7244 82.0582 27.6099 81.8853 26.9347 82.1122L26.113 82.4165C24.2761 83.0507 19.1383 84.6316 18.2938 84.9927C17.3366 85.4018 15.3195 84.4007 14.8237 84.5091C14.4695 84.5866 13.8604 85.0556 13.466 85.3819C12.9547 85.3096 12.6772 85.9284 12.4167 86.0457C12.1468 86.167 6.94038 85.8156 5.60661 85.4979C4.43962 85.22 3.36433 84.6012 2.75608 84.014L2.6875 83.9426Z" fill="#E1DCDC"/>
<path d="M71.6287 44.8648C75.2165 43.9973 78.9115 42.8018 83.4403 40.5608L86.1261 39.214L90.258 37.1056C90.6618 36.9072 90.986 36.7579 91.2477 36.6536C92.3409 36.219 87.7699 40.4037 84.5785 42.5884C81.3871 44.7731 76.0869 47.9888 72.8355 50.0509L71.567 50.8783L70.0146 51.9548C67.4834 53.8563 66.4913 55.0192 66.1898 55.9606C65.885 56.9129 67.9954 57.4538 69.4891 58.0799C70.9827 58.706 73.3224 58.2284 74.1088 56.0344C74.8952 53.8404 76.4838 51.5872 77.1184 51.1615C77.753 50.7359 79.0507 50.4458 80.7594 50.7537C82.2786 51.0272 83.4155 51.6221 84.0944 52.5894L84.3273 52.9697C84.3622 53.0354 84.8122 53.5463 84.5054 53.7082L81.4492 55.3292L80.3572 55.9249L78.7317 56.8241L75.871 58.3396C73.7618 59.4425 71.4425 60.633 70.0726 61.3249L68.777 61.9721C68.6812 62.0224 68.5623 62.0861 68.4199 62.1632C68.3497 62.119 68.2799 62.0853 68.2073 62.0605C67.6704 61.8779 66.4125 62.3742 65.8542 62.8112C65.2958 63.2482 65.1218 63.8589 64.7675 64.0585L55.8284 68.576C54.9873 68.9956 54.1923 69.3896 53.5021 69.7288L52.6427 70.0708C52.0507 70.2831 51.817 70.2875 52.3059 69.8927C53.7663 68.7135 63.2077 64.0756 64.044 63.5566C64.8312 63.0681 63.2195 63.0981 61.3035 62.7422L60.9411 62.6708C58.8737 62.2379 54.0641 61.1191 53.5086 59.2104C52.9531 57.3017 54.8213 52.8808 59.4791 49.5612C64.137 46.2408 68.0413 45.7323 71.6287 44.8648Z" fill="#D6CDCC"/>
<path d="M78.3576 52.7071C79.5693 52.1277 81.5563 52.2109 84.3192 52.9563L84.4316 53.1162C84.5578 53.2984 84.7246 53.5921 84.5059 53.7078L81.4496 55.3288L80.3577 55.9245L78.7322 56.8237L75.8715 58.3392C73.7623 59.4421 71.4429 60.6327 70.073 61.3245L68.7774 61.9717L68.4203 62.1628C68.3501 62.1186 68.2803 62.0849 68.2077 62.0602C67.6709 61.8776 66.413 62.3738 65.8546 62.8108C65.2963 63.2478 65.1222 63.8585 64.768 64.0582L55.8289 68.5756L53.5026 69.7284L52.6431 70.0705L52.3055 70.1788C51.983 70.2644 51.9262 70.1991 52.3064 69.8919C53.7667 68.7128 63.2082 64.0748 64.0445 63.5558C64.4847 63.2823 64.1743 63.1716 63.4797 63.0644L64.0084 62.8587C64.1561 62.8043 64.2737 62.765 64.3573 62.7419L64.4564 62.7204C65.2878 62.6217 72 59.0364 73.2222 58.3336C74.4444 57.6308 76.1868 53.7455 78.3576 52.7071Z" fill="#C6BEBD"/>
<path d="M78.4198 54.5055L78.9713 54.2588C80.3452 53.7138 81.9606 53.6517 83.8174 54.0729L81.4501 55.3292L80.3582 55.9249L78.7327 56.824L75.872 58.3396C73.7628 59.4425 71.4434 60.633 70.0735 61.3249L68.7779 61.9721L68.4208 62.1632C68.3506 62.1189 68.2808 62.0853 68.2082 62.0605C67.6714 61.8779 66.4135 62.3742 65.8551 62.8112C65.2968 63.2482 65.1227 63.8589 64.7685 64.0585L55.8293 68.576L53.5031 69.7288L52.6436 70.0708L52.306 70.1792C51.9835 70.2648 51.9266 70.1995 52.3068 69.8923C53.7672 68.7131 63.2087 64.0752 64.045 63.5562C64.1736 63.4767 64.2381 63.4105 64.2479 63.3545L66.3449 62.3498C69.7534 60.7024 74.0192 58.5741 74.7756 58.0073C75.9182 57.1499 76.3557 55.5426 78.4198 54.5055Z" fill="#B6ADAC"/>
<path d="M50.3415 66.4181C50.6592 65.8801 49.8952 63.5221 48.391 63.538C46.8864 63.5538 38.7689 68.5845 36.3047 69.9857C33.8404 71.3868 24.9752 76.6723 23.0007 77.6279C21.0262 78.5835 12.7675 81.934 13.4849 81.8889C14.2024 81.8439 18.3579 80.8116 19.2372 81.0855C20.1165 81.3594 21.4462 82.164 22.2541 81.8098C23.0619 81.4556 27.8261 79.4093 28.0107 78.9682C28.1954 78.5271 28.2087 75.9992 28.4944 75.8592C28.7801 75.7196 30.4165 77.3025 30.9651 77.3204C31.5137 77.3382 35.6956 74.9105 38.3709 73.4615C41.0461 72.0125 45.7315 69.4691 45.7883 69.3052C45.8456 69.1412 45.2783 66.173 45.6139 65.9815C45.9494 65.79 48.0075 67.771 48.2181 67.7908C48.4287 67.8103 50.0238 66.9562 50.3415 66.4181Z" fill="#DDD8D9"/>
<path d="M58.8571 26.2009C56.6388 25.9124 55.4211 25.8138 55.2036 25.9051C54.9861 25.9964 54.7434 27.1273 54.4752 29.2978L54.1648 28.963C54.448 26.8327 54.7219 25.7014 54.9865 25.5683C55.3837 25.3687 58.5414 25.7152 58.6664 25.8203C58.7496 25.8897 58.8133 26.0167 58.8571 26.2009Z" fill="#F4F4F4"/>
<path d="M54.9245 29.0726C55.3072 29.2013 57.5734 29.6371 57.9037 29.4257C58.234 29.2143 58.7303 26.567 58.701 26.4335C58.6718 26.3 58.5692 25.9884 58.415 25.8622C58.8236 25.9616 59.0472 26.1596 59.0553 26.3528C59.0634 26.5459 58.5676 29.5279 58.4572 29.743C58.3468 29.958 58.0522 30.1662 57.6566 30.1439C57.261 30.1212 54.6279 29.5401 54.4782 29.433C54.3285 29.3258 54.2108 28.9671 54.2368 28.7334C54.2445 28.664 54.3496 28.3057 54.3759 28.2944C54.4084 28.2802 54.453 28.9217 54.9245 29.0726Z" fill="#BFB9C1"/>
<path d="M54.9629 25.3111C54.6261 25.4552 54.5133 25.8382 54.2483 27.3079L54.123 28.0716C53.9984 28.9586 54.052 29.3453 54.3591 29.5384C54.6902 29.7466 56.87 30.2084 57.5371 30.2562C58.1612 30.3009 58.5231 30.1414 58.6441 29.6788L58.7414 29.2159C58.8421 28.6904 58.9796 27.8853 59.0657 27.327L59.1724 26.5313C59.2255 26.0001 58.9882 25.7165 58.2006 25.5887L57.2787 25.4483C56.2537 25.3034 55.4304 25.2296 55.0822 25.2811L54.9629 25.3111ZM55.0765 25.5769C55.2912 25.4852 56.6805 25.6353 58.1543 25.8739C58.7041 25.9632 58.8754 26.0866 58.8896 26.3552L58.8749 26.584L58.7228 27.6427C58.6006 28.397 58.4298 29.3538 58.3641 29.6054C58.2866 29.9032 58.0593 30.0031 57.5574 29.9673C56.935 29.9231 54.7917 29.4687 54.5125 29.2934C54.3157 29.1696 54.3035 28.7407 54.4642 27.7551L54.5324 27.359C54.7393 26.2111 54.8574 25.7603 55.0153 25.6171L55.0765 25.5769Z" fill="#AEAEAE"/>
<path d="M69.8799 59.7724C69.841 59.3078 68.9795 58.4188 67.6425 58.0694C66.3059 57.7201 64.8086 56.463 65.4887 55.5183C66.1692 54.5733 71.264 50.613 73.0932 49.5779C74.9221 48.5423 82.9908 43.4329 85.9363 41.2677C87.8998 39.8244 89.458 38.4926 90.6108 37.2725C86.4277 39.535 82.9344 41.3046 80.1313 42.5816C75.9267 44.4968 68.8432 45.8375 66.0961 46.8198C63.3491 47.8022 58.5593 50.1273 56.9712 52.1606C55.3826 54.1939 53.8017 57.3021 54.0638 58.6286C54.3259 59.955 54.8693 60.92 56.6348 61.4909C58.4003 62.0618 61.9544 62.4968 62.5826 62.5479C63.2107 62.599 63.9447 62.6331 64.5765 62.4132C65.2079 62.1933 69.9185 60.237 69.8799 59.7724Z" fill="#C2B8B6"/>
</svg>
