<svg width="70" height="43" viewBox="0 0 100 100" fill="none" xmlns="http://www.w3.org/2000/svg">
<path d="M13.9837 65.5356C13.9837 65.5356 14.5956 63.8898 14.888 63.7436C15.083 63.6459 15.1433 63.3331 15.0688 62.8051C15.7028 62.488 16.0199 62.3292 16.0199 62.3292C16.0199 62.3292 16.4849 60.7043 16.8757 60.5085C17.1362 60.3781 17.4774 60.2961 17.8993 60.2626C18.319 59.1622 18.6751 58.5392 18.9675 58.3927C19.406 58.1732 20.7263 56.8702 20.7263 56.8702L21.4005 56.533C21.4005 56.533 21.9477 55.9368 23.0427 54.7446C23.3205 53.687 23.8705 52.784 24.6924 52.0358C25.9252 50.9133 27.1053 50.2852 28.0316 49.8404C28.489 49.3093 28.9059 48.7805 29.2822 48.2549C29.7916 46.8499 30.4429 45.7951 31.236 45.0914C32.0292 44.3877 33.1107 43.846 34.4818 43.4669C34.955 42.134 35.6418 40.822 36.5421 39.5312C37.4424 38.2405 38.4471 37.4745 39.5554 37.2338C39.6256 36.129 39.7532 35.378 39.9384 34.9816C40.1236 34.5853 40.5338 33.5814 41.1693 31.9699L40.7209 32.1945L41.0338 29.8312L41.5373 29.579C41.2394 28.9837 40.988 28.4814 40.7832 28.0724C40.4758 27.4585 41.0275 25.4172 41.0275 25.4172L41.8675 24.9968C41.8675 24.9968 41.8336 21.4755 41.7875 20.5871C41.7414 19.6986 41.3765 17.1671 40.7851 15.9855C40.3907 15.1979 40.2205 14.4863 40.2745 13.8515C40.4825 12.6132 40.6106 11.8055 40.6595 11.4284C40.7323 10.8626 41.1405 9.53166 41.6768 9.26335C42.213 8.99503 44.4293 8.19401 48.9749 11.887C52.0056 14.3488 54.3251 16.9185 55.9335 19.5953C61.6922 19.4425 64.9629 19.3192 65.7454 19.225C66.9191 19.0839 71.2792 18.9547 71.5908 18.7991C71.9025 18.643 73.3465 14.3811 73.8221 14.1431C74.298 13.9051 75.9245 14.87 76.0407 15.1021C76.157 15.3342 75.8477 15.5284 76.3559 15.7321C76.8642 15.9362 77.4524 16.2751 77.8484 17.1576C78.506 16.6931 78.9339 16.7439 79.0683 16.8657C79.2026 16.9874 79.391 17.6923 79.7066 17.7932C80.0221 17.894 81.8196 19.7076 82.3519 21.3258C82.8846 22.944 82.677 23.0011 83.3673 23.3546C84.0572 23.708 85.0414 24.1591 85.6001 25.0476C86.249 25.4274 88.8057 27.6291 89.5488 28.3762C90.2919 29.1232 93.1287 33.527 93.7497 34.9675C94.3706 36.408 94.336 38.3248 93.7394 39.8854C93.1429 41.4461 88.7273 43.4626 85.4145 44.5205C82.1017 45.5784 71.8915 50.7336 68.2055 54.3198C64.5196 57.9061 52.417 66.7038 45.5439 70.9776C38.6709 75.2514 16.7784 83.5535 13.0436 84.8411C10.5539 85.6996 7.73243 86.1397 4.57921 86.1614L0.763658 83.5511C0.197473 81.6102 0.000473224 80.2009 0.172654 79.3238C0.431121 78.0078 1.62377 75.6934 3.40901 74.2612C5.19425 72.829 8.94163 69.7751 9.94753 68.8768C10.9534 67.978 13.9837 65.5356 13.9837 65.5356Z" fill="#F7F5F3"/>
<path d="M4.4594 78.0224C6.34945 78.8081 14.2437 76.9527 20.5045 74.2376L29.3326 70.4335L36.9345 69.5663C29.6517 74.8129 22.6018 78.2052 15.7847 79.7431C5.83882 81.9869 1.70294 84.232 0.198234 81.0724C0.0930349 80.3486 0.0855508 79.7679 0.172626 79.3231C0.408635 78.1217 1.42281 76.0887 2.95588 74.6541C2.87156 76.45 3.37234 77.5705 4.4594 78.0224Z" fill="#EBE9E7"/>
<path d="M3.0548 80.2631C4.85501 81.4582 13.6236 79.0114 18.4706 77.2667L18.9726 77.0839C22.0931 75.9354 27.9918 73.3933 36.6697 69.4575C43.9478 68.3772 50.9343 64.3914 57.6289 57.5011L63.1973 51.5768C70.202 44.162 73.317 41.2369 76.0072 40.1412C79.034 38.9087 84.4787 37.7106 87.2777 37.4221L88.5275 37.324C90.786 37.1392 92.5878 36.7145 92.4845 33.9703C92.4656 33.4679 92.4262 32.9683 92.3659 32.4719L93.0972 33.7114C93.3868 34.2212 93.6185 34.6606 93.7501 34.9659C94.371 36.4064 94.3363 38.3232 93.7398 39.8839C93.2063 41.2802 89.615 43.0418 86.4917 44.1549L85.4145 44.5194C82.1017 45.5773 71.8914 50.7324 68.2055 54.3187C64.5196 57.9049 52.417 66.7026 45.5439 70.9764C38.6709 75.2502 16.7784 83.5523 13.0436 84.8399C10.5539 85.6984 7.73243 86.1385 4.57921 86.1602L0.763658 83.5499C0.197473 81.6091 0.000473239 80.1997 0.172654 79.3226C0.303463 78.6556 0.674616 77.7328 1.24041 76.7979C1.14151 78.6733 2.05009 79.5957 3.0548 80.2631Z" fill="#E1DCD6"/>
<path d="M72.3406 42.5095C69.9769 46.9259 67.2768 53.399 64.9479 56.1929C64.0491 57.2713 62.931 58.4746 61.6508 59.7177C57.396 62.9607 52.1321 66.6975 47.9402 69.4433C42.5621 72.028 40.185 72.5284 36.5649 73.2632L35.771 73.418C33.3163 73.8802 29.115 74.5445 23.1667 75.4105L26.0611 74.1765C28.95 72.9275 32.4873 71.3542 36.6697 69.4571C43.9478 68.3767 50.9343 64.391 57.6288 57.5006L63.1973 51.5764L65.3025 49.3617C68.1649 46.3731 70.2811 44.2766 71.9887 42.8121L72.3406 42.5095ZM92.3655 32.4722L93.0968 33.7118L93.4632 34.3788C93.5696 34.5809 93.6586 34.761 93.726 34.9123C93.5818 37.5041 93.0385 38.9367 92.094 39.2105C90.6524 39.6285 88.0511 38.5537 85.9578 37.5951L86.8691 37.4686C87.0106 37.4513 87.1469 37.4359 87.2777 37.4225L88.5275 37.3244L89.2237 37.2558C91.1441 37.0246 92.5767 36.4261 92.4841 33.9706C92.4656 33.4679 92.4258 32.9687 92.3655 32.4722Z" fill="#DBD7D2"/>
<path d="M16.5254 68.2531C16.2015 67.8197 17.0419 65.8934 18.7578 63.618C20.4737 61.3422 29.0083 53.1863 32.6828 49.0682C36.3569 44.95 42.882 35.2882 44.2996 31.9014C45.7173 28.5145 45.261 22.9681 47.6203 23.513C49.9796 24.0583 55.1344 27.0133 58.0232 28.7466C60.9125 30.4794 65.4018 33.12 67.4991 31.6445C69.5963 30.1689 72.4281 21.8739 73.573 20.9646C74.718 20.0552 81.4409 23.0969 82.9563 23.909C84.4716 24.7206 88.3246 27.7801 89.4219 29.5003C90.5192 31.2205 91.1811 34.6826 90.912 35.1432C90.6429 35.6038 77.4012 36.3808 75.3465 37.3469C73.2917 38.313 64.1122 49.463 57.7061 55.8423C51.2999 62.2217 44.6345 66.8315 37.8151 67.9749C30.9956 69.1183 16.8493 68.6865 16.5254 68.2531Z" fill="#CDE0DC"/>
<path d="M82.9562 23.9085C84.4715 24.7202 88.3245 27.7796 89.4218 29.4999C90.5191 31.2201 91.181 34.6822 90.9119 35.1428C90.6428 35.6034 77.4011 36.3804 75.3464 37.3465C75.1624 37.4332 74.9208 37.6014 74.6293 37.841C74.2302 36.9682 73.8976 36.1101 73.61 35.3512C72.7936 33.1976 74.7089 28.8383 79.3554 22.2738L80.3751 22.7001C81.5216 23.1934 82.4877 23.6576 82.9562 23.9085Z" fill="#959595"/>
<path d="M49.6049 24.2198L49.8346 24.3167C51.3579 24.9909 53.1809 25.9597 54.8649 26.9077C55.1998 27.8423 55.5406 28.9908 55.8862 30.3939C57.8775 38.4879 55.5631 52.139 51.7783 61.1369C47.2224 64.7094 42.5558 67.1794 37.8147 67.9745C34.9144 68.4607 30.6891 68.662 26.7656 68.6998C33.3538 62.5274 38.2221 56.8765 41.371 51.7458C47.1901 42.2641 49.6676 34.9218 49.0332 30.2284C48.4324 25.7785 48.7614 24.4069 49.6049 24.2198Z" fill="#B2D8CF"/>
<path d="M47.6203 23.5126C49.5371 23.9554 53.2995 25.9897 56.1926 27.6662L59.2844 29.4928C62.0925 31.1224 65.6878 32.9183 67.499 31.644C69.4091 30.3005 71.928 23.301 73.2275 21.3743C73.6085 21.1198 74.1029 20.9354 74.6604 20.8188C76.4768 21.0177 79.842 22.4228 81.7801 23.329C82.3885 25.6981 78.7881 28.9085 78.0292 32.1405C77.1864 35.7299 82.0595 34.6326 83.8522 35.6003C84.102 35.735 84.2474 35.869 84.2998 36.0006L80.9842 36.3583C78.3901 36.6582 76.1049 36.9891 75.346 37.3461C73.2917 38.3122 64.1118 49.4622 57.7056 55.8415C52.7577 60.7689 47.6545 64.6408 42.4454 66.6747C39.8379 66.9903 43.586 61.8851 45.6597 57.7426L45.8547 57.345C48.5415 51.7533 52.2999 42.4311 52.7719 36.1487C53.0863 31.9604 51.1151 28.2651 46.8587 25.0634C46.6183 24.5118 46.5375 24.0697 46.6167 23.7379C46.8858 23.5071 47.2105 23.418 47.6203 23.5126Z" fill="#0A9E7B"/>
<path d="M48.9745 11.8863C51.701 14.1013 53.8523 16.4035 55.4279 18.7928L55.933 19.595C56.9638 22.0906 57.7262 24.2379 58.2198 26.0366C58.9606 28.7347 50.3756 22.6241 48.2452 23.4424C46.1148 24.2604 45.9068 26.5291 43.9896 31.2697C42.0723 36.0108 32.5358 49.4858 28.2593 53.6189L25.6187 56.1961C22.2318 59.5321 18.8839 62.9446 17.8398 64.1987L17.6944 64.3784C16.6479 65.7215 15.3781 65.9981 14.4439 66.0052C14.2031 66.0068 13.9927 65.8973 13.8119 65.6766L13.9841 65.5356L14.265 64.8366C14.425 64.4627 14.6239 64.0395 14.7804 63.8437L14.8883 63.7436C15.0833 63.6459 15.1436 63.3331 15.0692 62.8051L16.0203 62.3292L16.1554 61.9005C16.3221 61.4044 16.6156 60.6389 16.8761 60.5085C17.1365 60.378 17.4777 60.2961 17.8997 60.2626C18.3193 59.1621 18.6755 58.5392 18.9678 58.3927C19.4064 58.1732 20.7267 56.8702 20.7267 56.8702L21.4008 56.5329L23.043 54.7446C23.3208 53.687 23.8708 52.784 24.6927 52.0358C25.9256 50.9132 27.1056 50.2852 28.0319 49.8404C28.4894 49.3093 28.9062 48.7805 29.2825 48.2549C29.792 46.8499 30.4433 45.7951 31.2364 45.0914C32.0295 44.3877 33.1111 43.846 34.4822 43.4669C34.9554 42.134 35.6422 40.822 36.5425 39.5312C37.4428 38.2405 38.4475 37.4745 39.5558 37.2338C39.6259 36.129 39.7536 35.378 39.9388 34.9817L40.1988 34.3828C40.4222 33.8485 40.7457 33.0443 41.1697 31.9699L40.7213 32.1945L41.0341 29.8312L41.5377 29.5791L40.7835 28.0724C40.4762 27.4585 41.0278 25.4172 41.0278 25.4172L41.8678 24.9968L41.7969 20.7983C41.7938 20.7175 41.791 20.6466 41.7878 20.5875C41.7465 19.788 41.4466 17.6572 40.9561 16.3779L40.7855 15.9859C40.3911 15.1983 40.2209 14.4867 40.2749 13.8519L40.6598 11.4288C40.7327 10.863 41.1409 9.53207 41.6771 9.26376L41.9191 9.16131C42.7335 8.87172 44.9336 8.60379 48.9745 11.8863Z" fill="#E7E4E1"/>
<path d="M40.2997 13.6797L40.3422 13.4012L40.4943 13.4016C41.1172 13.4122 41.7386 13.4473 42.3379 13.5143C43.7661 13.6738 44.869 13.9875 45.5128 14.506L45.7322 14.7101L45.8075 14.7971C46.0995 15.1592 46.2401 15.6289 46.246 16.1935C46.2559 17.1072 45.9253 18.2258 45.3166 19.6005L45.0077 20.2719L43.1468 23.9889L40.9104 28.3304L40.7831 28.0724L40.7611 28.0066L43.5345 22.6091L44.5802 20.5126L44.9131 19.8128L45.0605 19.487C45.6542 18.1466 45.9753 17.0599 45.9659 16.1967C45.9616 15.792 45.8824 15.4492 45.7236 15.1707L45.5589 14.937L45.5266 14.9008C44.9947 14.3247 43.8505 13.9658 42.3071 13.7936C41.9139 13.7499 41.5105 13.7195 41.1031 13.7014L40.2997 13.6797Z" fill="#8FA497"/>
<path d="M47.6814 11.4264C49.3552 11.9938 54.8823 16.95 55.6923 20.1079C56.463 23.1126 57.7762 24.2674 55.318 25.9112L52.82 24.7473C50.9367 23.8774 49.0868 23.1189 48.2448 23.442C47.449 23.7478 46.9214 24.2556 46.4726 25.0196C45.6673 24.3313 45.2847 23.4767 45.6645 22.5374L46.3647 20.7959C47.1885 18.6757 47.5431 17.2281 47.0337 14.8302L46.6156 12.8756C46.3347 11.4272 46.4478 11.0084 47.6814 11.4264Z" fill="#C0BBB5"/>
<path d="M41.4659 14.3259C42.0419 14.398 44.7956 15.0241 44.9911 16.0241C45.1865 17.0241 43.2685 21.6781 42.735 22.8613L42.6487 23.0366C42.4395 23.4066 42.1786 23.9669 41.8666 24.7178L41.7961 20.7971L41.787 20.5863C41.7456 19.7869 41.4458 17.6561 40.9553 16.3767L40.7847 15.9847C40.497 15.4098 40.3284 14.8756 40.2795 14.3819C40.8028 14.3121 41.1956 14.2921 41.4659 14.3259Z" fill="#9EA09D"/>
<path d="M41.6763 9.26255L41.9182 9.16011L42.1511 9.09037C43.1133 8.8516 45.2704 8.87682 48.9745 11.8858C51.701 14.1009 53.8523 16.4031 55.4279 18.7923L55.933 19.5945L56.4874 20.9688C56.5749 21.1918 56.6604 21.4113 56.7431 21.628C55.067 22.18 54.1297 22.1402 53.9252 21.5078C53.5599 20.3778 51.1884 16.517 48.5608 14.3905C45.9332 12.2637 42.5439 11.1089 42.0254 10.9741C41.765 10.9063 41.3052 11.0876 40.646 11.5178L40.6594 11.4272C40.7319 10.8614 41.1401 9.53086 41.6763 9.26255Z" fill="#113B17"/>
<path d="M41.6762 9.26254L41.9181 9.1601L42.151 9.09036C43.0391 8.86972 44.9453 8.87444 48.1458 11.2424C49.6781 13.086 50.7356 14.963 51.3274 16.8755C51.3896 17.0769 51.4279 17.266 51.4432 17.4433C50.5937 16.3381 49.5969 15.2294 48.5603 14.3905C45.9327 12.2637 42.5434 11.1088 42.0249 10.9741C41.7645 10.9063 41.3047 11.0876 40.6455 11.5178L40.6589 11.4272C40.7318 10.8614 41.14 9.53086 41.6762 9.26254Z" fill="#347C3F"/>
<path d="M48.6581 12.7838C51.2168 14.8145 53.4137 17.5059 55.2494 20.8557C55.3239 20.9917 55.2742 21.1623 55.1383 21.2367C55.0024 21.3112 54.8318 21.2616 54.7573 21.1256C52.9559 17.8388 50.8066 15.2057 48.309 13.2235C45.2409 10.7885 42.8973 10.1073 40.8245 10.7101C40.8887 10.5021 40.9687 10.2814 41.0613 10.0762C43.222 9.60216 45.6412 10.3894 48.6581 12.7838Z" fill="#4F9362"/>
<path d="M46.6309 19.2262C46.9666 19.1072 47.1814 19.0516 47.2755 19.0599C48.1798 19.1383 49.4627 19.3239 51.1242 19.6162C51.9551 19.6816 52.5666 19.723 52.9587 19.7403L53.9977 19.7474L55.9334 19.5942L62.9349 19.3782C64.1358 19.3318 64.9754 19.2896 65.4541 19.2514L65.7453 19.2238C66.9191 19.0827 71.2791 18.9535 71.5908 18.7979C71.9024 18.6419 73.3465 14.3799 73.822 14.1419C74.298 13.9039 75.9244 14.8689 76.0407 15.1009C76.1569 15.333 75.8476 15.5272 76.3559 15.7309C76.8641 15.935 77.4524 16.2739 77.8484 17.1565L77.9339 17.1017L77.9264 17.2877C77.8897 18.2293 77.372 19.2206 76.6624 19.3239L75.6845 19.4555C74.889 19.5792 73.8768 19.8093 73.0718 20.3514C71.8642 21.1643 71.3595 27.9715 69.4305 29.3119L68.4844 29.9601C66.7429 31.1086 64.6752 32.096 62.1232 30.6366L59.6658 29.1898C55.4555 26.6768 48.6384 22.5122 48.1719 22.3053C47.7862 22.1339 46.4544 23.8916 44.1763 27.5783C43.6034 28.462 43.3532 29.3324 43.4253 30.1898C43.5341 31.4754 42.9233 36.157 41.3308 38.7881C39.7851 41.3417 27.76 55.239 25.2849 57.5077L24.5836 58.1113C22.359 60.0672 17.7807 64.6349 17.4738 64.1499C17.2448 63.7878 17.5998 61.7007 17.9111 60.2319L17.8997 60.2634C18.3193 59.1629 18.6755 58.54 18.9678 58.3935C19.2637 58.2453 19.9615 57.6035 20.3839 57.202L20.7267 56.871C20.0285 57.672 19.6782 58.2977 19.6762 58.7477L19.6561 59.6641C19.6494 60.2137 19.6727 60.7524 19.8394 60.8903C20.0171 61.0372 20.439 60.4769 21.1053 59.2094L19.7448 58.884C20.0198 57.9577 20.2917 57.3962 20.5604 57.2C20.9635 56.9057 23.3015 57.213 23.6584 57.2828C23.8964 57.3292 25.5288 55.7197 28.5559 52.4546C27.3243 52.0027 26.3483 51.9428 25.6277 52.2757C25.6521 50.708 27.4188 49.7773 29.7848 50.1954C32.0275 48.7986 34.3734 46.3357 34.2194 46.0678C34.0653 45.7999 31.9771 45.4354 30.6276 45.8653C30.7072 45.6958 30.8077 45.5367 30.9255 45.3877L31.2368 45.091C31.5248 44.8353 31.851 44.6013 32.2151 44.3885C33.4195 43.7829 34.9636 43.5741 35.9814 43.7191C37.2111 42.9433 36.1516 41.6908 36.358 41.2763C36.4959 41.0001 37.3281 40.7381 38.8552 40.4914C39.4526 39.5383 39.618 39.0765 39.3513 39.1061C38.9959 39.1455 38.4912 38.7475 37.5436 39.0403L37.1669 39.1845C36.9266 39.2936 36.8123 39.2779 36.8025 39.1798L36.5432 39.5308C37.4439 38.2401 38.4482 37.4741 39.5566 37.2334L39.5786 36.9438C39.8154 36.8595 40.0605 36.7917 40.3107 36.7468C41.3552 35.5648 41.5037 33.672 41.5404 32.5983L41.6152 30.6685C41.6944 28.9069 41.8308 26.1213 41.9092 25.7052L41.9896 25.258C42.0613 24.9176 42.1787 24.6567 42.5995 24.4664C42.9923 24.2887 43.6105 24.1051 44.4533 23.9152L44.512 22.8104L44.023 23.0551C43.3599 22.2498 43.1353 21.8014 43.3497 21.7096C43.5636 21.6178 44.0825 21.4972 44.9064 21.3483C45.0998 20.7671 45.3157 20.3306 45.5537 20.0382C45.7917 19.7459 46.1491 19.4748 46.6309 19.2262Z" fill="#113B17"/>
<path d="M76.0402 15.1009C76.1202 15.2605 75.9985 15.4024 76.0808 15.5418L74.9634 17.4792L75.7128 15.8377C75.7455 15.757 75.7652 15.703 75.7715 15.675C75.8164 15.4784 75.4256 15.0225 75.0335 14.7948L74.8393 14.7022C74.4737 14.5694 74.2357 14.3535 74.179 14.1199C74.8413 14.2318 75.9453 14.9114 76.0402 15.1009Z" fill="#4D7E54"/>
<path d="M46.6309 19.2262C46.9666 19.1072 47.1813 19.0516 47.2755 19.0599C48.1797 19.1383 49.4626 19.3239 51.1241 19.6162L52.9586 19.7403L53.9976 19.7474L55.9334 19.5942L62.9348 19.3783L65.2268 19.2679L66.538 19.1556C67.8485 19.0658 70.008 18.9787 71.0332 18.883L70.6365 20.4129C70.1223 22.3396 69.6672 23.8155 69.2708 24.8419C68.5124 26.806 67.4178 27.9676 66.9017 28.3104C66.3855 28.6531 65.38 28.7272 64.7894 28.4262C64.1988 28.1256 65.9762 28.4274 66.7922 27.9128C67.6081 27.3982 68.5478 25.7221 69.0695 24.2048L69.302 23.4929C69.7799 21.9649 70.2984 19.9397 70.2322 19.6344C70.1656 19.3255 68.8185 19.6162 67.0825 19.8176L66.2571 19.9019C65.7279 19.9472 65.1196 20.011 64.4719 20.0851L58.6611 20.8113C56.5657 21.065 55.7336 21.448 55.9676 21.803L56.7431 22.8944C57.4633 23.9436 58.2753 25.2974 57.2868 24.9259C55.8041 24.3687 49.9717 20.3258 49.162 19.801C48.5986 19.4358 47.2203 19.3593 46.3898 19.3566L46.6309 19.2262Z" fill="#426F4A"/>
<path d="M73.822 14.1419C73.9224 14.0919 74.0737 14.095 74.2518 14.1337C74.1655 14.1624 74.0899 14.2109 74.0229 14.2751C73.725 14.5612 73.3385 15.4185 72.8633 16.8464L72.5336 17.883L72.4035 18.2778L71.7203 18.6285C72.1884 17.8089 73.3948 14.3555 73.822 14.1419Z" fill="#B0D1B5"/>
<path d="M76.2779 15.6907C77.1664 16.5067 77.5619 17.1143 77.4638 17.513C77.3169 18.1111 76.7704 18.6292 76.2314 18.6879C75.6924 18.7466 74.5041 18.3877 74.0549 18.2616C73.6053 18.1351 71.9261 18.0272 71.313 19.0114C70.6999 19.9956 70.7157 21.968 70.0297 23.7178C69.3438 25.4676 68.0329 28.4293 66.8887 29.0219C65.7449 29.6145 63.704 29.0113 62.6091 28.6117C61.5137 28.2122 55.883 24.9865 55.1304 24.4877C54.3779 23.9889 51.4059 21.9101 50.6565 21.2604C49.9071 20.6103 48.4075 19.249 47.9524 19.2273C47.6491 19.2127 47.0931 19.3396 46.2842 19.6075C45.1416 22.8199 44.3091 24.5086 43.7858 24.6733C43.0014 24.9207 42.6976 24.6382 42.7078 25.2383C42.7177 25.8383 43.0219 26.0093 43.0553 26.5672C43.0778 26.9392 43.0845 27.6425 43.0754 28.6771C42.4584 30.2752 42.0861 31.2618 41.9576 31.6357C41.7654 32.1972 42.0294 32.4348 41.9242 32.75C41.819 33.0652 41.4584 33.8638 41.0999 34.1314C40.7414 34.3989 40.6846 34.4127 40.9892 35.0372C41.2937 35.6617 39.4541 39.0611 38.9734 39.0277C38.4928 38.9942 37.9963 38.95 37.5471 39.3267C37.0976 39.7034 36.5428 40.6486 36.6252 41.3342C36.7075 42.0197 36.3119 44.5993 35.3746 45.2506C34.4373 45.9019 33.6039 45.6008 33.2446 45.5358C32.8853 45.4708 31.89 45.3932 31.7293 45.6741C31.5685 45.9551 31.0208 47.3987 30.9121 48.0003C30.8396 48.4014 30.5331 49.3526 29.9929 50.8541C28.9149 51.8915 28.1332 52.3785 27.647 52.3155C26.9181 52.2209 26.5512 51.6421 26.1013 51.8171C25.6517 51.992 24.5272 54.0294 24.4638 54.9557C24.4004 55.882 21.9008 59.1708 21.4942 59.0739C21.0876 58.9765 20.0269 58.629 19.8157 58.6669C19.8279 58.406 19.7941 58.1897 19.7137 58.0175C19.3811 58.9698 19.2945 59.7508 19.4536 60.3603C19.6459 60.9261 19.7617 61.3552 19.8015 61.6483C19.876 60.8162 19.9241 60.4091 19.9461 60.4273C19.9788 60.4545 19.5947 59.1129 19.6416 58.958C19.8906 59.0179 20.5722 59.1846 21.6865 59.4584C23.4544 57.5944 24.3791 56.5558 24.4611 56.3426C24.584 56.0227 25.9752 52.2883 26.1029 52.23C26.2305 52.1717 27.7242 52.7674 28.015 52.6721C28.3058 52.5767 30.5673 51.1544 30.8802 50.4105C31.0287 50.0574 30.9235 49.3486 31.0669 48.7974C31.2253 48.1875 31.6217 47.7407 31.5374 47.5366C31.3766 47.1473 31.7635 45.9393 31.8522 45.9224C31.9408 45.9054 34.2639 46.0638 34.9262 45.8408C35.5886 45.6178 36.8663 43.894 36.8746 43.2652C36.8829 42.6364 36.9388 41.4748 37.1145 41.0907C37.2903 40.7065 37.8486 39.7574 37.8367 39.5978C38.1803 39.5474 38.8052 39.4587 39.7106 39.3318C40.7819 37.0848 41.4143 35.6896 41.6074 35.1463C41.897 34.3311 45.4182 25.8923 46.0659 24.2662C46.7141 22.6402 47.759 21.9282 49.1317 23.113C50.5048 24.2978 59.2301 29.9175 60.7068 30.4403C62.1831 30.9628 66.4364 33.1751 67.7311 31.3981C68.1756 30.7882 69.5837 29.7027 70.3288 28.0976C71.7543 25.0271 72.7038 20.9133 73.5226 20.6134C74.7696 20.1568 77.0954 20.9148 77.6423 20.349C78.1892 19.7836 78.5206 17.7388 78.3677 17.4385C78.214 17.1387 77.3811 15.8783 77.1392 15.727C76.9784 15.6245 76.6912 15.6131 76.2779 15.6907Z" fill="#276B3A"/>
<path d="M46.1968 19.158C47.2846 18.8594 48.4087 20.1308 50.0998 21.5571L50.5355 21.9271C52.3507 23.4759 56.5114 26.2355 58.3987 27.3325L58.7667 27.5409C60.4156 28.4463 64.3998 30.4187 65.5826 30.2288C66.7654 30.0389 67.8623 29.6051 69.2772 26.9428C70.6921 24.2805 71.2094 20.9771 71.3501 20.3936C71.4907 19.8097 72.3035 18.7108 73.313 18.9307L74.4178 19.1974L75.5974 19.4937C75.8394 19.5505 76.0241 19.5875 76.1144 19.5899C76.4016 19.5981 77.4709 19.1438 77.7585 18.1817L77.8681 17.6218L77.8815 17.6513C78.5391 17.1868 78.967 17.2376 79.1013 17.3594C79.2357 17.4811 79.424 18.186 79.7396 18.2869C80.0552 18.3877 81.8527 20.2013 82.385 21.8195L82.5973 22.5071C82.8459 23.3692 82.8318 23.5271 83.2455 23.7651L84.0469 24.1832C84.6178 24.4952 85.234 24.907 85.6331 25.5413C86.2253 25.888 88.4077 27.7529 89.3486 28.6437L89.6902 29.2599L89.808 29.4873C90.1752 30.215 91.9175 32.8726 92.0826 34.5463C92.2477 36.22 90.7186 37.5451 86.366 38.1384L84.593 38.5864L83.0122 38.6861C79.2325 39.2637 74.932 40.6569 71.9623 43.3815C68.003 47.0142 58.481 59.1882 50.6069 63.8237C42.7327 68.4591 33.5011 71.7893 25.3629 71.3106C17.2248 70.8318 13.871 71.9776 12.2977 70.8255C11.6819 70.3744 11.0929 69.848 10.531 69.2456L11.1701 68.6888C12.4238 67.6195 14.0172 66.0305 14.0172 66.0305L14.0282 65.9966L14.752 66.3666L15.4352 65.1207L15.6881 64.627C15.8477 64.2835 23.0998 57.3509 25.1372 55.2994L26.7183 53.6418L28.9882 51.1796C31.2738 48.6718 33.9215 45.6852 35.2769 43.9583L36.005 43.0115L36.7997 41.943C38.9821 38.9663 41.5633 35.1089 42.0388 33.7197C42.5936 32.0987 43.6988 27.3754 43.9596 25.5429L44.0021 25.1965C44.1444 23.7088 45.0187 19.4815 46.1968 19.158ZM47.8035 26.7245C47.5982 27.2631 47.4115 28.6201 47.2428 30.795L45.5427 35.3906C45.1751 36.3658 44.9091 37.051 44.7448 37.4466L44.6712 37.6203C44.406 38.2263 43.226 39.8252 41.8166 41.6746L38.6425 45.8208C36.2599 48.9649 29.5666 55.7521 28.595 56.7253L22.5911 62.4395C21.5998 63.3922 20.8173 64.1609 20.5781 64.4426C20.0699 65.0415 19.4986 65.9036 19.2129 67.0356C20.0561 67.0659 20.7121 67.2393 21.5371 67.2436L23.4083 67.2417L28.5607 67.3244C31.2683 67.3496 34.282 67.3232 36.306 67.1002C40.2642 66.664 46.3453 63.943 49.4359 61.7303C52.5264 59.5176 59.8924 51.8333 62.9983 48.4574L63.7548 47.6151L64.5448 46.7041C67.6728 43.0529 71.8205 37.7452 72.9257 37.0214C74.0533 36.2827 77.4654 35.9848 79.9993 35.8158L82.2971 35.6625L88.1989 35.1582C89.1599 35.0656 89.8455 34.9915 89.9648 34.962C90.3395 34.869 89.8707 32.0782 88.8151 30.269C87.7596 28.4597 84.8313 26.3222 82.8763 25.1544C80.9208 23.9866 76.2712 22.446 75.0793 22.8128C74.0198 23.1387 72.8567 26.7044 72.1861 29.0925L71.9588 29.9242C71.3532 32.202 70.7673 33.6373 67.8501 35.0057C64.9329 36.3737 61.6879 33.8134 59.8593 32.5802L58.7982 31.8887L57.1477 30.8564C55.3664 29.7552 53.2759 28.4869 51.6159 27.4128C48.9607 25.695 48.1112 25.9164 47.8035 26.7245Z" fill="#4C453C"/>
<path d="M46.1968 19.158C47.2846 18.8594 48.3752 19.6352 50.0667 21.0615L50.5024 21.4314C52.3176 22.9803 56.4783 25.7399 58.3656 26.8368L58.7336 27.0452C60.3825 27.9506 64.3667 29.923 65.5495 29.7331C66.7323 29.5432 67.8292 29.1094 69.2441 26.4471C70.659 23.7848 71.1763 20.4815 71.317 19.898C71.4576 19.314 72.2705 18.2152 73.2799 18.435L74.3847 18.7018L75.5647 18.998C75.8067 19.0548 75.9915 19.0918 76.0817 19.0942C76.3689 19.1025 77.4382 18.6482 77.7259 17.686L77.8354 17.1261L77.8488 17.1557C78.5064 16.6911 78.9343 16.742 79.0686 16.8637C79.203 16.9855 79.3913 17.6903 79.7069 17.7912C80.0225 17.8921 81.82 19.7057 82.3523 21.3239L82.5646 22.0114C82.8133 22.8735 82.7991 23.0315 83.2128 23.2695L84.0142 23.6875C84.5851 23.9995 85.2013 24.4113 85.6004 25.0456C86.1926 25.3924 88.375 27.2572 89.3159 28.148L89.6575 28.7643L89.7753 28.9916C90.1425 29.7193 92.2544 32.832 92.4195 34.5057C92.5846 36.1794 91.0554 37.5045 86.7029 38.0978L84.6304 38.3729L83.1482 38.5848C79.3685 39.1625 75.2688 40.6163 72.2996 43.3409C68.3403 46.9736 58.8183 59.1476 50.9441 63.7831C43.0699 68.4185 33.6816 71.9776 25.5434 71.4989C17.4052 71.0201 13.111 71.7629 11.5381 70.6108C10.9223 70.1596 10.3332 69.6332 9.77136 69.0308L10.4104 68.4741C11.6642 67.4048 13.9845 65.5348 13.9845 65.5348L13.9955 65.5009L14.7193 65.8709L15.4025 64.625L15.6554 64.1314C15.815 63.7878 23.0671 56.8553 25.1045 54.8037L26.6856 53.1461L28.9555 50.684C31.2411 48.1761 33.8888 45.1895 35.2442 43.4626L35.9723 42.5158L36.767 41.4473C38.9494 38.4706 41.5306 34.6133 42.0061 33.224C42.5609 31.6031 43.6661 26.8797 43.9269 25.0472L43.9695 24.7009C44.1109 23.2131 45.0187 19.4815 46.1968 19.158ZM47.4178 26.3813C47.2125 26.9199 47.0257 28.2769 46.8571 30.4518L45.157 35.0475C44.7894 36.0226 44.5234 36.7078 44.3591 37.1034L44.2854 37.2771C44.0203 37.8831 42.8402 39.482 41.4309 41.3314L38.2568 45.4776C35.8742 48.6217 29.1809 55.4089 28.2092 56.3821L22.2054 62.0963C21.2141 63.049 20.4316 63.8177 20.1924 64.0994C19.6841 64.6983 19.287 65.564 19.0009 66.6963C19.8441 66.7267 20.6782 66.744 21.5033 66.7483L23.3744 66.7464L28.5268 66.8291C31.2344 66.8543 34.2482 66.8283 36.2722 66.6049C40.2303 66.1688 46.3114 63.4478 49.4024 61.235C52.493 59.0223 59.8589 51.338 62.9648 47.9622L63.7213 47.1198L64.5113 46.2088C67.6393 42.5576 71.787 37.2499 72.8922 36.5262C74.0199 35.7874 77.4319 35.4895 79.9658 35.3205L82.2636 35.1672L88.1654 34.6629C89.1264 34.5703 89.812 34.4962 89.9314 34.4667C90.306 34.3737 89.8372 31.583 88.7816 29.7737C87.7261 27.964 84.7979 25.8269 82.8428 24.6591C80.8874 23.4913 76.2377 21.9507 75.0458 22.3175C73.9864 22.6434 72.8232 26.2091 72.1527 28.5972L71.9253 29.4289C71.3197 31.7067 70.7338 33.142 67.8166 34.5104C64.8994 35.8784 61.6544 33.3182 59.8258 32.0849L58.7647 31.3935L57.1143 30.3612C55.333 29.2599 53.2424 27.9916 51.5824 26.9176C48.9272 25.1993 47.7259 25.5732 47.4178 26.3813Z" fill="#F2EFEC"/>
<path d="M77.8346 17.1269L77.848 17.1564C78.5056 16.6919 78.9335 16.7427 79.0678 16.8645C79.2022 16.9862 79.3905 17.6911 79.7061 17.792C80.0217 17.8928 81.8192 19.7064 82.3515 21.3246L82.5638 22.0122L82.7691 22.7265C82.8621 23.0043 82.9535 23.1217 83.2124 23.2702L83.5634 23.4613C83.344 23.6461 83.1344 23.6686 82.9342 23.5291L78.2215 20.2908C77.6301 19.8877 77.0556 19.4984 76.5481 19.1572L76.3744 19.0299C76.8082 18.8739 77.502 18.433 77.725 17.6864L77.8346 17.1269Z" fill="#DCD8D2"/>
<path d="M23.4126 67.0431L28.565 67.1258L30.4015 67.1333C32.5634 67.1294 34.7367 67.0754 36.3108 66.9016C40.2689 66.4655 46.35 63.7445 49.4406 61.5317C52.5312 59.319 59.8971 51.6347 63.003 48.2589L63.7595 47.4165L64.5495 46.5055L67.4458 43.0426C69.8382 40.1479 72.1475 37.3355 72.9304 36.8229C73.298 36.5821 73.9079 36.3883 74.6506 36.2303C74.1861 36.6487 73.874 36.9789 73.5726 37.4296C71.8674 39.9788 80.0028 37.3725 85.0027 37.7141C86.0748 37.7874 86.2623 38.1365 85.8384 38.6912L84.7876 38.8315L83.3053 39.0435C79.5256 39.6211 75.268 40.6163 72.2984 43.3413C68.8331 46.5209 61.1063 56.2438 53.9527 61.7279L52.4918 62.6736C47.8992 65.6002 43.6889 67.8331 41.4565 68.0352C38.1677 68.3327 32.9586 68.3059 25.7526 67.3614L23.4126 67.0431ZM83.4925 24.7797C84.2758 25.0906 85.0725 25.2923 86.1946 25.4747C87.0925 26.1666 88.5815 27.4538 89.3155 28.1488L89.6571 28.7651L89.7749 28.9924C90.1063 29.6492 91.8596 32.2492 92.319 33.9801C92.1208 34.6042 91.8588 35.077 91.5834 35.289C90.9353 35.7878 90.7351 35.2445 90.2603 34.3473C90.4991 33.9226 90.0247 31.3943 89.044 29.7126C87.9885 27.903 85.0602 25.7659 83.1052 24.5981L83.4925 24.7797Z" fill="#DEDBD8"/>
<path d="M14.8768 70.1352C20.4126 70.4322 32.0157 69.6119 38.0475 68.2845C44.5045 66.8637 52.3991 61.5975 58.9187 54.5743L60.0298 53.36L61.2107 52.0357L64.6953 48.0638L65.858 46.7537C71.0167 40.9855 72.5474 39.9477 75.318 38.7976L75.8815 38.5686C78.448 37.549 80.7407 36.9375 83.5969 36.7089L87.7517 36.4599L88.3762 36.413C89.6382 36.3327 90.8639 36.0309 91.3915 35.3094C92.1306 34.2976 92.252 32.7512 90.7079 29.9108C91.2217 30.6661 91.8209 31.5924 92.3576 32.4675C93.0759 34.2752 93.1621 35.5628 92.6216 36.4591C92.044 37.417 90.687 37.9749 89.2627 38.1372L88.6374 38.1876C87.9778 38.2239 85.1942 38.3803 84.0228 38.4741C81.2963 38.6924 79.1363 39.2767 76.7136 40.2392L76.2306 40.4362C73.651 41.5201 72.14 42.5087 67.0227 48.2726L61.9683 54.0176L60.8182 55.2918C60.6315 55.4959 60.4463 55.6968 60.2615 55.8958C53.5642 63.1108 45.4379 68.5312 38.6633 70.0221C32.5023 71.3779 20.8373 72.0662 15.1581 71.7766C12.3363 71.6328 10.6822 70.7498 9.84302 68.9685L10.9632 68.019C11.648 69.2991 12.7161 70.0193 14.8768 70.1352Z" fill="#F4F4F4"/>
<path d="M15.1908 70.5012C20.7502 70.7849 32.3296 69.978 38.3615 68.6506C44.8184 67.2298 52.7131 61.9635 59.2327 54.9404L60.3438 53.7261L61.5247 52.4018L65.0092 48.4298L66.172 47.1198C71.3307 41.3515 72.8614 40.3137 75.632 39.1636L76.1954 38.9347C78.762 37.915 81.0547 37.3035 83.9109 37.075L88.0657 36.826L88.6901 36.7791C89.9521 36.6987 91.1779 36.3969 91.7055 35.6755C92.4446 34.6637 91.7728 32.6058 90.2287 29.7658C90.7425 30.5211 91.8217 31.5928 92.3583 32.4679C93.0766 34.2756 93.1629 35.5632 92.6223 36.4596C92.0447 37.4174 90.6878 37.9753 89.2634 38.1376L88.6381 38.1881C87.9786 38.2243 85.1949 38.3807 84.0235 38.4745C81.297 38.6928 79.1371 39.2771 76.7144 40.2397L76.2313 40.4367C73.6517 41.5206 72.1407 42.5091 67.0234 48.273L61.9691 54.018L60.819 55.2922C60.6322 55.4963 60.447 55.6973 60.2623 55.8962C53.565 63.1113 45.4386 68.5316 38.6641 70.0225C32.503 71.3783 20.8381 72.0666 15.1589 71.777C12.337 71.6332 10.683 70.7502 9.84375 68.9689L10.6621 68.2625C11.3378 69.6368 12.8094 70.3795 15.1908 70.5012Z" fill="#E4E1DE"/>
<path d="M90.2008 29.6582C90.7146 30.4135 91.8206 31.592 92.3572 32.4671C93.0755 34.2748 93.1618 35.5624 92.6212 36.4588C92.0436 37.4166 90.6866 37.9745 89.2623 38.1368L88.637 38.1873L84.379 38.4465C84.2486 38.456 84.1288 38.465 84.0224 38.4737C81.2959 38.692 79.136 39.2763 76.7132 40.2389L76.2302 40.4359C73.6506 41.5198 72.1396 42.5083 67.0223 48.2722L61.968 54.0172L60.5389 55.5952L60.2615 55.8954C53.5642 63.1105 45.4379 68.5308 38.6634 70.0217C35.6402 70.6872 31.2915 71.1915 26.9756 71.4988L30.3439 70.3302C31.0433 70.0844 31.7096 69.8476 32.3435 69.6198L34.2359 69.3712C35.7674 69.1541 37.1724 68.9126 38.3619 68.651C44.8189 67.2302 52.7136 61.9639 59.2332 54.9408L60.3443 53.7264L61.5251 52.4022L65.0097 48.4302L66.1724 47.1202C71.3311 41.3519 72.8618 40.3141 75.6325 39.164L76.1959 38.9351C78.7624 37.9154 81.0552 37.3039 83.9113 37.0754L88.0661 36.8264L88.6906 36.7795C89.9526 36.6991 91.1784 36.3973 91.7059 35.6759C92.4439 34.6633 91.7449 32.4986 90.2008 29.6582Z" fill="#D4D0CC"/>
<path d="M82.1549 20.831L82.1427 20.8759C82.099 21.0382 82.0383 21.1367 81.9603 21.1714C81.6088 21.3274 80.4008 20.0012 80.1975 19.8018C80.0281 19.6359 79.9662 19.3625 80.0888 19.1966L80.1853 19.1115C80.2999 19.0457 80.404 18.8389 80.4977 18.4906C81.0509 19.067 81.7459 19.9492 82.1549 20.831Z" fill="#5580A7"/>
<path d="M83.0883 23.1997L84.0138 23.6883C84.5847 24.0003 85.2009 24.4121 85.6 25.0464C85.4046 25.1414 85.2655 25.1654 85.1926 25.1303L84.8613 24.9416C84.3223 24.617 83.3668 23.9936 83.2206 23.7761C83.1572 23.6816 83.1131 23.4893 83.0883 23.1997Z" fill="#3C5242"/>
<path d="M97.2381 43.4693C98.7491 44.2853 99.4008 45.2837 99.1928 46.4649C98.8811 48.2372 93.631 52.5602 89.6106 55.3237C85.5901 58.0873 57.1496 72.2037 56.0122 72.9042C54.8747 73.6048 53.8203 74.522 51.9838 74.92C50.1478 75.3179 49.1726 75.0039 46.8693 76.1595C44.5659 77.3147 37.6594 81.4238 30.9735 83.8076C24.2876 86.1913 15.9477 88.0116 13.5939 88.5069C11.2401 89.0021 8.04989 87.8166 7.77014 87.6731C9.068 87.4025 24.1474 83.5767 32.0684 79.6949C39.9895 75.8132 48.3716 71.1056 55.9475 66.4973C63.5235 61.8887 88.9577 47.4925 91.6153 46.1493C93.3879 45.2541 95.2618 44.3609 97.2381 43.4693Z" fill="#082D11"/>
<path d="M12.5676 86.436L14.7512 85.8237L17.6578 85.1637C18.3319 85.0097 19.0108 84.8517 19.6526 84.6925C22.8098 83.9104 29.4405 81.3336 33.4262 79.6079L34.141 79.295C36.5661 78.2202 42.3717 75.0977 46.4402 72.8806L50.7763 70.5087C51.1155 70.3373 46.1684 73.9133 40.7827 76.9751L39.6637 77.6C33.8667 80.7753 29.1978 82.6279 28.4058 82.7973C27.8779 82.9104 27.6316 83.3162 27.6675 84.0156C27.9444 83.895 28.8136 83.4155 30.2758 82.5771C32.4688 81.3194 36.7568 79.8624 39.7071 78.8805C42.657 77.8987 46.7026 75.4949 48.0017 74.5437C49.3007 73.5926 50.5903 73.4188 51.9098 72.7738L63.1303 66.2988C63.9731 65.8189 64.7469 65.3827 65.401 65.0214L68.1783 63.5336C73.4725 60.739 84.2435 55.1346 89.8478 51.7966L90.4487 51.4353C96.8126 47.5693 97.7949 46.2084 98.2969 45.5847C98.5309 45.2943 98.5975 44.8944 98.4966 44.3854C99.0971 44.9977 99.3288 45.6923 99.1928 46.4649C98.8812 48.2372 93.631 52.5602 89.6106 55.3237C85.5902 58.0873 57.1497 72.2037 56.0122 72.9043C54.8747 73.6048 53.8204 74.522 51.9839 74.92C50.1478 75.3179 49.1727 75.0039 46.8693 76.1595L45.497 76.8853C42.4462 78.5381 36.6307 81.7907 30.9736 83.8076L29.4637 84.3277C23.0852 86.4537 21.3882 86.778 18.6688 87.5246C16.8859 88.0144 11.4108 88.6215 10.386 88.4289C11.9187 88.2953 13.7906 88.0435 14.8899 87.7996L15.6601 87.6204C17.8146 87.0999 21.4796 86.0908 21.9717 85.7256C22.5296 85.3115 18.3319 86.1752 16.8335 86.5305C15.3351 86.8859 13.0223 86.8718 12.4778 86.6034C12.3911 86.5613 12.4289 86.5045 12.5676 86.436Z" fill="#43774F"/>
<path d="M95.7965 40.5891C97.3095 41.6545 98.0971 42.2837 98.1589 42.4768C98.2515 42.7664 98.2988 43.45 97.6893 43.8657C97.0798 44.2813 90.9132 48.0031 84.8589 51.2123C78.8046 54.4215 68.118 60.2236 60.8171 64.5198C53.5158 68.816 49.0044 71.6706 47.4855 72.7778C45.9666 73.8849 35.8699 79.5326 27.4673 82.6141C21.8657 84.6685 15.4734 86.4643 8.29066 88.0014L6.12048 86.7059C16.1006 84.1102 22.7585 82.1653 26.0946 80.8714C31.0984 78.9302 44.0199 72.2758 46.9375 70.5631C49.8551 68.8503 57.524 63.2819 63.1933 59.9758C68.8627 56.6697 86.2489 46.6789 88.7631 45.3475C90.4384 44.4598 92.7831 42.8736 95.7965 40.5891Z" fill="#E7E4DC"/>
<path d="M95.7966 40.5891L96.8726 41.3637C97.6851 41.9658 98.1141 42.3365 98.1591 42.4772C98.2516 42.7668 98.2989 43.4504 97.6894 43.8661L97.4041 44.0493C96.7804 43.3964 96.0791 43.2908 95.295 43.7309L86.5225 48.418L83.1017 50.2789C79.6014 52.1524 73.3343 55.3828 64.2998 59.971L70.2095 55.9147L85.1293 47.3759C86.7124 46.4795 87.9326 45.7955 88.5717 45.4503L88.7628 45.3479C90.4385 44.4598 92.7832 42.8736 95.7966 40.5891Z" fill="#D4D1C8"/>
<path d="M63.462 59.8256C62.8761 61.2811 62.0932 62.4339 61.1137 63.285C59.596 64.6037 56.273 66.8263 52.5496 68.9173L50.6364 69.9665C46.1884 72.368 38.0877 76.5504 35.1232 77.3183C34.5204 77.4743 34.8226 77.1233 36.029 76.2647L40.3505 74.08C43.326 72.5512 45.8393 71.2073 46.937 70.5631C49.8546 68.8503 57.5236 63.2818 63.1929 59.9757L63.462 59.8256Z" fill="#D1CEC8"/>
<path d="M95.7965 40.5891L96.6109 41.1714C97.3398 41.7026 97.8118 42.0788 98.0273 42.3011L97.5943 42.093C96.8103 41.7502 96.2634 41.7148 95.9529 41.9878L95.4943 42.355C94.9703 42.738 94.0321 43.3271 91.8493 44.5595L85.6792 47.9826C80.6951 50.7844 76.1581 53.5263 73.7365 54.9313L71.4529 56.2626C67.7358 58.4549 61.1146 62.4422 58.1615 64.3563L55.6623 65.9658C51.8161 68.4287 46.2937 71.9054 43.6475 73.3475L39.6716 75.4342C36.1945 77.221 31.0473 79.6898 24.0875 82.1303C17.5652 84.4171 11.6653 85.997 6.38804 86.8694L6.12012 86.7062L10.6555 85.5104C17.789 83.6007 22.7968 82.107 25.6781 81.0302L26.0942 80.8718C31.0981 78.9306 44.0195 72.2762 46.9371 70.5635C49.6116 68.9934 56.2782 64.1837 61.7379 60.8461L63.193 59.9761C68.2953 57.0006 82.8885 48.6107 87.589 45.9917L88.7627 45.3479C90.4384 44.4598 92.7831 42.8736 95.7965 40.5891Z" fill="#A3A097"/>
<path d="M93.1074 33.6617C93.1543 33.7224 94.0345 33.6199 94.2047 33.9753C94.3741 34.3311 95.7811 37.378 95.8961 38.2952C96.0112 39.2125 96.0384 40.7373 95.6259 41.2692C95.2133 41.8011 92.3525 43.8956 86.2276 47.3873C80.1028 50.879 66.6022 58.7504 62.8115 60.9158C59.0208 63.0809 51.5355 68.1541 49.6825 69.396C47.8295 70.6379 43.2953 73.2888 36.9809 76.4487C30.6666 79.6087 26.1552 81.3257 18.4954 83.7063C13.3887 85.2934 9.37416 86.2823 6.45221 86.6732L4.55469 85.3276C10.9478 83.9163 16.5636 82.4215 21.4016 80.8423C28.6584 78.4739 42.2035 71.8531 46.7345 68.9618C51.2656 66.0706 56.8262 61.6727 62.4155 56.5286C68.0049 51.3845 72.0758 45.8893 76.138 44.3428C80.2001 42.7963 83.2864 43.4453 86.1701 42.8767C89.0538 42.3082 94.0427 40.8594 94.0857 37.8275C94.1278 34.7957 93.0605 33.601 93.1074 33.6617Z" fill="#DBD8D2"/>
<path d="M76.1376 44.3421C78.9252 43.281 81.253 43.2534 83.3711 43.1569L81.8586 43.5237C78.5115 44.3543 76.4398 45.0071 75.6412 45.4823L74.7531 46.0197C73.3165 46.9161 71.237 48.3893 68.7922 51.171L68.2217 51.8364C64.953 55.7426 58.511 61.1933 56.3475 62.8544L54.7991 64.0033C51.7495 66.216 46.1775 70.0478 42.5932 71.9094L40.3678 73.0493C35.6894 75.4145 28.5485 78.836 22.8413 80.8423C18.5061 82.3663 12.5885 83.9865 5.08941 85.7032L4.55396 85.3269C10.9471 83.9156 16.5628 82.4207 21.4008 80.8415C28.6576 78.4732 42.2027 71.8523 46.7338 68.9611C51.2649 66.0699 56.8254 61.672 62.4148 56.5279C68.0042 51.3837 72.075 45.8885 76.1376 44.3421ZM94.2047 33.9754L94.8056 35.3059C95.2654 36.3599 95.8253 37.731 95.8962 38.2953C96.0112 39.2125 96.0384 40.7373 95.6259 41.2692C95.4612 41.4812 94.9076 41.9418 93.9132 42.6399C94.2618 42.1348 95.319 41.3456 95.5317 40.7507C96.023 39.3776 95.4935 36.6503 94.3864 34.9344C93.9577 34.2701 93.6204 33.8548 93.3745 33.6893C93.6578 33.7047 94.0905 33.7374 94.2047 33.9754Z" fill="#F1F0ED"/>
<path d="M71.8992 47.1481L70.7353 48.513C69.456 50.037 68.4399 51.3368 67.6869 52.4124C66.0739 54.7174 64.0128 58.4257 62.8426 60.6334C62.7741 60.763 62.6708 60.9111 62.5373 61.0746L61.2343 61.8504C59.1402 63.1278 56.5153 64.839 54.2569 66.3354L49.6817 69.3956C48.2731 70.3397 45.3145 72.0981 41.2023 74.2758L36.2504 76.5559C34.7371 77.2316 33.7 77.6532 33.6701 77.537C33.5708 77.1437 44.8275 71.4452 47.2952 69.9L47.7179 69.6285C48.5056 69.1033 47.9469 69.316 46.9611 69.7731L43.0198 71.6738C41.85 72.2092 40.5502 72.7175 40.7385 72.3018L42.2031 71.5359C44.084 70.5386 45.6608 69.6454 46.7333 68.9614C51.2644 66.0702 56.825 61.6723 62.4143 56.5282C66.0896 53.1457 69.1081 49.6118 71.8992 47.1481Z" fill="#D1CEC8"/>
<path d="M57.7199 61.5439L56.7676 62.3343C55.5497 63.3303 50.352 67.6147 41.304 72.2652C35.3798 75.31 35.5184 75.0992 33.7939 75.8932C32.0693 76.6875 26.1273 79.2276 24.35 79.7383C31.1017 77.1059 39.3096 73.05 40.5968 72.3901C41.884 71.7301 46.185 69.3113 46.7338 68.961C51.2649 66.0698 56.8255 61.6719 62.4148 56.5278C65.0539 54.0992 67.3541 51.5921 69.475 49.4594C67.9155 51.9357 60.587 59.1267 57.7199 61.5439Z" fill="#ABA59A"/>
<path d="M93.1074 33.6617C93.1381 33.7015 93.5318 33.6708 93.845 33.7472C94.6102 35.471 95.3572 38.2133 94.8466 39.9154C94.1791 42.1407 91.637 43.6308 88.8301 44.13C86.0232 44.6292 82.5138 44.1596 81.2427 44.2293C80.3992 44.2758 78.244 44.0642 76.2759 44.2912L76.1372 44.3428C80.1994 42.7963 83.2857 43.4452 86.1694 42.8767C89.0531 42.3081 94.042 40.8594 94.0849 37.8275C94.1279 34.7957 93.0605 33.601 93.1074 33.6617Z" fill="#D1CEC8"/>
<path d="M93.1074 33.6617L93.1499 33.672L93.3844 34.0853C93.8197 34.8953 94.6294 36.6384 94.4029 38.0769C94.1007 39.995 93.2677 40.95 91.4738 41.7979C89.6799 42.6454 87.7284 43.2636 84.9034 43.3712C83.0894 43.4401 81.4051 43.3688 80.1501 43.37C82.3798 43.1044 84.3167 43.242 86.1697 42.8767L86.9652 42.7081C89.8836 42.0446 94.0463 40.5958 94.0853 37.8279C94.1279 34.7957 93.0605 33.601 93.1074 33.6617Z" fill="#ABA59A"/>
<path d="M99.378 46.123C99.2941 48.3908 98.5699 50.366 97.2047 52.0488C95.157 54.5732 90.639 57.8915 85.5216 60.3737C80.4043 62.856 66.6165 69.835 62.9203 71.6844C59.2241 73.5343 40.0388 83.1354 37.7839 84.2638C35.529 85.3923 28.0154 87.7993 20.6112 89.722C13.2071 91.6447 11.2926 91.2251 7.7363 91.0833C4.78441 90.5778 1.8932 87.891 1.31677 86.739C0.740344 85.5869 -0.204483 83.4199 0.0394067 83.254C0.282902 83.0881 1.79746 83.1267 3.1682 84.1216C4.53895 85.1165 7.82141 88.0546 9.84975 88.2988C11.8781 88.5427 16.6987 88.4832 26.0335 85.3647C35.3683 82.2461 47.2353 75.7218 47.7877 75.4819C48.3401 75.2419 52.381 75.1292 53.8972 74.1671C55.4129 73.2053 58.381 71.4776 61.9286 69.7022C65.4762 67.9268 76.9914 62.1081 79.5343 60.8355C82.0768 59.5629 91.6929 54.4475 95.0227 51.1138C97.2425 48.892 98.6944 47.2281 99.378 46.123Z" fill="#2C4C2E"/>
<path d="M4.35687 89.3815L9.59281 88.2555L9.8497 88.2992L10.5435 88.3607C12.8871 88.5009 17.6321 88.1719 26.0335 85.3651L27.3825 84.8974C36.4722 81.6393 47.2613 75.7107 47.7877 75.4822C48.3401 75.2423 52.381 75.1296 53.8971 74.1674L54.0803 74.0532L53.5741 76.3597L37.7839 84.2638C35.6157 85.3489 28.5854 87.616 21.4658 89.4982L20.6112 89.722C13.207 91.6447 11.2925 91.2251 7.73626 91.0833C6.52233 90.8752 5.31864 90.2984 4.28162 89.6112L4.35687 89.3815Z" fill="#52684E"/>
<path d="M98.0478 50.0641C98.1266 50.2048 98.1936 50.3443 98.2484 50.4825C97.9552 51.0294 97.6081 51.5519 97.205 52.0487C95.1574 54.5731 90.6393 57.8914 85.522 60.3737L81.0177 62.5963C75.0391 65.5734 66.5837 69.8471 63.3387 71.4752L53.4968 76.3998C45.6999 80.4333 40.8619 82.8942 38.9821 83.7835C34.9014 85.7137 28.7462 87.681 20.5162 89.6857C30.3451 86.4588 35.6843 84.6491 36.5341 84.2563C40.6988 82.3316 53.2285 75.8959 53.3948 75.7308C53.5055 75.6205 53.6442 75.4412 53.8109 75.1934C53.8778 74.8262 54.1777 74.509 54.7108 74.2423L80.0887 61.5419L79.9291 62.4509L82.8873 60.8831C86.6244 58.8741 89.5326 57.1909 91.6113 55.8331C94.2102 54.1358 96.3556 52.2126 98.0478 50.0641Z" fill="#021405"/>
<path d="M3.51379 88.4631C4.1375 88.5672 4.64537 88.5904 5.03662 88.5325L6.15284 88.3122C6.71272 88.1929 7.46054 88.027 8.3963 87.815C8.92151 88.0699 9.4148 88.2468 9.85017 88.2992C10.2387 88.3461 10.7296 88.3816 11.3348 88.3867L8.99006 89.1259C7.79268 89.4935 6.53384 89.8658 6.16268 89.9316C5.41723 90.064 3.96296 89.2665 3.76123 88.9576C3.62687 88.7516 3.54413 88.5869 3.51379 88.4631Z" fill="#7A9079"/>
<path d="M0.0398472 83.2544C0.283342 83.0886 1.7979 83.1272 3.16864 84.122C4.25846 84.9128 6.5567 86.9325 8.47235 87.8498L8.77179 87.7595L7.60672 88.0873C5.79233 88.5665 4.61386 88.7087 4.07131 88.5137L3.61939 88.3679C3.25178 88.2552 2.76558 88.1106 2.24313 87.9282C1.79357 87.468 1.47206 87.0483 1.31721 86.739L0.911386 85.8884C0.390511 84.7505 -0.151639 83.3849 0.0398472 83.2544Z" fill="#D5D0CD"/>
<path d="M2.89078 84.6165L3.32891 85.1279C3.81472 85.7165 4.44277 86.536 5.21345 87.5865C4.85923 87.9647 4.52709 88.2878 4.2174 88.5553L4.07122 88.5132L3.6193 88.3674L2.6268 88.0573C2.5019 88.0163 2.37345 87.973 2.24304 87.9277C1.79347 87.4675 1.47196 87.0479 1.31712 86.7386L0.911293 85.8879L0.554718 85.0767C0.327377 84.5357 0.13274 84.0188 0.0472412 83.6728C1.01216 83.6945 2.36675 84.0341 2.89078 84.6165Z" fill="#C5BDB7"/>
<path d="M3.03027 87.4967L6.7489 86.8312C7.14763 87.1019 7.54912 87.3556 7.94155 87.5739L8.46282 87.845L7.60704 88.0873L6.59484 88.3343C5.34702 88.6097 4.50583 88.6696 4.07163 88.5136L3.71151 88.4005L3.03027 87.4967Z" fill="#B1C5BE"/>
<path d="M1.41486 86.2401C1.78483 86.012 2.86165 86.7697 3.77732 87.694L4.0224 87.9497C4.85335 88.8457 6.78043 90.3539 8.87339 91.1431L8.30523 91.1085C6.91636 90.6364 5.52395 89.7759 4.75642 89.1038L3.97354 88.3863C3.07323 87.5364 2.15087 86.6101 1.998 86.6042C1.86876 86.5994 1.57286 86.6333 1.29627 86.7027L1.10242 86.2988C1.22732 86.3114 1.33094 86.2917 1.41486 86.2401Z" fill="#EBEBEB"/>
<path d="M1.48775 86.3749C1.75331 86.3659 2.78009 87.0735 3.1477 87.4935L3.58346 87.9588C4.0342 88.4163 4.67092 89.0034 5.24853 89.3796L7.84069 91.0841L7.73667 91.0837C4.78478 90.5782 1.89358 87.8915 1.31715 86.7394L1.2478 86.5983C1.30493 86.453 1.38491 86.3785 1.48775 86.3749Z" fill="#285D37"/>
<path d="M99.2558 45.5843C98.8256 46.7608 98.4095 47.6245 98.0076 48.1753C97.4048 49.0019 97.3493 49.0102 97.3398 49.7553C97.3303 50.5003 97.0656 51.9404 97.2051 52.0488C97.3441 52.1567 98.787 50.7812 99.1944 50.115C99.6018 49.4487 100.136 47.5563 99.9682 46.7872C99.8839 46.4019 99.7003 45.8597 99.4741 45.6005C99.4245 45.5437 99.3516 45.5382 99.2558 45.5843Z" fill="#061D0F"/>
<path d="M96.9514 44.7108L97.9048 43.8798L97.8761 43.8566C98.1665 44.0611 98.4104 44.2754 98.6074 44.4988C98.4261 44.7963 97.7465 45.6067 97.3249 45.9223C96.858 46.2714 97.7827 45.3116 98.1105 44.7289C98.4383 44.1458 97.1019 45.1769 96.4778 45.39C96.1894 45.4881 96.3474 45.262 96.9514 44.7108Z" fill="#224F2D"/>
<path d="M16.8756 60.5085C17.0415 60.4254 17.2401 60.3619 17.4718 60.3182C16.9946 61.1582 17.625 63.2527 17.8059 63.5833C18.0049 63.947 17.4714 64.6365 17.0648 64.8843C16.6581 65.1321 16.2149 64.9533 15.6609 64.3563C15.4198 64.0963 15.2307 63.6834 15.0935 63.118C15.0943 63.0226 15.0849 62.9186 15.0687 62.8048L16.0199 62.3288L16.155 61.9001C16.3213 61.4045 16.6148 60.6389 16.8756 60.5085ZM26.7167 50.5374L27.2573 50.2301L26.9279 50.472C26.4338 50.8581 24.7569 55.0889 24.66 55.6524C24.5627 56.2158 24.5497 57.8478 24.4445 58.0779C24.3393 58.308 23.8365 58.4565 23.6651 58.4679C23.4937 58.4794 22.922 57.8738 22.7912 57.2351C22.7022 56.8001 22.833 55.6437 22.989 54.7994L23.0426 54.7446C23.2049 54.126 23.4606 53.5606 23.8093 53.0476L24.1557 52.6024C24.3152 52.4022 24.4961 52.2147 24.6927 52.0358C25.3972 51.394 26.0843 50.9141 26.7167 50.5374ZM33.0708 43.9575L32.9956 44.0383C31.02 46.1832 30.8085 49.6706 30.9223 50.5839L30.9472 50.7242C31.1245 51.4081 30.6493 51.931 30.4093 51.9668C30.1694 52.0027 29.5559 51.6989 29.3018 51.2005C29.0476 50.7021 29.197 49.6997 29.3034 48.6544C29.3396 48.2983 29.4838 47.8266 29.6465 47.3712C30.0894 46.3972 30.6201 45.6383 31.2363 45.0915C31.7336 44.649 32.3455 44.2711 33.0708 43.9575ZM38.7902 37.4907L38.7622 37.5269C38.2359 38.1617 37.3521 39.6463 37.094 40.1849C36.8182 40.7609 36.6567 41.9209 36.7966 42.8716L36.8754 43.2641C37.1382 44.264 36.7185 44.95 36.3588 45.123C35.9991 45.2959 35.2556 44.7219 34.9203 44.2424C34.7481 43.9961 34.7044 43.4181 34.7351 42.8078L34.4818 43.4662C34.955 42.1333 35.6417 40.8212 36.542 39.5305C37.2307 38.5439 37.9801 37.8638 38.7902 37.4907ZM41.0396 32.2969L41.2685 32.1102C41.4423 31.9794 41.577 31.9009 41.5305 32.0314L41.4182 32.3777C41.2118 33.0467 40.8327 34.4072 40.9569 34.7882C41.1117 35.2642 41.7618 36.3319 42.0518 36.9761C42.3418 37.6207 42.25 38.0273 41.8678 38.2503C41.4856 38.4734 40.7149 38.2807 40.3532 37.9564C40.0877 37.7184 39.7721 37.3043 39.5739 36.9084L39.5554 37.2334C39.6157 36.2862 39.7177 35.5995 39.8623 35.1728L40.2831 34.1775C40.4754 33.713 40.7275 33.0861 41.0396 32.2969ZM41.7945 25.0315C41.8174 25.0858 41.8115 25.1441 41.7642 25.2009C41.5404 25.47 42.1436 26.5192 42.7051 27.1457C43.2665 27.7722 43.4746 28.637 43.7575 29.2489C44.0403 29.8604 43.3528 30.3876 42.9025 30.6074C42.5908 30.7599 41.8997 30.0141 41.4218 29.3529L40.7823 28.072C40.475 27.4581 41.0266 25.4168 41.0266 25.4168L41.7945 25.0315Z" fill="#489056"/>
<path d="M44.2331 21.4456C43.8911 21.6643 43.7232 21.8108 43.7295 21.8853C43.7599 22.258 43.8422 22.5586 43.9766 22.7876C44.2386 23.2328 46.5573 26.0547 46.8442 26.5822C47.131 27.1098 47.9458 28.215 47.9158 28.4234C47.8859 28.6322 47.7023 29.7682 47.417 29.9104C47.1318 30.0526 45.6712 30.3521 44.8217 30.622C43.9722 30.8919 41.7177 31.5333 41.3923 31.6885C41.0668 31.8438 40.6283 32.2141 40.6319 32.0692C40.6354 31.9238 40.7509 30.2721 40.8517 30.1566C40.9526 30.0412 41.7118 29.6125 42.1902 29.3879C42.6681 29.1634 45.0514 28.317 45.1113 28.2331C45.1712 28.1492 45.2244 27.9601 44.5656 26.9483C43.9072 25.9368 43.0739 24.1114 42.9321 23.879C42.7902 23.6465 42.7658 23.4026 42.8347 23.1571C42.9037 22.9117 43.2362 21.8577 43.3221 21.7285C43.3793 21.6422 43.683 21.548 44.2331 21.4456Z" fill="#A0B1EF"/>
<path d="M41.466 29.7638L41.1827 31.3111L42.2997 31.001L46.5301 29.7745L47.0565 29.3797L47.3764 28.4601L47.908 28.4612L47.8201 28.9482C47.7338 29.3446 47.5955 29.8213 47.417 29.9104C47.1633 30.0365 45.9813 30.2874 45.1251 30.5309L42.0215 31.4703C41.7134 31.5676 41.4809 31.646 41.3923 31.6881C41.0664 31.8434 40.6283 32.2137 40.6319 32.0687L40.6917 31.2496C40.7351 30.7587 40.7954 30.2205 40.8517 30.1562L41.0058 30.0388C41.1204 29.9628 41.2855 29.8647 41.466 29.7638Z" fill="#6B5FA5"/>
<path d="M42.8174 23.5993L43.2358 22.3369L44.1558 23.8952L45.4805 24.7927L45.7519 25.1036L46.5277 26.1189C46.6298 26.258 46.7141 26.3766 46.7736 26.4676L47.0983 27.0039C47.4509 27.5571 47.9387 28.2615 47.9154 28.4243L47.8985 28.5172L47.6471 28.5232L47.4001 29.3395L46.9548 29.4885L47.1735 28.3135L43.8796 23.7998L43.3599 24.7312L42.977 23.9614L42.9316 23.8794C42.8757 23.7872 42.8383 23.6938 42.8174 23.5993Z" fill="#102546"/>
<path d="M42.1897 29.3879C42.6235 29.1842 44.6266 28.4683 45.038 28.2749L45.1353 28.3151L45.2543 28.0586C45.2937 27.9853 45.3985 27.8958 45.5687 27.7902L45.8488 27.6303C46.0383 27.529 46.2062 27.4522 46.1877 27.4806C46.1597 27.5231 45.6282 27.7103 45.6128 27.8789C45.5974 28.0475 45.9 28.2107 46.0541 28.2122C46.2082 28.2138 46.6928 27.9869 46.6219 27.8304C46.7338 27.9297 46.9134 28.3383 46.8965 28.6082C46.8795 28.8781 46.8795 29.0664 46.6581 29.2327L46.4627 29.3935C46.2893 29.5294 46.0754 29.6374 45.7133 29.4699C45.3752 29.3135 45.1889 29.0121 45.1542 28.5649L42.4379 29.4675L42.1389 29.8143L41.9789 30.3931L41.7086 30.7488C41.6727 30.8966 41.6735 30.9715 41.7106 30.9742L42.233 30.8726C42.3264 30.8564 42.3918 30.8497 42.3831 30.867C42.3563 30.9194 41.2689 31.3627 41.2712 31.2666L41.4742 30.3367C41.5191 30.144 41.5711 29.9218 41.6306 29.6701C41.8248 29.5676 42.0242 29.4656 42.1897 29.3879Z" fill="#2E5860"/>
<path d="M46.3559 22.7414C46.2385 22.3939 45.8607 22.3778 45.4856 22.6453C45.1105 22.9128 45.2161 23.2501 45.3134 23.414C45.4107 23.5779 45.6546 23.9412 46.0206 23.687C46.3867 23.4325 46.4734 23.0889 46.3559 22.7414Z" fill="#251A1A"/>
<path d="M97.9908 48.2959C97.843 48.5516 95.8403 50.9054 93.862 52.6024C91.8837 54.2993 87.1237 57.3087 80.8957 60.5471C74.6676 63.7854 61.2407 70.3834 60.2116 70.8984C59.1824 71.4134 54.5785 73.7845 54.1782 74.0855C53.7779 74.3869 51.4918 75.1765 49.4635 75.2888C47.8808 75.3924 45.8469 76.5863 44.7047 77.2009C43.5625 77.8156 36.6304 81.3612 31.7112 83.4057C26.7924 85.4506 23.8142 86.2906 17.8729 87.7863C11.9317 89.2819 9.41483 88.5825 8.34196 88.0404C7.62644 87.6791 6.40345 86.767 4.67297 85.3036C7.04528 86.9293 8.4444 87.8131 8.86992 87.9557C9.28048 88.0932 10.5173 88.6554 13.6776 88.2618C15.2938 88.0605 18.055 87.5495 19.7315 87.0664C24.4288 85.713 27.2617 84.9195 32.1005 82.9041C36.9393 80.8888 43.0412 77.7572 44.8308 76.8396C46.6204 75.922 47.9651 75.3451 49.8248 75.1076C51.6845 74.87 53.2995 74.2987 54.679 73.487C56.058 72.6754 60.4637 70.4244 62.6359 69.3373C64.808 68.2503 82.3129 59.4076 82.9863 59.0707C83.6596 58.7339 88.5228 56.1736 91.652 53.8466C94.7812 51.5196 97.7674 48.5429 99.0881 46.3235L98.7327 47.2931C98.3367 47.7912 98.0893 48.1253 97.9908 48.2959Z" fill="#061D0F"/>
<path d="M50.1261 21.9078C55.7162 27.072 59.6484 30.4774 61.9222 32.1235C65.3331 34.5932 67.0077 34.2555 67.852 33.9466C68.696 33.6377 70.5332 32.7216 71.3279 29.728C71.8579 27.7324 71.9646 24.5267 71.6483 20.1115C70.5777 24.8439 69.4722 27.7127 68.3311 28.7174C66.62 30.2244 65.5364 30.7118 62.9845 29.7717C61.2828 29.1449 56.9968 26.5235 50.1261 21.9078Z" fill="#E2DEDA"/>
<path d="M73.1897 18.2234C74.2023 16.0698 74.7661 14.898 74.8812 14.7081C74.9584 14.7416 75.0569 14.7739 75.1763 14.8054C74.2917 16.5796 73.7413 17.742 73.5246 18.292C73.514 18.2979 73.4021 18.275 73.1897 18.2234Z" fill="#426F4A"/>
</svg>
