<svg width="70" height="43" viewBox="0 0 100 100" fill="none" xmlns="http://www.w3.org/2000/svg">
<path d="M0.233101 85.0864C-0.171313 83.0982 1.35829 80.7542 4.8227 78.0543C10.0191 74.0046 18.1468 67.6065 18.5935 67.0694C19.0401 66.5323 21.8129 63.2855 22.5464 62.8735C23.2799 62.4615 25.4809 61.2096 25.7339 61.2781C25.9869 61.3467 35.8666 53.5632 39.6206 48.8425C43.3747 44.1218 44.878 40.543 45.1342 39.7593C45.3904 38.976 44.4238 37.8918 44.3258 37.2794C44.2278 36.667 43.9158 35.712 43.9038 33.4365C43.8919 31.161 43.046 24.8091 43.2763 23.9039C43.4297 23.3003 43.7484 22.3325 44.2329 21.0005L44.1226 14.8781L51.6558 13.2804L53.3201 21.8703C61.1865 21.0846 67.2017 21.5228 71.3653 23.1855C77.6112 25.6793 82.5443 30.1889 84.1504 32.6484C85.2214 34.288 87.1144 37.1316 89.8297 41.179L90.5019 42.5217C79.1823 48.2512 71.2928 52.3842 66.8335 54.9199C60.1445 58.7234 48.8433 67.5806 43.0352 70.9486C37.2272 74.3166 5.42554 87.5527 4.34697 87.8663C3.2684 88.1798 2.72094 87.4662 2.32649 86.7753C2.06352 86.3148 1.36586 85.7517 0.233101 85.0864Z" fill="#F7F6F4"/>
<path d="M43.6676 25.6296L43.9823 26.2583L44.4326 31.4492L45.9665 34.5147L45.7621 35.0451L43.8759 32.6058C43.7724 30.7065 43.4173 27.5867 43.2863 25.6144C43.3986 25.62 43.5257 25.6252 43.6676 25.6296Z" fill="#BDBDBD"/>
<path d="M75.2055 30.6853L78.795 35.1801C82.9168 40.406 85.2561 43.6477 85.8135 44.9059L79.409 48.1942C73.8448 51.0745 69.6537 53.3166 66.8339 54.9199C62.3746 57.4555 54.7748 62.3185 44.0349 69.5087C35.1621 76.5765 25.7984 76.0255 42.8014 58.9517C45.8143 55.9263 52.981 47.687 60.947 39.3665C62.7675 37.4647 71.196 33.1998 75.2055 30.6853Z" fill="#EAE5DE"/>
<path d="M1.86585 80.7917C2.64559 81.6618 4.49793 81.9507 5.87891 81.3132C7.64439 80.4984 18.0922 72.9492 25.0302 70.3677C29.6557 68.6469 33.7648 69.8051 37.3575 73.8433L37.3013 73.7796C26.255 78.8784 5.22069 87.6121 4.34692 87.8659C3.26835 88.1795 1.98339 87.5954 1.58894 86.9049C1.32597 86.4443 0.874139 85.8331 0.23385 85.0713C-0.0267283 83.7999 0.51236 82.379 1.85111 80.8088L1.86585 80.7917Z" fill="#EAE9E8"/>
<path d="M72.314 35.2721C70.3505 40.2351 69.6536 45.5753 70.2233 51.2929C75.5517 48.9612 80.4217 46.7304 84.834 44.6007C82.9303 38.7055 81.2158 35.2793 79.6902 34.3226C77.4024 32.8875 75.1775 32.5353 74.2966 32.7946C73.7097 32.9672 73.0487 33.7931 72.314 35.2721Z" fill="#D9D9D9"/>
<path d="M74.1698 32.8417L74.2969 32.7947C74.3244 32.7867 74.3527 32.7791 74.3826 32.7723L74.3436 33.0584L74.2862 33.3859C71.9418 38.4991 70.8867 44.3366 71.1202 50.8992L70.2233 51.2933C69.6531 45.5757 70.35 40.2359 72.3139 35.2725C73.0486 33.7935 73.7096 32.9676 74.2969 32.7947L74.1698 32.8417Z" fill="#C1B9AB"/>
<path d="M76.763 14.7187C77.1538 14.2055 77.3415 14.0693 77.5351 14.0689C77.7288 14.0685 81.0967 15.8973 82.2889 19.4673C82.5383 19.8518 84.0316 21.4623 86.7701 24.2992C87.0008 24.3426 87.1777 24.3864 87.3016 24.4298C87.4255 24.4733 87.6148 24.5589 87.8698 24.6868C89.2432 26.4922 90.2357 27.8939 90.8473 28.8923C91.1238 29.3434 91.4848 30.5554 91.7422 30.977C92.853 32.7974 94.1579 34.9554 95.6572 37.4504L87.9722 43.0313C85.203 38.9955 82.4781 35.412 79.7979 32.2807C75.7772 27.5831 76.3721 15.2319 76.763 14.7187Z" fill="#E2E1DF"/>
<path d="M87.2067 24.1741L87.8693 24.6864C89.2428 26.4918 90.2353 27.8935 90.8469 28.892C91.1234 29.343 91.4844 30.555 91.7418 30.9766L91.8386 31.1379L91.6063 34.1697L91.8493 34.9462L91.3601 35.9276L90.9445 35.4725L90.5688 31.1324L90.1153 30.0303C89.8575 30.3901 89.6743 30.4861 89.5659 30.3184C89.4571 30.1506 89.3571 29.6582 89.2655 28.841L87.747 25.7535L87.0525 25.3164L86.5975 24.1358L86.68 24.0916C86.8047 24.1278 86.9808 24.1553 87.2067 24.1741Z" fill="#A8A7A4"/>
<path d="M82.2888 19.4669L82.5713 19.8414C82.8542 20.1964 83.3267 20.7618 83.9889 21.5376C81.621 26.1654 80.5273 29.9928 80.707 33.0273L80.3739 32.9592L79.7974 32.2799C78.0012 30.1813 75.8983 28.2959 73.4885 26.6228L81.0991 17.1568C81.574 17.8214 81.9967 18.5919 82.2888 19.4669Z" fill="#D4D3D1"/>
<path d="M82.2888 19.4669C82.3275 19.5267 82.3984 19.6219 82.5016 19.7534C80.9346 22.0337 78.8707 25.1391 76.3115 29.0697L76.4254 28.8975C75.7166 28.2847 74.9747 27.6951 74.199 27.1289L80.6266 16.393C81.3533 17.2994 81.9071 18.3238 82.2888 19.4669Z" fill="#C0B6A6"/>
<path d="M76.7669 12.9899L77.4363 13.5943L77.6602 13.8645L77.9275 14.0342L80.7903 16.6029C81.0752 16.9791 81.3314 17.3743 81.5589 17.7895C81.6649 18.2517 81.7171 18.6688 81.7179 19.0462C78.891 22.4647 76.8474 25.5176 75.5879 28.2046C73.8248 26.7679 71.8625 25.4698 69.7062 24.3063L76.7673 15.0614C76.6302 14.6438 76.4406 14.1988 76.1983 13.7258L76.7669 12.9899Z" fill="#DFDFDF"/>
<path d="M76.5299 13.2991C76.7112 13.2736 76.8861 13.2565 77.0554 13.2473L77.4363 13.5947L77.6603 13.8649L77.9276 14.0346L79.3528 15.3164C75.7613 19.8251 73.3388 23.7932 72.2328 25.7929C71.4251 25.2734 70.582 24.7789 69.7067 24.3063L76.7678 15.0614C76.6307 14.6438 76.4411 14.1988 76.1988 13.7258L76.5299 13.2991Z" fill="#F1EEEA"/>
<path d="M74.7902 7.0301C76.8581 6.64521 77.0107 10.0311 76.7565 11.8225C76.6649 12.4688 77.0701 13.1935 77.6602 13.8653C79.9373 15.2116 81.4756 17.0643 82.2741 19.4235C82.0091 19.6175 81.7211 19.6502 81.4091 19.5259C80.862 18.3393 80.2257 17.4552 79.4998 16.8739C78.9555 16.438 78.3766 16.0567 77.7638 15.7304L77.139 15.4224L70.4082 24.2398L69.9552 23.9796L75.97 15.2642C76.2477 14.343 76.2469 13.7653 75.8134 13.0262L75.1962 12.0177C74.2452 10.3897 72.9104 7.37993 74.7902 7.0301ZM75.0831 8.08397C74.8452 8.6621 75.2437 9.99646 76.2788 12.0867C76.3947 10.6989 76.3661 9.78729 76.1927 9.35219C75.933 8.69955 75.4397 7.21657 75.0831 8.08397Z" fill="#E58E40"/>
<path d="M74.7903 7.0301C76.8582 6.64521 77.0108 10.0311 76.7565 11.8225C76.6649 12.4688 77.0701 13.1935 77.6602 13.8653C79.9373 15.2116 81.4756 17.0643 82.2741 19.4235C82.0091 19.6175 81.7211 19.6502 81.4091 19.5259C80.862 18.3393 80.2257 17.4552 79.4998 16.8739C78.9555 16.438 78.3766 16.0567 77.7638 15.7304L77.4913 15.5957C77.1514 15.1849 76.7047 14.7594 76.1509 14.3187C76.1816 13.8697 76.0784 13.478 75.8134 13.0266L75.1963 12.0181L74.903 11.4922C74.0105 9.81437 73.0985 7.34486 74.7903 7.0301ZM75.0831 8.08397C74.8452 8.6621 75.2437 9.99646 76.2788 12.0867C76.3948 10.6989 76.3661 9.78729 76.1928 9.35219L75.9214 8.66369C75.6624 8.04412 75.3377 7.4644 75.0831 8.08397Z" fill="#CA762B"/>
<path d="M44.1393 15.8065L45.9247 15.302L48.1101 19.6689L48.3711 22.9827C48.5165 25.0418 48.5611 26.2846 48.505 26.7105L48.487 26.8065C48.3209 27.4245 47.5866 29.543 47.0136 26.7001L46.9427 26.3184C46.6235 24.4521 45.7063 21.8153 44.1907 18.4075L44.1393 15.8065Z" fill="#DFBEA0"/>
<path d="M46.8168 51.1028C50.847 47.8894 54.1452 45.598 56.7116 44.2282C59.2779 42.8584 60.6206 42.7906 60.7394 44.0254C61.606 42.7484 61.2163 40.7937 59.5704 38.1612C57.9244 35.5287 55.9569 33.4294 53.6675 31.8631C52.5324 38.2636 51.2127 42.4452 49.7086 44.4087C48.2049 46.3714 47.2411 48.603 46.8168 51.1028Z" fill="#DF7E1B"/>
<path d="M47.0889 24.1051C47.8431 23.2804 50.6724 22.2811 53.2627 21.5767L53.3197 21.8707C61.6621 20.3594 66.7498 20.9754 71.0206 22.9401C76.955 25.6702 82.3705 30.3403 83.977 32.7998L86.9657 36.9002C87.7889 38.1337 88.7431 39.5601 89.8293 41.1794L82.2753 45.5801C81.4446 44.4163 79.856 42.964 79.142 42.042C78.428 41.12 77.8287 40.808 77.4964 39.7645C76.2772 37.1229 72.2478 35.3805 71.6243 35.3777C71.0007 35.3746 67.096 40.1203 62.6435 40.5726C59.6751 40.8738 56.9709 39.6801 54.5317 36.9914C54.5018 38.766 54.201 40.3506 53.63 41.7456C52.8515 43.6477 51.198 45.7491 49.2353 47.4137L45.27 50.6136C41.7435 53.4999 36.8821 57.5723 35.7382 58.7959L35.5892 58.9648C34.5007 60.3096 25.4761 68.1249 22.7229 68.7923C21.1466 69.174 19.9222 68.4217 19.0485 66.5347L20.2003 65.2171C20.7848 64.5629 21.4168 63.8788 21.9021 63.4118C22.4702 64.5661 22.993 65.1028 23.4675 65.031L23.6305 64.9888C24.5003 64.6864 26.624 62.8966 33.1938 57.4587C40.2166 51.6459 44.4014 45.0028 45.4477 42.8576C46.4442 40.8148 46.6211 33.9788 46.306 32.307L46.255 32.0962C45.8745 30.9089 45.8689 25.4395 47.0889 24.1051Z" fill="#F4A55E"/>
<path d="M71.0903 34.2972C66.4525 39.892 63.2268 40.4873 59.9456 39.8506C58.1829 39.3529 56.8601 38.7102 55.311 37.0025C55.1751 38.5859 54.3715 41.0029 53.8085 42.1109C52.8156 44.0664 52.2693 45.6251 46.4733 51.6551C42.6092 55.6749 37.0466 60.2203 29.7855 65.2916C41.2298 52.7265 47.463 45.0884 48.4854 42.3775C49.5078 39.6665 50.8704 35.4331 52.5742 29.6773C52.7853 29.1326 71.7768 29.1219 71.0903 34.2972Z" fill="#BB5901"/>
<path d="M54.8301 23.1664C62.2247 21.5368 68.7427 22.0524 74.3846 24.7132C78.9092 27.3951 82.6817 30.816 83.977 32.7995L86.9656 36.8998C87.7888 38.1333 88.7431 39.5597 89.8292 41.179L87.6259 42.4616C80.3986 33.2377 75.4261 28.2609 72.7096 27.5301C69.9006 26.7751 64.5587 25.6782 56.6848 24.2402L54.8301 23.1664Z" fill="#D08441"/>
<path d="M21.9029 63.4106C22.4711 64.5648 22.9938 65.1015 23.4684 65.0298L23.6313 64.9876C24.2314 64.7788 25.4283 63.8624 28.27 61.5287C28.248 63.1783 28.0436 64.5967 27.6607 65.7841C25.6339 67.3089 23.7461 68.5428 22.7237 68.7907C21.1475 69.1724 19.9231 68.4201 19.0493 66.5331L20.2012 65.2155L21.2626 64.0588C21.4909 63.8186 21.7085 63.5974 21.9029 63.4106Z" fill="#F0CFB1"/>
<path d="M23.5516 61.975C24.6509 61.1423 25.9068 60.6677 26.3606 60.5693C26.8148 60.4709 27.8002 60.9156 27.0607 61.9682C26.5678 62.6699 25.5689 63.6453 24.064 64.8936C23.3178 65.2789 22.8193 65.3402 22.5691 65.078C22.3189 64.8159 22.1575 64.3927 22.0846 63.809C22.3296 63.1412 22.8185 62.53 23.5516 61.975Z" fill="#E6E6E6"/>
<path d="M22.2005 63.9317C22.0874 63.2958 22.063 62.9321 22.128 62.8408C22.2252 62.7042 23.6062 61.2837 24.0174 61.3463C24.2915 61.3881 24.2656 61.9878 23.9397 63.1452L23.5006 64.0059L22.491 64.5111L22.2005 63.9317Z" fill="#525252"/>
<path d="M24.7665 63.978C26.4503 62.6711 27.2902 61.8073 27.287 61.3861C27.2818 60.755 26.5264 59.117 27.2356 58.6118C27.7085 58.2751 28.346 58.111 29.1485 58.1197C28.623 59.3788 28.5596 60.1888 28.9588 60.5494C28.4994 61.0052 27.1017 62.1484 24.7665 63.978Z" fill="#525252"/>
<path d="M28.9587 60.5498C29.4907 60.0218 29.7974 59.6987 29.8787 59.5796C30.0007 59.4011 30.3768 58.0297 31.5394 57.9703C31.7255 58.1185 32.0179 58.0663 32.4164 57.8137L34.183 56.2937C34.4237 54.4656 34.6998 53.5086 35.0114 53.4229C35.3226 53.3373 35.9661 53.3556 36.9414 53.4779L39.1388 51.3574C38.8523 50.096 38.8089 49.2437 39.0085 48.8003C39.1528 48.5584 39.7938 48.3488 40.9326 48.1711L41.1844 48.6748L42.6359 46.985L42.4945 46.7025L43.7997 46.049L43.8703 45.2155L42.5176 45.5247C42.345 44.9051 42.4582 44.4517 42.857 44.1652C43.2559 43.8788 43.7272 43.5242 44.2715 43.1022L45.1453 43.4102L45.7314 42.3715L45.2489 41.4076L46.2756 40.8941L46.5235 39.6533L46.0975 39.5756L46.0433 37.6225L46.8127 37.2372L47.2247 37.0308L48.0455 35.8367L47.0119 35.5893L47.0478 34.8482L48.0331 34.3549L47.8989 32.2583L46.0222 34.1784L45.4118 35.667L46.0075 36.8567L45.3007 37.2105C44.6074 38.8178 44.2093 39.7749 44.1069 40.0825C43.9535 40.5438 43.6236 42.1248 43.6324 42.2699C43.6416 42.4149 41.694 42.75 41.2051 44.1278C40.8796 45.0462 40.678 45.9542 40.6003 46.8515C39.3153 46.8886 38.5814 47.1332 38.3989 47.5854C38.1252 48.264 37.2028 50.1271 36.9833 50.7761C36.837 51.2088 36.7721 51.6017 36.7876 51.9543C35.7449 51.987 35.0094 52.1914 34.5815 52.5675C33.9396 53.1321 32.6706 53.9672 32.1124 56.1415C31.7426 56.1586 29.8939 56.7551 29.1464 58.1201C28.65 59.0297 28.587 59.8398 28.9587 60.5498Z" fill="#525252"/>
<path d="M23.4747 66.0781C22.9305 67.13 24.168 68.5141 25.0872 68.1309C26.0064 67.7476 29.8473 65.9598 34.8963 61.6539C39.9449 57.3483 45.9745 52.0969 50.0648 46.6862C52.7917 43.0791 54.2249 38.9628 54.3652 34.3382C56.0677 37.6456 58.3161 39.433 61.1103 39.7007C65.3015 40.1024 67.3769 37.8241 70.8517 34.59C71.3163 34.2824 74.5305 35.1685 75.8465 36.575C76.7239 37.5125 77.8941 38.9784 79.3576 40.9714C79.1946 37.7118 78.5471 35.5267 77.4156 34.4155C76.284 33.3042 71.1697 31.7738 62.0737 29.8239L51.545 30.7913L45.2848 45.659L36.5152 56.2582L26.8742 64.678C24.9705 64.9103 23.8377 65.3769 23.4747 66.0781Z" fill="#AC8553"/>
<path d="M23.5452 67.3998C23.0105 66.3224 22.493 65.8211 27.5487 61.9149C32.6049 58.0086 43.5281 48.515 45.9123 41.5539C48.2966 34.5928 48.6795 26.9934 48.032 24.8323C47.6001 23.3915 46.4323 20.0351 44.5289 14.7626L51.804 12.4042C52.7921 17.0436 53.3571 20.0244 53.4998 21.3464C53.7137 23.3294 53.8344 22.7274 55.0668 22.7405C56.2992 22.7536 63.7631 21.3504 69.144 23.5119C74.5249 25.6738 79.9791 28.9673 83.4654 33.9314C85.7895 37.2408 87.6319 39.8968 88.9922 41.9002L82.3486 45.2251C79.7636 42.6393 78.5463 41.0682 78.6969 40.512C78.8543 40.0797 77.2335 37.0388 75.1477 35.508C73.0618 33.9772 71.021 33.4832 70.062 34.4988C69.1034 35.5144 64.8839 40.2196 60.6601 39.2039C57.8443 38.527 55.6426 36.3157 54.0548 32.5704C53.8548 38.411 52.2817 43.1799 49.3357 46.877C44.9166 52.4233 34.5652 61.779 30.3709 64.5979C26.1761 67.4173 24.0799 68.4771 23.5452 67.3998Z" fill="#F6F2EB"/>
<path d="M83.465 33.9314L87.1282 39.1828C87.8267 40.1932 88.4479 41.0989 88.9921 41.9001L82.3486 45.2251L81.4433 44.3031C79.6209 42.4082 78.7013 41.1834 78.6845 40.6283L78.6969 40.512C78.8543 40.0797 77.2334 37.0388 75.1476 35.508C74.3922 34.9538 73.6427 34.535 72.9482 34.2752L73.3917 33.0014C74.2834 30.3953 74.7277 28.7888 74.7273 28.1835C74.7269 27.7214 74.4093 26.8886 73.775 25.6857C77.508 27.7138 80.9843 30.4 83.465 33.9314Z" fill="#E7E2DC"/>
<path d="M45.7506 18.1672L52.6209 16.342L52.9986 18.2772L46.3244 19.7853L45.7506 18.1672Z" fill="#E4DED6"/>
<path d="M45.1171 16.3962L52.2343 14.4502L52.6416 16.4448L45.7358 18.1258L45.1171 16.3962Z" fill="#D1C8BB"/>
<path d="M46.9873 21.681L53.3986 20.5829L53.4731 21.1204L53.5571 21.8297L47.4595 23.062L46.9873 21.681Z" fill="#B3A590"/>
<path d="M87.1689 39.2709L87.2729 39.3928L88.5997 41.3244C88.7347 41.522 88.8654 41.7141 88.9917 41.9006L87.6279 42.5811L85.976 39.9916L87.1689 39.2709Z" fill="#A3A3A3"/>
<path d="M83.3925 41.1607C84.0934 40.8097 84.7528 40.0415 84.201 38.7944C83.6487 37.5472 82.3901 37.1811 81.4354 37.7305C80.4808 38.28 80.1536 39.4163 80.8505 40.5483C81.5474 41.6802 82.6913 41.5117 83.3925 41.1607Z" fill="#BCB5A8"/>
<path d="M83.1973 40.7315C83.7216 40.4689 84.2197 39.9044 83.8244 39.0067C83.4288 38.109 82.4988 37.8576 81.784 38.2672C81.0692 38.6768 80.8134 39.5043 81.3178 40.3167C81.8215 41.1296 82.6729 40.9941 83.1973 40.7315Z" fill="#DBD2C0"/>
<path d="M82.7972 39.9669C83.0813 39.7598 83.1311 39.6183 82.9351 39.3135C82.739 39.0083 82.5251 38.8011 82.1394 39.074C81.7537 39.3474 81.9306 39.7271 82.0709 39.914C82.2111 40.1008 82.5131 40.1741 82.7972 39.9669Z" fill="#917F5D"/>
<path d="M26.1227 66.3774C26.6793 65.9463 27.2877 65.451 27.0307 64.9625C26.7737 64.474 25.4525 64.6585 24.8306 65.3458C24.2082 66.0335 24.2305 66.6128 24.5011 66.8495C24.7716 67.0862 25.5661 66.8085 26.1227 66.3774Z" fill="#A8906D"/>
<path d="M25.9657 66.0929C26.5223 65.6618 27.1307 65.1665 26.8738 64.678C26.6168 64.1895 25.2955 64.374 24.6736 65.0613C24.0512 65.749 24.0735 66.3283 24.3441 66.565C24.6142 66.8025 25.4091 66.524 25.9657 66.0929Z" fill="#E4D0B3"/>
<path d="M52.1625 29.0183C53.4415 28.4346 53.2622 27.0444 52.9112 26.3432C52.5602 25.6419 51.5864 24.8203 50.4839 25.3566C49.3814 25.8929 49.3404 27.2289 49.6914 27.9301C50.0425 28.6314 50.8836 29.602 52.1625 29.0183Z" fill="#ACA9A1"/>
<path d="M51.7689 28.0421C52.1303 27.8756 52.3857 27.3333 52.1291 26.8249C51.8729 26.3165 51.3083 26.3452 50.9154 26.5611C50.5226 26.7771 50.3524 27.2568 50.6106 27.7154C50.8688 28.174 51.4075 28.2087 51.7689 28.0421Z" fill="#6E3300"/>
<path d="M29.6333 75.6877C33.4973 73.664 38.8699 70.3287 45.7505 65.6825C50.413 62.534 58.4347 56.2845 69.787 49.9904C75.2707 46.95 81.4676 44.9199 86.5967 42.2751C90.0161 40.512 92.9805 38.792 95.4898 37.1153L95.8564 38.4656L34.9724 75.6546L31.0621 77.0774L29.6333 75.6877Z" fill="#BDB198"/>
<path d="M99.9022 45.0159C99.3153 43.5871 96.9103 38.778 96.5972 38.2441C96.284 37.7102 95.817 36.875 95.1508 37.4006C94.2109 38.2496 88.8432 42.4041 76.1414 47.8094C63.4396 53.2146 40.5115 70.5398 30.5721 75.5788C20.6327 80.6179 4.84857 84.6903 2.68585 84.4644C1.2443 84.3138 0.414356 84.256 0.196411 84.2911C0.394435 84.9457 0.59604 85.4394 0.801235 85.7729C2.25115 88.1256 3.97917 89.4385 5.18245 90.0541C7.37027 91.1737 16.5786 91.6207 29.1262 86.6773C37.4914 83.3814 44.6708 79.7887 50.6649 75.8984C50.3246 73.7237 50.3091 72.3085 50.6171 71.6519C51.0797 70.6673 60.4481 61.0104 70.2672 57.4826C80.0863 53.9545 88.6065 51.4399 89.144 51.6443C89.5022 51.7806 89.9966 51.7754 90.627 51.6292C93.4738 49.9637 95.5497 48.7337 96.8538 47.9392C98.8105 46.7467 99.8074 45.2936 99.9022 45.0159Z" fill="#EAE7DF"/>
<path d="M97.2908 40.1705L97.4095 39.8135L98.6964 42.4181C98.9558 42.9536 99.2029 43.4704 99.412 43.9194L99.7969 44.7693C99.7037 45.092 99.6021 45.3857 99.4929 45.6495C99.0256 46.2435 98.1506 47.148 96.8537 47.9385L92.1031 50.7634L90.6703 51.6037L90.5588 51.6439C89.9615 51.775 89.4894 51.775 89.1435 51.6435C88.6064 51.4391 80.0862 53.9541 70.2667 57.4818C62.2617 60.3582 54.5564 67.3069 51.7318 70.3103L46.9247 72.7631C42.7941 74.8418 38.0706 77.1252 37.2371 77.0929C36.0808 77.0483 46.0402 70.294 53.7798 65.7502L63.0853 60.4331C70.5572 56.1849 79.277 51.2997 83.6248 49.3406L87.9908 47.3775C91.7059 45.6809 94.3826 44.2924 95.7647 42.6094C96.46 41.7639 96.9684 40.9507 97.2908 40.1705Z" fill="#E4E0D8"/>
<path d="M31.9048 82.0642C37.2303 79.8079 40.7796 78.244 42.5526 77.3726C44.3257 76.5013 46.3123 75.5067 48.5129 74.3899L49.3081 73.9919C52.3952 73.9082 55.7979 72.9444 59.5157 71.0996C63.2335 69.2549 71.5059 64.3764 84.3332 56.4638L90.3061 51.3335C92.7876 50.1845 94.7635 49.0904 96.2337 48.0512C97.7043 47.0121 98.9168 45.9554 99.8718 44.8809C99.2917 46.6583 98.9821 47.5695 98.9435 47.6141C98.9048 47.6588 95.6604 50.8797 89.2093 57.2766L45.2465 79.5342L29.7994 85.1657L31.9048 82.0642Z" fill="#BFB7A6"/>
<path d="M29.1162 76.2909L30.643 75.5426L30.435 75.3043C32.0893 77.1132 32.8886 78.7102 32.8328 80.0955C32.777 81.4809 32.2415 82.9691 31.2259 84.5596C30.4318 85.8737 27.6033 87.21 22.74 88.5683C17.8767 89.9266 13.3273 90.268 9.09192 89.5923C10.5259 86.4088 12.3344 83.7946 14.5174 81.7502C19.2672 80.3135 24.6425 78.4054 29.1162 76.2909Z" fill="#BFB7A6"/>
<path d="M0.196411 84.2911C0.414356 84.2561 1.2443 84.3138 2.68585 84.4644C3.39108 84.5381 5.54623 84.1544 8.47474 83.4289L6.62002 85.9578C5.74465 87.1774 5.34223 87.8002 5.41315 87.8265L8.35402 88.1735C11.8312 88.5656 17.1364 89.1584 17.0244 89.2529L16.8957 89.3397C16.6463 89.4999 16.049 89.8645 15.1043 90.4338C9.9649 91.1124 6.43036 90.6924 5.18206 90.0537C3.97918 89.4381 2.25075 88.1253 0.80084 85.7725C0.596043 85.4398 0.394435 84.9457 0.196411 84.2911Z" fill="#BDB7AA"/>
<path d="M95.1066 37.5197C95.4656 37.193 95.6851 37.1539 95.8664 37.2822C94.8121 38.3863 93.0761 39.6912 90.658 41.1985C85.87 44.1828 77.4144 46.8188 67.2857 52.6723C57.157 58.5257 49.7772 64.0066 40.4083 70.2175C31.4925 76.1279 30.7119 76.365 30.1681 76.4805L30.086 76.498C29.8605 76.5471 29.511 76.4925 29.0381 76.3335C29.5616 76.0817 30.0748 75.8307 30.5721 75.5784C40.5115 70.5394 63.4396 53.2142 76.1414 47.809C88.8431 42.4038 94.4842 38.0863 95.1066 37.5197Z" fill="white"/>
<path d="M0.164896 84.3122C1.64629 84.8338 2.47424 85.2318 2.64915 85.5063C2.91132 85.9179 1.88973 89.5047 8.52372 90.0581C15.1577 90.6115 24.9019 87.8966 27.6192 86.208C29.4309 85.0824 31.0032 83.8166 32.3359 82.4105C36.1956 80.8546 39.2142 79.5748 41.3908 78.5707C43.5675 77.5667 46.2119 76.1614 49.3245 74.3545C52.1451 74.8214 54.7672 74.4521 57.1908 73.2456C60.8262 71.4359 82.2753 60.9443 83.1255 60.2665C83.9758 59.5888 88.2255 56.7176 90.5823 51.5387C91.5115 51.1909 99.173 47.1173 99.9121 44.8669C100.115 48.0592 100.732 53.5445 91.1433 58.7628C84.7508 62.2416 79.552 65.0131 75.5469 67.077L72.8865 67.0929L59.3679 73.8584C57.5865 75.643 56.4342 76.6582 55.9103 76.9041C55.1246 77.273 38.5476 85.5932 33.9245 87.9069C29.3014 90.2206 13.6301 96.3709 6.30522 92.2001C1.42197 89.4194 -0.624807 86.7901 0.164896 84.3122Z" fill="#DED6C7"/>
<path d="M59.3675 73.8588L58.5292 74.6871L58.3918 74.8202C58.228 74.9784 58.0718 75.1278 57.9224 75.2685C57.8033 75.3808 57.6893 75.4868 57.5798 75.5872C57.4578 75.6992 57.3423 75.8036 57.2319 75.9016L57.3136 75.8287C57.2343 75.8996 57.1582 75.9669 57.0845 76.0311L57.2319 75.9012C57.1622 75.9633 57.0945 76.0223 57.0291 76.0789L57.0283 76.0797C56.8932 76.1964 56.7669 76.3024 56.6502 76.3964L56.7171 76.3418C56.6645 76.3849 56.6135 76.4259 56.5645 76.4646L56.6502 76.396C56.5992 76.4371 56.5502 76.4757 56.5028 76.5124L56.502 76.5128C56.3522 76.6287 56.2199 76.7228 56.1063 76.7941L56.1051 76.7949L56.0386 76.8351L55.2792 77.2136C52.0746 78.803 38.1065 85.8135 33.9237 87.9065L33.0615 88.3217L32.7177 88.4798C32.6041 88.5316 32.487 88.5842 32.367 88.638H32.3666C32.1395 88.7392 31.9009 88.844 31.6518 88.9512L31.7407 88.9129C31.6216 88.9643 31.4996 89.0165 31.3757 89.0691L31.6522 88.9512C31.5259 89.0054 31.3972 89.0604 31.2658 89.1157L31.2673 89.1149C31.0992 89.1859 30.9283 89.2568 30.7538 89.3289C30.539 89.4174 30.3179 89.507 30.0916 89.5971L29.6206 89.7831C29.5565 89.8082 29.4923 89.8333 29.4274 89.8584C29.1592 89.9624 28.8843 90.0668 28.6034 90.1716C28.24 90.3071 27.8659 90.4433 27.4826 90.5792L27.8117 90.4617C27.671 90.5123 27.5288 90.5629 27.3858 90.6135L27.387 90.6131C26.9993 90.7497 26.604 90.8856 26.2016 91.0199H26.2012C25.8769 91.1279 25.5474 91.235 25.2135 91.3406C25.0944 91.3785 24.9756 91.4155 24.8565 91.4526C24.2632 91.6367 23.6572 91.8156 23.0428 91.9865L23.3372 91.904C23.1014 91.9709 22.8639 92.0367 22.6252 92.1012L23.0428 91.9865C22.8296 92.0459 22.6153 92.104 22.4005 92.1614L22.6252 92.1012C22.469 92.1435 22.3121 92.1853 22.1551 92.2264L22.4005 92.1614C22.2025 92.214 22.0041 92.2658 21.8049 92.3164L22.1551 92.226C21.9455 92.2809 21.7351 92.3343 21.524 92.3869C21.0064 92.516 20.4852 92.6379 19.9625 92.7511L20.5733 92.6148C20.0884 92.7264 19.6011 92.8308 19.1138 92.9272L19.3059 92.889C19.0947 92.9316 18.8835 92.9726 18.6723 93.0121L19.1134 92.9272C18.9122 92.967 18.7106 93.0053 18.5094 93.0424L18.6723 93.0121C18.4699 93.0499 18.2671 93.0866 18.0647 93.1212L18.5094 93.0424C18.2946 93.0818 18.0799 93.1193 17.8655 93.1551L18.0647 93.1212C17.8484 93.1587 17.632 93.1942 17.4161 93.2276L17.8655 93.1551C17.6368 93.1934 17.4081 93.2296 17.1798 93.2635H17.1802C16.7682 93.3248 16.3582 93.379 15.9502 93.4256L16.1239 93.4053C15.9638 93.4244 15.804 93.4424 15.6446 93.4587C15.4227 93.4818 15.2012 93.5025 14.9804 93.5209C14.6951 93.5444 14.4122 93.5639 14.1314 93.5786L14.1027 93.5802C22.7352 91.3681 29.4568 88.2444 34.3309 85.7932L80.5664 62.4814C86.6808 59.376 90.8389 56.9483 93.0319 55.2856C95.4935 53.4193 98.0789 51.428 99.9325 48.1895C99.6117 51.1674 98.0092 54.8848 91.6218 58.4958L91.1429 58.7612L85.4206 61.8579C84.8624 62.1579 84.3157 62.4511 83.781 62.7376H83.7806C83.6149 62.8264 83.4503 62.9145 83.2865 63.0018C83.0136 63.1476 82.7447 63.2914 82.4789 63.4329C82.0725 63.6496 81.6725 63.8624 81.2796 64.0712C80.9166 64.264 80.5588 64.4533 80.2078 64.6393C80.0472 64.7242 79.8867 64.8091 79.7273 64.8931C79.2643 65.1374 78.8133 65.3745 78.3734 65.6052L78.3754 65.6044C78.0108 65.7956 77.6558 65.9813 77.3084 66.1622C76.6968 66.4809 76.1103 66.7853 75.5469 67.0754L72.8865 67.0913L59.3675 73.8588Z" fill="#BDB198"/>
<path d="M3.72101 87.8436C2.94326 86.818 5.09203 83.4221 13.2915 78.9927C21.4909 74.5633 27.3842 72.736 30.2059 75.6458C33.0277 78.5556 32.7786 82.6862 28.5054 85.3645C24.2322 88.0428 15.2478 90.0246 10.151 89.7629C5.05418 89.5019 4.49876 88.8688 3.72101 87.8436Z" fill="#DCD8D2"/>
<path d="M30.2059 75.6458C30.284 75.7263 30.8075 76.3929 30.0589 77.0189C29.0174 77.8894 25.4932 79.4792 23.5046 80.2601C20.0868 81.6029 17.1384 82.187 12.4583 83.5273C8.33647 84.7079 5.4243 86.1467 3.72138 87.8432C2.96793 86.8499 4.96091 83.6317 12.5408 79.4047L13.2918 78.9927C21.4909 74.5633 27.3846 72.736 30.2059 75.6458Z" fill="#E8E5E2"/>
<path d="M29.923 75.3789L30.0541 75.4948C29.1831 75.2478 27.9862 75.2517 26.463 75.5067C23.7667 75.9582 20.2035 77.0535 14.1811 79.7935C10.5314 81.4542 7.13714 83.7759 3.99865 86.7578L3.58667 87.1598C3.79426 85.7394 6.23508 82.9197 12.5455 79.4015L13.291 78.9923C21.2263 74.7063 27.0016 72.8563 29.923 75.3789Z" fill="#F6F6F5"/>
<path d="M10.0629 84.9573C9.98959 83.5815 10.7239 82.2543 11.0024 82.8408C11.5718 86.1032 13.8632 85.3781 18.356 84.7266C22.8488 84.0752 28.1217 81.6929 28.6301 82.83C29.0038 83.6668 28.1603 85.0677 27.6718 85.8458C23.3436 88.1727 15.6311 89.8593 10.7817 89.7836C10.6211 89.7457 10.4753 89.7126 10.3454 89.6836C8.89428 89.362 9.34531 88.6448 10.851 87.2168C10.3083 86.8088 10.1362 86.3327 10.0629 84.9573Z" fill="#C3A788"/>
<path d="M27.5491 82.5459L27.5853 82.5404C28.1419 82.4926 28.5129 82.5675 28.6304 82.83C29.0045 83.6668 28.1603 85.0681 27.6722 85.8462C23.3511 88.1719 15.6278 89.8609 10.776 89.784L10.3457 89.6844C9.42692 89.4808 9.27074 89.1186 9.662 88.5177L10.2226 88.4663C13.0858 88.1528 18.2396 86.8407 27.5491 82.5459Z" fill="#C5B6A4"/>
<path d="M79.0097 50.1219C84.9058 48.3433 89.7651 48.117 90.6449 50.2494C91.5242 52.3819 87.7582 57.6408 82.8064 60.659C80.1493 62.2786 73.2089 65.6793 66.9243 68.6951L55.2907 74.2513C52.5555 75.6203 48.9675 75.3912 48.7639 74.2616L48.7213 73.9114C48.6384 72.6002 49.3198 69.7964 55.8442 64.1079C63.0208 57.8508 73.114 51.9005 79.0097 50.1219ZM64.395 64.3003C63.9185 64.0158 60.8928 65.351 57.6806 67.2715C54.4684 69.1919 54.4994 70.1043 54.6118 70.7996C54.7242 71.4949 55.3338 71.7822 56.6709 71.3718C58.0081 70.9614 63.6464 68.5819 64.7469 67.1699C65.8469 65.7582 64.8716 64.5852 64.395 64.3003Z" fill="#B7895B"/>
<path d="M74.5113 60.5992C76.6111 60.4402 75.9433 63.552 72.3924 65.8072C71.7107 66.2403 71.0258 66.6551 70.3381 67.0523C69.1974 67.6018 68.0503 68.1548 66.9239 68.6951L65.1214 69.5553L64.138 67.7392C64.4002 67.538 64.609 67.3464 64.7464 67.1699C65.8469 65.7582 64.8711 64.5848 64.3946 64.3003C64.3297 64.2616 64.2177 64.2529 64.0647 64.2716C69.7384 61.9212 73.2204 60.6968 74.5113 60.5992Z" fill="#A04F00"/>
<path d="M66.6024 67.8057C66.5637 68.2464 66.5135 68.619 66.4522 68.9238L65.5063 69.3712L64.2651 67.6368L64.3245 67.5906C64.5002 67.4436 64.6433 67.3025 64.7465 67.1702C65.8469 65.7586 64.8712 64.5852 64.3946 64.3007C65.6366 64.3063 66.3721 65.4753 66.6024 67.8057Z" fill="#C98F57"/>
<path d="M56.443 65.6984C59.1109 63.9066 64.4432 61.047 72.4407 57.1196C77.9232 54.5625 86.2282 51.4415 86.8972 51.8009C87.6434 52.2017 87.2992 53.1811 82.8574 56.6073C78.4156 60.0334 74.7604 60.7104 71.3832 61.6092C69.4695 62.1184 66.9952 63.1193 64.3795 64.2935C63.9185 64.0158 60.8927 65.351 57.6805 67.2714C55.9071 68.3317 55.1222 69.0851 54.7939 69.6636C53.1746 71.3387 52.6861 72.899 52.4813 73.0747L52.306 73.1846C51.8777 73.4173 50.7689 73.8959 48.9795 74.621C48.8603 74.517 48.7882 74.3955 48.7643 74.2612C48.7121 73.9716 48.6802 73.5743 48.783 73.038L48.9986 72.6954L49.2727 72.3256C50.3091 71.0303 52.4411 68.3859 56.443 65.6984Z" fill="#E0710E"/>
<path d="M75.2625 64.6342L75.8234 64.2724C81.7932 60.4271 85.6995 57.4245 87.5419 55.2645C89.5197 52.946 90.4098 51.0837 90.2122 49.6777L90.2011 49.6183C90.3963 49.7996 90.5457 50.0096 90.6445 50.2494C91.5239 52.3818 87.7578 57.6408 82.8061 60.659L82.0343 61.1116C80.4589 62.0081 78.0308 63.2572 75.2625 64.6342Z" fill="#ECC7A2"/>
<path d="M54.6118 70.7996C54.7245 71.4945 55.3337 71.7822 56.6709 71.3718L56.9191 71.2889L55.972 72.9133C55.7314 73.3453 55.3792 73.7046 54.9154 73.9915L54.5468 74.1931C52.6204 75.0769 51.7861 75.0414 51.0988 74.833L50.5963 74.6561C49.7556 74.3457 50.2043 74.0019 52.3837 72.7197C53.0228 71.6013 53.8077 70.616 54.7385 69.7641C54.5321 70.1845 54.5648 70.5108 54.6118 70.7996Z" fill="#703300"/>
<path d="M66.5175 67.7181C66.5916 68.1835 66.5896 68.5759 66.5115 68.8951L56.2713 73.7732C56.1721 72.7795 56.3577 71.9619 56.8287 71.3168L56.6705 71.3718C58.0001 70.9638 63.583 68.6082 64.7273 67.1938C65.8298 66.9675 66.4262 67.1428 66.5175 67.7181Z" fill="#E0C7B1"/>
<path d="M44.9326 15.9228L52.1702 14.0741L52.4109 15.365L45.3378 17.0409L44.9326 15.9228Z" fill="#B3A590"/>
</svg>
