<svg width="70" height="43" viewBox="0 0 100 100" fill="none" xmlns="http://www.w3.org/2000/svg">
<path d="M18.0435 69.5171C17.5126 69.7829 16.0483 71.2315 14.7967 71.8583C13.5447 72.4847 11.7063 73.4111 8.42607 76.4243C5.14588 79.4378 1.61634 82.6173 0.858226 83.9615C0.100113 85.3057 0.230632 87.0403 0.923085 88.3986C1.61634 89.7561 3.73479 91.2675 4.37931 91.8041C5.02383 92.3406 5.58576 92.3865 6.32978 92.1928C7.07379 91.999 38.6302 77.7955 51.3968 70.4987C64.1631 63.202 57.0855 62.089 54.5062 61.5831C51.9269 61.0771 63.353 49.4601 61.0436 44.8723C58.7339 40.285 48.5936 39.7174 46.2701 40.8215C43.9466 41.9257 23.8111 64.0644 22.1059 65.8743C20.4008 67.6838 18.5744 69.2512 18.0435 69.5171Z" fill="#ECEEEF"/>
<path d="M46.2697 40.8207C48.5931 39.717 58.7334 40.2842 61.0436 44.8715C63.3526 49.4597 51.9265 61.0763 54.5058 61.5822L55.7904 61.8465C58.6218 62.5087 62.2211 64.1563 52.0502 70.1197L51.3964 70.4979C38.6301 77.7947 7.07335 91.9982 6.32934 92.192C5.58532 92.3857 5.02339 92.3394 4.37887 91.8032L3.16919 90.8353C2.96537 90.6665 2.75267 90.4852 2.542 90.2955C1.10553 87.6094 0.957691 85.6505 2.09647 84.4151C4.42721 81.8869 14.5574 76.8186 20.1619 73.4385L20.7653 73.0699C26.2123 69.7003 31.7298 67.1017 33.7262 66.1728C35.6428 65.281 34.7908 64.1829 31.3668 65.6793C27.9428 67.1758 26.6655 67.0941 24.57 67.0614C23.9077 67.0514 23.3349 66.3021 22.4407 65.5142L30.3622 56.9312C36.8086 49.9934 44.8525 41.4946 46.2697 40.8207Z" fill="#DADEE0"/>
<path d="M46.2697 40.8207C48.5932 39.717 58.7334 40.2842 61.0436 44.8715C63.3526 49.4597 51.9265 61.0763 54.5058 61.5826L55.7904 61.8469C58.6218 62.5091 62.2211 64.1567 52.0502 70.1201L51.3964 70.4983C39.528 77.2819 11.4194 90.0349 6.92633 91.9507C3.35208 88.5992 2.60202 86.5855 4.80708 85.1349C6.86631 83.7806 13.1524 81.0575 18.5381 78.3912C23.9239 75.7249 26.0685 74.7868 30.114 72.7606C34.1596 70.7344 36.4174 68.7875 37.6444 67.1621C39.3975 64.8403 35.7918 62.2525 35.2283 62.6376C34.6647 63.0227 32.2687 64.5305 30.7287 65.6366C29.1888 66.7432 25.9907 67.7841 24.1966 67.4836C23.5678 67.3785 24.3694 64.9861 25.9331 61.7204L33.8518 53.1922C39.4229 47.2566 45.1007 41.3766 46.2697 40.8207Z" fill="#CDD1D2"/>
<path d="M36.6615 59.1488C38.1741 58.2827 45.4108 58.9188 46.3091 60.6138C47.2074 62.3089 53.4097 68.6232 50.3495 70.9076L49.4709 71.5316C49.3762 71.5968 49.2767 71.6653 49.172 71.737L47.6973 72.5314C34.5056 79.5598 11.0017 90.2137 6.92673 91.9515C6.44535 91.5003 6.01554 91.0733 5.63689 90.6689C5.39237 89.655 6.20729 88.3212 9.93179 86.3933L11.5902 85.5687C19.6229 81.6283 36.9359 73.4639 39.047 71.6641C41.2614 69.7765 39.8656 67.1359 40.9274 65.7821C41.9893 64.4282 40.9568 63.8654 39.3544 63.9468C37.7524 64.0282 36.1068 61.9323 35.9413 61.8892C35.7757 61.8457 35.4168 62.0555 35.161 62.234C34.5354 62.6703 33.2512 63.6721 32.0504 64.6288L31.2589 65.1625C30.4951 65.664 29.8353 66.0495 29.4671 66.1486C28.1676 66.4975 35.1489 60.0144 36.6615 59.1488Z" fill="#BBC2C5"/>
<path d="M46.2698 40.8207C48.5933 39.717 58.7335 40.2842 61.0437 44.8715C63.3527 49.4597 51.9266 61.0763 54.5059 61.5822L55.7905 61.8465C58.6219 62.5087 62.2212 64.1563 52.0503 70.1197L51.3965 70.4979C38.6302 77.7947 7.07346 91.9982 6.32945 92.192C5.58544 92.3857 5.0235 92.3394 4.37898 91.8032L3.4114 91.033C3.00214 90.7019 2.53728 90.3088 2.10908 89.8898L1.67846 89.1498C1.4847 88.8087 1.328 88.5178 1.22891 88.3148C0.720142 87.2578 0.861934 86.6495 1.47866 87.5816L1.61803 87.8052C2.35077 89.0455 4.46639 90.9521 4.66539 91.0181C4.84545 91.0782 8.20621 89.176 11.0058 87.8209L20.0077 83.5989C24.1709 81.6207 28.8457 79.3572 31.6775 77.8615L32.2185 77.5731C37.1978 74.8887 44.3411 70.4625 43.8706 70.0661L43.419 69.5767C42.5549 68.591 41.587 67.1807 42.0446 66.4169L43.2289 64.5595C43.9572 63.4026 44.6915 62.1409 44.5429 61.8457C44.2951 61.3538 41.4089 63.2556 39.5052 63.3039C37.6014 63.3522 36.6467 60.6199 35.6751 61.3446C34.7035 62.0692 30.1798 65.8912 29.3166 66.3525C28.4533 66.8137 27.5018 67.1601 27.2585 67.6612C27.0152 68.1623 28.5395 68.0693 28.9657 68.062C29.3919 68.0548 30.2028 68.796 30.1146 69.7044C30.0263 70.6127 28.9681 72.62 27.6465 73.2323C26.3248 73.8446 25.0599 74.272 24.5616 73.6504C24.2293 73.2363 24.0976 72.7002 24.1665 72.0423L22.8521 72.2309C22.305 72.3014 20.4665 71.3124 20.0391 71.2738C19.6117 71.2351 17.3563 71.2584 16.6502 71.3535C16.0617 71.4329 15.7112 71.6979 15.2693 71.648L15.2008 71.6311C16.2208 71.0123 17.2979 70.0093 17.8583 69.6274L18.0427 69.515C18.4979 69.2874 19.9046 68.1031 21.3709 66.6296L22.1048 65.8719C23.8108 64.0636 43.9463 41.9253 46.2698 40.8207Z" fill="#9998A7"/>
<path d="M53.3478 49.1547C54.4535 49.1016 55.9359 47.4194 55.5077 46.3104C55.0795 45.2014 51.6382 44.4755 50.6154 44.5295C49.5927 44.5835 48.8076 45.0081 49.9407 46.3354C51.0738 47.6627 52.242 49.2079 53.3478 49.1547Z" fill="#A3857C"/>
<path d="M50.9365 45.6087C52.2267 45.8226 54.0922 46.0171 54.3629 46.5811C54.6336 47.145 54.2271 47.7698 53.2346 47.8435C52.2416 47.9176 50.4801 45.1519 49.7933 45.1156C49.1069 45.079 47.1858 45.3396 47.6865 46.3704C48.1868 47.4012 52.9582 49.9652 53.4412 50.1755C53.9238 50.3857 56.5849 48.8723 56.605 47.935C56.6251 46.9976 57.4103 45.0987 55.436 44.6939C53.4618 44.2886 49.6466 45.3948 50.9365 45.6087Z" fill="#967D73"/>
<path d="M46.6351 58.8028C46.9561 58.5164 48.3329 57.1359 49.508 55.7308C49.738 55.4557 48.9787 54.9482 49.5156 54.3274C50.0526 53.7066 50.6158 54.3524 50.7668 54.1252C50.9094 53.9105 50.9251 53.9451 51.0198 53.761C51.081 53.6547 50.7003 53.307 50.8522 52.8563C51.0041 52.4059 51.2715 52.2605 51.2603 52.1062C51.1817 51.0464 49.5467 50.4438 49.0528 50.1622C48.4792 49.8351 46.1259 49.9221 45.2191 50.7761C44.3124 51.6301 42.4948 53.6809 43.4737 53.9342C44.4526 54.1876 45.5825 54.2013 46.2918 55.6688C47.0012 57.1363 46.0417 59.3325 46.6351 58.8028Z" fill="#BBBCC1"/>
<path d="M63.5927 28.875C60.385 30.6688 57.8622 33.3733 60.7681 35.5389C62.7057 36.9826 65.3152 38.6414 68.5966 40.5154L82.946 28.1431C82.9162 27.9429 82.8908 27.8293 82.8702 27.8019C81.19 25.5763 80.0843 24.2385 79.3834 23.3221C78.6696 22.3887 77.3898 20.8777 75.5441 18.7891C74.1495 21.289 72.6164 23.1871 70.9446 24.4846C68.4375 26.4307 66.8008 27.0812 63.5927 28.875Z" fill="#65656E"/>
<path d="M76.0634 23.0046C76.0123 23.6181 75.638 24.4415 74.3748 25.6472C73.1115 26.8532 67.982 29.1336 66.2805 30.9552C64.5789 32.7767 64.4935 34.1161 65.2371 34.6692C65.9808 35.2223 71.5518 29.6847 73.0926 28.0013C74.6334 26.3179 75.2932 25.6294 76.1105 25.426C76.9275 25.2226 78.3462 25.7914 77.9462 25.117C77.5454 24.4427 76.1146 22.3911 76.0634 23.0046Z" fill="#737378"/>
<path d="M75.5445 18.7891L76.5842 19.973C77.5559 21.0876 78.324 21.9944 78.888 22.6929L81.6207 26.1696C81.997 26.6538 82.4127 27.1948 82.8707 27.8019L82.8928 27.8579L82.9464 28.1431L68.5971 40.5154C67.1981 39.7166 65.9207 38.9564 64.7662 38.2358C64.8053 37.3826 65.0397 36.5548 65.2359 36.6048C65.5598 36.6873 66.4311 36.1379 66.6607 35.8918L71.0885 30.8198C72.9399 28.709 74.7675 26.6506 75.2187 26.2345C75.8986 25.6069 76.442 25.5875 76.9238 25.6866L78.4618 26.0681C79.06 26.2079 79.6832 26.3461 79.8511 26.3622C80.1049 26.3863 77.4124 23.9082 76.3804 22.4367L76.2165 22.1881C75.3476 20.7682 74.8396 21.9384 74.5202 22.6002C74.2007 23.262 68.9709 27.9823 65.2979 30.3058C62.4512 32.1064 62.7722 35.418 63.1569 37.2058C62.2679 36.6189 61.4739 36.0654 60.769 35.5401C57.8626 33.3745 60.3855 30.67 63.5936 28.8762C66.8013 27.0824 68.4383 26.4319 70.9455 24.4858C72.6164 23.1875 74.1496 21.289 75.5445 18.7891Z" fill="#504F51"/>
<path d="M49.425 70.1177C46.2165 69.9473 43.3754 68.5225 42.7083 67.401C42.0412 66.2796 41.9852 64.8032 42.9166 63.834C43.8479 62.8648 52.5851 53.2933 53.9446 51.4238C55.3038 49.5543 56.8256 47.3352 56.3741 46.0022C55.9225 44.6693 53.6812 44.5456 51.8024 44.5891C49.9237 44.6326 47.2058 44.3877 45.9385 44.5158C44.6713 44.6439 46.1714 36.1093 46.5291 34.0384C46.8864 31.9675 47.0411 30.6523 51.0327 28.9644C55.0238 27.2766 59.2204 26.8843 61.4629 26.1112C63.7051 25.3378 67.1327 24.017 66.945 22.2667C66.7572 20.5168 66.5603 17.7442 66.9792 15.6983C67.3981 13.6523 68.1373 13.0026 68.8543 12.605C69.5714 12.2074 69.9927 12.1635 70.139 12.3266C70.2852 12.4898 70.5152 12.6122 70.5176 12.7717C70.52 12.9313 70.379 13.3953 70.456 13.6656C70.5329 13.9359 72.4995 15.9561 73.285 16.6747C74.0705 17.3929 75.9803 18.518 76.2115 18.7299C76.4427 18.9418 77.0063 19.511 76.8169 19.7088C76.6276 19.9065 76.1636 20.0028 76.0331 20.3577C75.9025 20.7126 75.9525 22.6973 74.9446 24.3207C73.9368 25.9437 66.8636 29.1316 65.301 29.9558C63.7385 30.7796 62.2025 32.3441 62.5844 34.1318C62.9663 35.9196 66.5917 36.6479 68.5325 37.1877C70.4733 37.7274 79.1557 41.8173 79.2919 42.9235C79.4281 44.0296 68.1704 56.4076 63.7578 60.1345C59.3453 63.8614 52.6335 70.2885 49.425 70.1177Z" fill="#BAB3DD"/>
<path d="M49.755 69.7684C46.5465 69.598 44.0772 68.3194 43.4101 67.198C42.743 66.0765 42.7656 64.829 43.6969 63.8598C44.6283 62.8906 53.3788 53.4528 54.7383 51.5833C56.0974 49.7138 57.409 47.1752 56.9575 45.8419C56.5059 44.509 54.4499 44.1154 52.5715 44.1585C50.6932 44.2016 47.3912 44.117 46.1243 44.2451C44.8575 44.3732 46.1719 36.1085 46.5296 34.0376C46.8869 31.9667 47.0416 30.6514 51.0331 28.9636C55.0243 27.2758 59.2209 26.8834 61.4634 26.1104C63.7056 25.337 67.1332 24.0161 66.9455 22.2659C66.7578 20.516 66.5608 17.7434 66.9797 15.6974C67.3986 13.6515 68.1378 13.0017 68.8549 12.6042C69.5719 12.2066 69.9932 12.1627 70.1395 12.3258C70.2857 12.4889 70.5157 12.6114 70.5181 12.7709C70.5205 12.9304 70.3795 13.3945 70.4565 13.6648C70.5334 13.9351 72.5 15.9552 73.2855 16.6739C74.071 17.3921 75.9808 18.5172 76.212 18.7291C76.4432 18.941 76.7816 19.2366 76.5923 19.4344C76.403 19.6322 75.9389 19.7285 75.8084 20.0834C75.6779 20.4383 75.7278 22.423 74.72 24.0463C73.7121 25.6693 66.6389 28.8573 65.0764 29.6814C63.5138 30.5056 61.9779 32.0698 62.3597 33.8575C62.7416 35.6452 66.1612 36.5653 68.102 37.1055C70.0428 37.6453 78.9504 42.0086 79.0866 43.1148C79.2227 44.2209 68.1709 56.4067 63.7583 60.1337C59.3458 63.8606 52.9635 69.9388 49.755 69.7684Z" fill="#7756D3"/>
<path d="M45.7956 65.4827C45.9937 67.4836 48.9903 67.6072 50.3773 68.2248C51.1068 68.5498 52.2633 68.6574 53.2724 68.5196C51.912 69.3301 50.6963 69.8183 49.7545 69.7684C46.546 69.598 44.0767 68.3194 43.4096 67.198C42.7426 66.0765 42.7651 64.829 43.6964 63.8598L46.9154 60.3959C47.8479 59.3828 48.8844 58.2509 49.8939 57.1383C47.4234 60.6521 45.6675 64.1877 45.7956 65.4827ZM75.9557 40.8102L75.3849 40.1407C76.543 41.4809 77.623 42.7849 78.624 44.0525C76.5672 47.1003 68.2513 56.1795 64.205 59.7478L63.7578 60.1345C61.2813 62.2263 58.1844 65.0586 55.3767 67.111L55.6095 66.3251C56.5401 63.0316 58.6372 54.391 60.1252 51.6595C61.2853 49.5305 66.2695 45.7537 75.0784 40.3293C75.3813 40.4904 75.6738 40.6515 75.9557 40.8102ZM50.8824 29.028L50.7869 29.1839C48.9891 32.1826 50.6246 33.4905 51.8971 34.5483C53.4033 35.8007 53.4979 39.4213 58.4881 40.6797L58.9989 40.8626C62.7323 41.9994 59.0331 46.8783 55.1306 51.0218C56.3346 49.232 57.3642 47.0451 56.9566 45.8415C56.5372 44.6036 54.7346 44.1758 52.9751 44.1557L51.4254 44.171C49.5583 44.1774 47.1599 44.14 46.123 44.2447C44.95 44.3635 45.9901 37.2863 46.4344 34.5935L46.6318 33.445C46.95 31.7282 47.4218 30.5197 50.8824 29.028Z" fill="#7152CB"/>
<path d="M60.4398 40.0062C64.8274 40.9121 66.833 43.5373 63.9146 48.1005C62.1071 50.9259 55.3372 56.2154 43.6046 63.9681L48.0055 59.2096C50.598 56.3798 53.564 53.0919 54.5646 51.8117L54.7378 51.5833C56.097 49.7138 57.4086 47.1752 56.957 45.8419C56.5377 44.604 54.735 44.1762 52.9755 44.1561L51.4258 44.1714C49.5587 44.1778 47.1603 44.1404 46.1235 44.2451C45.5374 44.3043 45.9188 39.7766 46.0876 37.6871C48.6568 39.0096 50.9054 39.6916 52.8333 39.7335C55.7256 39.7959 58.3955 39.584 60.4398 40.0062ZM49.9434 32.734L50.7841 32.6607C54.2021 32.4432 59.6394 32.9528 59.5347 34.2652C59.4416 35.4321 50.4168 35.9776 46.0896 36.8247L46.4296 34.6281L46.6576 33.3141C48.0365 33.0035 49.1898 32.8202 49.9434 32.734Z" fill="#674DC5"/>
<path d="M68.3658 12.9365C69.708 14.6642 70.5918 15.9758 71.0168 16.8717L71.7716 18.6985C72.5825 20.7529 73.453 23.4981 72.2264 24.877C70.6494 26.6498 67.005 27.7 64.2413 29.0503C61.4775 30.4005 59.0763 32.1375 56.9252 32.1907C54.7745 32.2442 52.9115 32.0336 51.1282 32.1057C50.1981 32.1431 48.6206 33.0559 46.3966 34.8437L46.6339 33.4382C46.9553 31.7004 47.4399 30.4831 51.0323 28.9641C55.0235 27.2762 59.2201 26.8839 61.4626 26.1109L62.6602 25.679C64.7468 24.8851 67.1009 23.7249 66.9446 22.2663C66.7569 20.5164 66.5599 17.7438 66.9789 15.6979C67.2931 14.1631 67.7873 13.4143 68.3174 12.9679L68.3658 12.9365Z" fill="#DFA76D"/>
<path d="M67.3446 14.4189C68.228 14.2397 68.8689 14.4286 69.1618 15.1138C71.0337 19.4921 71.0671 21.8381 69.5171 24.5842C68.0532 27.1779 63.9323 27.8925 60.178 29.2992L59.5198 29.555C55.6011 31.1401 51.5858 31.0136 50.3278 31.5425C49.5656 31.8632 48.4131 32.8018 46.8711 34.3583L46.3966 34.8437L46.6339 33.4382L46.7511 32.8771C47.1015 31.4261 47.8391 30.3143 51.0323 28.9641C55.0235 27.2762 59.2201 26.8839 61.4626 26.1109L62.6602 25.679L63.4497 25.3644C65.2959 24.5906 67.0812 23.5425 66.9446 22.2667C66.7569 20.5169 66.5599 17.7442 66.9789 15.6983C67.0486 15.3571 67.1275 15.055 67.2133 14.7863L67.3446 14.4189Z" fill="#F4C782"/>
<path d="M70.1387 12.3263C70.2849 12.4894 70.5149 12.6119 70.5173 12.7714C70.5193 12.891 70.4404 13.1819 70.4331 13.434L70.5395 13.8421L70.1306 14.6602C69.6863 15.5879 69.5248 16.5358 69.7548 17.909C70.0218 19.503 69.8498 21.3265 68.5374 23.2875C67.225 25.2484 65.1996 26.4496 61.6222 27.5022C60.2699 27.8579 58.7218 28.2825 56.978 28.7751C54.3625 29.5143 52.8918 30.0013 51.5609 30.5214C49.697 31.2493 48.706 32.177 47.6825 33.157C47.4351 33.3939 46.9401 33.2122 46.6956 33.1425L46.8273 32.5999C47.2075 31.2811 48.0458 30.2269 51.0328 28.9641C55.0239 27.2762 59.2205 26.8839 61.4631 26.1109L62.6607 25.679C64.7473 24.8851 67.1014 23.7249 66.9451 22.2663C66.7574 20.5165 66.5604 17.7438 66.9793 15.6979C67.3982 13.6519 68.1374 13.0022 68.8545 12.6046C69.5707 12.207 69.9924 12.1631 70.1387 12.3263Z" fill="#9F4C0B"/>
<path d="M70.1386 12.3263C70.2849 12.4894 70.5149 12.6119 70.5173 12.7714C70.5193 12.891 70.4403 13.1819 70.4331 13.434L70.4556 13.6652L70.0468 14.4834C69.6025 15.4111 69.3032 16.2864 69.478 17.5412C69.7024 19.1545 69.6911 21.3406 68.1491 23.302C66.7034 25.1405 65.051 26.2309 61.4735 27.2835L57.3949 28.419C54.7794 29.1582 52.6259 29.8116 51.2946 30.3316C49.4307 31.0595 48.4833 31.9329 47.4597 32.9129C47.2123 33.1498 46.9404 33.2118 46.6959 33.1425L46.8277 32.5999C47.2079 31.2811 48.0462 30.2269 51.0331 28.9641C55.0243 27.2762 59.2209 26.8839 61.4634 26.1109L62.661 25.679C64.7476 24.8851 67.1017 23.7249 66.9454 22.2663C66.7577 20.5165 66.5607 17.7438 66.9797 15.6979C67.3986 13.6519 68.1378 13.0022 68.8548 12.6046C69.5706 12.207 69.9924 12.1631 70.1386 12.3263Z" fill="#FBD47F"/>
<path d="M70.1386 12.3262C70.2849 12.4894 70.5149 12.6118 70.5173 12.7713C70.5193 12.891 70.4404 13.1818 70.4331 13.434L70.4557 13.6652L70.0468 14.4833C69.6025 15.411 69.3032 16.2864 69.478 17.5412C69.7024 19.1545 69.6911 21.3406 68.1491 23.3019C66.7034 25.1404 65.051 26.2309 61.4735 27.2834L57.3949 28.419L55.7236 28.8988C53.863 29.4422 52.3298 29.9272 51.2946 30.3316C49.4307 31.0595 48.4833 31.9328 47.4597 32.9129C47.3666 33.0023 47.27 33.0668 47.1725 33.1087C47.5685 32.357 48.3153 31.2315 49.7272 30.5056C51.8102 29.4345 56.2719 28.0508 59.4783 27.3245L60.1941 27.169C63.4159 26.5024 65.8542 25.1718 67.1807 23.9863C68.5072 22.8008 69.1852 20.2763 69.2125 19.1412C69.2403 18.006 68.3207 16.5635 69.0518 14.8866C69.621 13.5814 69.7584 12.7294 69.5239 12.3016C69.8442 12.2029 70.046 12.2235 70.1386 12.3262Z" fill="#F4AA5A"/>
<path d="M70.5881 39.9845L64.8395 37.1151C63.7506 36.5609 63.1142 36.208 62.7645 35.9582C61.1718 34.8207 60.607 32.6108 62.1256 30.9455C62.9639 30.0263 64.4129 29.0913 66.7915 27.8337L70.8061 25.7708L71.0309 25.6516C73.4216 24.3755 74.6361 22.8604 74.8649 21.1815L74.9004 20.7911C74.9604 19.4824 75.24 18.777 75.8768 18.7762C76.0351 18.7758 76.164 18.9043 76.1644 19.0626C76.1644 19.1815 76.0923 19.2838 75.9896 19.3273L75.878 19.3498C75.7012 19.3502 75.5203 19.8054 75.474 20.8169C75.3797 22.8713 74.0432 24.6941 71.3015 26.1575L67.7277 27.992C65.0094 29.3975 63.4018 30.3981 62.5502 31.3318C61.2934 32.7099 61.7595 34.5339 63.0985 35.4906C63.4106 35.7137 64.0112 36.0469 65.026 36.5649L70.3867 39.2376L72.8367 40.5033C76.2808 42.3313 77.3814 45.7762 76.5221 47.9612C76.0287 49.2155 58.1385 65.7285 55.9572 66.9353C54.4994 67.7418 52.6617 68.6578 50.2335 69.6959L46.9787 68.6075C45.8431 68.2187 45.1209 67.9561 44.8075 67.8179C43.5446 67.2608 42.8969 65.2975 44.1376 64.0729L45.3754 62.7935C48.3459 59.6595 54.6585 52.7451 55.8219 51.243C57.6756 48.8498 58.5115 46.8433 58.0064 45.5571C57.2885 43.7279 56.4341 43.1442 53.7312 43.1651L51.79 43.2002C49.8899 43.2505 47.5237 43.3525 44.6927 43.5051C42.805 43.607 43.7541 43.1607 47.5394 42.1661C50.0276 42.0513 52.099 42.0775 53.6643 42.0469C56.7842 41.9865 58.321 42.7857 59.0553 45.1213C59.5548 46.71 59.1399 49.1825 57.017 51.7042L55.8331 52.136C53.6027 54.7858 46.1646 62.8777 44.5412 64.4805C43.6215 65.3885 44.1146 66.8838 45.0395 67.2918L45.5491 67.494C46.3813 67.8074 47.9704 68.3625 50.2029 69.1617L52.0007 68.3142C53.4214 67.6302 54.6476 67.003 55.6797 66.4322C57.7554 65.2842 75.5538 48.8558 75.9884 47.7501C76.7445 45.827 75.7443 42.6951 72.568 41.0092L71.9936 40.7067C71.5465 40.4751 71.0808 40.235 70.5881 39.9845Z" fill="#5A37B5"/>
<path d="M47.5387 42.1673C50.0269 42.0525 52.0982 42.0787 53.6636 42.0481C56.7835 41.9877 58.3202 42.7869 59.0546 45.1225C59.5541 46.7112 59.1392 49.1837 57.0163 51.7054L55.8324 52.1372L54.7984 53.3344C54.4809 53.6957 54.313 53.8613 53.9355 54.2843C53.8936 54.3479 54.6401 55.3731 54.0201 55.8279C53.4002 56.2827 52.9236 55.444 52.8487 55.5129C52.7339 55.6559 52.6304 55.7671 52.4084 56.0128C52.3464 56.1014 53.1649 56.8494 52.5816 57.4831C51.9983 58.1167 51.3288 57.1898 51.1661 57.3687C49.983 58.6698 48.9715 59.78 47.865 60.9731C46.2537 62.3907 44.7491 63.7784 43.5862 64.9587C43.6853 64.6425 43.8657 64.3403 44.1364 64.0733L45.3743 62.7939L48.9743 58.9252C51.8573 55.7888 55.0296 52.2649 55.8207 51.2434C57.6745 48.8502 58.5104 46.8437 58.0052 45.5575C57.2874 43.7283 56.433 43.1446 53.7301 43.1655L51.7889 43.2006L50.2763 43.2481C49.2096 43.286 48.0269 43.3371 46.7274 43.4008L44.6911 43.5059C42.8047 43.6086 43.7534 43.1623 47.5387 42.1673Z" fill="#4A27A6"/>
<path d="M50.0978 54.6029L50.2097 54.5764C50.6238 54.5248 51.7437 55.7429 52.1252 56.3012C52.5066 56.8592 52.5344 57.1065 52.2629 57.3019C51.9914 57.4972 51.6394 57.1109 51.4722 56.7806C51.3046 56.4503 50.5372 55.7341 50.3592 55.5939C50.1811 55.4537 50.0027 55.461 49.8988 55.266C49.7944 55.071 49.7964 54.6279 50.2101 54.5764L50.0978 54.6029ZM51.5946 52.8785L51.7066 52.8519C52.1207 52.8003 53.2406 54.0184 53.6221 54.5768C54.0035 55.1347 54.0313 55.382 53.7598 55.5774C53.4883 55.7727 53.1362 55.3864 52.9691 55.0561C52.8015 54.7258 52.0341 54.0096 51.8561 53.8694C51.678 53.7292 51.4996 53.7365 51.3956 53.5415C51.2913 53.3465 51.2933 52.9034 51.707 52.8519L51.5946 52.8785Z" fill="#9053DC"/>
<path d="M50.057 54.6202L50.2101 54.5759C50.4119 54.5509 50.7817 54.8277 51.1515 55.1826L50.741 55.9399L50.4498 55.6696C50.4119 55.6365 50.3813 55.6103 50.3592 55.593C50.1811 55.4528 50.0027 55.4601 49.8987 55.2651C49.8242 55.1258 49.8041 54.8599 49.9491 54.7008L50.057 54.6202ZM51.4834 52.7809L51.6361 52.7334C51.8029 52.7128 52.0957 52.9171 52.4107 53.2051C52.2472 53.4238 52.0824 53.6603 51.9161 53.9141L51.856 53.8689C51.678 53.7288 51.4387 53.6776 51.3344 53.4826C51.2599 53.3433 51.2345 53.0468 51.3767 52.8699L51.4834 52.7809Z" fill="#8343D1"/>
<path d="M53.4066 51.4629C54.0084 51.5741 54.6473 51.4734 55.235 51.0536C55.8227 50.6339 56.7939 49.5382 57.2958 48.4707C57.7977 47.4033 57.8292 47.0025 57.89 46.3789C57.9508 45.7553 56.9325 44.0046 56.0193 43.6981C55.1061 43.3915 56.1969 44.0067 56.5675 45.0185C56.9377 46.0304 56.7278 48.0188 56.0394 49.015C55.3514 50.0111 52.8052 51.3517 53.4066 51.4629Z" fill="#8A532D"/>
<path d="M54.2509 51.4452C54.698 51.3481 55.747 50.4663 56.4584 49.4347C57.1697 48.403 57.749 46.7978 57.745 46.2669C57.7409 45.736 56.9188 43.7907 55.4408 43.4818C53.9629 43.1728 49.0142 43.4165 48.1292 43.5253C47.5394 43.5978 47.1044 43.6546 46.824 43.6953C48.9171 44.7885 50.0897 45.3702 50.3411 45.4403C50.7185 45.5458 51.8428 45.5958 52.7588 45.6538C53.6748 45.7118 54.9619 45.5088 55.2507 46.1251C55.5395 46.7414 55.3345 47.002 55.1633 47.3477C54.9921 47.6933 54.3266 48.71 53.8561 48.9146C53.3856 49.1197 52.7487 48.8816 52.2041 48.4369C51.6595 47.9922 51.0831 47.1458 50.2557 46.7962C49.7042 46.563 49.274 46.3406 48.9658 46.1291L45.7102 43.8278L42.8413 48.1646C44.7366 48.5654 45.9394 48.7587 46.4498 48.745C47.2152 48.7245 47.6522 48.6258 47.9672 48.7116C48.2822 48.7974 49.4814 48.9755 49.6277 49.2103C49.7739 49.4452 49.9016 49.7364 50.0921 49.8593C50.2827 49.9821 51.6164 50.712 52.4386 51.1567C53.2599 51.6015 53.8037 51.5422 54.2509 51.4452Z" fill="#C28D59"/>
<path d="M42.8413 48.1646L45.7102 43.8278L48.9658 46.1291C49.019 46.1654 49.0758 46.2025 49.1358 46.2395C47.4407 46.6576 46.3334 47.1024 45.8154 47.5737C45.4387 47.9161 45.4069 48.2891 45.7199 48.6927C45.1688 48.6218 44.3837 48.4824 43.3682 48.2746L42.8413 48.1646ZM46.824 43.6953L48.1292 43.5253C48.5441 43.4741 49.8516 43.3936 51.276 43.3545C50.8478 44.1009 50.6923 44.5827 50.8067 44.7998C50.9272 45.0282 51.1467 45.286 51.465 45.5724L50.9163 45.5281C50.6674 45.5036 50.4643 45.475 50.3407 45.4407L50.1381 45.363C49.6732 45.162 48.5683 44.6061 46.824 43.6953Z" fill="#BD7E59"/>
<path d="M46.8301 48.3901C46.0816 48.227 45.7968 47.9805 46.3519 47.9454C46.907 47.9104 48.9469 48.5481 49.2414 48.6713C49.5358 48.7946 50.3858 49.4604 51.098 49.9604L51.3368 50.1352C51.96 50.6162 53.1032 51.3267 54.0482 51.1032C54.9933 50.8796 55.778 49.9527 56.2626 49.1938C56.7472 48.4345 57.6612 46.8836 57.3925 45.6808C57.2753 45.1567 56.922 44.4465 56.2956 43.8773C57.2318 44.5549 57.7417 45.8487 57.745 46.2669C57.749 46.7982 57.1693 48.403 56.4583 49.4347C55.7474 50.4663 54.6984 51.3481 54.2509 51.4452C53.8037 51.5422 53.2595 51.6015 52.4378 51.1567L50.0913 49.8592C49.9958 49.7976 49.9165 49.6941 49.8428 49.5769L49.6273 49.2103C49.481 48.9754 48.2822 48.7974 47.9668 48.7116C47.8222 48.6721 47.6518 48.6717 47.4359 48.6846L47.0842 48.4892C46.9831 48.4389 46.8981 48.4051 46.8301 48.3901Z" fill="#E1AE86"/>
<path d="M50.8707 47.1668C51.3895 47.5704 51.773 48.0212 52.1718 48.3471C52.7164 48.7918 53.3493 48.9553 53.8198 48.7503C54.2314 48.571 54.768 47.9322 55.0166 47.5036L55.1028 47.3453C55.274 46.9996 55.3602 46.482 55.251 46.1255C55.22 46.024 55.1378 45.9547 55.0504 45.8943C55.3292 46.0091 55.5398 46.2262 55.5861 46.4482C55.6969 46.9795 55.4697 47.5801 54.6693 48.505C53.8689 49.4299 53.1777 49.2393 52.5025 48.8482C52.2322 48.6915 51.9519 48.4135 51.6759 48.1054L50.8707 47.1668ZM48.5573 48.8345L47.9667 48.7112C47.6517 48.6254 47.2147 48.7241 46.4493 48.7447C46.0412 48.7555 45.1897 48.6339 43.895 48.3797L42.8408 48.1642L43.3464 47.4093L45.6235 48.0977C45.8491 48.1807 47.1458 48.3003 47.7114 48.4522C47.9418 48.5142 48.2419 48.6524 48.5573 48.8345Z" fill="#925728"/>
<path d="M44.7784 19.5472C44.4421 19.3792 43.7613 19.5239 43.2074 20.0213C42.6535 20.5188 39.8197 26.1209 39.3613 26.7074C39.2513 26.8838 39.1776 27.0373 39.1401 27.1682C38.838 27.2798 38.6028 27.5698 38.4344 28.0383C38.1818 28.7413 36.0207 32.6349 35.7012 33.578C35.3818 34.521 33.9715 37.4052 33.8752 37.6727C33.7789 37.9401 31.2488 42.9799 30.7296 44.3567C30.2107 45.7336 30.1801 46.3712 29.9626 46.9348C29.7451 47.4983 28.9833 48.7584 28.7356 49.2425C28.4883 49.7263 27.3986 50.2089 27.2218 50.6569C27.045 51.1048 26.6893 51.4387 26.2748 51.9991C25.8602 52.5594 24.545 54.8639 24.1438 55.666C23.7426 56.468 23.0626 58.2392 22.4362 59.4948C21.8103 60.7504 21.54 60.8201 21.0481 62.0326C20.5563 63.2455 20.0975 64.6393 20.0141 65.0489C19.9307 65.4586 19.2842 66.3734 18.9232 67.0675C18.5623 67.7615 18.5119 68.4572 17.8255 68.9926C17.1391 69.5279 16.7709 70.3545 17.8694 70.3541C18.9679 70.3537 25.2198 67.9686 26.9479 66.9982C28.676 66.0274 30.5266 64.0197 31.9364 63.0928C33.3463 62.1659 35.7262 60.3085 37.0378 59.0819C38.3494 57.8553 41.6078 53.7356 43.2022 51.4113C44.7966 49.0871 46.3353 46.3048 46.4695 45.9092C46.5589 45.6457 46.3019 44.9058 45.6989 43.6892C47.4455 43.4302 48.3736 43.2433 48.4824 43.1289C48.6455 42.9573 52.1851 36.9593 52.4434 36.374C52.7016 35.7887 52.6798 34.73 50.8844 33.6299C49.0891 32.5298 45.321 28.5467 44.861 26.0963C44.401 23.6455 45.3891 21.2004 45.4217 20.85C45.454 20.4995 45.1148 19.7148 44.7784 19.5472Z" fill="#A089E5"/>
<path d="M44.7785 19.5472C44.4421 19.3792 43.7613 19.5239 43.2074 20.0213C42.6536 20.5188 39.8197 26.1209 39.3613 26.7074C39.2513 26.8838 39.1776 27.0373 39.1401 27.1682C38.838 27.2798 38.6028 27.5698 38.4344 28.0383C38.1818 28.7413 36.0207 32.6349 35.7012 33.578C35.3818 34.521 33.9715 37.4052 33.8752 37.6727C33.779 37.9401 31.2488 42.9799 30.7296 44.3567C30.2108 45.7336 30.1801 46.3712 29.9626 46.9348C29.7451 47.4983 28.9834 48.7584 28.7356 49.2425C28.4883 49.7263 27.3986 50.2089 27.2218 50.6569C27.045 51.1048 26.6893 51.4387 26.2748 51.9991C25.8603 52.5594 24.5451 54.8639 24.1438 55.666C23.7426 56.468 23.0627 58.2392 22.4363 59.4948C21.8103 60.7504 21.54 60.8201 21.0481 62.0326C20.5563 63.2455 20.0975 64.6393 20.0141 65.0489C19.9307 65.4586 19.2842 66.3734 18.9232 67.0675C18.5623 67.7615 18.512 68.4572 17.8256 68.9926C17.1391 69.5279 16.4866 70.1249 17.5851 70.1245C18.6836 70.1241 25.0164 67.6645 26.7445 66.6936C28.4726 65.7228 30.3231 63.7152 31.733 62.7883C33.1429 61.8614 35.5228 60.004 36.8344 58.7774C38.146 57.5508 41.4044 53.4311 42.9988 51.1068C44.5932 48.7825 46.024 46.1634 46.1581 45.7682C46.2476 45.5047 45.9906 44.7648 45.3875 43.5482C47.1938 43.2816 48.1513 43.0914 48.2601 42.977C48.4232 42.8054 51.7417 36.8992 52.0003 36.3139C52.2585 35.7286 52.0547 34.8585 50.2593 33.7584C48.4639 32.6583 45.139 28.7356 44.6786 26.2848C44.2181 23.8341 45.1922 20.8866 45.2248 20.5362C45.257 20.1857 45.1148 19.7148 44.7785 19.5472Z" fill="#AA7EF7"/>
<path d="M44.6805 26.2957C45.1192 28.5938 48.0626 32.1765 49.906 33.5203L50.2588 33.7584C52.0542 34.8585 52.258 35.7286 51.9998 36.3139L51.8238 36.6628C51.0778 38.0791 48.4058 42.8235 48.2596 42.977C48.1509 43.0914 47.1933 43.2816 45.3871 43.5482C45.9901 44.7644 46.2471 45.5043 46.1577 45.7682L46.0489 46.0159C45.6634 46.8139 44.3933 49.0729 42.9984 51.1072C41.404 53.4315 38.1455 57.5512 36.8339 58.7778C35.5224 60.0044 33.1425 61.8618 31.7326 62.7887C30.3227 63.7156 28.4721 65.7236 26.744 66.694C25.7664 67.2435 23.314 68.2695 21.1702 69.057C21.3671 68.4508 21.1871 67.6572 21.7881 67.2435L22.1043 67.0513C24.7899 65.6197 24.4761 61.3305 26.3327 59.1202C28.1894 56.9099 29.2004 55.1117 29.486 53.8343C29.7716 52.557 29.4514 51.5974 30.1189 49.2736L32.5539 45.9628C34.2559 43.6175 35.3673 41.9998 35.8873 41.1099C36.9931 39.2195 38.2748 33.5921 39.4793 33.4833C40.6837 33.3745 42.0719 32.8787 42.3691 31.6355C42.4904 31.1292 42.9101 30.1274 43.4761 28.881L44.6805 26.2957Z" fill="#8459EB"/>
<path d="M49.9059 33.5204L50.2588 33.7584C52.0542 34.8585 52.258 35.7286 51.9998 36.3139L51.8238 36.6628L50.1895 39.6308C49.2755 41.2606 48.3442 42.888 48.26 42.977C48.1512 43.0914 47.1937 43.2816 45.3875 43.5482C45.9905 44.7644 46.2475 45.5044 46.1581 45.7682L46.0493 46.0159L45.8112 46.482C45.319 47.4109 44.3727 49.0512 43.3182 50.6347L42.9987 51.1072C41.4043 53.4315 38.1459 57.5512 36.8343 58.7778C35.5227 60.0044 33.1428 61.8618 31.733 62.7887C30.3231 63.7156 28.4725 65.7237 26.7444 66.6941C25.7667 67.2435 23.3144 68.2695 21.1705 69.057C21.3675 68.4508 21.7772 67.8699 22.3778 67.4562L22.694 67.2641C23.1287 67.0324 23.5158 66.7464 23.8674 66.4214L26.3964 64.8226C27.2221 64.2928 27.8252 63.8944 28.205 63.627C30.0367 62.3359 37.1026 53.4118 38.4541 50.2464C39.8051 47.0814 36.1064 47.3759 36.738 45.4895C37.3697 43.603 41.6875 40.4566 42.6297 38.9963L43.0894 38.2443C43.986 36.7301 45.6646 33.7226 47.1683 30.7763C48.0884 31.922 49.1019 32.9343 49.9059 33.5204Z" fill="#784DDE"/>
<path d="M24.8032 57.0876C25.0361 57.3196 25.2286 57.7611 25.3805 58.4124L25.4667 58.8281C25.687 60.0185 26.112 61.5569 26.1789 62.2368L26.1869 62.4302C26.1648 62.9571 26.3098 63.4775 26.4427 63.6939C26.5757 63.9106 26.7187 65.0195 26.773 65.4143C26.8093 65.6774 26.8367 66.0077 26.856 66.4049L26.6663 65.571C26.6143 65.3196 26.5732 65.0945 26.5434 64.8955L26.5068 64.6171C26.4665 64.2477 26.4439 64.1503 26.3771 64.0777L26.1245 63.8534C25.8707 63.5931 25.6878 63.5005 25.7177 63.6749L25.8466 64.0713C25.996 64.5599 26.201 65.37 26.0729 65.2202L25.9162 65.0022C25.7785 64.7952 25.5747 64.4637 25.3044 64.0085C24.9998 63.5549 24.8484 63.252 24.8496 63.1001L24.9458 61.9726C25.001 61.1677 25.0236 60.1329 24.8173 59.5415L24.1785 57.7433L24.8032 57.0876Z" fill="#4433A5"/>
<path d="M30.7965 48.5642C31.961 47.8633 33.4132 48.2287 35.6642 48.1022C37.7472 47.9849 42.2129 48.8035 44.113 49.4061C43.7597 49.9644 43.3835 50.5441 42.998 51.1064C41.5099 53.276 38.5722 57.0094 37.1208 58.4946L36.8336 58.777C36.7723 58.8342 36.7091 58.8926 36.6434 58.9526C35.3806 59.6507 34.4621 59.9282 33.8789 59.7901C32.8936 59.5568 29.7838 57.4513 28.562 56.9333C27.3402 56.4152 24.4588 56.016 24.4403 56.0241L25.5376 54.5618C25.6202 54.4531 25.7072 54.3383 25.799 54.217L28.6434 54.8934C30.6531 55.3598 33.3947 56.6839 33.9683 56.8672C34.5419 57.0505 35.7077 54.8495 35.9832 53.9254C36.2374 53.0722 35.0168 52.3757 33.5719 51.6599L33.2069 51.4806C31.7882 50.7874 30.9229 50.4671 29.9413 50.4393L29.5666 50.4426C28.4178 50.4917 29.6323 49.2651 30.7965 48.5642Z" fill="#694ABE"/>
<path d="M20.2666 64.4197C20.8092 64.4898 21.5569 64.4463 21.5218 64.603C21.4864 64.7593 21.4425 64.9804 21.3716 65.1295C21.3007 65.2785 20.2429 65.7301 19.6394 65.9963L19.5114 66.0547C19.7551 65.6475 19.969 65.2725 20.0145 65.0485C20.0403 64.9216 20.1027 64.6992 20.1905 64.4173C20.2187 64.4144 20.2429 64.4169 20.2666 64.4197ZM34.4702 51.7465C34.8597 51.5559 35.7765 51.4613 36.1967 51.4641C36.6168 51.4665 36.6313 51.6288 36.6329 51.9132C36.6346 52.198 36.2201 52.2919 36.0779 52.3201C35.9357 52.3483 35.0353 52.4764 34.8658 52.5372C34.6962 52.598 34.4637 52.8728 34.5205 52.903C34.5773 52.9332 34.8388 52.8832 35.0797 52.965C35.3205 53.0468 35.153 53.5805 35.039 53.6881C34.925 53.7956 33.9747 53.8174 33.5308 53.8552C33.0869 53.8931 33.0555 54.1735 33.3197 54.1135C33.584 54.0534 33.764 54.3535 33.8233 54.4397C33.8829 54.5259 33.8353 54.9856 33.6162 55.0178C33.3971 55.0504 31.9521 55.3312 31.8301 55.3558C31.708 55.3803 31.7056 55.5491 32.0206 55.4746C32.3356 55.4001 32.3199 55.7944 32.3372 55.9789C32.3542 56.163 31.2516 56.3858 31.0188 56.4136C30.8154 56.4381 30.699 56.5143 30.788 56.7322L30.8919 56.9393C31.0212 57.2309 31.0538 57.6067 30.931 57.6708C30.7928 57.7425 29.4538 58.157 29.0699 58.2347C28.686 58.3125 28.6172 57.5943 28.8524 57.4976C29.0877 57.4009 30.3876 56.8994 30.5358 56.88C30.6841 56.8611 30.4581 56.7298 30.2977 56.6819C30.1374 56.6339 30.0242 56.4514 30.0552 56.1852C30.0863 55.9189 30.8798 55.5777 31.1896 55.533C31.499 55.4883 31.5324 55.4802 31.4027 55.1958C31.2734 54.9114 31.5529 54.5541 31.7975 54.4615C32.042 54.3688 32.7904 54.2971 32.927 54.2234C33.0635 54.1497 33.0418 53.8911 32.8951 53.7159C32.7485 53.5406 32.8742 53.0677 33.0273 53.0496C33.1803 53.0315 33.9989 52.8985 34.2067 52.8667C34.4142 52.8349 34.5222 52.615 34.5785 52.5549C34.6345 52.4949 34.3381 52.5525 34.247 52.3543C34.1552 52.1565 34.0807 51.937 34.4702 51.7465ZM37.5905 49.9229C37.7874 49.9744 37.9055 50.5807 37.6956 50.6822C37.4857 50.7833 36.0021 51.2458 35.6428 51.1265C35.2839 51.0073 35.3314 50.6004 35.5381 50.4514C35.7451 50.3023 37.3939 49.8713 37.5905 49.9229ZM38.8138 48.3483C39.0108 48.3998 39.1288 49.0061 38.919 49.1076C38.7091 49.2091 37.2255 49.6711 36.8662 49.5519C36.5073 49.4327 36.5548 49.0258 36.7614 48.8768C36.9685 48.7277 38.6169 48.2967 38.8138 48.3483ZM39.7383 46.8852C39.9901 46.9291 40.1621 47.5116 39.8684 47.6256C39.5748 47.7396 38.3051 48.0151 37.9461 47.8955C37.5872 47.7762 37.6348 47.3694 37.8414 47.2203C38.0481 47.0717 39.4865 46.8413 39.7383 46.8852ZM40.7156 45.4024C40.9673 45.4463 41.1393 46.0288 40.8457 46.1428C40.552 46.2568 39.3178 46.54 38.9584 46.4207C38.5995 46.3015 38.6471 45.8947 38.8537 45.7456C39.0608 45.5966 40.4638 45.3585 40.7156 45.4024ZM41.7319 43.8318C41.9836 43.8757 42.1556 44.4582 41.862 44.5722C41.5683 44.6862 40.3341 44.9694 39.9748 44.8501C39.6154 44.7309 39.6634 44.324 39.87 44.175C40.0771 44.026 41.4801 43.7879 41.7319 43.8318Z" fill="#2B2D2E"/>
<path d="M43.2075 20.0213C43.7613 19.5239 44.4421 19.3792 44.7785 19.5472C45.1148 19.7152 45.2574 20.1861 45.2248 20.5366L45.1672 20.8081C44.9581 21.6645 44.2798 24.1612 44.6786 26.2852C45.11 28.583 48.0595 32.1741 49.9056 33.5204L50.2589 33.7588C51.195 34.3324 51.6986 34.8436 51.9294 35.2843C51.9282 35.9977 51.7199 36.7514 51.5753 37.1337L51.44 37.3758L51.4448 37.3174C51.5334 36.7877 50.7572 36.0432 49.8879 35.0446C49.0186 34.046 45.421 31.1719 44.1493 28.0548C42.8771 24.9378 43.5938 22.7138 44.0038 21.6697C44.4135 20.6256 43.9378 20.3936 43.6945 20.1422C43.6199 20.0649 43.3702 20.11 43.0564 20.2087L43.087 20.1603L43.2075 20.0213Z" fill="#FFD895"/>
<path d="M49.9056 33.5199L50.2589 33.7584C51.1951 34.332 51.6986 34.8432 51.9294 35.2839C51.9282 35.9973 51.7199 36.751 51.5753 37.1333L51.44 37.3753L51.4448 37.3169C51.5334 36.7872 50.7572 36.0428 49.8879 35.0442L49.5004 34.6406C48.5485 33.7012 46.6202 31.9977 45.249 30.025C45.1193 29.198 45.0846 28.3404 45.0858 27.509C46.051 29.704 48.3632 32.3952 49.9056 33.5199Z" fill="#FFCA6F"/>
<path d="M40.2645 27.4277C40.4349 27.7842 39.8447 29.0986 39.6119 29.7322C39.3787 30.3659 38.9243 32.0203 39.2514 32.5794C39.5785 33.1385 41.8492 35.3331 42.0945 35.9196C42.3398 36.5065 41.877 37.7669 41.5749 38.3812C41.2728 38.9951 40.573 40.146 40.1191 40.3829L37.5023 41.5531C37.0951 41.7412 36.7611 41.9063 36.6129 42.007C36.1448 42.3253 33.6731 46.768 31.8914 48.7906L30.6555 50.1026C29.288 51.5922 28.1713 53.0057 27.5731 53.809L26.2897 55.639C25.6678 56.5224 24.9878 57.4372 24.4432 57.9319C23.7628 58.5498 22.4976 59.9391 21.7145 60.7472L21.9695 60.3428C22.1052 60.1208 22.2563 59.8574 22.4371 59.4944C23.0631 58.2388 23.7431 56.4676 24.1447 55.6656L24.4807 55.0299C25.0362 54.0116 25.9441 52.447 26.2756 51.9987L26.8384 51.2853C27.0011 51.0758 27.1345 50.88 27.2227 50.6561C27.3995 50.2081 28.4892 49.7255 28.7365 49.2418C28.9838 48.758 29.746 47.4975 29.9635 46.934C30.181 46.3704 30.2112 45.7328 30.7305 44.3559L30.9718 43.773C31.7814 41.918 33.7903 37.9099 33.8761 37.6719L35.1676 34.8662C35.2848 34.6036 35.394 34.3542 35.4862 34.1335L35.7021 33.5772C35.9986 32.7014 37.8834 29.2815 38.3531 28.2345L38.4349 28.0371C38.6032 27.5687 38.8385 27.2786 39.1406 27.167L39.193 27.0224C39.8306 27.1336 40.1875 27.2673 40.2645 27.4277Z" fill="#EDEBF0"/>
<path d="M40.2645 27.4277C40.4349 27.7842 39.8447 29.0986 39.6115 29.7322C39.3783 30.3659 38.9239 32.0203 39.251 32.5794C39.5781 33.1385 41.8488 35.3331 42.0941 35.9196C42.3394 36.5065 41.8766 37.7669 41.5745 38.3812C41.2723 38.9951 40.5726 40.146 40.1187 40.3829L37.5019 41.5531C37.0947 41.7412 36.7607 41.9063 36.6125 42.007C36.1444 42.3253 33.6727 46.768 31.891 48.7906L30.6551 50.1026C29.2875 51.5922 28.1709 53.0057 27.5727 53.809L26.2893 55.639C25.6674 56.5224 24.9874 57.4372 24.4428 57.9319C24.1588 58.1901 23.7729 58.5824 23.3624 59.011C23.4748 58.5909 23.6226 58.182 23.8055 57.7836C24.6567 55.9326 26.5314 53.4174 27.9776 52.1284L28.3969 51.7803C29.7717 50.733 31.6183 47.6039 32.2987 45.7038L32.4344 45.2884C32.9049 43.6691 35.2888 37.9982 36.5956 35.151L37.8999 32.3864C38.3434 31.4265 39.1027 29.7407 40.1775 27.3294C40.219 27.3608 40.248 27.3938 40.2645 27.4277Z" fill="#E9E5E9"/>
<path d="M39.2972 32.6498L39.2509 32.5797C39.578 33.1393 41.8487 35.3334 42.094 35.92C42.3393 36.5069 41.8765 37.7673 41.5744 38.3816C41.2722 38.9955 40.5725 40.1464 40.1186 40.3832L37.5018 41.5534C37.0946 41.7416 36.7606 41.9067 36.6124 42.0074C36.1443 42.3257 33.6726 46.7684 31.8909 48.791L30.655 50.103C29.2875 51.5926 28.1708 53.0061 27.5726 53.8093L26.2892 55.6394C26.1495 55.838 26.0069 56.0377 25.8635 56.2343L25.4228 55.9697C25.3543 55.9322 25.2886 55.8988 25.2262 55.8702L24.9482 55.7654L25.428 55.0762C25.7978 54.8788 26.2397 54.6835 26.4894 54.5513C26.9414 54.3121 27.7265 52.8393 28.2772 51.8742L28.3968 51.7803C29.6649 50.8139 31.3346 48.076 32.1201 46.1658L32.3735 45.9031L32.6087 45.6373C33.4486 44.6334 34.5922 42.148 35.2839 40.8058C35.6637 40.069 35.5743 38.8501 35.4225 37.7947L36.0738 36.3083L36.579 36.7236C36.8376 36.921 37.0986 37.0877 37.331 37.1542C38.125 37.3806 38.1616 36.4223 38.3723 35.8233L38.4416 35.6557C38.587 35.3624 38.8722 34.3606 39.2972 32.6498Z" fill="#CDCDCD"/>
<path d="M24.9934 55.2245C25.2282 55.0069 25.2625 55.1367 26.158 54.9264C26.3852 54.8728 26.6168 54.8555 26.8399 54.8571L26.2667 55.6648L25.766 55.5894C25.7342 55.5866 25.71 55.5854 25.6935 55.5858C25.4619 55.5947 25.0728 55.647 24.5261 55.7429C24.6812 55.5423 24.8367 55.3695 24.9934 55.2245ZM28.8621 49.0093C28.9963 48.9134 29.1219 48.8542 29.3008 48.8212C29.6142 48.7632 30.6615 48.8095 31.5365 48.7982L31.8905 48.7906L31.018 49.7159L30.39 49.6139C29.764 49.5197 29.1868 49.4649 29.0329 49.5962L28.7139 49.9132C28.1624 50.4941 27.2138 51.5809 27.1404 51.6684C27.0663 51.7566 26.9829 51.4146 26.9576 51.1189L26.8379 51.2857C27.0007 51.0762 27.134 50.8804 27.2222 50.6565C27.3991 50.2085 28.4887 49.7259 28.736 49.2421L28.8621 49.0093ZM37.0064 30.8867C37.1462 30.8496 37.2453 30.844 37.2751 30.8629C37.3653 30.9197 37.0543 31.4088 36.7687 31.9888L35.8579 34.0315C35.6912 34.3993 35.5397 34.7188 35.4402 34.8916C35.1941 35.3194 37.3911 36.9959 38.1838 37.6839L38.3401 37.8241C38.6753 38.1403 39.8233 39.0004 40.739 39.7569C40.5186 40.0505 40.2995 40.2894 40.119 40.3833L37.2429 41.6747C37.8745 41.1937 39.1627 40.4981 39.3371 40.3164C39.5277 40.1182 38.9774 39.8225 38.554 39.4298L38.3828 39.2554C38.1013 38.9347 36.9266 38.0429 34.8597 36.5798C34.4166 37.9337 34.1177 38.6068 33.9623 38.5992C33.8898 38.5955 33.8015 38.3546 33.7149 38.0223L35.1671 34.867L35.4857 34.1343L35.7016 33.578C35.787 33.3254 36.005 32.8609 36.2825 32.303L37.0064 30.8867Z" fill="#908F91"/>
<path d="M17.3043 70.1837C17.4227 69.6262 17.1423 69.2141 16.8515 69.0767C16.5607 68.9394 15.6853 69.0969 15.0126 69.774C14.3403 70.4512 14.3786 71.0973 14.6315 71.453C14.8845 71.8087 15.4823 71.7136 15.888 71.5235C16.294 71.3333 17.1855 70.7412 17.3043 70.1837Z" fill="#242424"/>
<path d="M15.2766 70.3799C15.0945 70.8451 15.1758 71.0848 15.5376 71.1569C15.8997 71.229 17.3342 70.9942 17.9541 70.9684C18.5741 70.943 20.4855 70.4173 21.1904 69.9585C21.8953 69.4993 24.9117 65.0469 25.5461 63.5544C26.1802 62.062 25.3878 59.8896 25.2214 58.9917C25.0551 58.0938 24.838 57.6027 24.7892 57.1922C24.7405 56.7818 24.8589 56.534 24.873 56.2605C24.8823 56.078 24.9318 55.9109 25.0216 55.7586C25.837 55.4774 26.438 55.3324 26.8243 55.324C27.4043 55.3115 28.3611 55.581 30.0336 56.3588C31.7061 57.1367 32.3446 57.4227 33.4527 57.6885C34.5609 57.9544 35.7263 58.1643 37.8927 55.3675C40.059 52.5707 40.4744 51.2873 40.196 50.5195C40.0103 50.0075 39.8782 49.6611 39.7992 49.4794C41.2095 50.1167 42.619 50.4687 44.0285 50.5356C46.1425 50.6363 47.0057 50.5795 48.1223 50.248C49.239 49.9165 49.7997 49.5322 49.8545 49.3811C49.9093 49.23 48.644 48.8437 48.236 48.7471C47.8283 48.6504 46.9864 48.7398 46.5884 48.7507C46.1904 48.7616 45.0971 48.8756 42.8659 48.4792C40.6347 48.0828 37.0818 46.9658 35.8765 46.6451C34.6713 46.3245 31.9361 45.684 30.8622 45.8915C29.7883 46.0989 28.9637 46.4425 29.1474 47.4782C28.8316 47.5068 28.2068 47.7642 28.2176 48.2484C28.2285 48.7326 28.55 49.1592 29.5425 49.1189C30.5351 49.0786 32.3704 49.5366 33.4 49.6067C34.4296 49.6768 37.3017 49.8879 37.8141 49.91C38.3265 49.9322 38.6753 50.4474 38.5533 50.7096C38.4312 50.9719 34.606 55.7215 34.3317 55.9689C34.0574 56.2158 33.8467 56.2573 32.7289 55.7892C31.611 55.3211 29.9119 54.3733 28.5625 54.0152C27.213 53.6571 26.8231 53.4319 26.1653 53.444C25.5071 53.4557 25.6017 53.396 25.1554 53.7336C24.7095 54.0708 24.0488 54.0172 23.6778 54.5791C23.3072 55.1411 22.7489 56.0885 23.3221 57.7252C23.8954 59.3619 24.4549 61.2197 24.189 62.3093C23.9232 63.3989 19.9102 68.4782 19.5755 68.7662C19.2407 69.0542 17.7108 69.6214 17.2766 69.6141C16.8423 69.6069 16.4302 69.519 16.0697 69.687C15.7096 69.8554 15.4586 69.9146 15.2766 70.3799Z" fill="#F0EDF4"/>
<path d="M29.934 47.5229C33.244 47.794 35.3036 47.9898 36.1125 48.111C37.3258 48.2927 33.5324 47.3348 32.1902 47.3239C31.2955 47.3162 30.5434 47.3827 29.934 47.5229Z" fill="#D4D4D4"/>
<path d="M25.6291 60.7456C25.8088 61.6656 25.9022 62.717 25.5461 63.5544C24.9121 65.0469 21.8957 69.4993 21.1904 69.9585C20.4854 70.4177 18.574 70.943 17.9541 70.9684C17.5573 70.9845 16.8274 71.0868 16.2578 71.1392L16.5531 70.9998C16.5958 70.9805 16.6353 70.9636 16.6715 70.9483C17.0852 70.775 18.1575 70.5833 18.8693 70.2582C19.5098 69.9658 19.2927 69.685 18.9712 69.6608L18.8613 69.6628C18.4886 69.7031 19.2093 69.1638 20.0375 68.7223C20.7968 68.3174 22.5008 66.0741 23.2379 64.9522L23.4136 64.6763C23.9094 63.8638 24.386 63.2713 24.6369 62.6888L24.759 62.3387C24.9423 61.6342 25.1042 63.1931 25.1908 62.665L25.2931 62.1897C25.3636 61.8908 25.4563 61.5182 25.5405 61.15L25.6291 60.7456ZM37.2554 49.8278L37.9704 49.7042C38.8014 49.5737 39.1668 49.597 39.3509 49.9769L39.4117 50.1364C39.5313 50.5316 39.8673 51.2345 40.136 51.7328C39.8741 52.5352 39.2042 53.674 37.8926 55.3679C35.7263 58.1647 34.5609 57.9548 33.4527 57.6889C32.4714 57.4537 31.8583 57.2023 30.5693 56.6074C30.7498 56.5977 30.9182 56.6122 31.0749 56.6496L31.3017 56.7226C32.2064 57.0944 33.6658 57.0585 33.5885 56.6521C33.5478 56.439 33.3987 56.2114 33.2594 55.9963C33.9277 56.2355 34.1085 56.1707 34.3317 55.9697C34.606 55.7228 38.4312 50.9727 38.5533 50.7104C38.6753 50.4482 38.3261 49.933 37.8141 49.9108L37.1345 49.8693C37.1728 49.846 37.2147 49.8351 37.2554 49.8278ZM39.3299 48.7894C41.048 49.4214 42.2327 49.7469 42.884 49.7658C43.8609 49.7944 44.7692 49.0931 46.279 49.0899C46.6283 49.0891 46.8325 48.9561 46.9227 48.7398C47.3457 48.7096 47.9205 48.6729 48.2359 48.7475L48.611 48.849C49.1411 49.0041 49.8972 49.2639 49.8545 49.3815C49.7997 49.5326 49.239 49.9169 48.1223 50.2484C47.0057 50.5799 46.1421 50.6367 44.0284 50.536C42.8542 50.48 41.6796 50.2262 40.5045 49.7743L39.9249 49.5314L39.3299 48.7894Z" fill="#CCCDD8"/>
<path d="M51.6067 47.8496C51.7215 47.2562 51.6929 46.7688 51.5205 46.3878C51.2619 45.8157 51.1023 45.2135 49.8794 44.5702C48.6564 43.9265 46.4284 42.9472 45.549 42.3293C44.6697 41.7114 40.4452 38.3647 39.2565 37.4548C38.0678 36.5448 36.1802 35.1993 35.7741 34.577C35.5034 34.1621 35.4289 33.8906 35.5501 33.7617C35.1606 33.3415 34.7957 33.2098 34.4553 33.3657C33.9449 33.5997 33.6988 34.2152 33.7882 34.4984C33.8776 34.7816 34.1576 35.2948 35.1618 36.2745C36.1661 37.2541 39.4652 39.7718 41.3202 41.4157C43.1752 43.0596 45.524 44.3813 46.8884 45.0069C48.2528 45.6325 49.7851 46.5779 50.2484 46.8071C50.5577 46.9598 51.0105 47.3074 51.6067 47.8496Z" fill="#E8E6E4"/>
<path d="M34.4557 33.3657C34.7961 33.2098 35.1611 33.3419 35.5506 33.7617C35.5264 33.7874 35.5099 33.8189 35.5015 33.8559L35.3138 33.7814C35.1824 33.7456 35.0362 33.7399 34.8759 33.7637C34.2761 33.8531 34.0924 34.5826 34.2265 35.2545C33.9534 34.8964 33.8402 34.66 33.7891 34.4984C33.6992 34.2152 33.9454 33.5993 34.4557 33.3657Z" fill="#727272"/>
<path d="M46.969 43.9853C47.7408 44.2685 48.886 44.5081 49.0564 44.1561L49.8794 44.5698C51.1024 45.2135 51.2619 45.8157 51.5205 46.3873C51.6929 46.7684 51.7215 47.2558 51.6067 47.8492C51.1297 47.4153 50.7446 47.1064 50.4518 46.9215L48.5279 45.8439C48.1376 45.6292 47.7178 45.406 47.3021 45.2022L46.8888 45.006C46.3458 44.7571 45.6473 44.3982 44.886 43.9523C45.7186 44.0232 46.2604 43.7251 46.969 43.9853Z" fill="#DBD0D0"/>
<path d="M37.103 31.3225C37.3173 30.9535 37.6243 30.3747 37.1256 30.5548C36.6269 30.7344 36.2515 30.7783 35.7963 30.6136C35.3411 30.4488 34.4283 30.4689 33.5715 31.3145C32.7147 32.16 32.8424 33.2166 33.0023 33.9973C33.1622 34.7779 32.7823 36.1415 32.7195 36.726C32.6567 37.3105 33.0933 37.6408 33.2919 37.3379C33.4905 37.0354 33.8551 35.0946 33.7886 34.498C33.7225 33.9014 33.6601 32.5588 34.042 32.0976C34.4239 31.6363 35.7705 31.5312 35.8925 31.928C36.0146 32.3252 36.3945 32.981 36.4202 32.7453C36.446 32.5101 36.8887 31.6915 37.103 31.3225Z" fill="#343434"/>
<path d="M28.6498 71.5871C27.5037 72.7549 25.9247 73.364 25.3849 73.5255C24.8451 73.6871 23.8437 73.1078 23.6161 71.913C23.3885 70.7182 24.1261 69.3205 24.8 68.6888C25.4739 68.0572 26.6244 67.2431 27.6226 67.3958C28.6208 67.5484 29.6049 68.0568 29.8941 68.6602C30.1837 69.2641 29.7962 70.4194 28.6498 71.5871Z" fill="#6D5CCA"/>
<path d="M28.2776 71.1887C27.1315 72.3565 25.5202 72.9692 24.9805 73.1308C24.4407 73.2923 23.8441 73.1078 23.6161 71.913C23.3885 70.7182 24.1261 69.3205 24.8 68.6888C25.4739 68.0572 26.6244 67.2431 27.6226 67.3958C28.6208 67.5484 29.109 67.6745 29.3978 68.278C29.6875 68.8818 29.4236 70.021 28.2776 71.1887Z" fill="#7B53E8"/>
<path d="M27.4829 68.2099C27.5534 68.0294 27.7983 68.0628 27.9748 68.0532C28.1512 68.0435 28.9383 68.3005 28.9887 68.6127C29.039 68.9249 28.66 69.3881 28.3103 69.6194C27.9607 69.8506 27.0877 70.048 26.95 70.3001C26.8122 70.5523 26.1475 71.0965 25.903 71.5376C25.6585 71.9783 25.1848 71.963 24.6736 72.1531C24.2889 72.2957 24.6696 72.8033 24.9999 73.1267C24.4412 73.2923 23.8446 73.1078 23.6166 71.913C23.5928 71.7894 23.58 71.6633 23.5759 71.5364L23.646 71.474L23.7818 71.3757C24.1105 71.1654 25.447 70.8991 25.8321 70.744C26.2172 70.589 26.9302 69.6737 27.1079 69.4667C27.2859 69.26 27.4124 68.3903 27.4829 68.2099Z" fill="#9175F6"/>
<path d="M27.623 67.3958L27.8929 67.4333C28.0749 67.6959 28.0806 68.1539 28.4238 68.4371C28.7469 68.7038 28.5322 69.3523 27.9332 69.4929C27.3342 69.6335 27.1001 69.6653 26.8834 70.0057C26.6667 70.3461 26.1511 70.8182 25.9492 70.9431C25.8429 71.1046 25.7962 71.2432 25.8091 71.3588C25.8389 71.6291 25.6056 71.8023 25.2491 71.9276C24.8926 72.0528 24.6554 71.795 24.5563 71.6122C24.4572 71.4293 24.4318 71.5521 23.9412 71.6742C23.7756 71.7153 23.6999 71.909 23.6725 72.1507L23.6161 71.9135C23.3885 70.7187 24.1261 69.3209 24.8 68.6893C25.4743 68.0572 26.6248 67.2435 27.623 67.3958Z" fill="#4334A5"/>
<path d="M45.7718 56.377C45.9901 56.7858 45.9756 57.7703 45.2808 58.9123C44.5859 60.0547 43.3021 61.2576 42.0018 61.6382C40.7015 62.0189 39.8632 60.2936 39.7146 59.5061C39.5659 58.7186 39.8265 57.2692 40.7865 56.2771C41.7464 55.2849 42.7776 54.8237 43.8548 54.9912C44.9323 55.1584 45.5535 55.9681 45.7718 56.377Z" fill="#6645BD"/>
<path d="M45.5305 56.035C45.7488 56.4438 45.7114 57.3945 45.0157 58.4092C44.32 59.4239 42.8835 60.8898 41.5828 61.2705C40.2825 61.6511 39.8636 60.2936 39.7149 59.5061C39.5663 58.7186 39.8269 57.2692 40.7868 56.2771C41.7468 55.2849 42.778 54.8237 43.8551 54.9912C44.9323 55.1584 45.3122 55.6261 45.5305 56.035Z" fill="#7857DD"/>
<path d="M43.8548 54.9908C44.1206 55.0323 44.3442 55.0919 44.5335 55.1644C43.5982 55.4029 43.7351 55.7981 44.1126 55.9834C44.5291 56.188 45.6087 56.7012 44.2854 57.5411C44.0328 57.7014 43.7037 58.2452 43.309 58.7306C43.1043 58.9824 42.7454 59.442 42.2326 60.1095C41.7267 60.6569 41.4024 60.323 40.7099 60.2058C40.2789 60.1329 40.235 60.613 40.7051 61.2342C40.0747 60.9562 39.8229 60.0793 39.7146 59.5053C39.5659 58.7177 39.8265 57.2684 40.7865 56.2762C41.7464 55.2845 42.7776 54.8232 43.8548 54.9908Z" fill="#4D34B6"/>
<path d="M42.4082 55.1464L42.6797 55.1129L42.9089 55.121C43.4386 55.2257 43.6324 56.074 43.9156 56.1022C44.1988 56.1304 44.5722 56.3508 44.7821 56.6533C44.9919 56.9558 44.1859 57.4424 43.9176 57.4662L43.3122 57.4666C42.9794 57.4722 42.6322 57.5109 42.5508 57.6837C42.4082 57.9858 42.1214 58.7846 42.2282 59.1351C42.3349 59.4856 42.3297 59.9734 41.9482 60.2525C41.5667 60.5317 40.6088 60.0149 40.4364 59.8691C40.3023 59.7559 39.8829 59.2318 39.777 58.6106L39.7528 58.3089C39.8886 57.6277 40.2128 56.8708 40.7869 56.2775C41.3073 55.7385 41.8495 55.3562 42.4082 55.1464Z" fill="#311B8E"/>
<path d="M20.1588 67.3515C19.6999 67.7494 19.1324 68.336 19.3056 68.5539C19.4788 68.7718 21.6158 70.3706 22.3453 70.6925C23.0748 71.0143 23.7346 71.2 24.473 70.9946C25.2114 70.7892 26.2651 70.4169 26.7566 69.5573C27.2484 68.6977 27.1497 67.422 26.7945 66.6936C26.4392 65.9649 25.1364 63.7555 24.8951 63.4251C24.6535 63.0948 24.1568 62.5212 24.2784 62.1933C24.0126 62.0213 23.8204 62.0737 23.6625 62.238C23.5046 62.4024 22.5564 64.2779 22.2148 64.7073C21.8732 65.1363 20.6176 66.9535 20.1588 67.3515Z" fill="#4E2FBB"/>
<path d="M20.1588 67.3515C19.6999 67.7494 19.1324 68.336 19.3056 68.5539C19.4788 68.7718 21.4937 70.162 22.2232 70.4842C22.9527 70.8061 23.6109 71.0035 24.3493 70.798C25.0877 70.5926 26.1415 70.2204 26.6329 69.3607C27.1248 68.5011 27.0261 67.2254 26.6708 66.4971C26.3155 65.7688 25.1364 63.7555 24.8947 63.4251C24.6531 63.0948 24.1564 62.5212 24.278 62.1933C24.0122 62.0213 23.82 62.0737 23.6621 62.238C23.5042 62.4024 22.556 64.2779 22.2144 64.7073C21.8732 65.1363 20.6176 66.9535 20.1588 67.3515Z" fill="#7B4EE4"/>
<path d="M23.3575 62.7396L24.9592 65.2955C25.1388 65.5911 25.2794 65.8296 25.3817 66.0113L25.4708 66.1736C25.8901 66.9628 26.4561 68.1922 25.8788 69.1561C25.3016 70.1201 24.3014 70.2877 23.0232 69.9561C22.2502 69.7555 21.1424 69.0333 19.7003 67.7889C19.8425 67.6359 20.0065 67.4832 20.1583 67.3515C20.3114 67.2189 20.5527 66.9285 20.8194 66.5845L22.2143 64.7073C22.4568 64.4032 23.0035 63.3728 23.3575 62.7396Z" fill="#8754ED"/>
<path d="M23.8554 69.1694C23.6967 69.432 23.8518 70.0419 24.0544 70.2365C24.2571 70.431 24.9882 70.2933 25.0329 69.9062C25.0776 69.519 24.823 69.0816 24.4919 68.9458C24.16 68.8105 24.0138 68.9067 23.8554 69.1694Z" fill="#483C9D"/>
<path d="M25.225 68.0963C25.3039 68.3928 25.8502 68.7049 26.1305 68.6945C26.4109 68.684 26.8198 68.062 26.5728 67.7611C26.3255 67.4602 25.8341 67.3394 25.5062 67.4832C25.1783 67.627 25.146 67.7998 25.225 68.0963Z" fill="#483C9D"/>
<path d="M23.3575 62.7396L24.1184 63.9573L22.0463 69.53C21.3998 69.161 20.6179 68.5805 19.7007 67.7889C19.8429 67.6359 20.0068 67.4832 20.1587 67.3515C20.3118 67.2189 20.5531 66.9285 20.8197 66.5845L22.2147 64.7073C22.4568 64.4032 23.0034 63.3728 23.3575 62.7396Z" fill="#9D6CFA"/>
<path d="M24.0847 69.2629C23.9928 69.335 24.0307 69.7507 24.2595 70.3211C24.4883 70.8915 24.8778 71.5606 24.9632 71.6468C25.0486 71.733 25.5171 71.561 25.5284 71.3587C25.5397 71.1565 24.6732 69.4333 24.5689 69.2467C24.4645 69.0602 24.1761 69.1904 24.0847 69.2629Z" fill="#7A00FE"/>
<path d="M25.7878 67.6467C25.511 67.6641 25.3209 67.8836 25.4337 68.0753C25.5469 68.2671 27.0663 69.02 27.2033 69.1271C27.3402 69.2343 27.7757 69.3531 28.0154 69.0864C28.2551 68.8198 28.2402 68.6212 27.9973 68.5583C27.7544 68.4955 26.4609 67.8252 26.1555 67.7144C25.8502 67.6036 26.0645 67.6294 25.7878 67.6467Z" fill="#7A00FE"/>
<path d="M42.8912 58.0913C43.5816 57.2631 42.9875 55.3119 42.1939 54.1215C41.4003 52.9312 39.2303 50.6758 38.9762 50.5408C38.722 50.4059 38.6334 49.8886 38.349 50.0369C38.0646 50.1851 35.4273 53.906 34.9745 54.5699C34.5217 55.2341 34.1109 55.5584 34.0259 55.993C33.9409 56.4277 35.2247 57.4005 36.015 57.8376C36.8053 58.2746 38.4271 59.0968 39.7516 59.0839C41.0769 59.0706 42.2008 58.9191 42.8912 58.0913Z" fill="#784CDF"/>
<path d="M37.7299 50.7716C37.9933 50.9074 38.208 51.0395 38.3736 51.1676C39.2465 51.8395 40.9641 53.6385 41.8221 55.1539C42.6801 56.6694 42.2234 57.817 41.3939 58.1868C40.5641 58.5566 38.9234 58.3967 37.0616 57.4903C35.6738 56.8148 34.7474 55.8621 34.3453 55.3876L34.7449 54.8869L36.444 52.4977C36.8179 51.9801 37.2042 51.4532 37.5325 51.0198L37.7299 50.7716Z" fill="#6D45D6"/>
<path d="M40.0529 57.384C39.8942 57.6466 40.1089 58.1795 40.3111 58.3741C40.5137 58.5687 41.2384 58.4253 41.205 58.0571C41.1715 57.6889 40.9895 57.272 40.6579 57.1362C40.3268 57.0009 40.2116 57.1213 40.0529 57.384Z" fill="#302387"/>
<path d="M41.1438 56.2311C41.2482 56.5195 41.7013 56.6638 42.022 56.5788C42.3426 56.4934 42.5259 55.8408 42.219 55.6349C41.912 55.4291 41.6735 55.4251 41.3597 55.5975C41.0451 55.7691 41.0391 55.9423 41.1438 56.2311Z" fill="#302387"/>
<path d="M37.7299 50.7716C37.9933 50.9074 38.208 51.0395 38.3736 51.1676L38.7502 51.4814C38.8187 51.5422 38.89 51.6067 38.9633 51.6748L36.2866 57.0593C35.3246 56.4539 34.6668 55.7675 34.345 55.3876L34.7446 54.8869L36.4437 52.4977L37.5321 51.0198L37.7299 50.7716Z" fill="#895BE9"/>
<path d="M38.1758 51.0278L35.6783 54.0998C35.3649 54.4772 35.1277 54.7564 34.9669 54.9372C34.7111 55.2252 34.6104 55.2422 34.6648 54.9884L34.7446 54.8869L36.4437 52.4977L37.5321 51.0198L37.7299 50.772C37.8987 50.8586 38.0473 50.944 38.1758 51.0278Z" fill="#AD90F5"/>
<path d="M39.887 51.5004L39.3299 50.8482L39.9877 51.5137C40.7442 52.3068 41.7174 53.4061 42.194 54.1211C42.9875 55.3115 43.5817 57.2628 42.8912 58.091C42.2008 58.9192 41.0769 59.0702 39.7524 59.0831C38.428 59.096 36.8062 58.2738 36.0159 57.8368C35.327 57.4557 34.2632 56.6678 34.0577 56.184C35.0684 57.0456 36.9303 58.0873 38.0912 58.4011C39.3472 58.7403 40.4771 58.806 41.2244 58.6122C41.9716 58.4185 42.3563 57.9302 42.5936 57.2696C42.8308 56.609 42.4933 55.7554 41.8971 54.3802C41.6079 53.7135 40.938 52.7536 39.887 51.5004Z" fill="#4E34AF"/>
<path d="M40.3776 57.3466C40.1641 57.4231 40.0102 57.6346 40.3884 58.3359C40.7667 59.0368 41.2718 60.2344 41.7145 60.0181C42.1572 59.8022 41.748 59.2443 41.6618 59.0481C41.5756 58.8519 40.9737 57.6866 40.8662 57.5097C40.7582 57.3333 40.5911 57.27 40.3776 57.3466Z" fill="#9761E9"/>
<path d="M41.769 55.6422C41.4379 55.6986 41.1749 55.935 41.2893 56.1796C41.4037 56.4245 41.7417 56.3544 42.279 56.4901C42.8164 56.6259 43.5032 57.0086 43.6152 57.133C43.7272 57.2575 44.4257 57.0609 44.474 56.7886C44.5223 56.5163 43.7578 56.3069 43.3948 56.1622C43.0319 56.0176 42.1002 55.5858 41.769 55.6422Z" fill="#9761E9"/>
<path d="M59.6398 63.426C59.4742 62.9224 59.5939 60.7593 59.5113 59.4082C59.4287 58.0571 60.1639 50.1114 60.4596 48.6472C60.7548 47.1829 60.9425 46.679 61.4243 46.1602C61.9061 45.6417 63.3345 44.1134 63.3192 43.545C63.3035 42.9762 63.1029 41.5567 63.4622 40.8107C63.8215 40.0646 69.7406 33.0877 70.7896 31.8547C71.8385 30.6221 74.8746 26.995 75.3604 26.5004C75.8462 26.0057 76.3824 25.8462 77.3181 26.0774C78.2539 26.3086 80.9355 27.3854 81.2763 27.4933C81.617 27.6013 82.4573 27.0567 82.5306 27.1207C82.5798 27.1634 83.5989 28.4025 85.5889 30.8376L81.9796 36.6555L69.793 53.4617C63.1347 60.4398 59.7502 63.7615 59.6398 63.426Z" fill="#DDDDE1"/>
<path d="M59.6398 63.426C59.4743 62.9224 59.8832 60.9434 59.801 59.5919C59.7184 58.2408 60.4535 50.2951 60.7492 48.8309C61.0445 47.3666 61.2322 46.8627 61.714 46.3438C62.1958 45.8254 63.6242 44.2971 63.6089 43.7287C63.5936 43.1603 63.3925 41.7404 63.7519 40.9944C64.1112 40.2483 70.0303 33.2714 71.0792 32.0384C72.1282 30.8053 75.0575 27.2677 75.5429 26.7727C76.0287 26.278 76.5649 26.1185 77.5006 26.3497C78.4364 26.5809 81.118 27.6577 81.4588 27.7656C81.7996 27.8736 82.4574 27.0563 82.5307 27.1203C82.5798 27.163 83.599 28.4021 85.5889 30.8372L81.9796 36.6551L69.793 53.4613C63.1347 60.4398 59.7502 63.7615 59.6398 63.426Z" fill="#B9BDC1"/>
<path d="M81.4584 27.7657C81.7991 27.8736 82.457 27.0563 82.5303 27.1203L85.5885 30.8372L82.3268 36.0928L80.8843 30.9858C80.5133 29.675 79.6871 28.2241 78.4058 26.6325L79.9087 27.182C80.6543 27.4631 81.3025 27.7165 81.4584 27.7657Z" fill="#CCC8C8"/>
<path d="M70.8875 5.22807C71.7536 4.82806 73.2565 4.80873 74.2833 6.38618C75.3101 7.96364 75.5756 9.65912 75.1582 11.063C74.7409 12.4672 73.2174 14.203 73.1562 14.5567C73.0954 14.9103 74.5468 16.3053 75.0531 16.775C75.5594 17.2447 75.5631 18.0548 76.0102 18.2932C76.4573 18.5317 77.7476 17.8956 79.8938 18.1051C82.0401 18.3146 83.1966 19.4364 83.7388 20.6304C84.281 21.8244 83.6038 24.1475 83.282 25.708C82.9601 27.2685 83.9579 27.9316 84.7853 28.7119C85.6127 29.4921 85.9354 30.0408 85.7034 30.5463C85.4713 31.0523 85.2719 30.8851 85.1628 30.817C85.0536 30.7485 84.1456 29.565 83.7879 29.0522C83.4298 28.5394 82.8397 27.7475 82.7136 27.4869C82.5879 27.2258 82.5456 27.0297 82.4469 26.6043C82.3482 26.1789 82.6395 24.4758 82.8912 23.762C83.143 23.0478 83.2304 21.4324 82.6217 20.1724C82.0131 18.9124 80.1778 18.8733 79.3488 18.7537C78.5198 18.634 76.689 19.1287 76.0022 19.0554C75.3153 18.9821 74.1367 17.7385 73.7592 17.3128C73.3818 16.887 71.9034 15.5339 71.5602 15.1794C71.217 14.8249 70.5745 14.0994 70.4275 13.7792C70.2804 13.459 70.3183 12.5603 70.3099 12.1321C70.3014 11.7039 69.4466 10.8076 68.9576 9.05046C68.4694 7.29415 70.0214 5.62807 70.8875 5.22807ZM71.2553 5.87903C70.4142 6.27057 69.727 7.54148 69.7403 8.6565C69.7536 9.77151 70.6527 10.976 71.1594 11.5814C71.6662 12.1868 71.495 12.8712 71.5888 13.295C71.6827 13.7188 72.1838 14.2614 72.3481 14.1466C72.5125 14.0318 72.8799 13.4706 73.298 12.8616C73.7161 12.2521 74.2176 11.3067 74.5294 10.1538C74.8412 9.00131 74.3127 7.65709 73.7782 6.85467C73.2444 6.05224 72.0964 5.48748 71.2553 5.87903Z" fill="#2C2F28"/>
<path d="M78.0617 26.9237L79.3157 27.3479C80.8178 27.8313 81.8914 27.9405 82.7965 27.5747L82.8807 27.5348L83.4515 28.2269C83.3448 28.2805 83.2324 28.3272 83.1192 28.3731C82.1045 28.7832 81.0064 28.7288 79.5961 28.332L78.6039 28.0182L78.1685 27.8668C76.9229 27.4317 76.7473 27.4514 76.0601 28.0682L75.5654 28.5661L74.9209 29.2613C73.5751 30.7361 71.4091 33.2219 69.7837 35.2203L68.1446 37.2803L65.6306 40.5674C65.6076 40.6004 65.5899 40.6266 65.5778 40.6451C65.4517 40.8433 65.177 43.3025 65.0469 43.9463C64.9091 44.6262 64.5579 45.3255 64.0439 46.0397C63.8529 46.3052 63.6459 46.5638 63.4248 46.8172L62.9381 47.3453L62.4693 47.8138L62.4475 47.8488L62.3847 48.0023L62.3182 48.2605C62.1921 48.8369 62.0419 49.9991 61.836 52.0559L61.658 53.9061C61.4843 55.7743 61.3772 57.6024 61.3365 59.3897C61.4835 59.295 66.0528 54.4724 67.9243 52.5973C68.5801 51.9403 68.0935 51.2414 67.3293 51.6132C66.5652 51.985 65.9053 52.0486 65.6056 51.5951C65.001 50.6802 64.8326 49.4742 65.797 48.0542C66.0995 47.6091 67.6371 45.8278 67.3176 43.9765C66.9978 42.1251 67.0642 41.1015 67.606 40.3241C68.6687 38.7994 72.8142 32.757 76.2152 29.6215C77.0833 28.821 77.555 28.726 78.6619 28.9922C80.5794 29.4535 80.179 34.8868 81.5175 33.8394C82.9439 32.7236 84.3679 30.9592 84.9359 30.4936C85.352 30.1524 86.0485 31.0329 87.0246 33.1349C69.8889 52.1896 61.3232 61.8409 61.3268 62.0886L60.7705 62.6074C60.6868 62.6836 60.6078 62.7549 60.5333 62.8205C60.4974 62.7609 60.4777 62.6928 60.4757 62.6199C60.4096 59.7925 60.518 56.8612 60.8004 53.8259L61.125 50.5437L61.231 49.6389C61.4022 48.2838 61.55 47.6635 61.7514 47.3457L61.8727 47.1962L62.4543 46.6049C62.7822 46.256 63.0811 45.9016 63.3438 45.5366C63.7925 44.913 64.0918 44.3169 64.2014 43.7751L64.4975 41.7472C64.6095 41.0306 64.7355 40.3623 64.8499 40.1823L65.1488 39.7641L66.5305 37.949C67.113 37.1957 67.7825 36.3401 68.4351 35.5216L69.8735 33.7536L71.0881 32.3135C73.0095 30.0634 74.9737 27.8841 75.4833 27.4269C76.3433 26.6571 76.8372 26.5399 78.0617 26.9237Z" fill="#AA7EF7"/>
<path d="M0.316443 85.8616C0.113823 85.8217 -0.500081 86.9549 0.845751 89.6393C2.19199 92.3237 3.9213 92.9227 5.0621 93.5491C6.2029 94.1755 10.2891 95.2136 13.3723 94.7495C16.4556 94.2854 17.9605 93.7102 18.4866 93.6566C19.0127 93.6031 20.2151 93.4516 20.5309 93.1966C20.8467 92.9412 21.6218 92.9142 22.091 92.9078C22.5603 92.9014 23.4683 92.3088 23.6826 92.2995C23.8969 92.2899 24.4037 92.3277 25.2919 91.8834C26.1797 91.4391 30.1314 89.4616 30.6885 89.1829C31.2456 88.9041 31.014 88.3047 30.7397 87.8435C30.4653 87.3827 29.7495 86.6612 29.0974 86.5653C28.4448 86.4699 18.2183 90.7434 15.1315 91.4053C12.0446 92.0671 8.51591 92.6794 7.11368 92.3535C5.71145 92.0276 4.93481 91.5015 4.29754 91.029C3.66028 90.5565 2.64033 89.7674 2.08564 88.7213C1.53095 87.6751 0.519063 85.9015 0.316443 85.8616Z" fill="#E2E2E2"/>
<path d="M0.596371 86.1726C0.991943 86.7349 1.66828 87.9329 2.08521 88.7205C2.56054 89.6171 3.37787 90.3249 4.00305 90.8067L4.29711 91.0286C4.93437 91.5016 5.71061 92.0276 7.11324 92.3531C8.51547 92.679 12.0438 92.0667 15.131 91.4049C18.2183 90.743 28.4447 86.4695 29.0969 86.565C29.7495 86.6604 30.4649 87.3819 30.7392 87.8431C30.9829 88.2528 31.1932 88.772 30.8456 89.0782L30.6881 89.1825L25.2915 91.883C24.4036 92.3273 23.8965 92.2895 23.6822 92.2991C23.4679 92.3088 22.5599 92.901 22.0906 92.9074C21.6995 92.913 21.096 92.9324 20.723 93.0867L20.5305 93.1962C20.2598 93.415 19.3377 93.5576 18.7484 93.6277L18.4862 93.6567C17.9601 93.7102 16.4551 94.2855 13.3719 94.7495C12.3693 94.9006 11.2611 94.8925 10.182 94.7918C10.5807 94.7298 10.9699 94.6565 11.3284 94.5634L12.6247 94.2387C13.4235 94.0563 13.3199 94.1533 13.7034 94.2262C14.2263 94.3253 14.6972 93.821 15.5882 93.5249C16.4793 93.2285 16.3025 93.7521 17.0811 93.6486C17.7486 93.5596 18.0455 93.2418 18.298 93.1906L18.4221 93.1894C18.7101 93.2498 18.8652 92.8268 19.1001 92.3527C19.3349 91.8786 20.2872 92.5175 20.8427 92.4579C21.3982 92.3986 20.8934 91.5652 21.6004 91.7102C22.3073 91.8548 22.8314 91.4967 22.9547 90.9211C23.0779 90.3455 24.4089 90.9396 25.2008 90.9042C25.9932 90.8687 25.6355 90.5086 25.6395 89.8766C25.6435 89.2445 26.3988 89.9926 27.0316 89.9877C27.6645 89.9829 27.6053 89.8109 27.5428 89.3988C27.4804 88.9867 28.2599 89.4105 28.887 89.5571C29.5142 89.7033 30.6051 89.0262 30.3014 88.0639C29.9976 87.1015 29.569 86.8707 28.7255 87.166C27.882 87.4608 23.2898 89.2578 20.5293 90.2987C17.7687 91.3396 14.7117 92.3084 11.5467 92.7358C9.88507 92.9602 8.3902 93.0701 7.23289 92.8764C6.18555 92.7012 5.45563 92.1674 5.31787 92.053C5.02783 91.8121 4.47274 91.2458 3.51442 90.5682C2.62982 89.9426 0.949649 87.4443 0.626987 86.4473L0.574219 86.2362L0.596371 86.1726Z" fill="#B7B7B6"/>
<path d="M30.7397 87.8427C30.9834 88.2523 31.1936 88.7716 30.846 89.0777L30.6885 89.182L25.2919 91.8826C24.4041 92.3269 23.8969 92.289 23.6826 92.2987C23.4683 92.3084 22.5603 92.9005 22.091 92.907C21.8034 92.911 21.401 92.9227 21.0598 92.9899C21.1984 92.8904 21.3023 92.8079 21.4344 92.7454L21.6616 92.6669C21.9984 92.5867 22.6187 92.2983 23.0324 92.1488L23.2967 92.0679C23.6467 91.9946 24.2087 91.7098 24.3831 91.6945C24.5575 91.6791 25.1545 91.2824 25.4977 91.2602C25.8409 91.2381 26.4375 90.8377 26.4415 90.5931C26.4456 90.3486 27.7906 90.372 27.712 90.3124C27.6331 90.2527 27.648 90.0735 27.876 89.9607C28.104 89.8479 28.902 89.779 29.2601 89.6247L29.7153 89.3887C30.0754 89.1748 30.4778 88.896 30.5628 88.7434C30.6466 88.5931 30.6825 88.2402 30.6712 87.6852L30.6768 87.7444L30.7397 87.8427Z" fill="#727272"/>
<path d="M99.0146 42.1154C98.2577 40.6032 97.0609 39.9615 96.7121 39.8636C96.3636 39.7657 96.0341 38.7441 96.1368 37.984C96.2395 37.2239 95.5713 36.5782 94.6746 36.1914C93.7775 35.8051 84.5456 36.4859 83.9107 37.0132C83.2759 37.5405 70.415 50.5738 69.0159 52.0047C67.6169 53.4355 63.9545 57.3413 63.1541 58.1489C62.3537 58.9566 59.6491 61.3482 59.038 61.8255C58.4269 62.3028 48.1864 69.407 47.3086 69.8985C46.4309 70.3895 30.8062 79.0244 23.7133 82.4251C16.6203 85.8257 5.14672 90.8324 4.78781 91.178C4.42889 91.5236 5.63293 92.6697 7.31512 92.8377C8.99731 93.0056 12.8274 92.8824 18.941 90.6954C25.0547 88.5089 29.0011 86.8026 29.3818 86.7993C29.7624 86.7961 30.3824 87.2183 30.5608 87.6658C30.7393 88.1138 30.7651 88.5335 30.9681 88.4799C31.1711 88.4263 31.9647 88.0702 32.1254 87.7641C32.2861 87.458 32.9077 87.7295 34.0473 87.2698C35.1869 86.8102 36.1992 86.4239 37.4515 85.7975C38.7035 85.1707 51.2096 78.8774 52.8257 78.0685C54.4418 77.2597 55.5468 75.7845 56.1075 74.3481C56.6678 72.9116 57.3776 72.2465 57.9109 72.0826C58.4443 71.9186 58.8427 72.7315 59.2825 72.5591C59.7224 72.3867 59.9959 72.2747 60.1667 72.5047C60.3375 72.7348 61.287 73.3797 62.2586 73.08C63.2302 72.7803 65.2866 71.8324 68.22 70.3641C71.1533 68.8963 82.6987 63.1186 86.399 61.2664C90.0997 59.4146 90.6371 57.5282 90.9948 57.0766C91.3521 56.6251 92.4139 56.9578 92.6335 56.6802C92.853 56.4027 93.1845 55.6941 93.8198 55.6627C94.455 55.6313 95.1926 55.1314 95.2321 54.7676C95.2716 54.4039 95.7541 54.1731 95.7932 54.2871C95.8319 54.4011 96.7262 54.2234 96.8909 53.4214C97.0557 52.6194 97.0512 52.3032 97.5278 52.2556C98.0043 52.2081 98.1602 51.5724 98.0442 51.1076C97.9282 50.6427 98.586 51.019 98.7125 50.7732C98.7967 50.6093 98.8958 50.2568 99.009 49.7158C99.61 48.2987 99.9363 47.1523 99.9878 46.2769C100.066 44.9645 99.7715 43.6276 99.0146 42.1154Z" fill="#DFDFDF"/>
<path d="M83.9112 37.0132C84.546 36.4859 93.7779 35.8051 94.675 36.1914L94.9429 36.3179C93.6865 37.4269 90.6907 41.6968 89.4882 41.9881C88.1001 42.324 87.8455 41.3492 87.3001 41.2457C86.7543 41.1417 85.7645 41.667 84.237 43.2131C83.5824 43.6787 81.292 43.7919 77.3649 43.5522L83.6445 37.263C83.7794 37.132 83.8705 37.047 83.9112 37.0132Z" fill="#E2E2E2"/>
<path d="M32.0931 86.1178L32.6631 85.8516L33.0748 85.6751C33.2476 85.6038 33.3672 85.5704 33.418 85.6336C33.5364 85.7811 34.2156 86.1774 34.7775 86.1118L35.1755 86.0546L35.9103 85.9261C36.618 85.7923 37.5268 85.5941 38.3497 85.346L37.4519 85.7972C36.1999 86.424 35.1872 86.8099 34.0476 87.2695C33.0345 87.6779 32.4311 87.5088 32.1966 87.6812L32.1257 87.7637C31.9646 88.0699 31.1714 88.426 30.9684 88.4796C30.8149 88.5198 30.763 88.2911 30.6699 87.9837C30.9906 87.879 31.2524 87.6792 31.4558 87.3835C31.8047 86.8763 31.6133 86.3293 32.0931 86.1178Z" fill="#9C9C9C"/>
<path d="M33.8095 86.2987L34.1858 86.4143C34.5713 86.5279 35.1256 86.6459 35.7652 86.4747L36.2627 86.3531C35.507 86.6906 34.8057 86.9638 34.048 87.2695C33.0349 87.678 32.4315 87.5088 32.197 87.6812L32.1261 87.7638C31.965 88.0699 31.1719 88.426 30.9688 88.4796C30.852 88.5106 30.7936 88.3845 30.7316 88.1871L31.2202 87.972C31.393 87.8902 31.5557 87.7996 31.6452 87.7033C31.8893 87.4419 32.0411 86.9472 32.471 86.6959C32.9008 86.4449 33.478 86.2101 33.8095 86.2987Z" fill="#404040"/>
<path d="M97.5652 45.2703C96.3337 47.6594 94.1089 50.3124 93.3263 52.2432C92.5774 54.0901 94.8155 53.1818 96.8554 51.674L97.1321 51.4649C97.6916 51.0323 98.2741 50.6319 98.88 50.2637C98.8208 50.5042 98.764 50.6738 98.7128 50.7737C98.5863 51.0198 97.9285 50.6432 98.0445 51.108C98.1605 51.5729 98.0046 52.2085 97.5281 52.2561C97.0516 52.3036 97.056 52.6198 96.8912 53.4218C96.743 54.1437 96.0038 54.3596 95.8294 54.3125L95.7935 54.2875C95.7605 54.19 95.4008 54.3455 95.2739 54.621L95.2324 54.7681C95.1929 55.1318 94.4554 55.6317 93.8201 55.6631C93.1849 55.6946 92.8529 56.4027 92.6338 56.6807C92.4147 56.9586 91.3524 56.6259 90.9951 57.0771C90.6563 57.5049 90.156 59.2201 86.958 60.9744L86.3997 61.2668L67.5593 70.6941C64.9772 71.9747 63.156 72.8037 62.2593 73.0804C61.3957 73.3471 60.5493 72.8669 60.2521 72.5954L60.1675 72.5052C59.9967 72.2752 59.7236 72.3872 59.2833 72.5596C58.843 72.732 58.445 71.9191 57.9117 72.083C57.4375 72.2288 56.824 72.7706 56.3 73.8977L56.1082 74.3485C55.9418 74.7743 55.7279 75.2037 55.4669 75.6182C55.6063 74.081 55.8395 73.0889 56.1634 72.6389C56.7668 71.8006 58.8031 71.3753 59.8726 70.7888L60.8655 70.1994C62.5912 69.1489 65.6519 67.2439 66.812 66.9442C68.1583 66.5962 71.4739 65.2266 73.66 63.9174L74.143 63.6169C76.29 62.2235 88.0473 53.8106 88.6293 53.6611C89.2114 53.5117 89.2146 57.007 90.1653 56.4897C91.1164 55.9725 91.3685 52.3721 91.4527 51.4033C91.462 51.2961 92.3301 48.8603 90.7824 50.3068C89.244 51.7449 81.6955 56.893 87.6098 50.3459C93.524 43.7988 94.2999 42.7329 95.3593 41.3883L95.5764 41.1071C96.8079 39.4721 98.797 42.8812 97.5652 45.2703Z" fill="#D4D4D4"/>
<path d="M97.2474 52.341C97.0432 52.4921 97.0146 52.8204 96.8913 53.4214C96.7431 54.1433 96.0039 54.3592 95.8295 54.3121L95.7937 54.2871C95.7606 54.1896 95.4009 54.3451 95.274 54.6206L95.2325 54.7677C95.193 55.1314 94.4555 55.6313 93.8202 55.6627C93.185 55.6941 92.853 56.4023 92.6339 56.6803C92.4148 56.9582 91.3525 56.6255 90.9952 57.0766L90.8647 57.2789C90.5014 57.9085 89.7799 59.4259 86.9577 60.9736L86.3994 61.266L67.559 70.6933C64.9769 71.9738 63.1557 72.8028 62.259 73.0796C61.3954 73.3463 60.549 72.8661 60.2518 72.5946L60.1672 72.5044C59.9964 72.2744 59.7233 72.3863 59.283 72.5587C59.0699 72.6421 58.8669 72.4947 58.653 72.3392L60.9732 70.9382C62.7722 69.8675 64.1289 69.1005 65.0433 68.6373C67.0248 67.6338 72.1137 65.6854 73.5985 64.8958C75.0833 64.1067 76.5572 64.1675 76.948 64.0108C77.3387 63.8541 77.6102 62.5973 78.7357 62.6964C79.7907 62.7895 79.321 64.0213 80.1951 62.9196L80.3889 62.667C81.5265 61.1435 82.0981 61.8154 82.3124 61.7043C82.5267 61.5931 83.2304 61.1182 83.1909 60.5973C83.1514 60.0765 82.7845 59.9693 83.6103 60.2569C84.4361 60.5445 85.8286 60.5341 85.8612 59.9282C85.8939 59.3228 85.2111 58.358 86.4038 58.4869C87.5966 58.6162 88.2161 58.9558 88.6351 58.7427C89.054 58.5296 88.76 58.5312 88.5211 57.9294C88.2826 57.3276 88.6629 56.5119 89.2615 56.5167C89.4145 56.5179 89.5773 56.4784 89.7344 56.4128C89.8496 56.5437 89.9914 56.5824 90.1642 56.4885C90.4611 56.327 90.6895 55.8653 90.8663 55.2772C91.2313 55.1459 91.9419 55.1628 92.4591 55.1254C93.1902 55.073 93.1572 53.8146 94.1739 54.2673C95.1906 54.7201 95.423 54.0603 95.4702 52.9316C95.496 52.3306 96.0881 52.1336 97.2474 52.341Z" fill="#B0B0B0"/>
<path d="M59.1226 71.6009C59.747 71.855 64.346 69.6681 65.3221 69.4494C66.2981 69.2306 66.7231 69.9344 66.9603 69.5686C67.1972 69.2032 66.7553 68.8145 67.8405 68.5692L69.0945 68.2808C69.5811 68.1628 69.9622 68.0556 70.1946 67.9501L70.4907 67.7918C71.3302 67.3209 73.5376 66.0145 75.0071 65.4824L75.358 65.3664C77.0225 64.8761 81.3097 62.4245 82.7099 62.1913C83.2271 62.1051 83.4475 62.3516 83.4161 62.7625L67.5605 70.6933C64.9784 71.9739 63.1573 72.8029 62.2606 73.0796C61.3969 73.3463 60.5506 72.8661 60.2533 72.5946L60.1687 72.5044C59.9979 72.2744 59.7248 72.3864 59.2845 72.5588C58.8442 72.7312 58.4463 71.9183 57.9129 72.0822C57.4388 72.228 56.8253 72.7698 56.3012 73.8969L56.1095 74.3477C56.0495 74.5016 55.9834 74.6559 55.9109 74.8097C56.0273 73.7435 56.3902 72.5604 56.6332 72.3501C56.9639 72.0621 58.4982 71.3467 59.1226 71.6009Z" fill="#828282"/>
<path d="M90.925 57.1806L90.5899 57.7566C90.1287 58.5171 89.2155 59.7361 86.958 60.974L86.3997 61.2664L67.5593 70.6937C64.9772 71.9743 63.156 72.8033 62.2593 73.08C61.8215 73.215 61.388 73.1582 61.0283 73.0341C61.5536 72.8109 62.1796 72.4625 62.5659 72.0778C63.2426 71.4035 64.6328 70.4431 65.5258 70.28L66.6473 70.0983C67.181 69.9988 67.5967 69.8635 67.5436 69.5867C67.455 69.1255 67.5484 68.8677 68.5144 68.7843L69.3398 68.7154C69.8832 68.6622 70.4024 68.576 70.8375 68.3496L71.1468 68.1519C71.8272 67.6209 72.0967 68.0838 72.746 67.5025L73.142 67.1372C73.5541 66.7384 73.7676 66.4379 73.5344 66.2723C73.2347 66.0592 74.4588 66.1897 74.6627 66.0532C74.8375 65.9363 74.7791 65.7156 75.0321 65.7317L75.1871 65.7611C75.621 65.8836 76.3163 65.5327 75.994 65.3575C75.7434 65.2213 75.9312 65.2354 76.4762 65.1512L77.0289 65.0493C77.9151 64.858 77.1582 65.3112 78.328 64.713L80.5894 63.552C81.0837 63.2906 81.412 63.0956 81.5485 62.9462L82.6265 61.722C83.1054 61.3204 83.4305 61.1581 83.6017 61.2338L84.177 61.5145C84.4545 61.6398 84.7059 61.72 84.6535 61.5432L84.4529 61.0239C84.3993 60.8491 84.3977 60.7021 84.5629 60.6726L84.72 60.6743C85.2956 60.7532 86.2201 60.2622 86.6185 60.0785C87.0169 59.8948 87.1502 60.2324 87.4422 59.8384C87.6976 59.494 87.756 58.9913 88.1971 58.8595L88.4114 58.8273C89.0539 58.81 90.175 58.1445 90.3341 57.6837C90.4207 57.4315 90.5742 57.295 90.925 57.1806Z" fill="#404040"/>
<path d="M52.5087 73.345C55.0589 72.0878 55.4392 72.9297 55.5758 73.3757C55.6261 73.54 55.8831 74.4528 56.1236 74.3018L56.1079 74.3481C55.5476 75.7846 54.4426 77.2597 52.8261 78.0686L37.4519 85.7975C36.7579 86.1448 36.1371 86.4183 35.5281 86.6716L35.0741 86.1786C35.041 86.146 35.0141 86.121 34.9927 86.1029L34.4014 85.6686C34.0638 85.4108 33.6767 85.0696 33.4378 84.6543C33.072 84.0183 33.7097 83.4624 35.6658 82.2301L36.5859 81.6585C39.2586 80.0114 49.9584 74.6023 52.5087 73.345ZM48.4833 69.1339C46.1658 70.9253 42.0018 73.5477 36.9186 76.6144L35.5917 77.3946C27.733 81.9095 14.4181 87.8962 11.801 89.2195C9.15038 90.5597 9.97134 91.313 12.1973 90.9803C14.4233 90.6479 16.3029 90.1134 18.9257 89.2956L20.0842 88.921C23.1473 87.9067 28.1528 86.3176 28.7034 86.2765C29.2488 86.2362 29.3129 86.4578 29.6948 86.8678C29.582 86.8231 29.4748 86.7985 29.3818 86.7994C29.0011 86.8022 25.0551 88.5089 18.941 90.6955C12.8274 92.882 8.99731 93.0052 7.31512 92.8377C5.63293 92.6697 4.42889 91.5237 4.78781 91.178C5.13665 90.8421 16.008 86.0928 23.1288 82.7042L24.7312 81.93C32.1963 78.2563 46.4707 70.3674 47.3086 69.8985L48.4833 69.1339ZM60.8539 60.265C61.0473 60.9502 61.0985 61.4815 61.0066 61.859C60.7585 62.8797 59.2982 63.9758 58.7669 64.3992C58.2352 64.8225 58.9216 63.3345 58.6437 62.6976C58.5852 62.5639 58.2086 62.6243 57.6463 62.8153L59.0384 61.8247L60.035 60.982L60.8539 60.265Z" fill="#EDEDED"/>
<path d="M9.86137 90.2121L10.777 89.7528C10.9015 89.6924 11.0328 89.6296 11.1705 89.5639C9.30708 90.6846 10.1691 91.2832 12.1977 90.9802C14.4237 90.6479 16.3033 90.1134 18.9261 89.2956L24.2828 87.5639C26.4387 86.8831 28.3731 86.3011 28.7038 86.2769C29.2452 86.237 29.3125 86.4545 29.6863 86.8586C29.275 86.7172 28.9048 86.6165 28.6716 86.6374C27.8696 86.7095 13.353 92.1299 10.6437 92.1081C7.93426 92.0864 8.30486 91.0395 9.86137 90.2121Z" fill="#E7E7E7"/>
<path d="M96.265 39.201C96.3778 39.5494 96.5429 39.8157 96.7125 39.8636C97.0609 39.9615 98.2581 40.6032 99.015 42.1154C99.1472 42.3796 99.2652 42.6382 99.3695 42.8924C98.8676 42.3897 98.5063 42.656 97.5693 44.1327C96.5119 45.7996 93.9407 48.6057 93.0468 49.5551C92.451 50.188 92.2943 50.8244 92.2291 51.5068L92.0696 53.7006C91.9886 54.6396 91.8552 55.6148 91.5173 55.9044C91.0887 56.2726 90.6105 55.9568 90.3511 55.3848L90.2645 55.1592C90.0389 54.451 89.4226 53.8637 89.0254 53.6994C88.7773 53.5967 87.9048 54.19 86.7591 55.0778L84.4771 56.9067C82.4646 58.5433 78.2745 61.4727 76.2483 62.7021L75.101 63.3619C72.991 64.5478 69.2899 66.5768 68.7243 67.0594L67.9259 67.71C67.1328 68.3416 66.16 69.0876 66.3795 68.8439L66.595 68.6344C67.6319 67.6781 67.1884 67.4163 68.1495 66.7061C69.1106 65.9956 74.0662 63.2036 76.6914 61.5641L77.433 61.0827C80.3043 59.1645 85.8548 54.9671 87.0149 53.9624L87.1499 53.8412C87.9797 53.0545 88.9022 52.6363 89.7489 53.0657C90.5952 53.4947 91.0291 55.4408 91.1745 54.7044C91.3199 53.9681 91.3956 50.6665 91.6321 49.904C91.8689 49.1414 97.6132 43.6505 97.5794 42.5182C97.5455 41.3859 96.3572 40.9512 96.1139 40.5871C96.0128 40.4352 96.0249 40.1778 96.0921 39.8584L96.265 39.201Z" fill="#C8C8C8"/>
<path d="M93.5788 36.1834L93.5615 36.0807L94.1508 36.1049C94.4014 36.1234 94.5823 36.152 94.6749 36.1915C95.572 36.5778 96.2399 37.2239 96.1372 37.984C96.0345 38.7442 96.3636 39.7657 96.7124 39.8636C96.9698 39.9361 97.6905 40.3051 98.3547 41.1027L98.258 41.5265L98.229 41.715C98.1751 42.3132 97.6764 43.2235 97.1177 44.1472C96.5988 45.0048 93.9559 47.8991 92.9186 48.9767L92.7095 49.1914C91.8821 50.026 91.7806 50.3737 91.6775 51.7034C91.5744 53.0331 91.6606 54.2154 91.3323 55.1805C91.004 56.1457 90.5835 55.3481 90.5589 54.9675C90.5339 54.5868 89.9115 53.8057 89.3407 53.4436C88.8082 53.1056 88.2503 53.413 86.44 54.8893L86.0324 55.2236C83.8946 56.9876 79.418 60.1401 77.4675 61.407L76.763 61.8428C74.4762 63.2072 70.3081 65.3293 72.0753 64.2171L75.6983 61.946C77.6303 60.7178 79.7745 59.3063 81.2653 58.1465L82.394 57.2631C84.4718 55.6253 86.5371 53.9258 87.6146 52.8071L88.3881 51.9672C90.2036 50.03 95.6961 44.0965 96.6322 42.7216C97.6788 41.1849 96.5074 40.7337 96.0747 41.3178L94.888 42.6503C93.402 44.4953 89.7436 48.911 86.7405 52.0176C83.0551 55.8299 76.8073 60.3347 76.2945 59.9721C75.7821 59.6096 84.6325 51.7437 86.4533 49.7936L86.9298 49.2687C89.1957 46.7221 94.7418 39.9474 94.9702 39.037C95.2171 38.0537 94.1186 37.014 93.6876 36.3997C93.6401 36.3316 93.6042 36.2591 93.5788 36.1834Z" fill="#E7E7E7"/>
<path d="M68.1052 52.9493L67.9464 53.3727L65.6266 56.165C64.1333 57.9399 63.0977 59.1137 62.5192 59.6869C61.4151 60.7814 60.2368 61.502 59.3474 62.103L53.9032 65.9714C51.7393 67.4964 49.4947 69.0517 48.4869 69.6644L47.0617 70.4894C44.857 71.7776 40.8111 74.1744 36.3035 76.5515L33.8809 77.8083C27.5558 81.0502 16.435 86.5194 11.3623 88.6322L10.1776 89.1184C7.79205 90.0819 6.54652 90.4791 5.73926 90.6842L10.1466 88.6612C13.697 87.0523 18.3863 84.9407 22.2264 83.1308L24.7304 81.93C32.1955 78.2563 46.4699 70.3674 47.3078 69.8985L47.8891 69.5291C50.2698 67.9609 58.4918 62.2517 59.0372 61.8255C59.6483 61.3482 62.3528 58.9566 63.1533 58.1489L68.1052 52.9493ZM83.9111 37.0132C84.546 36.4859 93.7779 35.8051 94.675 36.1914C95.5721 36.5778 96.2399 37.2239 96.1372 37.984C96.0647 38.521 96.2077 39.188 96.4208 39.5683C96.2411 39.5022 96.1227 39.4116 96.1203 39.2734C96.1118 38.7441 95.5447 38.0883 95.0415 37.7322C94.6725 37.4708 93.5342 38.9886 92.913 39.8825L92.5021 40.4944C92.3998 40.6608 92.0449 40.5556 90.5041 40.003C88.9633 39.4503 86.3571 39.1518 86.1682 39.1208C85.9792 39.0894 85.1188 39.984 82.7687 43.1446L82.2197 43.8475C79.4124 47.3106 72.3114 54.5811 71.1219 55.7219L71.0147 55.823C70.195 56.5711 69.9122 56.8369 69.5412 56.559C69.2073 56.3092 68.9845 55.8069 69.1078 54.6915L69.1622 54.2963C69.2689 53.6369 69.2749 52.816 69.1807 51.8343L81.9486 38.9419C83.0302 37.8599 83.7705 37.13 83.9111 37.0132Z" fill="#ECECEC"/>
<path d="M52.9078 76.0424C53.3892 76.0218 53.4484 76.7759 53.8484 76.5153C54.2484 76.2547 54.2093 75.6686 54.756 75.5111C55.069 75.4208 55.4114 75.327 55.6414 75.3781C55.5008 75.6939 55.2277 76.0335 54.785 76.4198C53.6611 77.4003 51.3972 78.7763 49.0471 79.99L36.5753 86.2366C36.4138 86.3176 35.3544 86.2346 35.2488 86.1968C35.1937 86.177 35.0076 85.8217 34.8452 85.4129L34.9709 85.4813C35.2251 85.5982 35.7322 85.7593 36.4924 85.9659C35.8539 85.3468 35.7105 85.06 36.0613 85.1047C36.5878 85.172 37.3053 85.6541 37.5518 85.3589C37.7983 85.064 37.8426 84.2241 38.2124 84.1955C38.5822 84.1669 39.6154 84.2729 39.8765 84.0574C40.1375 83.8419 40.5045 82.5085 40.9166 82.5109L41.549 82.5286C41.9655 82.5254 42.4421 82.4638 42.7377 82.1645C43.211 81.6851 44.0123 80.4593 44.3047 80.6233C44.5968 80.7876 44.6278 81.0309 44.6076 81.2287C44.5875 81.4265 45.3678 80.6156 45.512 80.3752C45.6381 80.1645 45.5067 79.6944 45.9011 79.5824L46.1045 79.5582C46.6741 79.5614 47.3992 79.0458 47.5934 79.213L47.6401 79.3101C47.6973 79.7117 48.6681 78.7328 48.8997 78.8468C49.1313 78.9608 49.6917 79.0144 49.9011 78.5798C50.1106 78.1447 50.646 77.3487 51.0399 77.2529C51.4339 77.157 51.846 77.5079 51.9733 77.3306C52.0997 77.153 52.4264 76.0629 52.9078 76.0424Z" fill="#727272"/>
<path d="M52.5675 77.3806C52.7439 77.3612 52.9457 77.3314 53.1588 77.2682L53.4855 77.1453L53.8363 76.9548C54.1276 76.7824 54.5336 76.5189 55.0545 76.1649L54.7846 76.4194C53.6607 77.3999 51.3969 78.776 49.0468 79.9897L36.575 86.2362C36.4791 86.2842 36.0662 86.2745 35.7246 86.2508C36.0364 86.165 36.3192 86.0385 36.3844 85.9345L36.492 85.9656L36.3816 85.8576C36.2551 85.6973 36.7764 85.6095 36.9746 85.5523L37.0418 85.5257C37.0668 85.5063 37.1595 85.4834 37.2735 85.452C37.3883 85.4596 37.4817 85.437 37.5458 85.3657C37.6892 85.3065 37.8116 85.2316 37.8326 85.1301C37.8841 84.8803 38.4767 84.9355 38.8086 84.8139C39.1406 84.6926 41.3492 83.541 42.0312 83.2014C42.7132 82.8618 42.8369 82.7095 43.3714 82.2072C43.9059 81.7053 43.9136 82.0876 44.1549 81.9659C44.3962 81.8443 44.9843 81.3355 45.172 81.1083C45.3223 80.9266 45.7319 80.8046 46.086 80.7506L46.3362 80.7232C46.7193 80.6994 47.0484 80.631 47.7312 80.1758C48.4143 79.7206 48.3628 79.4543 48.9779 79.2034C49.5052 78.9882 49.7449 79.0213 49.8786 78.9604L49.9374 78.9206C50.0579 78.8025 50.7918 78.4525 51.0287 78.1766C51.2132 77.9615 51.7413 77.5401 51.902 77.5119C52.0091 77.4938 52.2307 77.4499 52.5675 77.3806Z" fill="#1A0855"/>
<path d="M12.9446 90.4513C14.2054 89.7291 29.9292 83.4616 29.7524 83.7826C29.5755 84.1041 25.642 85.9369 21.0494 87.8447C16.4568 89.7529 11.6833 91.1736 12.9446 90.4513Z" fill="#D4D5D5"/>
<path d="M12.9917 90.6242C15.208 89.7803 16.8165 89.1567 17.8171 88.7535C22.968 86.6765 26.8577 85.0318 29.4893 83.9663C29.0873 84.2378 28.4573 84.5697 27.5993 84.9621C26.3119 85.5506 24.22 86.5279 21.049 87.8451L20.0983 88.2322C16.9265 89.4995 13.8727 90.4792 12.9917 90.6242Z" fill="#EDEDED"/>
<path d="M33.6473 82.9347C33.6445 82.7925 33.3987 81.775 36.3196 80.0622C39.2405 78.3494 47.9592 73.8281 49.1282 73.4418C50.2968 73.0555 40.5174 78.2096 39.2421 78.927C37.9671 79.6444 35.572 80.9395 35.1007 81.3492C34.6294 81.7584 33.6505 83.0765 33.6473 82.9347Z" fill="#F1F1F1"/>
<path d="M54.0124 71.4615C53.3699 71.0031 52.3576 70.7255 51.1717 71.4345C50.3809 71.907 49.7743 72.0291 49.3513 71.8007C49.5028 72.3928 49.8685 72.6688 50.449 72.6285C51.3199 72.568 51.7856 71.6085 52.6081 71.5481C53.4303 71.4873 54.6549 71.9199 54.0124 71.4615Z" fill="#D0D0D0"/>
<path d="M58.1985 70.1817C58.1046 69.42 59.1113 68.6953 60.0168 67.6008C60.9228 66.5064 61.4533 65.5923 61.2636 64.8374C61.0738 64.0826 61.8328 64.6586 61.788 65.5996C61.7433 66.541 61.0525 67.2262 60.3339 67.9787C59.6156 68.7311 58.847 69.2141 58.1985 70.1817Z" fill="#D0D0D0"/>
<path d="M80.7937 57.6277C78.3574 59.6487 72.9262 63.09 73.5276 62.9288C74.1286 62.7677 79.8572 59.5101 83.9092 56.1695C87.9612 52.8289 92.0035 47.7976 91.1233 48.2069C90.2432 48.6161 86.8453 52.3696 85.0504 53.9463C83.2554 55.5229 83.23 55.6071 80.7937 57.6277Z" fill="#CFD1D2"/>
<path d="M86.9093 29.9945C87.5132 30.5886 88.2423 32.0465 89.8266 33.0765C91.4109 34.1065 92.1625 34.2515 93.1152 34.8453C94.0679 35.4394 94.7797 35.9498 94.7934 36.4215C94.8018 36.7208 93.937 37.9325 93.2582 38.8469C90.1452 37.3718 87.97 36.4429 86.7329 36.0598C84.4968 35.3677 81.9582 35.4072 81.5477 35.2626C81.1808 35.1333 81.0144 34.8819 81.0474 34.49C81.2827 34.5109 81.5663 34.3558 81.9034 34.0062C82.8622 33.0112 84.2305 31.1397 84.9814 30.6035L85.615 30.123C86.0795 29.7806 86.4868 29.5784 86.9093 29.9945Z" fill="#7756D3"/>
<path d="M49.676 71.9207C49.1568 71.6492 49.7932 70.8971 51.585 69.6641C54.2726 67.8147 59.7269 64.8258 60.226 64.5982C60.725 64.371 61.1806 64.6147 61.2181 64.5305C61.2556 64.4463 60.8547 63.8932 60.1571 64.1482C59.4594 64.4032 53.8932 67.538 51.2793 69.3245C49.5366 70.5156 48.8937 71.3406 49.3513 71.7998L49.676 71.9207Z" fill="#E6E6E6"/>
</svg>
