<svg width="70" height="43" viewBox="0 0 100 86" fill="none" xmlns="http://www.w3.org/2000/svg">
<path d="M64.4013 5.78584C65.0735 5.59922 65.6909 5.35307 66.2539 5.04658C67.0983 4.58703 70.5389 2.58299 72.1369 1.58078C73.735 0.578564 74.8938 -0.00367046 75.2954 0.000325612C75.6966 0.00432169 76.6169 0.0762574 76.8715 0.6437C77.126 1.21114 77.0681 0.798343 77.4781 1.16838C77.8877 1.53842 78.5982 0.90184 78.3872 1.74181C78.1762 2.58179 78.2106 2.32724 78.7324 3.04054C79.2543 3.75384 78.939 3.36702 78.9822 4.17423C79.0254 4.98143 78.2178 4.29971 78.8407 5.12729C79.4637 5.95488 80.1311 5.99724 80.2849 6.50514C80.4388 7.01304 80.1335 7.37189 80.5455 7.98489C80.9575 8.59828 81.5996 9.01947 81.7523 9.07461C81.9049 9.12936 82.3885 8.59468 82.9011 9.22406C83.4138 9.85344 83.8514 9.80509 84.0392 10.8601C84.227 11.915 84.428 11.8391 84.7765 12.333C85.125 12.8269 85.3459 13.7608 85.5034 14.423C85.6608 15.0851 86.0473 15.768 85.294 16.1509C84.5407 16.5337 77.8981 21.2522 76.7924 21.351C75.6866 21.4493 73.7669 21.5767 72.7823 19.8864C71.7977 18.1956 69.2238 13.1062 68.4953 11.7116C67.7668 10.317 66.5181 7.865 65.324 7.62883C64.5272 7.47058 64.2199 6.85679 64.4013 5.78584Z" fill="#CAC7C6"/>
<path d="M72.1283 12.6041C73.4406 11.4919 77.3716 9.84717 80.8993 8.41577C81.2561 8.7906 81.6394 9.03356 81.7529 9.07432C81.9055 9.12906 82.389 8.59439 82.9017 9.22377C83.4144 9.85315 83.852 9.80481 84.0398 10.8598C84.2276 11.9147 84.4286 11.8388 84.7771 12.3327C84.9861 12.6292 85.1491 13.0836 85.2802 13.5431L85.5036 14.4227C85.661 15.0848 86.0474 15.7677 85.2942 16.1506L84.9285 16.37C83.3257 17.3898 77.7927 21.2612 76.7925 21.3503L76.2738 21.389C75.1573 21.4482 73.6264 21.3351 72.7825 19.8857C72.1531 18.8052 70.8747 16.3364 69.8438 14.3312L71.1369 13.3877C71.4534 13.1515 71.7866 12.8938 72.1283 12.6041Z" fill="#BFBCBB"/>
<path d="M81.7521 9.07395C81.9048 9.12869 82.3883 8.59402 82.901 9.2234C83.4137 9.85278 83.8513 9.80444 84.0391 10.8594C84.2141 11.8436 84.4007 11.8436 84.708 12.24C84.6145 12.5977 84.4735 12.9026 84.2345 12.9877L83.8764 13.1384C82.3591 13.8053 76.9101 16.346 76.3235 16.511C75.6677 16.6957 76.6052 15.9732 77.5579 15.4073C78.5105 14.8415 82.3599 13.534 83.49 12.9242C84.2437 12.5178 84.3903 12.0974 83.93 11.6634L83.534 10.5553C83.5212 10.5165 83.5108 10.4842 83.5036 10.4594C83.4365 10.2344 82.7484 10.0534 82.4507 9.96906C82.1529 9.88515 80.5949 11.0656 79.5319 11.7865C78.5869 12.4271 76.7095 12.8598 75.1366 13.3489L74.5636 13.5356C72.9808 14.079 74.9484 12.7755 76.4322 12.0826L78.5565 11.1195C79.9835 10.4526 81.4908 9.69813 81.6802 9.4216C81.7222 9.36046 81.7042 9.2194 81.6418 9.0204L81.7521 9.07395ZM72.0305 5.01274L72.2942 4.89006L73.6629 4.31183C74.5964 3.9298 75.4927 3.58214 75.8747 3.4263C76.2903 3.25726 77.7597 2.94717 78.5821 2.83768L78.7327 3.03987C79.2098 3.69203 78.9869 3.4243 78.9785 3.99134C78.4662 3.44668 77.0823 3.68404 76.4701 3.67086C75.9834 3.66007 73.5994 4.68147 72.1188 5.34761L70.9967 5.8675C70.4229 6.15282 70.932 5.55181 72.0305 5.01274Z" fill="#DCD9D8"/>
<path d="M71.1696 14.3099C72.6385 16.915 74.038 18.4974 75.2288 18.6137C77.015 18.7883 81.8767 16.332 82.8005 15.3649C83.3304 14.8102 84.0429 13.8963 84.938 12.6232L84.7762 12.3323C84.9852 12.6288 85.1482 13.0831 85.2793 13.5427L85.5027 14.4222C85.6601 15.0844 86.0466 15.7673 85.2933 16.1501L84.9277 16.3695C83.3248 17.3893 77.7919 21.2607 76.7916 21.3498L76.273 21.3886C75.1565 21.4477 73.6256 21.3346 72.7816 19.8852L72.3644 19.1424C71.7326 17.9891 70.8303 16.2492 70.0359 14.7059C70.5066 14.4486 70.4399 14.5777 71.1696 14.3099Z" fill="#A5A19F"/>
<path d="M75.2961 -0.000102551L75.6757 0.0222754C76.1157 0.0706279 76.6811 0.21769 76.8717 0.643272C77.1263 1.21071 77.0683 0.797915 77.4783 1.16795C77.796 1.45487 78.2947 1.13638 78.4042 1.37095L78.3391 1.4261L77.6649 1.60033C77.5431 1.6283 77.3968 1.65947 77.2126 1.69584L76.534 1.82251C75.3052 2.04109 74.0513 2.47468 73.5897 2.90026L72.928 3.54482C72.4916 3.94962 71.9581 4.35562 71.4155 4.38399C70.6554 4.42355 69.9321 4.65253 69.6344 4.84873L69.3667 5.07212C69.0766 5.2951 68.4532 5.71949 67.4969 6.34527L66.5694 6.57744L66.0084 6.69493C65.757 6.73489 65.2703 6.88315 64.5482 7.1393C64.3504 6.8256 64.3025 6.37484 64.4024 5.78581C65.0745 5.5992 65.6919 5.35305 66.2549 5.04655L68.9139 3.51724C69.5801 3.12643 70.2766 2.71364 70.9008 2.33801L72.9643 1.07684C74.132 0.386321 74.9676 -0.00329941 75.2961 -0.000102551Z" fill="#DCD9D7"/>
<path d="M66.6948 8.02022C68.2913 7.76287 69.5129 7.4292 70.3592 7.0196L72.0256 6.23638C73.4766 5.57662 75.1661 4.87571 75.3479 5.10188C75.5241 5.32127 76.1859 5.2997 77.3332 5.03755C77.8562 5.01558 78.2878 4.93445 78.6275 4.79498C78.6499 4.85932 78.717 4.96363 78.8401 5.12707C79.4631 5.95465 80.1304 5.99701 80.2843 6.50491C80.4381 7.01281 80.1328 7.37166 80.5448 7.98466C80.9568 8.59805 81.599 9.01924 81.7516 9.07438C81.7976 9.09076 81.8731 9.0544 81.9702 9.01204C81.9051 9.35011 81.7212 9.61465 81.4223 9.80766L80.9688 10.0686C79.3548 10.9477 74.8017 13.1528 74.3825 13.3306C73.9109 13.5308 72.5798 14.4131 72.2725 14.8527C71.9652 15.2927 71.4158 15.6847 71.0525 14.997L70.6098 14.2469C69.9624 13.1847 68.6573 11.1092 66.6948 8.02022Z" fill="#A5A19F"/>
<path d="M71.5029 10.1098C70.6178 10.0514 71.5692 9.73731 72.5826 9.56948C73.4514 9.42562 74.2242 8.98087 75.3523 8.53051L75.9481 8.30633C77.4171 7.78884 78.2603 7.28293 79.535 7.1191L80.1916 7.02679C80.2447 7.018 80.2919 7.00921 80.3338 7.00041C80.3131 7.29412 80.2779 7.58544 80.5456 7.98384C80.7167 8.23839 80.9272 8.45978 81.1259 8.63561C80.5916 8.47976 79.8619 8.13889 79.318 7.97186C78.687 7.77765 77.8515 8.24119 76.6566 8.64519L76.1915 8.79225C74.7437 9.21743 72.388 10.1685 71.5029 10.1098ZM66.6948 8.02021C68.2913 7.76286 69.5129 7.42919 70.3592 7.0196L72.0256 6.23637L73.0466 5.78482C74.1759 5.30249 75.2081 4.92765 75.3479 5.10188C75.5242 5.32127 76.1859 5.2997 77.3332 5.03755C77.8563 5.01558 78.2878 4.93445 78.6275 4.79498C78.6499 4.85932 78.717 4.96363 78.8401 5.12707C79.1374 5.52228 79.4451 5.73846 79.7021 5.91189C79.3876 5.76363 79.0503 5.65574 78.7921 5.63776C78.2171 5.597 75.8566 6.75985 74.4132 7.33448L74.0732 7.46475C72.794 7.93189 69.3083 9.0448 67.3342 8.58166L66.9801 8.47056L66.6948 8.02021Z" fill="#989593"/>
<path d="M1.28097 76.9504C0.839406 74.6207 0.957289 72.8904 1.63382 71.7587C2.64923 70.0612 8.83275 65.6955 10.9882 64.0459C13.1441 62.3963 16.4205 59.4404 18.6599 57.2937C20.8993 55.1471 30.559 44.0592 34.5035 39.0669C38.4481 34.0746 42.134 27.9997 42.6979 23.6704C43.2621 19.341 42.8445 15.6127 43.0907 14.1365C43.3369 12.6604 44.5137 9.32368 45.1559 9.0024C45.798 8.68111 47.1235 9.14706 47.7821 9.3113C48.2213 9.42079 48.7563 9.75486 49.3877 10.3131C50.163 10.825 50.7644 11.0624 51.1919 11.0248C51.8333 10.9689 53.2064 9.90671 54.1554 9.83118C55.1045 9.75566 58.7705 9.11628 61.2205 7.62774C63.6705 6.13961 64.0521 5.96098 64.4018 5.78595C64.7514 5.61092 66.8126 7.09426 68.4502 9.41319C70.0878 11.7321 73.319 18.6973 73.922 19.3398C74.525 19.9824 75.9468 20.6849 78.6921 19.3111C81.4374 17.9372 84.5584 15.6179 84.8865 15.4533C85.2145 15.2886 85.3008 13.645 85.3008 13.645C85.3008 13.645 86.3602 15.6718 86.8657 16.2525C87.3712 16.8331 89.6618 20.2445 90.2244 21.2296C90.7871 22.2146 91.9143 23.3587 92.5349 24.5983C93.1555 25.8379 95.2575 29.8187 95.9364 32.6432C93.1308 34.7751 65.9083 49.8439 57.001 54.2979C48.0934 58.7515 16.7602 72.6139 13.1613 74.0677C10.7621 75.0375 6.80195 75.9982 1.28097 76.9504Z" fill="#F5C3A7"/>
<path d="M73.9216 19.3394C74.5246 19.982 75.9464 20.6845 78.6917 19.3106C81.437 17.9368 84.558 15.6175 84.886 15.4528C85.2141 15.2882 85.3004 13.6446 85.3004 13.6446L85.8935 14.7307C86.1668 15.2134 86.4841 15.7465 86.7286 16.079L86.8657 16.2524C87.3712 16.8331 89.6618 20.2445 90.2244 21.2295C90.7871 22.2146 91.9143 23.3586 92.5349 24.5982L93.462 26.4444C94.33 28.2127 95.4697 30.701 95.9364 32.6427C93.3345 34.6196 69.7385 47.7203 59.2185 53.1666L57.001 54.2979C48.0934 58.7515 16.7602 72.6139 13.1613 74.0677C10.7621 75.0371 6.80195 75.9978 1.28097 76.95C0.839406 74.6203 0.957289 72.89 1.63382 71.7583C2.11655 70.9507 3.76893 69.5397 5.60073 68.1043C8.08629 68.1199 11.0326 67.224 14.4392 65.4217C21.4807 61.6962 32.6901 53.6925 37.1581 43.1976C38.2551 40.6213 38.4477 37.3353 38.2922 33.7564C40.5776 30.1783 73.319 18.6968 73.9216 19.3394Z" fill="#EEEBEA"/>
<path d="M47.7816 9.31053C48.2208 9.42002 48.7559 9.75409 49.3873 10.3123L49.4664 10.3607L49.1579 10.4606C48.8518 10.5781 48.1908 10.5761 47.7633 11.297C47.3353 12.0179 47.2266 12.6828 46.5045 13.3809C46.023 13.8465 45.5534 14.4942 45.0955 15.3238C44.9987 15.0325 45.0187 14.2321 45.1562 12.9218C45.3308 11.2546 46.576 9.59185 47.0767 9.11392L47.7816 9.31053Z" fill="#4F232C"/>
<path d="M52.6622 13.0936C56.9057 13.1092 58.8094 14.5326 62.216 12.7875C64.4043 11.6666 66.159 9.71611 67.5972 8.31549C67.8865 8.65556 68.1746 9.02239 68.4503 9.4132C70.0879 11.7321 73.3191 18.6973 73.9221 19.3399C74.5252 19.9824 75.947 20.6849 78.6923 19.3111C81.4376 17.9372 84.5585 15.6179 84.8866 15.4533C85.2146 15.2886 85.301 13.6451 85.301 13.6451L85.894 14.7312C86.1673 15.2139 86.4846 15.747 86.7292 16.0795L87.0468 16.4787C84.2868 18.9311 78.8197 22.6138 73.2372 24.5148C66.9026 26.6719 57.6134 25.1917 59.7721 27.2996C61.9307 29.4076 70.7736 29.364 75.9801 26.5727L77.4419 25.7815C80.4957 24.1132 84.3331 21.9325 88.9538 19.2388L89.8053 20.5427C89.984 20.8248 90.1298 21.0622 90.2253 21.2296C90.788 22.2146 91.9153 23.3587 92.5359 24.5983L93.4629 26.4445C94.3309 28.2127 95.4706 30.7011 95.9373 32.6428C93.3355 34.6196 69.7395 47.7204 59.2194 53.1666L57.002 54.2979C48.0943 58.7515 16.7611 72.6139 13.1623 74.0677C10.763 75.0371 6.80292 75.9978 1.28195 76.95C0.840383 74.6203 0.958265 72.89 1.6348 71.7584C1.90933 71.2992 2.56229 70.6446 3.41106 69.9018C4.27661 70.9467 6.59952 71.5733 11.1974 69.8031C19.2711 66.6941 24.4248 63.7442 30.5 59.2682C36.5753 54.7922 38.0986 48.9044 39.4352 41.6168L39.6298 40.6569C41.3897 32.6304 48.5918 13.0788 52.6622 13.0936Z" fill="#E5E2E1"/>
<path d="M61.6088 13.102L61.8886 12.9473L62.2154 12.7875C64.4037 11.6666 66.1584 9.71611 67.5966 8.31549C67.8859 8.65556 68.174 9.02239 68.4497 9.4132C70.0873 11.7321 73.3186 18.6973 73.9216 19.3399C74.246 19.6859 74.8083 20.0492 75.6862 20.0963C75.7166 20.4895 75.6638 20.7656 75.5156 20.8915C74.2752 21.9453 69.9934 24.283 65.7796 24.2926C61.5657 24.3022 56.2913 25.9122 59.5924 27.5282C60.0652 27.7596 60.6122 27.9582 61.2148 28.1216C64.5815 29.3284 71.5795 28.932 75.9799 26.5727L77.4417 25.7815L79.2531 24.7829C80.5163 24.0808 81.8913 23.3056 83.3775 22.4576L83.1585 22.7625C80.7329 25.865 74.7719 30.9992 71.4112 32.5784C68.0505 34.1577 63.8678 34.6912 61.266 33.9367C58.6637 33.1823 55.5568 29.1858 53.1579 30.1033C50.7591 31.0208 44.6531 35.4169 46.0941 31.9211C47.5351 28.4253 51.5168 21.5645 51.5755 18.4555C51.627 15.7274 52.1609 13.5907 54.0722 13.1499C55.2195 13.2379 56.1874 13.4057 57.0885 13.5236L57.7858 13.6043C58.9039 13.8492 60.0704 13.926 61.6088 13.102Z" fill="#DBD9D8"/>
<path d="M4.05862 73.8237C7.69944 73.4317 23.9107 68.2971 36.1854 62.1292C48.4602 55.9612 56.804 51.2702 69.1746 45.7053C74.4678 43.3241 79.1029 41.4843 83.0801 40.1859L76.7628 43.7037C70.2871 47.2822 63.6125 50.8922 59.2184 53.1668L57.001 54.2981C48.0933 58.7517 16.7601 72.6141 13.1613 74.0678C10.762 75.0373 6.80192 75.9979 1.28095 76.9502C1.04878 75.7258 0.971254 74.6664 1.04838 73.7729C1.85399 73.9364 2.857 73.9531 4.05862 73.8237Z" fill="#D5D1CF"/>
<path d="M53.7573 16.5372C54.0582 13.5933 55.0668 16.8417 59.6339 15.6277C64.201 14.4137 65.8857 12.0196 67.9105 10.4468C68.1599 10.2529 68.45 10.1059 68.7809 10.0056L69.1154 10.5231C70.8345 13.3023 73.37 18.753 73.9206 19.3396C74.0289 19.4551 74.1636 19.5722 74.3274 19.6789L74.2631 19.7476C72.2655 21.7109 70.0884 22.7143 66.2746 22.6516C62.4607 22.5888 61.3858 21.601 58.8395 23.2993C56.2932 24.9972 56.8151 27.1495 57.9184 27.9671C59.0217 28.7847 66.0568 30.0411 69.258 29.2447C72.4593 28.4483 85.13 20.7858 83.6283 23.1639C82.1266 25.5419 71.2101 32.219 67.5581 32.3788C63.9061 32.5382 59.542 30.9126 56.5933 29.6323C53.6446 28.3516 52.3998 29.5807 49.3764 30.6409L48.8157 30.8131C46.7526 31.3286 49.2981 28.9246 50.5296 26.8938C51.4951 25.3022 53.0831 23.7621 53.7293 20.8969C53.9311 20.003 53.6857 17.2365 53.7573 16.5372Z" fill="#CFCDCC"/>
<path d="M88.9525 19.2385L89.8041 20.5424L90.1126 21.0396C90.155 21.1099 90.1925 21.1738 90.2245 21.2294C90.7871 22.2144 91.9144 23.3585 92.535 24.5981L93.4621 26.4442C94.33 28.2125 95.4697 30.7009 95.9365 32.6425L95.5928 32.8867C92.9562 34.6765 81.7652 40.9875 71.6831 46.4945C75.4322 42.0793 77.861 36.1571 78.9707 28.728C79.1426 27.5695 86.0981 20.9025 88.9525 19.2385Z" fill="#CECECE"/>
<path d="M88.9528 19.2385L89.8044 20.5424L90.2244 21.2294C90.787 22.2144 91.9143 23.3585 92.5349 24.5981L93.462 26.4443C94.3299 28.2125 95.4696 30.7009 95.9364 32.6426L95.5927 32.8867L94.431 33.6304C92.0242 35.1182 87.3684 37.7871 82.052 40.7626C86.8741 34.6474 88.2563 28.151 86.1987 21.2757L87.0827 20.5576C87.7956 19.9974 88.4401 19.537 88.9528 19.2385Z" fill="#C2C2C2"/>
<path d="M88.9533 19.2385L89.8048 20.5424L90.2248 21.2294C90.7875 22.2144 91.9148 23.3585 92.5353 24.5981L93.4624 26.4443C94.3304 28.2125 95.4701 30.7009 95.9368 32.6426L95.5931 32.8867L94.4315 33.6304L93.0057 34.4939C92.8271 34.6006 92.642 34.7105 92.4506 34.8232L92.4235 34.6614C91.91 30.7364 90.2864 25.9148 87.5522 20.1972C88.0773 19.8 88.5549 19.4707 88.9533 19.2385Z" fill="#B9B9B9"/>
<path d="M51.1913 11.0239C51.3116 11.0135 51.4575 10.9676 51.6217 10.8997L51.5058 11.3528C51.7184 11.3732 51.9594 11.312 52.2283 11.1686L52.8441 10.8509C53.2062 10.6735 53.6333 10.4861 54.0497 10.3674C54.7435 10.1696 57.0552 10.2007 58.3012 9.71282C59.5471 9.2249 64.7017 6.50197 65.1424 6.28898L65.3446 6.20667C66.1802 6.78809 67.4014 7.92937 68.4488 9.41311C70.0864 11.732 73.3176 18.6972 73.9206 19.3398C74.5236 19.9823 75.9454 20.6848 78.6907 19.311C81.436 17.9371 84.557 15.6178 84.885 15.4532C85.2131 15.2885 85.2994 13.645 85.2994 13.645L85.8925 14.7311C86.1658 15.2138 86.4831 15.7469 86.7276 16.0794L86.8647 16.2528C87.3702 16.8334 89.6608 20.2449 90.2234 21.2299C90.786 22.2149 91.9133 23.359 92.5339 24.5986L93.461 26.4448C94.329 28.213 95.4686 30.7014 95.9354 32.6431L95.5777 32.8964L95.698 33.1981L95.0207 31.5721C93.0574 26.9027 91.7175 24.1111 91.0006 23.1964C89.8058 21.6723 86.736 17.0384 86.4032 16.6308C86.1814 16.3591 85.9164 16.1337 85.6091 15.9551L83.6047 17.3805C80.893 19.283 78.9772 20.5086 77.8575 21.0569C75.7908 22.0687 73.2641 21.7838 71.5705 18.3879L69.6328 14.5093C68.4096 12.0949 67.2048 9.8359 66.5151 9.03189C65.8046 8.20351 65.1233 7.52697 64.4719 7.00268L63.1152 7.75834C60.9717 8.93319 59.4177 9.68565 58.4522 10.0153C56.7151 10.6087 54.7898 10.0817 53.7368 10.6367C53.0347 11.0067 52.3007 11.374 51.535 11.7384L50.916 11.6485L51.1913 11.0239Z" fill="#BFBCBA"/>
<path d="M46.0675 24.3394L46.3752 24.2155C51.9426 25.5778 60.053 26.3794 70.7021 26.6192L73.6692 26.6707L73.9497 26.9744C73.9022 27.7465 73.8702 28.2628 73.8542 28.5233C73.8498 28.5964 73.7987 28.827 73.7012 29.215C73.6337 30.2492 73.5453 31.6478 73.4366 33.4109C73.2736 36.0555 73.2632 38.0347 73.2181 38.7089C73.1941 39.0653 73.1709 39.4242 73.1505 39.7798C73.0091 42.2498 72.8804 44.9064 72.7146 47.8991C72.7058 48.0561 72.5715 48.1764 72.4144 48.1676C72.2574 48.1588 72.1371 48.0245 72.1459 47.8675C72.4996 44.3469 72.7269 41.7227 72.8276 39.994C72.8448 39.7007 72.8616 39.3898 72.8784 39.0613C72.9339 37.9796 73.1433 36.2657 73.2896 33.5627C73.4494 30.608 73.3683 29.9303 73.3779 29.0296C73.3843 28.429 73.3775 27.8312 73.3575 27.2358L72.1575 27.2186C61.2414 27.0296 52.8641 26.2751 47.0202 24.9532L46.436 24.8149L36.8558 39.9409L33.1642 45.8447L33.3836 46.0149C36.1317 48.1716 40.0826 51.9675 45.242 57.4065L46.9611 59.2319C47.0686 59.3466 47.0626 59.5268 46.9475 59.6343C46.8324 59.7418 46.6526 59.7358 46.5451 59.6207L44.8743 57.8465C39.9835 52.6883 36.1825 49.0108 33.4763 46.8169L32.6148 46.1408L32.5444 45.764L35.9131 40.3697L46.0675 24.3394Z" fill="#BBBBBB"/>
<path d="M45.1556 9.00185C45.7977 8.68056 47.1232 9.14651 47.7818 9.31075C48.0963 9.38947 48.4603 9.58289 48.8735 9.89178C48.7245 9.9793 48.5602 10.0916 48.3824 10.2306L47.379 11.0614C47.0865 11.306 46.9486 11.4662 46.8127 11.873L46.5378 12.8193C46.4623 13.0435 46.4027 13.1258 46.1814 13.5949C45.8273 14.3458 45.4633 14.6671 45.2015 15.0783C44.9398 15.4895 44.489 16.3542 44.264 16.8162C44.0387 17.2781 43.7114 17.4444 43.3366 17.649C43.2427 17.7001 43.1356 17.7884 43.0157 17.9135L43.0049 15.6705C43.0085 15.0319 43.0281 14.5112 43.0908 14.136C43.3366 12.6599 44.5134 9.32353 45.1556 9.00185Z" fill="#682340"/>
<path d="M45.0285 10.3172C44.8954 10.4351 44.5925 10.5866 44.119 10.7724C44.7184 10.981 44.8898 11.1504 44.6333 11.2815C44.2484 11.4781 43.9112 11.3942 43.8496 11.6735C43.7881 11.9528 44.0051 11.996 44.6696 11.8729C45.1128 11.791 45.3965 11.8773 45.5208 12.1318L44.7416 12.2993C44.0582 12.4627 43.6634 12.6138 43.5575 12.7524C43.3449 13.0298 43.5631 13.2472 43.8452 13.3271C44.1274 13.407 44.0438 14.0799 43.9319 14.3409C43.8201 14.6018 43.6286 14.5303 43.4224 14.5958C43.3229 14.6274 43.1403 14.7812 43.0168 14.9786C43.0308 14.6462 43.0532 14.364 43.0912 14.1359C43.263 13.1053 43.8884 11.168 44.469 9.98276C44.9322 10.1286 45.1184 10.2373 45.0285 10.3172Z" fill="#E2AAC1"/>
<path d="M17.0665 72.25C16.223 68.4721 15.8729 65.7136 16.0176 63.9749C16.2342 61.3666 16.8607 59.0301 17.2292 58.5522C17.598 58.0739 21.5661 53.5703 22.926 52.0806C24.2858 50.5908 34.4606 38.9271 36.2928 36.4511C38.125 33.9751 41.809 28.6895 42.3365 25.2809C42.864 21.8722 43.1249 19.6368 43.5149 18.7257C43.905 17.8146 45.2404 15.2419 46.8972 13.8441C48.554 12.4463 50.9049 11.12 51.1914 11.0245C51.3824 10.961 51.6322 11.1703 51.9403 11.6531C50.7163 15.8725 49.9946 18.5203 49.7756 19.5961C49.4471 21.2097 47.3 25.591 46.9919 27.1646C46.6838 28.7383 44.7693 32.3519 41.839 36.5266C38.9087 40.7009 29.8763 51.0815 26.7886 54.1521C23.7008 57.2231 23.7052 57.4325 23.4778 57.5748C23.2505 57.717 22.902 58.4995 22.5547 58.7328C22.2075 58.9662 21.9054 59.8198 21.8343 60.386C21.7631 60.9518 21.6836 63.4078 22.2522 65.7383C22.6315 67.292 23.0019 68.6639 23.3643 69.8543L17.0665 72.25Z" fill="#F2EFEE"/>
<path d="M22.2526 65.7375C22.6319 67.2912 23.0023 68.663 23.3647 69.8535L17.0669 72.2495C16.7676 70.9084 16.5303 69.696 16.3552 68.6123C18.016 66.8592 20.1195 64.9811 21.8251 62.7936C21.881 63.6875 22.0057 64.7245 22.2526 65.7375ZM51.1918 11.0241C51.3828 10.9605 51.6326 11.1699 51.9407 11.6526L50.7754 15.7366C50.2459 17.6372 49.9127 18.9235 49.776 19.5956C49.4731 21.085 47.6201 24.9328 47.0946 26.7534L46.9927 27.1638C46.8425 27.9311 46.3102 29.1838 45.4642 30.7499L45.8531 29.4404C47.577 23.2988 48.0285 16.8971 47.4083 16.8276C46.8972 16.77 44.719 18.8496 43.0678 20.5367L43.2416 19.6512C43.3287 19.2616 43.4182 18.9527 43.5154 18.7253L43.7603 18.197C44.3242 17.0501 45.4958 15.0261 46.8976 13.8437C48.5544 12.4463 50.9053 11.1196 51.1918 11.0241Z" fill="#E0DCDC"/>
<path d="M50.5621 11.5493L50.8406 11.8993C49.5986 16.9032 48.2448 20.7494 46.9437 24.3275C45.9606 27.0304 45.5103 28.296 44.3794 30.7192C43.6253 32.3348 42.6966 33.9341 41.5925 35.5161C39.6161 38.5443 33.5828 45.5306 30.5666 48.6008L28.5306 50.6348L26.8646 52.3471C24.1321 55.2007 21.7117 57.9584 21.0195 59.2304C20.2875 60.5755 20.6151 63.9086 22.019 69.1167L22.2495 69.9546L22.3838 70.2244L21.8515 70.427L21.7209 70.1592C20.556 66.0233 20.0053 62.9647 20.0813 60.9547L20.0961 60.6969L18.0133 62.4009C17.1749 63.101 16.7553 63.4842 16.7549 63.5505C16.7533 63.8215 16.7042 64.1388 16.7198 64.3861L16.7929 65.2948C16.9048 66.4661 17.109 68.0277 17.4059 69.9782L17.7232 72.0002L17.1873 72.2016L16.5575 68.2319C16.3681 66.9975 16.2698 66.1731 16.2306 64.6435C16.1743 62.4636 16.8972 59.8973 17.2784 58.4923L17.543 58.1754L17.5905 57.992C17.1741 59.7515 16.8249 61.3679 16.7362 62.671L16.7905 62.6402C16.8452 62.6011 16.9416 62.5267 17.0794 62.4172L20.2099 59.8354L20.2175 59.8074C20.2671 59.5844 20.329 59.3826 20.4041 59.202L20.52 58.959C21.3788 57.3814 24.6624 53.7462 28.0346 50.3275L29.7174 48.6468C32.3712 46.0357 38.416 39.0958 40.7753 35.7095C41.8603 34.2737 42.8956 32.5182 43.8819 30.4439C45.3612 27.3325 45.4355 26.8102 46.409 24.1329C47.5734 20.9308 48.7978 17.5949 49.9167 13.2364L50.1125 12.4528L49.9863 12.5351C48.5693 13.4534 47.5443 14.2958 46.616 15.1409L46.172 15.5605C45.205 16.5116 44.6123 17.4199 44.3854 18.2822L44.3106 18.6491L43.7472 18.568C43.7792 18.3454 43.8323 18.1216 43.9058 17.897C44.2223 17.2956 44.6639 16.5256 45.195 15.7727C45.3676 15.5677 45.5622 15.3615 45.7728 15.1545C46.7898 14.1543 48.1393 13.1097 49.8212 12.0196L50.5621 11.5493Z" fill="#D1CDCC"/>
<path d="M51.9402 11.6526L50.775 15.7366C50.2455 17.6372 49.9122 18.9235 49.7756 19.5956C49.4727 21.085 47.6197 24.9328 47.0942 26.7534L46.9923 27.1638C46.6842 28.7374 44.7697 32.3511 41.8394 36.5258C39.0261 40.5334 30.5896 50.2599 27.1874 53.7488L25.3916 55.5595C23.6952 57.2962 23.6645 57.4576 23.4782 57.5739C23.2888 57.6926 23.0151 58.2556 22.7282 58.5749L22.5551 58.7319C22.2079 58.9653 21.9058 59.8189 21.8346 60.3851L21.8059 60.7312C21.7591 61.5508 21.7627 63.3338 22.1216 65.1441L21.6888 63.0585C21.5985 62.5938 21.5262 62.1909 21.4834 61.8956C21.2384 60.2081 21.4902 58.521 23.2469 56.6332L24.4721 55.3493C26.8553 52.8817 31.1335 48.5344 34.2776 44.9383C38.0835 40.585 41.9333 36.1198 44.2954 31.3085C46.6574 26.4972 49.8063 16.7089 50.1576 15.4461L51.1538 11.659C51.2062 11.4552 51.2605 11.2442 51.3165 11.0265C51.4855 11.056 51.6941 11.267 51.9402 11.6526Z" fill="#C4C4C4"/>
<path d="M20.204 54.765C20.8382 54.4301 21.4968 55.3136 21.6882 55.6305C21.8796 55.9474 21.617 56.733 21.2706 56.8533C20.9237 56.974 19.8108 56.5388 19.5994 56.1847C19.3876 55.8311 19.5699 55.0994 20.204 54.765ZM23.6814 51.1625C24.3156 50.8276 25.4381 51.7215 25.6295 52.0384C25.8209 52.3553 25.3282 53.117 24.9817 53.2376C24.6353 53.3583 23.3258 52.675 23.1092 52.1803C22.8926 51.6856 23.0472 51.4974 23.6814 51.1625ZM26.8355 47.3231L26.9178 47.2863C27.2211 47.186 28.7852 48.01 28.9766 48.3269C29.168 48.6438 28.6753 49.4054 28.3288 49.5261C27.982 49.6468 26.3896 49.0538 26.173 48.559C25.9564 48.0643 26.6149 47.3866 26.9182 47.2863L26.8355 47.3231ZM29.2675 45.0493C28.8324 44.716 29.4749 43.9939 30.1355 43.7921C30.7956 43.5899 32.0028 44.5158 32.1943 44.8327C32.3857 45.1496 31.9301 45.7598 31.3711 45.9988C30.812 46.2377 29.7027 45.383 29.2675 45.0493ZM32.627 40.9941C32.018 40.9181 32.8276 39.8984 33.4878 39.6962C34.1479 39.494 35.3036 40.3443 35.495 40.6616C35.6864 40.9785 35.2696 41.5519 34.7106 41.7909C34.1515 42.0295 33.236 41.07 32.627 40.9941ZM36.6199 35.6585L36.7314 35.6162C37.3915 35.414 38.0753 36.0353 38.2667 36.3522C38.4581 36.6691 38.0413 37.2426 37.4823 37.4815C36.9232 37.7205 36.4357 37.1618 35.8267 37.0859C35.2177 37.01 36.0712 35.8184 36.7314 35.6166L36.6199 35.6585ZM39.6809 31.5797L39.7872 31.539C40.4473 31.3368 41.4324 31.9022 41.6238 32.2191C41.8152 32.536 41.3984 33.1094 40.8393 33.3484C40.2803 33.5874 39.3976 33.1858 38.7882 33.1098C38.1792 33.0339 39.127 31.7412 39.7872 31.5394L39.6809 31.5797ZM41.6414 27.1505L41.7405 27.1077C42.4006 26.9055 43.4004 27.238 43.643 27.8086C43.8856 28.3793 43.3601 28.8656 42.801 29.1042C42.242 29.3427 41.3604 28.7369 40.8757 28.9759C40.391 29.2145 41.0803 27.3095 41.7405 27.1077L41.6414 27.1505ZM42.851 22.3716L42.9529 22.3256C43.613 22.1234 45.3761 22.5606 45.6187 23.1316C45.8612 23.7023 45.0668 24.3297 44.5077 24.5682C43.9487 24.8068 42.8797 23.99 42.395 24.2286C41.9103 24.4671 42.2931 22.5278 42.9533 22.3256L42.851 22.3716ZM44.0198 17.6994L44.1945 17.6187C45.643 17.0464 46.8291 17.5463 47.1863 18.3072C47.5436 19.068 47.062 19.4241 46.0978 19.9935C45.1335 20.563 43.5023 20.141 43.0176 20.3799C42.5329 20.6185 42.7459 18.1909 44.1945 17.6187L44.0198 17.6994Z" fill="#F8CAB0"/>
<path d="M21.6884 55.6305C21.8798 55.9473 21.6173 56.733 21.2708 56.8532C20.9239 56.9739 19.811 56.5388 19.5996 56.1847C19.5489 56.1 19.5209 55.9937 19.5161 55.8762C19.8318 56.2654 20.1019 56.3254 20.3605 56.4033C20.7413 56.518 20.8584 56.0524 20.9807 55.6888C21.053 55.4742 21.0346 55.1417 20.9863 54.8632C21.3132 55.0774 21.5781 55.4478 21.6884 55.6305ZM25.6297 52.0384C25.8211 52.3553 25.3284 53.1169 24.9819 53.2376C24.7614 53.3143 24.1512 53.0658 23.6808 52.7473L24.1244 52.7852C24.5112 52.8272 24.8808 52.4092 24.9811 52.0947C25.0383 51.9161 24.9112 51.612 24.7254 51.3039C25.1498 51.5261 25.5262 51.8669 25.6297 52.0384ZM28.9772 48.3268C29.1686 48.6437 28.6759 49.4054 28.3295 49.5261C28.035 49.6283 26.8417 49.216 26.3562 48.7864C26.9065 48.8159 27.4076 48.931 27.5846 49.0098C27.784 49.0989 28.1856 48.6205 28.2344 48.0999C28.2483 47.9504 28.2348 47.8445 28.2024 47.7598C28.5712 47.9692 28.8965 48.1934 28.9772 48.3268ZM32.1945 44.8327C32.3859 45.1496 31.9303 45.7598 31.3713 45.9987C30.9073 46.1969 30.0646 45.6419 29.5423 45.2571C29.8708 45.2507 30.25 45.3042 30.5029 45.3729C30.9745 45.5008 31.3477 45.2199 31.5091 44.8694C31.5967 44.6796 31.412 44.3919 31.2678 44.0774C31.7086 44.328 32.0934 44.6652 32.1945 44.8327ZM35.4952 40.6612C35.6866 40.9781 35.2699 41.5515 34.7108 41.7905C34.2313 41.9954 33.4896 41.3185 32.9038 41.074C33.1531 41.03 33.2726 41.0556 33.4069 41.1263L33.6938 41.2977C34.055 41.5079 34.4231 41.1962 34.6944 40.8558C34.8571 40.6516 34.6944 40.2364 34.4974 39.8907C34.9614 40.1245 35.3857 40.4801 35.4952 40.6612ZM38.2673 36.3522C38.4587 36.6691 38.0419 37.2425 37.4829 37.4815C36.9814 37.6957 36.537 37.2681 36.0111 37.123C36.4927 36.9188 36.704 37.0495 36.949 37.0076L37.1025 36.9576C37.4297 36.7986 37.6555 36.8821 37.8174 36.6C37.9368 36.3922 37.4645 36.0521 37.208 35.6001C37.6955 35.698 38.1223 36.1124 38.2673 36.3522ZM41.624 32.2195C41.8154 32.5364 41.3986 33.1098 40.8396 33.3487C40.4276 33.5246 39.8398 33.3531 39.3151 33.2201C39.8721 33.1226 40.4739 32.9895 40.7864 32.6522C40.985 32.4376 40.9787 32.0684 40.8883 31.6892C41.2376 31.843 41.5289 32.0616 41.624 32.2195ZM43.6432 27.8086C43.8858 28.3792 43.3603 28.8655 42.8013 29.1041C42.4932 29.2356 42.0876 29.1109 41.7039 29.0122C42.3309 28.9563 42.7893 28.8216 42.6142 28.5519C42.4104 28.2386 42.7118 28.3413 43.1853 28.1407C43.4279 28.038 43.312 27.6659 43.0702 27.2655C43.3339 27.3958 43.5473 27.5836 43.6432 27.8086ZM45.6189 23.1316C45.8615 23.7022 45.067 24.3296 44.508 24.5682C43.9489 24.8067 42.88 23.9899 42.3953 24.2285C42.3205 24.2653 42.2666 24.2505 42.231 24.1981L42.472 24.0899C43.0047 23.9376 43.7799 24.1354 44.1919 24.1989C44.6726 24.2729 44.8329 23.9756 44.6063 23.5935C44.3801 23.2115 44.9951 23.2247 44.8181 22.887C44.7597 22.7759 44.5911 22.6081 44.3661 22.4207C44.9444 22.5689 45.4914 22.8319 45.6189 23.1316ZM47.1866 18.3067C47.5438 19.0676 47.0623 19.4236 46.098 19.9931C45.2413 20.4994 43.857 20.222 43.2193 20.3219L43.0178 20.3795C42.9543 20.4107 42.9032 20.3963 42.8648 20.3463L42.9351 20.2972L43.1114 20.1917C43.72 19.85 44.1659 19.9243 44.9048 19.8156C45.5697 19.7177 46.0753 19.3461 45.7983 19.016L45.676 18.9081C45.1665 18.5561 46.2275 18.7651 46.0804 18.3371C45.9726 18.0238 45.278 17.651 44.7174 17.4564C45.9254 17.1746 46.8737 17.6406 47.1866 18.3067Z" fill="#BEB9B5"/>
<path d="M0.588205 77.7721C0.50109 77.5075 0.206182 75.9579 0.729667 75.8496C1.25355 75.7413 5.29358 75.0396 9.18535 73.8659C13.0771 72.6919 23.005 68.9551 33.0071 64.231C43.0093 59.5068 50.5979 56.1781 59.6066 51.6765C68.6154 47.1749 82.9521 38.981 86.9605 36.9238C90.969 34.8666 95.5501 32.0965 95.6732 31.9803C95.7962 31.864 95.3611 31.5507 95.7939 31.4776C96.2266 31.4044 97.1397 32.8366 97.3619 33.281C97.5845 33.7253 99.3288 38.6541 99.8103 39.9952C100.292 41.3363 99.9026 43.2004 98.056 44.1343C96.2094 45.0686 80.5205 52.9097 76.3829 54.9809C72.2454 57.052 68.7476 58.4459 64.4702 60.5866C60.1928 62.7273 53.8215 66.2594 50.9164 67.7132C48.0112 69.1669 41.8429 72.2539 39.3389 73.5071C36.835 74.7602 20.8039 80.3991 19.1843 81.0013C17.5647 81.6039 5.25642 85.0026 4.14231 85.1772C3.02821 85.3518 2.24298 84.9922 1.99882 84.4843C1.75626 83.9756 0.136652 79.6782 0.0203665 78.7195C-0.09512 77.7605 0.675719 78.0366 0.588205 77.7721Z" fill="#DFD9D7"/>
<path d="M0.729763 75.8498L2.81171 75.4426C4.46209 75.1045 6.85055 74.5703 9.18585 73.8658L10.1117 73.5752C12.6468 72.7528 16.7968 71.2255 21.6404 69.2359C24.054 69.0828 26.2067 69.2627 27.9458 69.9428C31.601 71.3726 34.7703 72.8288 37.4545 74.3117L35.2103 75.1801C33.3257 75.8942 31.0508 76.7293 28.8102 77.5421L19.1852 81.0011C17.5656 81.6038 5.25731 85.0024 4.1432 85.177C3.0291 85.3517 2.24387 84.992 1.99971 84.4841L1.71199 83.7812C1.16933 82.3898 0.114364 79.4862 0.0212556 78.7194C-0.0950301 77.7603 0.675815 78.0369 0.588301 77.7723C0.500787 77.5078 0.206278 75.9581 0.729763 75.8498Z" fill="#D7D1CF"/>
<path d="M0.108965 78.1417L3.35537 77.3193C6.40438 76.5313 8.88034 75.8368 10.7841 75.2366L11.3975 75.04C15.3348 73.7552 18.0318 73.2002 19.9802 73.1438C21.9283 73.0871 24.1425 74.4142 25.0736 74.9748C25.5815 75.2805 26.4507 76.0106 27.6811 77.1651L28.2797 77.7341L19.1858 81.0009C17.5662 81.6035 5.25791 85.0021 4.1438 85.1768C3.0297 85.3514 2.24446 84.9918 2.0003 84.4839L1.71259 83.7809C1.16992 82.3895 0.114958 79.486 0.0218498 78.7191C-0.0137153 78.4314 0.0314413 78.2552 0.108965 78.1417Z" fill="#D0CDCC"/>
<path d="M0.109083 78.1419L3.35549 77.3195L6.21349 76.5626C7.99174 76.0791 9.51504 75.6371 10.7842 75.2367L12.7527 74.6117C12.97 74.5454 13.183 74.4815 13.392 74.4199L17.0217 81.6752L14.3335 82.4492C10.182 83.6257 4.85762 85.0655 4.14272 85.1774C3.02861 85.352 2.24338 84.9923 1.99922 84.4844L1.7119 83.7815L1.23198 82.5116C0.7021 81.0722 0.0910941 79.2951 0.0211628 78.7197C-0.013603 78.4316 0.0315592 78.2554 0.109083 78.1419Z" fill="#CDCAC8"/>
<path d="M0.109083 78.1419L3.35549 77.3195L5.34114 76.798C5.65722 76.7133 5.96612 76.6302 6.26782 76.5479L6.89281 78.3721C7.70681 80.6866 8.44249 82.5312 9.09984 83.9062L5.85344 84.7674C4.9767 84.9935 4.35611 85.1442 4.14312 85.1774C3.02901 85.352 2.24378 84.9923 1.99962 84.4844L1.7119 83.7815L1.23198 82.5116C0.702099 81.0722 0.0910941 79.2951 0.0211628 78.7197C-0.013603 78.4316 0.0315592 78.2554 0.109083 78.1419Z" fill="#C5C2C0"/>
<path d="M0.108902 78.1417L1.58905 77.7665L2.13092 79.1807C3.35451 82.31 4.29519 84.2489 4.95335 84.997L4.14334 85.1772C3.02923 85.3519 2.244 84.9922 1.99984 84.4843L1.71213 83.7814L1.23219 82.5114C0.702315 81.0721 0.091315 79.295 0.0213836 78.7196C-0.0137818 78.4315 0.0313776 78.2552 0.108902 78.1417Z" fill="#BEB9B6"/>
<path d="M95.7939 31.4771C96.2267 31.4039 97.1398 32.8361 97.362 33.2805L97.499 33.6106C97.9774 34.835 99.3856 38.8115 99.8104 39.9951C100.292 41.3362 99.9027 43.2004 98.0561 44.1342L76.383 54.9808C72.2451 57.0516 68.7477 58.4458 64.4703 60.5865L62.2425 61.7258C59.8964 62.9454 57.2674 64.362 54.9996 65.5732C55.6082 63.311 51.7336 61.2546 43.3806 59.4025L48.0057 57.2546C51.8175 55.4759 55.5694 53.6941 59.6067 51.6768L61.2487 50.8461C69.7028 46.5207 81.5883 39.7709 86.149 37.3489L88.4807 36.1261C92.0444 34.2164 95.5657 32.0825 95.6732 31.9806C95.7963 31.8635 95.3611 31.5502 95.7939 31.4771Z" fill="#D8D2D0"/>
<path d="M95.7945 31.4771C96.2273 31.4039 97.1404 32.8361 97.3626 33.2805L97.4996 33.6106L98.2169 35.5471C98.8076 37.1759 99.5276 39.2059 99.811 39.9951C100.292 41.3362 99.9033 43.2003 98.0567 44.1342L76.3836 54.9807C74.9006 55.7228 73.5 56.3782 72.1162 57.0119C68.7179 57.6841 66.2256 55.3684 62.8709 53.8407L62.2315 53.5645C60.671 52.9284 60.6203 51.9142 61.6293 50.6526L64.9149 48.9355C72.8427 44.7408 82.2175 39.4364 86.1496 37.3485L88.4813 36.1257L90.4006 35.0751C93.2127 33.5071 95.5855 32.0633 95.6738 31.9802C95.7969 31.8635 95.3617 31.5502 95.7945 31.4771Z" fill="#CCC7C5"/>
<path d="M95.7948 31.4771C96.2276 31.4039 97.1407 32.8361 97.3629 33.2805L97.4999 33.6106L98.2172 35.5471C98.8078 37.1759 99.5279 39.2058 99.8112 39.9951C100.293 41.3362 99.9036 43.2003 98.057 44.1342L86.2702 50.0328C83.3898 47.8569 80.8063 45.0233 78.5198 41.5316L83.5253 38.7703C84.551 38.208 85.439 37.7257 86.1495 37.3485L88.4812 36.1257L90.4005 35.0751L91.8379 34.2635C93.9786 33.0399 95.601 32.0489 95.6737 31.9802C95.7972 31.8635 95.362 31.5502 95.7948 31.4771Z" fill="#C6C1C0"/>
<path d="M95.7944 31.4771C96.2272 31.4039 97.1403 32.8361 97.3625 33.2805L97.4996 33.6106L98.2169 35.5471C98.8075 37.1759 99.5276 39.2059 99.8109 39.9951C100.292 41.3362 99.9032 43.2003 98.0566 44.1342L94.055 46.1371C94.7559 45.4933 95.2318 44.931 95.4824 44.4499C96.3947 42.6988 94.9397 38.5773 94.7051 36.3123C94.5848 35.1514 93.1634 34.7303 90.4409 35.0492L91.8375 34.2631C93.9782 33.0395 95.6006 32.0485 95.6734 31.9798C95.7968 31.8635 95.3617 31.5502 95.7944 31.4771Z" fill="#C1BCBB"/>
<path d="M9.18592 73.8655L10.0431 73.597C14.2462 72.2391 23.0163 68.8904 32.0079 64.6997L37.1576 62.2841C45.2069 58.5318 51.8851 55.5347 59.6072 51.6765L61.2491 50.8457C69.7032 46.5204 81.5887 39.7706 86.1495 37.3486L88.4812 36.1258C92.0449 34.2161 95.5662 32.0822 95.6737 31.9803C95.7968 31.864 95.3616 31.5507 95.7944 31.4776C96.2272 31.4044 97.1403 32.8366 97.3624 33.281L97.4971 33.6047C96.9189 33.0772 96.3183 32.0566 96.182 32.0438C95.9618 32.0226 95.9135 32.1521 95.8128 32.2392L95.5622 32.435C94.4345 33.2574 91.0219 35.2259 85.7862 38.0259L54.3971 54.4989L50.2076 56.6452C45.5698 58.9322 30.891 65.8566 22.0721 69.5094L20.3386 70.2127C12.589 73.2925 5.63102 75.203 3.41479 75.3173L4.89774 74.9908C6.21564 74.6875 7.71137 74.3103 9.18592 73.8655Z" fill="#D1EFA4"/>
<path d="M0.59193 77.8138C1.08145 77.5956 5.23457 76.8156 9.18069 75.5768L12.6197 74.4703C16.022 73.4129 19.5305 72.5198 21.3827 73.0405C23.5262 73.6427 24.9604 74.5326 26.0805 75.4297L27.9682 77.0026C28.1776 77.1728 28.2999 77.2699 28.3359 77.2959L28.4258 77.2831C29.1755 77.1045 34.4866 75.2779 41.3667 72.491L39.3399 73.5072L38.7417 73.7813C36.7824 74.6297 32.0414 76.3752 27.7025 77.9433L19.1853 81.0015C17.5657 81.6041 5.25735 85.0027 4.14325 85.1774L3.91587 85.2017L4.46732 85.0735C11.528 83.3843 19.3207 80.874 27.8452 77.5416C27.4799 77.0517 24.4289 74.3388 22.0485 73.7562L21.0359 73.5076C19.4486 73.1412 18.1519 73.0844 13.946 74.3927L10.5418 75.4849C5.18342 77.1516 0.854872 78.1203 0.524796 78.2689C0.4189 78.3165 0.309405 78.4004 0.196316 78.5207L0.0224943 78.7253C0.00970685 78.6222 -0.0302588 78.3469 0.0424698 78.1926C0.115198 78.0388 0.255861 77.9784 0.396523 77.9389C0.466854 77.9161 0.529594 77.8993 0.564759 77.8709L0.59193 77.8138Z" fill="#EBEBEB"/>
<path d="M51.8754 34.6531L55.688 37.8144L60.4537 36.4657L58.6255 41.0688L61.3812 45.1848L56.4381 44.8683L53.3755 48.7608L52.1491 43.962L47.5005 42.252L51.6852 39.6026L51.8754 34.6531Z" fill="#720834"/>
</svg>
