<svg width="70" height="43" viewBox="0 0 100 100" fill="none" xmlns="http://www.w3.org/2000/svg">
<path d="M1.5231 84.7139C-0.678587 81.5074 -0.331915 78.9001 2.56271 76.8919C6.90505 73.8794 19.7776 65.9532 25.5548 55.8677C31.332 45.7822 37.764 35.0287 37.7964 28.6619C37.8283 22.2952 36.1527 9.71985 38.1642 8.49383C40.1762 7.26781 45.7881 8.58143 47.377 9.65965C48.9655 10.7379 50.693 11.5039 55.0437 11.4993C59.3943 11.4947 63.253 13.0263 66.0704 11.7459C68.8878 10.4655 71.4773 9.53427 72.1644 10.3854C72.6223 10.9525 76.2153 15.1097 82.9432 22.8569C85.0602 24.3416 87.4317 27.4164 90.0573 32.0805C92.6829 36.745 94.1954 39.5147 94.5944 40.3903C95.5015 40.6759 95.5821 41.089 94.836 41.6292C93.7171 42.4392 70.9242 54.6691 60.6154 60.3803C50.3065 66.0915 41.6679 72.7858 28.0783 78.3176C14.4887 83.8494 5.83223 85.1411 3.93819 85.7593C2.67564 86.1711 1.87061 85.8228 1.5231 84.7139Z" fill="#EEEEE1"/>
<path d="M47.3769 9.65968C48.0922 10.145 48.8354 10.5673 49.8339 10.8845C50.049 11.4786 50.1748 12.1524 50.2121 12.9051C47.6318 21.6371 46.3012 26.9174 46.219 28.7458C46.0961 31.4885 41.3361 37.0618 39.9876 41.3079C38.6391 45.5539 28.3078 60.1549 27.428 60.5775C26.5478 60.9993 24.2544 60.5576 23.2227 59.8028C23.1517 59.7509 23.0873 59.6882 23.03 59.6164C23.9671 58.4045 24.8186 57.1539 25.5551 55.8686C31.3323 45.7831 37.7643 35.0295 37.7967 28.6628C37.8286 22.296 36.153 9.72071 38.1645 8.49469C40.176 7.26743 45.788 8.58146 47.3769 9.65968Z" fill="#FAF8DE"/>
<path d="M41.3964 8.02837L41.4716 8.11847C41.6098 8.30364 41.6447 8.46057 41.4977 8.51288C41.1299 8.64325 39.2425 10.1483 39.1565 12.399L39.1146 13.9301C39.0834 15.5792 39.0917 16.9784 39.0108 17.3811C38.9057 17.905 39.2973 18.7084 38.8123 19.0418C38.5279 19.2374 38.0497 19.359 37.3775 19.4063L37.272 17.3906C37.0673 12.9785 37.0981 9.14229 38.1642 8.49295C38.8912 8.05037 40.0886 7.93911 41.3964 8.02837Z" fill="#DFEF25"/>
<path d="M37.7083 10.7545L37.837 16.7006C37.8444 17.1914 37.8469 17.5094 37.8407 17.5244C37.8212 17.5704 37.4998 17.8955 37.3064 18.0765L37.2723 17.3919C37.1341 14.4147 37.1033 11.6998 37.4251 10.0495C37.5513 10.2114 37.7004 10.4497 37.7083 10.7545Z" fill="#0A47AB"/>
<path d="M24.8469 58.9886C25.3036 58.7752 28.0654 53.5531 28.5184 52.8149C28.8202 52.3229 29.7631 50.6988 31.347 47.9428C33.0048 47.5596 34.0498 47.1465 34.4824 46.7039C34.915 46.2613 34.58 45.0665 33.4777 43.1189C33.9119 40.9603 34.2051 39.6496 34.3562 39.1863C34.5829 38.4917 37.1071 32.433 37.5568 33.2202C38.0064 34.0074 42.4044 32.6028 43.6221 32.0531C44.8398 31.5034 43.6105 24.6422 43.0737 24.0672C42.7158 23.684 40.9301 23.4677 37.7166 23.4191C38.2663 22.1964 38.6832 21.5346 38.9671 21.4341C39.3931 21.2834 42.4418 20.5651 42.8059 20.8724C43.17 21.1796 47.0498 24.2544 47.3014 27.2105C47.553 30.1666 45.764 36.1061 44.4342 36.8418C43.1044 37.5775 38.6035 38.9691 38.2593 41.0139C37.9151 43.0591 38.4175 47.7199 36.4258 49.2788C34.4342 50.8378 29.1345 58.1088 27.727 59.2244C26.3188 60.3404 24.3903 59.2024 24.8469 58.9886Z" fill="black"/>
<path d="M79.0117 18.6819C79.2745 18.9966 79.2874 19.2988 79.0499 19.5894C72.8634 27.1536 66.5182 32.188 63.7847 32.1498C59.4481 32.0888 45.6979 33.2766 43.7183 31.7791C41.7387 30.2815 38.5477 11.5998 44.5532 10.4389C50.5588 9.27809 53.6689 9.47696 56.0815 9.75264C58.4941 10.0283 62.075 11.136 65.1967 9.88134C68.3188 8.62668 71.578 7.55178 72.0816 9.85809C72.4175 11.3951 74.7275 14.3366 79.0117 18.6819Z" fill="#232724"/>
<path d="M44.5533 10.4386C50.5589 9.27773 53.669 9.4766 56.0816 9.75228C58.4942 10.028 62.0751 11.1357 65.1968 9.88098C68.3189 8.62631 71.5781 7.55141 72.0817 9.85773C72.1253 10.0583 72.2029 10.2825 72.3138 10.5307C71.3991 9.98976 70.7739 9.65098 70.4359 9.51397C69.765 9.24161 65.1138 11.0539 63.0142 11.5849C60.9146 12.1159 55.1154 11.1842 52.695 10.7358C50.6299 10.3535 45.2932 10.6956 43.6055 10.8056C43.894 10.6296 44.2087 10.505 44.5533 10.4386Z" fill="#808080"/>
<path d="M47.8648 11.7721L47.9013 14.2051C48.0487 20.4813 48.5943 25.062 49.538 27.947L49.9004 28.9987C51.4362 33.2555 53.1455 35.9745 49.763 37.9864C46.1099 40.1595 45.0271 39.6135 43.6512 43.4684C42.2753 47.3234 41.234 49.4096 40.0155 50.9026C38.7969 52.3956 35.2596 55.6257 33.4764 57.8191C32.2873 59.2813 37.0258 62.9262 47.6908 68.7536C41.2635 73.0133 33.1779 77.1431 23.4341 81.1429C12.6631 85.0933 5.84341 86.1479 4.18851 86.688C2.92595 87.1003 2.12092 86.752 1.77383 85.643C-0.427855 82.4366 -0.0811825 79.8293 2.81344 77.8207L3.58318 77.2942C3.22779 77.7866 3.74925 77.7767 5.1484 77.2623L15.5972 73.2865C19.1229 71.9546 22.3812 70.7606 23.5325 70.4758C26.0128 69.8621 29.3238 73.0897 30.9226 69.7575C32.5215 66.4249 27.5306 66.0703 26.3951 64.2714L26.0298 63.6718C25.2517 62.2984 25.3796 61.4195 27.8055 57.0128C30.5623 52.0049 33.7413 48.3895 34.7875 45.9811C35.8338 43.5727 37.7909 36.6022 38.9829 35.7578C40.1749 34.9133 44.3644 34.7742 43.6661 31.8289L42.69 27.8254C41.4785 22.6979 39.878 14.8967 41.3885 13.3676C42.7461 11.9938 44.9046 11.462 47.8648 11.7721Z" fill="#094178"/>
<path d="M47.6144 10.8433L47.651 13.2763C47.7983 19.5525 48.3439 24.1332 49.2876 27.0183L49.65 28.0699C51.1858 32.3267 52.8951 35.0457 49.5126 37.0577C45.8595 39.2307 44.7767 38.6848 43.4008 42.5397C42.0249 46.3946 40.9836 48.4809 39.7651 49.9739C38.5465 51.4668 35.0092 54.6969 33.226 56.8903C32.0369 58.3526 36.7754 61.9974 47.4405 67.8248C41.0127 72.085 32.9267 76.2148 23.182 80.2146L21.0812 80.9665C11.8676 84.1833 5.91894 85.1834 4.12081 85.7028L3.93813 85.7585C3.65082 85.8523 3.38262 85.9125 3.13268 85.9386C2.81382 85.9274 2.51573 85.9029 2.23714 85.8647C1.82487 85.7381 1.49024 85.4641 1.23573 85.0456C-0.774558 81.6179 -0.331979 78.8997 2.56264 76.8915L3.62923 76.1641C3.30083 76.7063 3.84181 76.8267 5.25549 76.5249C8.83806 75.7601 20.8018 70.1602 23.2825 69.547C25.7628 68.9338 29.0738 72.161 30.6727 68.8287C32.2715 65.4961 27.2807 65.1415 26.1452 63.3426L25.7798 62.7431C25.0018 61.3697 25.1296 60.4907 27.5555 56.084C30.3123 51.0762 33.4913 47.4608 34.5376 45.0523C35.5838 42.6439 37.541 35.6735 38.7329 34.829C39.9249 33.9845 44.1145 33.8454 43.4161 30.9002L42.4401 26.8966C41.2286 21.7692 39.6281 13.968 41.1385 12.4389C42.4953 11.0646 44.6542 10.5328 47.6144 10.8433Z" fill="#2B67A0"/>
<path d="M42.8423 28.6453C42.8631 28.6324 37.8236 27.3072 37.7344 26.5399C37.6451 25.7727 36.6068 29.0177 36.8197 29.3283C37.0327 29.6388 42.4836 31.3651 43.3231 31.1293C44.1622 30.8935 42.8216 28.6582 42.8423 28.6453Z" fill="black"/>
<path d="M43.1172 71.8001C36.1289 67.3307 31.0417 64.9509 27.8565 64.6616C23.0782 64.2273 22.1191 63.9545 23.9995 60.2922C25.8798 56.6295 31.3386 46.8388 31.8368 47.1498C32.335 47.4603 37.0796 54.8335 39.4262 56.916C40.9906 58.3044 45.3259 61.3904 52.4321 66.1741L43.1172 71.8001Z" fill="#094178"/>
<path d="M43.5254 71.0894C36.5371 66.62 31.4499 64.2402 28.2647 63.9508C23.4864 63.5165 22.5273 63.2437 24.4077 59.5815C26.288 55.9188 31.7468 46.128 32.245 46.439C32.7432 46.7496 37.4879 54.1227 39.8344 56.2052C41.3988 57.5936 45.7341 60.6796 52.8403 65.4633L43.5254 71.0894Z" fill="#3174AE"/>
<path d="M77.9868 16.738C77.5226 15.9961 76.9131 14.7713 76.0711 14.5155C75.2292 14.2598 57.2636 14.308 54.0343 14.2839C50.8046 14.2598 41.7542 15.3256 40.8051 15.754C39.856 16.1825 40.0038 20.0607 40.2707 22.4741C40.5377 24.8875 39.9922 26.6055 47.67 27.8203C55.3479 29.0351 66.1558 30.5688 66.7055 30.4812C67.2552 30.3936 71.4415 28.7628 79.0891 19.3681C79.2398 18.911 78.4509 17.4795 77.9868 16.738Z" fill="#094178"/>
<path d="M77.9099 16.0517C77.4457 15.3098 76.8362 14.085 75.9942 13.8293C75.1523 13.5735 57.1867 13.6217 53.9574 13.5976C50.7277 13.5736 41.6773 14.6393 40.7282 15.0678C39.7791 15.4962 39.9269 19.3744 40.1938 21.7878C40.4608 24.2013 39.9152 25.9193 47.5931 27.1341C55.271 28.3489 66.0789 29.8826 66.6286 29.795C67.1779 29.7074 71.3646 28.0765 79.0122 18.6819C79.1633 18.2248 78.374 16.7937 77.9099 16.0517Z" fill="#2B67A0"/>
<path d="M73.5696 52.1581C72.4009 42.122 71.8483 36.8642 71.9122 36.3842C72.0081 35.6643 83.2241 22.9599 83.4869 22.8071C83.7502 22.6543 85.7584 24.1282 86.6153 25.7989C87.4718 27.4695 89.7088 30.0839 90.7119 31.6508C91.7149 33.2177 94.61 38.5402 94.5938 40.3903C93.1494 41.9377 91.8299 43.013 90.6359 43.617L73.5696 52.1581Z" fill="#2B67A0"/>
<path d="M27.0045 60.213C26.4648 61.4448 25.7378 61.5469 23.9471 61.0849C22.1569 60.6228 21.7973 60.6456 21.8663 60.0494C21.9348 59.4528 22.4346 57.0555 22.8668 57.1274C23.299 57.1992 27.5442 58.9811 27.0045 60.213Z" fill="#232724"/>
<path d="M30.9849 55.9171C30.6565 56.9057 29.7921 57.5903 28.4353 57.193C27.0785 56.7956 23.5968 57.5828 23.5204 57.4404C23.444 57.298 24.2171 55.4264 24.7086 55.1432C25.2006 54.8605 31.3133 54.9286 30.9849 55.9171Z" fill="#232724"/>
<path d="M32.6937 52.1826C32.257 53.2899 31.3473 53.9247 30.0553 53.9068C28.7632 53.8894 26.0837 54.3972 25.9766 54.0526C25.8695 53.708 26.9294 50.9034 27.203 50.9744C27.4762 51.045 33.1305 51.0753 32.6937 52.1826Z" fill="#232724"/>
<path d="M30.578 47.2415C30.0939 46.4905 29.9145 45.8656 30.0399 45.367C31.7185 41.9434 32.7307 40.1079 33.0765 39.8605C33.5955 39.4889 34.8759 39.0326 34.9436 39.2149C35.0108 39.3972 34.3611 39.7978 33.828 40.4218C33.2945 41.0458 33.0553 45.0784 33.8421 45.9237C34.6285 46.7686 31.3041 48.3679 30.578 47.2415Z" fill="#DAE4C9"/>
<path d="M29.5088 46.5217C28.938 47.0655 28.5859 48.2364 28.2508 49.0978C27.9162 49.9593 28.0329 50.2309 28.1674 50.135C28.3019 50.0391 31.023 48.3451 32.2158 48.4518C33.4086 48.5585 36.583 49.3457 37.2988 48.2953C38.0146 47.2449 35.6941 45.4808 34.0941 45.5132C32.4935 45.546 30.0797 45.9778 29.5088 46.5217Z" fill="#232724"/>
<path d="M39.9237 42.5961C39.6667 43.9388 37.5589 43.9077 35.7271 43.6864C34.5061 43.539 33.716 43.3592 33.3564 43.1471C33.4482 41.1982 33.7434 40.1611 34.2429 40.0349C34.9918 39.846 40.1807 41.2534 39.9237 42.5961Z" fill="#232724"/>
<path d="M43.0823 37.9403C42.7829 38.818 40.1304 38.8205 39.1211 38.5788C38.1118 38.3372 34.4657 39.3536 34.2519 38.9567C34.038 38.5602 35.0594 35.7515 35.6278 35.5937C36.1957 35.4364 39.8842 35.1935 41.209 35.7569C42.533 36.3207 43.3816 37.0626 43.0823 37.9403Z" fill="#232724"/>
<path d="M48.897 32.6904C48.782 33.8164 46.7617 34.1389 44.4334 33.8986C42.1051 33.6582 39.2399 33.8624 37.8831 34.4433C36.5263 35.0241 36.3221 35.7361 36.1012 35.3351C35.8803 34.934 36.5247 31.2227 37.2628 31.1032C38.001 30.9836 43.4805 30.4567 45.6445 30.6955C47.8084 30.9346 49.0115 31.5644 48.897 32.6904Z" fill="#232724"/>
<path d="M46.0707 22.443C45.7207 21.3361 44.2394 20.8649 41.7454 21.5184C39.2514 22.1719 38.0333 23.5868 37.5388 24.403C37.0447 25.2197 35.981 27.9748 36.1251 28.6922C36.221 29.1705 36.7068 29.6858 37.5824 30.2379C38.027 28.255 38.72 26.8821 39.6608 26.1181C41.072 24.9727 42.3158 24.1631 43.8013 24.0431C45.2868 23.9231 46.4207 23.5498 46.0707 22.443Z" fill="#232724"/>
<path d="M94.273 39.7219L99.5196 47.7693C100.412 49.1377 100.026 50.9707 98.6573 51.8629C98.5958 51.9032 98.5327 51.941 98.4684 51.9763C41.5578 83.3048 9.47705 96.4007 2.22597 91.2633C1.82781 90.8801 1.49982 90.2253 1.24282 89.2991C0.390045 85.8427 0.31324 84.1463 1.01157 84.2094C2.05906 84.3041 19.4069 83.2313 42.8196 68.4567C58.4282 58.6067 75.5792 49.0285 94.273 39.7219Z" fill="#094178"/>
<path d="M94.5939 40.3903L99.4843 47.7617C100.387 49.1231 100.016 50.959 98.6547 51.862C98.5871 51.9069 98.5173 51.9492 98.4459 51.9887C41.5495 83.3084 9.47619 96.3998 2.22594 91.2632C1.82779 90.88 1.49979 90.2253 1.24279 89.299C0.604251 86.2886 0.63373 84.8147 1.33247 84.8778C2.37997 84.9725 19.7278 83.8997 43.1405 69.1251C58.7491 59.2755 75.9001 49.6973 94.5939 40.3903Z" fill="#ECEBE3"/>
<path d="M0.787714 86.2085L0.72876 86.2081C7.33383 86.194 15.6287 84.0832 25.6075 79.8712C30.0328 78.0029 33.9459 76.0437 38.1977 73.6191L40.5717 72.2398L43.2135 70.6559L50.6373 66.1043C57.1215 62.1419 62.4915 59.0309 69.0994 55.5032L83.1852 48.0304L87.8472 45.5916C91.2276 43.8342 93.7697 42.5417 95.474 41.7139L95.8016 42.215L93.4172 43.3962C88.7456 45.7531 80.7315 49.9635 69.3776 56.0255C63.6058 59.1069 58.7802 61.8699 53.326 65.1631L44.4993 70.5662C42.1436 72.0044 40.2956 73.1042 38.4904 74.1335C34.2191 76.5693 30.2853 78.5393 25.8371 80.4168C16.2705 84.4548 8.22604 86.5784 1.69737 86.7839L0.825909 86.7956C0.80598 86.5817 0.793112 86.3862 0.787714 86.2085Z" fill="#B6B5A5"/>
<path d="M1.18506 89.0305C3.74339 89.9339 7.41189 90.1058 10.6694 89.4461C14.3545 88.6996 23.9065 87.0509 49.0584 75.2217C64.0679 68.1624 82.6322 58.5062 96.7711 49.9527C97.711 49.3843 98.6576 48.5797 99.6113 47.5397L99.4485 47.7086L99.4838 47.7614C100.387 49.1227 100.016 50.9587 98.6543 51.8617C98.5866 51.9065 98.5169 51.9489 98.4455 51.9883C41.5491 83.3081 9.47574 96.3995 2.22549 91.2629C1.82734 90.8797 1.49935 90.2249 1.24235 89.2987L1.18506 89.0305Z" fill="#0F1D87"/>
<path d="M44.3964 16.1584C42.624 16.1659 39.2989 16.7563 37.8333 18.7496C36.3673 20.7424 36.7638 21.9892 37.7129 23.3273C38.1443 23.2364 38.4295 23.0932 38.5694 22.8989C38.8712 21.3955 39.5293 20.4572 40.5432 20.0844C42.0644 19.5247 45.6702 19.357 46.1551 18.3855C46.6405 17.4139 46.1688 16.1514 44.3964 16.1584Z" fill="#232724"/>
<path d="M46.4009 39.0148L62.5928 56.8674" stroke="#094178" stroke-width="3" stroke-miterlimit="10"/>
<path d="M44.1174 41.2983L59.479 58.7358" stroke="#094178" stroke-width="3" stroke-miterlimit="10"/>
<path d="M49.5146 37.5617L65.7066 55.4143" stroke="#094178" stroke-width="3" stroke-miterlimit="10"/>
</svg>
